<?xml version="1.0" encoding="UTF-8" standalone="no"?>
<!-- Created with Inkscape (http://www.inkscape.org/) -->

<svg
   xmlns:dc="http://purl.org/dc/elements/1.1/"
   xmlns:cc="http://creativecommons.org/ns#"
   xmlns:rdf="http://www.w3.org/1999/02/22-rdf-syntax-ns#"
   xmlns:svg="http://www.w3.org/2000/svg"
   xmlns="http://www.w3.org/2000/svg"
   xmlns:sodipodi="http://sodipodi.sourceforge.net/DTD/sodipodi-0.dtd"
   xmlns:inkscape="http://www.inkscape.org/namespaces/inkscape"
   width="210mm"
   height="297mm"
   viewBox="0 0 210 297"
   version="1.1"
   id="svg6938"
   inkscape:version="0.92.3 (2405546, 2018-03-11)"
   sodipodi:docname="boeing787_new.svg">
  <defs
     id="defs6932" />
  <sodipodi:namedview
     id="base"
     pagecolor="#ffffff"
     bordercolor="#666666"
     borderopacity="1.0"
     inkscape:pageopacity="0.0"
     inkscape:pageshadow="2"
     inkscape:zoom="0.61660156"
     inkscape:cx="270.4988"
     inkscape:cy="560"
     inkscape:document-units="mm"
     inkscape:current-layer="layer1"
     showgrid="false"
     inkscape:window-width="960"
     inkscape:window-height="1172"
     inkscape:window-x="2880"
     inkscape:window-y="0"
     inkscape:window-maximized="0" />
  <metadata
     id="metadata6935">
    <rdf:RDF>
      <cc:Work
         rdf:about="">
        <dc:format>image/svg+xml</dc:format>
        <dc:type
           rdf:resource="http://purl.org/dc/dcmitype/StillImage" />
        <dc:title></dc:title>
      </cc:Work>
    </rdf:RDF>
  </metadata>
  <g
     inkscape:label="Edge.Cuts"
     inkscape:groupmode="layer"
     id="layer1">
    <path
       style="display:inline;fill:none;stroke:#000000;stroke-width:0.27338144;stroke-opacity:1"
       d="m 123.9794,68.524465 -0.1819,0.0041 -0.43635,0.07472 -0.43567,0.167121 -0.43357,0.260239 -0.43002,0.354074 -0.42504,0.448624 -0.41863,0.543894 -0.41077,0.639876 -0.40148,0.736579 -0.46546,0.991494 -0.42944,1.06389 -0.39468,1.146114 -0.36117,1.238157 -0.3289,1.340033 -0.29788,1.451726 -0.26812,1.573247 -0.23961,1.704594 -0.21234,1.845768 -0.18633,1.99676 -0.29961,4.485814 -0.21056,5.20769 -0.13151,6.008181 -0.1788,12.06748 -4.98264,3.99355 -3.25561,2.58279 h -1.97249 -4.778 -5.075148 l 0.02225,2.89496 0.06835,0.99118 0.117478,0.74831 0.174831,0.5514 0.240409,0.40049 0.314214,0.29555 0.396248,0.2366 0.72064,0.44706 0.269454,0.22579 0.158671,0.18963 -0.02297,0.0956 -0.135512,0.17954 -0.635502,0.63335 -1.166236,1.03645 -1.750669,1.48445 -5.469464,4.49253 -8.45165,6.82342 -7.058414,5.70957 -6.02158,4.93624 -4.346274,3.63505 -1.345374,1.16463 -0.687118,0.64139 -1.005231,1.1439 -0.89394,1.14083 -0.782235,1.13699 -0.670113,1.13243 -0.557586,1.1271 -0.44464,1.12104 -0.331284,1.11424 -0.217514,1.10669 -0.05939,0.55567 -5.3e-4,0.43544 0.05747,0.30446 0.114591,0.16273 0.09933,-5.3e-4 0.169215,-0.0726 0.511373,-0.33491 0.680813,-0.54263 0.776859,-0.69628 0.824018,-0.73975 0.913723,-0.75229 0.985221,-0.75231 1.038513,-0.73977 1.073592,-0.7147 1.090469,-0.67709 1.089134,-0.62694 1.069591,-0.56425 3.334755,-1.56589 5.82629,-2.63358 7.420066,-3.29919 8.116091,-3.56268 9.182906,-4.00389 h 7.54114 7.54114 l 0.11162,13.05398 0.11817,8.50554 0.10152,3.13819 0.14799,2.65058 0.2081,2.35456 0.28183,2.25013 0.36922,2.33728 0.47022,2.61601 0.63718,3.41736 -1.68052,1.73013 -3.13621,3.07688 -5.1806,4.96811 -2.58585,2.49661 -2.13479,2.12957 -1.46222,1.5368 -0.40968,0.47555 -0.15847,0.2427 -0.13108,1.06271 -0.15417,1.75934 -0.0536,0.95168 -5.3e-4,0.70862 0.0516,0.44226 0.045,0.11397 0.0576,0.0386 0.7531,-0.2804 1.85054,-0.76349 5.88008,-2.5099 4.0054,-1.7087 2.71866,-1.09321 1.70287,-0.58018 0.55518,-0.12973 0.40285,-0.0399 1.1715,0.002 0.60823,2.18385 0.29396,1.00785 0.26991,0.80389 0.26119,0.62135 0.26776,0.46028 0.28964,0.32065 0.32684,0.20248 0.37933,0.10576 0.44714,0.0305 0.44713,-0.0305 0.37933,-0.10571 0.32684,-0.20241 0.28965,-0.32058 0.26776,-0.46019 0.26118,-0.62127 0.26992,-0.80381 0.29395,-1.0078 0.60823,-2.18436 1.1715,-0.002 0.40285,0.04 0.55519,0.12978 1.70287,0.58017 2.71865,1.09311 4.0054,1.70864 5.88008,2.51016 1.85054,0.76366 0.7531,0.28049 0.0423,-0.0405 0.0337,-0.11602 0.0429,-0.42549 -0.004,-1.39318 -0.10775,-1.67501 -0.19223,-1.42752 -0.15848,-0.2427 -0.40967,-0.47555 -1.46223,-1.5368 -2.13478,-2.12957 -2.58585,-2.49661 -5.18197,-4.96811 -3.13949,-3.07688 -1.68517,-1.73013 0.37776,-1.77663 0.52412,-2.67777 0.43455,-2.71299 0.35112,-2.83015 0.27386,-3.02925 0.20277,-3.31028 0.13785,-3.67324 0.0791,-4.11814 0.0265,-4.64498 0.005,-11.5502 h 7.56181 7.56233 l 9.18238,4.00389 8.11618,3.56268 7.42024,3.29919 5.82647,2.63358 3.33484,1.56589 1.06956,0.56425 1.08908,0.62694 1.09038,0.67709 1.0735,0.7147 1.03842,0.73977 0.98514,0.75231 0.91366,0.75229 0.824,0.73975 0.77694,0.69627 0.68099,0.54263 0.51155,0.3349 0.16927,0.0727 0.0994,5.3e-4 0.1145,-0.16274 0.0573,-0.30446 -7.9e-4,-0.43544 -0.0595,-0.55567 -0.21753,-1.10692 -0.33125,-1.1144 -0.44461,-1.12116 -0.55761,-1.12726 -0.67024,-1.13265 -0.7825,-1.13735 -0.89441,-1.14137 -1.00595,-1.1447 -0.68751,-0.64188 -1.34562,-1.1651 -4.34632,-3.63587 -6.02104,-4.93681 -7.05723,-5.70979 -8.42255,-6.80147 -5.4715,-4.49486 -1.7577,-1.49 -1.17425,-1.04239 -0.64225,-0.63781 -0.1377,-0.18063 -0.024,-0.0956 0.15819,-0.18865 0.26914,-0.22497 0.7204,-0.44627 0.39624,-0.2366 0.31421,-0.29555 0.24041,-0.40048 0.17483,-0.5514 0.11748,-0.7483 0.0683,-0.99119 0.0223,-2.89497 h -7.87807 -1.93787 -2.06137 l -3.14245,-2.51561 -5.1697,-4.13825 -0.006,-9.29452 -0.0361,-4.931171 -0.10356,-4.47312 -0.17371,-4.04839 -0.24663,-3.656989 -0.32217,-3.298875 -0.40051,-2.974094 -0.48156,-2.682632 -0.56535,-2.424483 -0.50616,-1.717289 -0.55211,-1.500092 -0.59202,-1.27989 -0.62587,-1.056677 -0.32373,-0.443698 -0.32993,-0.386766 -0.33537,-0.329462 -0.34005,-0.271777 -0.34397,-0.213722 -0.34714,-0.155287 -0.34955,-0.09648 -0.35121,-0.03729 v 6e-6"
       id="path1392"
       inkscape:connector-curvature="0"
       inkscape:label="outline" />
  </g>
</svg>
