<?xml version="1.0" encoding="UTF-8" standalone="no"?>
<!-- Created with Inkscape (http://www.inkscape.org/) -->

<svg
   xmlns:dc="http://purl.org/dc/elements/1.1/"
   xmlns:cc="http://creativecommons.org/ns#"
   xmlns:rdf="http://www.w3.org/1999/02/22-rdf-syntax-ns#"
   xmlns:svg="http://www.w3.org/2000/svg"
   xmlns="http://www.w3.org/2000/svg"
   xmlns:sodipodi="http://sodipodi.sourceforge.net/DTD/sodipodi-0.dtd"
   xmlns:inkscape="http://www.inkscape.org/namespaces/inkscape"
   width="210mm"
   height="297mm"
   viewBox="0 0 210 297"
   version="1.1"
   id="svg8"
   sodipodi:docname="boeing787.svg"
   inkscape:version="0.92.3 (2405546, 2018-03-11)"
   inkscape:label="Mask">
  <sodipodi:namedview
     id="base"
     pagecolor="#ffffff"
     bordercolor="#666666"
     borderopacity="1.0"
     inkscape:pageopacity="0.0"
     inkscape:pageshadow="2"
     inkscape:zoom="11.313708"
     inkscape:cx="386.80294"
     inkscape:cy="787.29851"
     inkscape:document-units="mm"
     inkscape:current-layer="layer5"
     showgrid="false"
     inkscape:measure-start="171.504,438.971"
     inkscape:measure-end="152.532,454.114"
     showguides="true"
     inkscape:guide-bbox="true"
     inkscape:window-width="1853"
     inkscape:window-height="1145"
     inkscape:window-x="1987"
     inkscape:window-y="27"
     inkscape:window-maximized="1"
     inkscape:snap-others="false"
     inkscape:snap-global="false">
    <sodipodi:guide
       position="102.45066,78.579175"
       orientation="1,0"
       id="guide1965"
       inkscape:locked="false" />
    <sodipodi:guide
       position="108.57093,216.57436"
       orientation="1,0"
       id="guide1967"
       inkscape:locked="false" />
    <sodipodi:guide
       position="105.37478,85.437574"
       orientation="0,1"
       id="guide1969"
       inkscape:locked="false" />
    <sodipodi:guide
       position="74.718197,164.40888"
       orientation="0,1"
       id="guide817"
       inkscape:locked="false" />
    <sodipodi:guide
       position="98.001138,209.12586"
       orientation="0,1"
       id="guide855"
       inkscape:locked="false" />
    <sodipodi:guide
       position="101.08695,211.60869"
       orientation="0,1"
       id="guide857"
       inkscape:locked="false" />
    <sodipodi:guide
       position="63.604008,127.00738"
       orientation="0,1"
       id="guide864"
       inkscape:locked="false" />
    <sodipodi:guide
       position="62.249666,160.11356"
       orientation="0,1"
       id="guide866"
       inkscape:locked="false" />
    <sodipodi:guide
       position="66.212375,155.69941"
       orientation="0,1"
       id="guide868"
       inkscape:locked="false" />
    <sodipodi:guide
       position="44.843836,125.80352"
       orientation="0,1"
       id="guide870"
       inkscape:locked="false" />
    <sodipodi:guide
       position="36.105133,217.61326"
       orientation="0,1"
       id="guide892"
       inkscape:locked="false" />
    <sodipodi:guide
       position="155.71874,121.76272"
       orientation="0,1"
       id="guide894"
       inkscape:locked="false" />
  </sodipodi:namedview>
  <defs
     id="defs2" />
  <metadata
     id="metadata5">
    <rdf:RDF>
      <cc:Work
         rdf:about="">
        <dc:format>image/svg+xml</dc:format>
        <dc:type
           rdf:resource="http://purl.org/dc/dcmitype/StillImage" />
        <dc:title />
      </cc:Work>
    </rdf:RDF>
  </metadata>
  <g
     inkscape:groupmode="layer"
     id="layer5"
     inkscape:label="Cu"
     style="display:inline">
    <path
       style="display:inline;fill:#000000;fill-opacity:1;stroke:none;stroke-width:0.40532485;stroke-miterlimit:4;stroke-dasharray:none;stroke-opacity:1"
       d="m 104.05791,86.949626 h 3 v 65.173464 h -3 z"
       id="rect4673"
       inkscape:connector-curvature="0" />
    <path
       style="display:inline;fill:#000000;fill-opacity:1;stroke:none;stroke-width:0.40532389;stroke-miterlimit:4;stroke-dasharray:none;stroke-opacity:1"
       d="m 104.11815,153.11679 h 3 v 65.17347 h -3 z"
       id="rect4673-5"
       inkscape:connector-curvature="0" />
    <path
       style="display:inline;fill:#000000;fill-opacity:1;stroke:none;stroke-width:1.031811;stroke-miterlimit:4;stroke-dasharray:none;stroke-opacity:1"
       d="m 558.60352,581.68164 v 49.98047 l 19.93164,8.86133 22.02148,9.95508 12.60352,5.91796 4.04296,2.13282 4.11524,2.36914 4.12109,2.55859 4.05664,2.70117 3.92579,2.79688 3.72265,2.84375 3.45313,2.84179 3.11523,2.79688 2.93555,2.63086 2.57422,2.05078 1.93359,1.26563 0.64063,0.27539 0.375,0.002 0.43164,-0.61523 0.21679,-1.1504 -0.002,-1.64648 -0.22461,-2.09961 -0.82227,-4.18359 -1.25195,-4.21289 -1.68164,-4.23633 -2.10742,-4.25977 -2.5332,-4.28125 -2.95704,-4.29883 -3.38085,-4.31445 -3.80079,-4.32617 -2.59961,-2.42578 -5.08593,-4.4043 -16.42578,-13.74219 -22.75782,-18.6582 -26.67187,-21.58008 -1.91401,-1.54497 m 76.56054,77.14258 3.16406,3.77148 -2.01171,1.6875 -3.16407,-3.77148 2.01172,-1.6875"
       transform="scale(0.26458333)"
       id="path1852"
       inkscape:connector-curvature="0"
       inkscape:label="rightWing"
       sodipodi:insensitive="true" />
    <path
       style="display:inline;fill:#000000;fill-opacity:1;stroke:none;stroke-width:1.031811;stroke-miterlimit:4;stroke-dasharray:none;stroke-opacity:1"
       d="m 238.87305,582.25586 -1.91407,1.54492 -26.67187,21.58008 -22.75781,18.6582 -16.42578,13.74219 -5.08594,4.4043 -2.59961,2.42578 -3.80078,4.32617 -3.38086,4.31445 -2.95703,4.29883 -2.53321,4.28125 -2.10742,4.25977 -1.68164,4.23632 -1.25195,4.2129 -0.82227,4.18359 -0.22461,2.09961 -0.002,1.64648 0.2168,1.15039 0.43164,0.61524 0.375,-0.002 0.64062,-0.2754 1.9336,-1.26562 2.57421,-2.05078 2.93555,-2.63086 3.11524,-2.79688 3.45312,-2.84179 3.72266,-2.84375 3.92578,-2.79688 4.05664,-2.70117 4.12109,-2.55859 4.11524,-2.36914 4.04297,-2.13282 12.60351,-5.91797 22.02149,-9.95507 19.93164,-8.86133 5e-5,-49.98042 m -77.33789,77.72852 2.01172,1.6875 -3.16407,3.77148 -2.01172,-1.68945 3.16407,-3.76953"
       transform="scale(0.26458333)"
       id="path1858"
       inkscape:connector-curvature="0"
       inkscape:label="leftWing"
       sodipodi:insensitive="true" />
    <path
       style="display:inline;opacity:1;fill:#000000;fill-opacity:1;stroke:none;stroke-width:0.27985227;stroke-miterlimit:4;stroke-dasharray:none;stroke-opacity:1"
       d="m 116.29783,143.12335 h 9.4561 v 11.11399 h -9.4561 z"
       id="rect899"
       inkscape:connector-curvature="0"
       sodipodi:insensitive="true" />
    <path
       style="display:inline;opacity:1;fill:#000000;fill-opacity:1;stroke:#000000;stroke-width:0;stroke-miterlimit:4;stroke-dasharray:none;stroke-opacity:1"
       d="m 399.14648,304.85938 c -0.65667,0.0199 -2.24023,0.3125 -2.24023,0.3125 l -1.64648,0.63085 -1.63868,0.98438 -1.62695,1.33789 -1.60547,1.69531 -1.58203,2.05469 -1.55273,2.41992 -1.51758,2.7832 -1.75977,3.74805 -1.62304,4.01953 -1.49024,4.33203 -1.36523,4.67969 -0.41993,1.70703 h 39.60743 l -0.55664,-2.38867 -1.91407,-6.49023 -2.08593,-5.66993 -2.23829,-4.83789 -2.36523,-3.99414 -1.22266,-1.67578 -1.24804,-1.46289 -1.26758,-1.24414 -1.28516,-1.02734 -1.30078,-0.8086 -1.31055,-0.58593 -1.32226,-0.36524 z m -0.46289,10.10351 3.78907,0.73828 3.23046,1.89649 2.63672,2.52343 2.00782,2.61719 1.40429,2.86524 0.91016,3.07031 0.63477,3.44922 h -2.94922 l -0.32813,-1.45313 -1.51562,-3.20312 -1.45703,-1.7168 -2.05469,-1.50586 -2.75391,-1.07422 -3.55469,-0.43164 -3.54492,0.37695 -2.73242,1.05079 -2.02344,1.5 -1.42187,1.72851 -1.44922,3.24805 -0.29688,1.48047 h -3.00976 c -0.0841,-0.77682 0.42209,-2.33987 0.63281,-3.50977 l 0.92578,-3.07812 2.86524,-5.09375 3.16406,-2.76172 3.14453,-1.9336 z"
       transform="scale(0.26458333)"
       id="rect963"
       inkscape:connector-curvature="0" />
  </g>
  <g
     inkscape:groupmode="layer"
     id="layer3"
     inkscape:label="Mask"
     style="display:none">
    <path
       inkscape:connector-curvature="0"
       id="path2669"
       d="m 124.7599,143.50984 -0.19322,0.0226 -0.22248,0.066 -0.24967,0.10828 -0.27478,0.14952 -0.29782,0.18971 -0.31879,0.22888 -0.33769,0.26698 -0.35452,0.30407 -0.22362,0.1988 -0.23532,-0.0791 -0.28574,-0.0854 -0.26934,-0.0542 -0.2899,-0.0283 -0.3474,-0.008 -0.43347,0.0125 -0.32335,0.0502 -0.27353,0.0689 -0.26425,0.0864 -0.25443,0.10332 -0.2441,0.11978 -0.23325,0.1357 -0.22187,0.15114 -0.20998,0.16606 -0.19757,0.18048 -0.18463,0.19438 -0.17119,0.20776 -0.15721,0.22065 -0.14272,0.23302 -0.12772,0.24489 -0.11218,0.25623 -0.0961,0.26708 -0.0796,0.27741 -0.042,0.18126 -0.0229,0.1644 -0.0119,0.54947 0.0108,0.55017 0.0229,0.16341 0.0425,0.18155 0.0825,0.28356 0.10233,0.2838 0.11597,0.26849 0.12346,0.23763 0.12558,0.21798 -0.11537,0.20944 -0.31336,0.62078 -0.27573,0.62543 -0.12169,0.32815 -0.0775,0.26615 -0.041,0.23706 -0.0122,0.24087 0.0101,0.22037 0.0358,0.15707 0.0685,0.11171 0.10811,0.0843 0.1225,0.0497 0.17393,0.002 0.15853,-0.0267 0.17667,-0.061 0.19396,-0.0949 0.21036,-0.12808 0.22589,-0.16076 0.24053,-0.19284 0.52152,-0.47963 0.42743,-0.42305 -0.262,0.20381 -0.59723,0.44172 -0.51233,0.33053 -0.4216,0.21591 -0.17495,0.0639 -0.15006,0.0339 -0.11108,0.003 -0.0731,-0.0476 -0.0332,-0.0395 -0.0168,-0.0459 0.003,-0.18679 0.0575,-0.31366 0.13303,-0.38696 0.2095,-0.46267 0.28689,-0.5408 0.25055,-0.44663 0.25115,0.23531 0.19342,0.17012 0.20146,0.1557 0.20888,0.1411 0.21564,0.12637 0.44907,0.20788 0.46855,0.14707 0.48297,0.0851 0.2453,0.0188 0.247,0.003 0.24806,-0.0133 0.24851,-0.0296 0.24829,-0.046 0.24746,-0.0626 0.27386,-0.0975 0.30881,-0.13957 0.30341,-0.16181 0.25771,-0.16418 0.24733,-0.202 0.2678,-0.25775 0.24847,-0.27263 0.1893,-0.24661 0.19904,-0.33625 0.1699,-0.36418 0.1361,-0.38076 0.0976,-0.38592 0.0378,-0.32082 0.0126,-0.40346 -0.0126,-0.40346 -0.0378,-0.32081 -0.0965,-0.3856 -0.13253,-0.37176 -0.16849,-0.35768 -0.20435,-0.34332 -0.21137,-0.27514 -0.27461,-0.29628 -0.2953,-0.27477 -0.27343,-0.2106 -0.24553,-0.16251 0.247,-0.23676 0.3224,-0.29561 0.31356,-0.26222 0.29718,-0.22425 0.27334,-0.18166 0.24199,-0.13451 0.20315,-0.0827 0.15682,-0.0264 0.0587,0.009 0.0443,0.0252 0.039,0.0535 0.0251,0.0765 0.009,0.21771 -0.0455,0.2965 -0.0994,0.36629 -0.0733,0.21169 -0.0428,0.0881 -0.18524,-0.19734 -0.12992,-0.14303 -0.0295,-0.0168 -0.0116,0.015 -0.10723,1.46315 0.58076,-0.48251 0.57658,-0.48709 -0.13559,-0.0181 -0.26639,-0.0207 -0.0925,-0.008 -0.0385,-0.0147 0.12474,-0.31562 0.0985,-0.25299 0.0717,-0.22868 0.0449,-0.20445 0.0181,-0.18036 -0.009,-0.15634 -0.0356,-0.13245 -0.0625,-0.10864 -0.0893,-0.085 -0.12226,-0.057 -0.1506,-0.0185 v 0 m -3.31911,1.94398 0.078,0.0196 0.1575,0.0355 0.0795,0.0351 -0.0655,0.081 -0.0653,0.0614 -0.0922,-0.11619 -0.092,-0.1162 m -1.19635,0.0159 0.007,0.0147 -0.0259,0.0461 -0.17604,0.23549 -0.30898,0.43283 -0.27397,0.43852 -0.22698,0.42361 -0.16801,0.38806 -0.14236,0.49398 -0.0494,0.24174 -0.0191,0.17026 v 0.0853 h -0.60162 -0.60161 l 0.0226,-0.18816 0.0747,-0.39923 0.12502,-0.38567 0.1717,-0.36695 0.21467,-0.34305 0.25396,-0.314 0.28958,-0.27979 0.32151,-0.24041 0.34976,-0.19585 0.35859,-0.14233 0.35379,-0.10696 0.0509,-0.008 v 0 m 0.83255,0.21362 0.12745,0.15165 0.11703,0.15187 -0.10681,0.12119 -0.12745,0.12412 -0.0146,-0.0792 -0.006,-0.19404 0.0104,-0.27556 v 0 m -0.42618,0.0138 8.7e-4,0.51755 8.7e-4,0.51755 -0.10556,0.11661 -0.42577,0.50437 -0.51462,0.64588 -0.30448,0.38373 -0.0196,0.0127 -0.006,-0.0121 0.0106,-0.0811 0.0726,-0.34244 0.11605,-0.36084 0.15543,-0.36837 0.19076,-0.36501 0.36643,-0.56641 0.3664,-0.49185 0.0957,-0.11035 m 1.62399,0.034 0.18128,0.10118 0.23957,0.15087 0.22761,0.17692 0.21329,0.2001 0.19662,0.22039 0.17758,0.23776 0.15618,0.25227 0.13243,0.26389 0.10632,0.27261 0.11048,0.42555 0.0554,0.35609 -0.0137,0.0286 -0.0722,0.0155 -0.50507,0.008 h -0.59098 l -0.0181,-0.131 -0.0707,-0.3861 -0.0966,-0.35862 -0.10193,-0.26043 -0.14977,-0.32015 -0.17114,-0.32655 -0.16605,-0.27962 -0.16647,-0.29018 0.0479,-0.0713 0.11519,-0.12395 0.16293,-0.16125 m -0.64,0.72741 0.0298,0.0122 0.03,0.0329 0.079,0.12155 0.22855,0.39377 0.19248,0.41349 0.14578,0.4074 0.0884,0.37553 0.0358,0.22488 h -0.69904 -0.69924 v -0.68881 -0.68882 l 0.24553,-0.28433 0.21475,-0.24598 0.0625,-0.0568 0.0455,-0.017 v 0 m -0.98191,1.0935 v 0.44412 0.44412 h -0.3446 l -0.34462,-0.0146 0.34462,-0.44412 0.3446,-0.42952 m 0,1.32819 v 1.37909 l -0.007,1.37825 -0.29,-0.38121 -0.38004,-0.54166 -0.16936,-0.28155 -0.15191,-0.29013 -0.12927,-0.28805 -0.10143,-0.27529 -0.10096,-0.31248 0.13559,-0.18609 0.1356,-0.18586 0.52944,-0.008 0.52922,-0.008 m 3.21064,8.1e-4 0.14525,0.0161 0.0374,0.02 0.0189,0.031 -0.003,0.10446 -0.0331,0.1767 -0.05,0.23651 -0.0663,0.22968 -0.0825,0.22257 -0.0986,0.21521 -0.11445,0.20756 -0.1302,0.19967 -0.14583,0.19149 -0.16132,0.18304 -0.29285,0.27148 -0.32861,0.23694 -0.34978,0.19311 -0.35632,0.13999 -0.31312,0.0882 -0.0926,0.0198 0.22028,-0.28537 0.25226,-0.34222 0.22237,-0.33422 0.19293,-0.32718 0.16394,-0.32108 0.13538,-0.31591 0.10728,-0.31172 0.0796,-0.30843 0.0524,-0.30612 0.0167,-0.1308 H 123.48 l 0.383,-4e-4 v 1e-5 m -6.20579,4e-4 h 0.60162 l 0.51865,0.008 0.0707,0.0163 0.0123,0.0307 -0.0915,0.17433 -0.22012,0.3426 -0.40886,0.6231 -0.0972,0.16042 -0.0749,-0.16689 -0.10362,-0.25408 -0.0831,-0.25426 -0.062,-0.25333 -0.0408,-0.25132 -0.0211,-0.17501 m 3.40882,0 h 0.69924 0.69903 l -0.0342,0.21361 -0.0529,0.2595 -0.0763,0.26243 -0.10074,0.26744 -0.12624,0.27453 -0.15278,0.2837 -0.18037,0.29492 -0.44764,0.6319 -0.21632,0.26889 -0.0108,-1.37846 v -1.37846 m -2.05747,0.8219 0.0774,0.20235 0.17026,0.38502 0.22576,0.41785 0.26854,0.42888 0.29856,0.41811 0.19964,0.26889 0.006,0.0253 -0.033,0.004 -0.23106,-0.0615 -0.43579,-0.16525 -0.4061,-0.21851 -0.36075,-0.26194 -0.15847,-0.14418 -0.14126,-0.15134 -0.13476,-0.1577 0.0628,-0.10911 0.32751,-0.49502 0.26472,-0.38592"
       style="display:inline;fill:#000000;stroke-width:0.02756962"
       inkscape:label="logo" />
    <path
       transform="matrix(-0.64278761,-0.76604445,-0.76604445,0.64278761,0,0)"
       style="display:inline;opacity:1;fill:#00ff00;fill-opacity:1;stroke:none;stroke-width:0.26499999;stroke-miterlimit:4;stroke-dasharray:none;stroke-opacity:1"
       inkscape:transform-center-x="75.461669"
       inkscape:transform-center-y="-0.086837364"
       d="m -242.85764,-16.689888 h 1.30256 v 0.694699 h -1.30256 z"
       id="rect875-3"
       inkscape:connector-curvature="0" />
    <path
       transform="rotate(-50)"
       style="display:inline;opacity:1;fill:#ff0000;fill-opacity:1;stroke:none;stroke-width:0.26499999;stroke-miterlimit:4;stroke-dasharray:none;stroke-opacity:1"
       d="m -107.59727,144.98439 h 1.30256 v 0.6947 h -1.30256 z"
       id="rect875"
       inkscape:connector-curvature="0" />
    <path
       sodipodi:nodetypes="cccccccccccccccccccccccccccc"
       inkscape:label="cockpit"
       inkscape:connector-curvature="0"
       id="path974"
       transform="matrix(-1,0,0,1,150.59107,-7.9031452)"
       d="m 48.769352,94.848675 -0.244838,-0.814372 -0.758281,-1.347885 -0.837199,-0.730567 -0.831732,-0.511313 -0.991352,-0.20729 -1.002581,0.194917 -0.854728,0.501921 -0.697525,0.667804 -0.530976,0.692566 -0.372006,0.758015 -0.240452,0.812353 -0.167872,0.912462 h 0.78033 l 0.08651,-0.384433 0.401331,-0.847624 0.385196,-0.454224 0.543668,-0.398079 0.728729,-0.284621 0.940378,-0.113849 0.938163,0.09952 0.722908,0.277895 0.535444,0.397203 0.37577,0.45744 0.383686,0.85932 0.07849,0.391451 h 0.796198 c 0.02224,-0.205532 -0.111506,-0.619073 -0.167259,-0.92861 z"
       style="display:inline;fill:#000000;fill-opacity:1;stroke:#000000;stroke-width:0.26458332px;stroke-linecap:butt;stroke-linejoin:miter;stroke-opacity:1" />
  </g>
  <g
     inkscape:groupmode="layer"
     id="layer2"
     inkscape:label="SilkS"
     style="display:inline">
    <path
       style="display:inline;fill:#000000;fill-opacity:1;stroke:#000000;stroke-width:0.26499999;stroke-linecap:butt;stroke-linejoin:miter;stroke-miterlimit:4;stroke-dasharray:none;stroke-opacity:1"
       d="m 113.21738,156.43593 h -1.84439 l -0.0355,3.51144 1.91533,0.0355"
       id="path7621"
       inkscape:connector-curvature="0" />
    <path
       style="display:inline;fill:#000000;fill-opacity:1;stroke:#000000;stroke-width:0.26499999;stroke-linecap:butt;stroke-linejoin:miter;stroke-miterlimit:4;stroke-dasharray:none;stroke-opacity:1"
       d="m 97.823794,156.40046 h 2.057207 l -0.02828,3.51623 -1.993458,-0.005"
       id="path7619"
       inkscape:connector-curvature="0"
       sodipodi:nodetypes="cccc" />
    <path
       style="display:inline;fill:#000000;fill-opacity:1;stroke:#000000;stroke-width:0.26499999;stroke-linecap:butt;stroke-linejoin:miter;stroke-miterlimit:4;stroke-dasharray:none;stroke-opacity:1"
       d="m 112.89816,183.99543 -1.45423,-0.0177 v 3.61785 l 1.17048,0.0709"
       id="path7617"
       inkscape:connector-curvature="0" />
    <path
       style="display:inline;fill:#000000;fill-opacity:1;stroke:#000000;stroke-width:0.26499999;stroke-linecap:butt;stroke-linejoin:miter;stroke-miterlimit:4;stroke-dasharray:none;stroke-opacity:1"
       d="m 98.213954,183.94222 1.755722,0.0355 0.01773,3.68879 -1.525169,0.0355"
       id="path7615"
       inkscape:connector-curvature="0" />
    <path
       style="display:inline;fill:#000000;fill-opacity:1;stroke:#000000;stroke-width:0.26499999;stroke-linecap:butt;stroke-linejoin:miter;stroke-miterlimit:4;stroke-dasharray:none;stroke-opacity:1"
       d="m 112.93724,115.06645 h -1.80579 l -0.0502,3.53634 h 1.83087"
       id="path7613"
       inkscape:connector-curvature="0" />
    <path
       style="display:inline;fill:#000000;fill-opacity:1;stroke:#000000;stroke-width:0.26499999;stroke-linecap:butt;stroke-linejoin:miter;stroke-miterlimit:4;stroke-dasharray:none;stroke-opacity:1"
       d="m 98.164863,114.94104 1.881037,-0.0251 v 3.76207 l -1.906117,-0.0251"
       id="path7611"
       inkscape:connector-curvature="0" />
    <path
       style="display:inline;fill:#000000;fill-opacity:1;stroke:#000000;stroke-width:0.3122198;stroke-linecap:butt;stroke-linejoin:miter;stroke-miterlimit:4;stroke-dasharray:none;stroke-opacity:1"
       d="m 111.54919,92.795872 -1.22821,0.331444 0.58725,3.262124 1.19515,-0.04968"
       id="path7609"
       inkscape:connector-curvature="0"
       sodipodi:nodetypes="cccc" />
    <path
       style="display:inline;fill:#000000;fill-opacity:1;stroke:#000000;stroke-width:0.29458335;stroke-linecap:butt;stroke-linejoin:miter;stroke-miterlimit:4;stroke-dasharray:none;stroke-opacity:1"
       d="m 99.618298,92.605317 1.059962,0.398934 -0.3741,3.291203 -1.247022,-0.0748"
       id="path4614"
       inkscape:connector-curvature="0" />
    <path
       style="display:inline;fill:none;stroke:#000000;stroke-width:0.40000001;stroke-linecap:butt;stroke-linejoin:miter;stroke-miterlimit:4;stroke-dasharray:none;stroke-opacity:1"
       d="M 113.21738,158.56408 112.9691,125.96797"
       id="path7605"
       inkscape:connector-curvature="0" />
    <path
       style="color:#000000;font-style:normal;font-variant:normal;font-weight:normal;font-stretch:normal;font-size:medium;line-height:normal;font-family:sans-serif;font-variant-ligatures:normal;font-variant-position:normal;font-variant-caps:normal;font-variant-numeric:normal;font-variant-alternates:normal;font-feature-settings:normal;text-indent:0;text-align:start;text-decoration:none;text-decoration-line:none;text-decoration-style:solid;text-decoration-color:#000000;letter-spacing:normal;word-spacing:normal;text-transform:none;writing-mode:lr-tb;direction:ltr;text-orientation:mixed;dominant-baseline:auto;baseline-shift:baseline;text-anchor:start;white-space:normal;shape-padding:0;clip-rule:nonzero;display:inline;overflow:visible;visibility:visible;opacity:1;isolation:auto;mix-blend-mode:normal;color-interpolation:sRGB;color-interpolation-filters:linearRGB;solid-color:#000000;solid-opacity:1;vector-effect:none;fill:#000000;fill-opacity:1;fill-rule:nonzero;stroke:none;stroke-width:0.40000001;stroke-linecap:butt;stroke-linejoin:miter;stroke-miterlimit:4;stroke-dasharray:none;stroke-dashoffset:0;stroke-opacity:1;color-rendering:auto;image-rendering:auto;shape-rendering:auto;text-rendering:auto;enable-background:accumulate"
       d="m 97.873047,126.00195 -0.212891,32.66797 0.398438,0.002 0.21289,-32.66797 z"
       id="path4608"
       inkscape:connector-curvature="0" />
    <path
       style="display:inline;fill:none;stroke:#000000;stroke-width:0.30000001;stroke-linecap:butt;stroke-linejoin:miter;stroke-miterlimit:4;stroke-dasharray:none;stroke-opacity:1"
       d="m 109.30058,209.41908 16.8326,7.81341 0.0312,2.74069 -15.40404,-6.27595 -2.06749,-0.17924"
       id="path7601"
       inkscape:connector-curvature="0"
       sodipodi:nodetypes="ccccc" />
    <path
       style="display:inline;fill:none;stroke:#000000;stroke-width:0.30000001;stroke-linecap:butt;stroke-linejoin:miter;stroke-miterlimit:4;stroke-dasharray:none;stroke-opacity:1"
       d="m 102.45203,213.52431 c 0,-0.0564 -0.73164,0.0268 -1.43467,0.0607 -1.430711,0.0691 -16.115945,6.71191 -16.106545,6.39998 0.01881,-0.62388 -0.03859,-2.51509 -0.03859,-2.51509 l 16.954385,-8.30163"
       id="path4592"
       inkscape:connector-curvature="0"
       sodipodi:nodetypes="csscc" />
    <path
       style="display:inline;fill:none;stroke:#000000;stroke-width:1.13385832;stroke-linecap:butt;stroke-linejoin:miter;stroke-miterlimit:4;stroke-dasharray:none;stroke-opacity:1"
       d="m 379.35938,751.78711 7.86718,55.26367 z"
       transform="scale(0.26458333)"
       id="path7625"
       inkscape:connector-curvature="0" />
    <path
       style="display:inline;fill:none;stroke:#000000;stroke-width:1.13385832;stroke-linecap:butt;stroke-linejoin:miter;stroke-miterlimit:4;stroke-dasharray:none;stroke-opacity:1"
       d="m 418.88672,751.78711 -8.15234,55.26367 z"
       transform="scale(0.26458333)"
       id="path4586"
       inkscape:connector-curvature="0" />
    <path
       style="display:inline;fill:none;stroke:#000000;stroke-width:0.60000002;stroke-linecap:butt;stroke-linejoin:miter;stroke-miterlimit:4;stroke-dasharray:none;stroke-opacity:1"
       d="m 105.41418,185.41419 -0.34938,0.36943 -0.30225,1.03252 -0.47068,3.67936 -0.30486,5.20682 -0.15414,5.98434 0.0834,11.30149 0.20729,3.81727 0.29752,1.59504 0.59155,0.36346 0.49397,0.13789 0.50098,-0.11279 0.61258,-0.38856 0.29911,-1.62356 0.18822,-3.83636 0.008,-11.31391 -0.19738,-5.97898 -0.34354,-5.19459 -0.49851,-3.66092 -0.31013,-1.02117 -0.35218,-0.35678 v 0"
       id="path4581"
       inkscape:connector-curvature="0"
       sodipodi:nodetypes="zzzz"
       inkscape:label="verticalStab" />
    <path
       style="display:inline;fill:none;stroke:#000000;stroke-width:1.13385832;stroke-linecap:butt;stroke-linejoin:miter;stroke-miterlimit:4;stroke-dasharray:none;stroke-opacity:1"
       d="m 297.06055,534.04883 -130.98438,108.06445 3.41211,4.92774 131.57227,-108.25196 z"
       transform="scale(0.26458333)"
       id="path7597"
       inkscape:connector-curvature="0" />
    <path
       style="display:inline;fill:none;stroke:#000000;stroke-width:1.13385832;stroke-linecap:butt;stroke-linejoin:miter;stroke-miterlimit:4;stroke-dasharray:none;stroke-opacity:1"
       d="m 500.74023,534.04883 -3.83984,4.78711 132.51953,108.20508 2.6543,-4.54883 z"
       transform="scale(0.26458333)"
       id="path862"
       inkscape:connector-curvature="0" />
    <path
       sodipodi:nodetypes="cccccccccccccccccccccccccccc"
       inkscape:connector-curvature="0"
       id="path7593"
       d="m 70.402297,160.25191 -5.884156,2.53001 -6.828735,3.12038 0.599609,1.39844 -5.328124,2.1211 -0.759766,1.58984 -0.376953,0.86523 -0.0059,0.56055 25.271485,-11.30469 0.0098,-0.004 2.946025,-1.18366 2.91335,-1.26947 0.08984,-0.0391 0.02642,-3.91044 c -4.230993,1.8338 -8.451669,3.68044 -12.672892,5.52581 z m 12.361371,-5.07808 -0.01367,3.26367 -2.875044,1.25345 -2.886675,1.15866 -0.0059,0.002 -24.859375,11.1211 v -0.0312 l 0.349609,-0.80469 0.707032,-1.48047 5.505859,-2.18945 -0.603516,-1.41016 12.441407,-5.5293 12.240273,-5.35361"
       style="color:#000000;font-style:normal;font-variant:normal;font-weight:normal;font-stretch:normal;font-size:medium;line-height:normal;font-family:sans-serif;font-variant-ligatures:normal;font-variant-position:normal;font-variant-caps:normal;font-variant-numeric:normal;font-variant-alternates:normal;font-feature-settings:normal;text-indent:0;text-align:start;text-decoration:none;text-decoration-line:none;text-decoration-style:solid;text-decoration-color:#000000;letter-spacing:normal;word-spacing:normal;text-transform:none;writing-mode:lr-tb;direction:ltr;text-orientation:mixed;dominant-baseline:auto;baseline-shift:baseline;text-anchor:start;white-space:normal;shape-padding:0;clip-rule:nonzero;display:inline;overflow:visible;visibility:visible;opacity:1;isolation:auto;mix-blend-mode:normal;color-interpolation:sRGB;color-interpolation-filters:linearRGB;solid-color:#000000;solid-opacity:1;vector-effect:none;fill:#000000;fill-opacity:1;fill-rule:nonzero;stroke:none;stroke-width:0.30000001;stroke-linecap:butt;stroke-linejoin:miter;stroke-miterlimit:4;stroke-dasharray:none;stroke-dashoffset:0;stroke-opacity:1;color-rendering:auto;image-rendering:auto;shape-rendering:auto;text-rendering:auto;enable-background:accumulate" />
    <path
       style="color:#000000;font-style:normal;font-variant:normal;font-weight:normal;font-stretch:normal;font-size:medium;line-height:normal;font-family:sans-serif;font-variant-ligatures:normal;font-variant-position:normal;font-variant-caps:normal;font-variant-numeric:normal;font-variant-alternates:normal;font-feature-settings:normal;text-indent:0;text-align:start;text-decoration:none;text-decoration-line:none;text-decoration-style:solid;text-decoration-color:#000000;letter-spacing:normal;word-spacing:normal;text-transform:none;writing-mode:lr-tb;direction:ltr;text-orientation:mixed;dominant-baseline:auto;baseline-shift:baseline;text-anchor:start;white-space:normal;shape-padding:0;clip-rule:nonzero;display:inline;overflow:visible;visibility:visible;opacity:1;isolation:auto;mix-blend-mode:normal;color-interpolation:sRGB;color-interpolation-filters:linearRGB;solid-color:#000000;solid-opacity:1;vector-effect:none;fill:#000000;fill-opacity:1;fill-rule:nonzero;stroke:none;stroke-width:0.30000001;stroke-linecap:butt;stroke-linejoin:miter;stroke-miterlimit:4;stroke-dasharray:none;stroke-dashoffset:0;stroke-opacity:1;color-rendering:auto;image-rendering:auto;shape-rendering:auto;text-rendering:auto;enable-background:accumulate"
       d="m 97.876953,154.42383 -9.966797,0.0351 v 0.30079 l 9.966797,-0.0352 z"
       id="path7589"
       inkscape:connector-curvature="0" />
    <path
       style="color:#000000;font-style:normal;font-variant:normal;font-weight:normal;font-stretch:normal;font-size:medium;line-height:normal;font-family:sans-serif;font-variant-ligatures:normal;font-variant-position:normal;font-variant-caps:normal;font-variant-numeric:normal;font-variant-alternates:normal;font-feature-settings:normal;text-indent:0;text-align:start;text-decoration:none;text-decoration-line:none;text-decoration-style:solid;text-decoration-color:#000000;letter-spacing:normal;word-spacing:normal;text-transform:none;writing-mode:lr-tb;direction:ltr;text-orientation:mixed;dominant-baseline:auto;baseline-shift:baseline;text-anchor:start;white-space:normal;shape-padding:0;clip-rule:nonzero;display:inline;overflow:visible;visibility:visible;opacity:1;isolation:auto;mix-blend-mode:normal;color-interpolation:sRGB;color-interpolation-filters:linearRGB;solid-color:#000000;solid-opacity:1;vector-effect:none;fill:#000000;fill-opacity:1;fill-rule:nonzero;stroke:none;stroke-width:0.30000001;stroke-linecap:butt;stroke-linejoin:miter;stroke-miterlimit:4;stroke-dasharray:none;stroke-dashoffset:0;stroke-opacity:1;color-rendering:auto;image-rendering:auto;shape-rendering:auto;text-rendering:auto;enable-background:accumulate"
       d="m 123.14844,154.33594 -9.9668,0.0352 v 0.29883 l 9.9668,-0.0351 z"
       id="path7587"
       inkscape:connector-curvature="0" />
    <path
       style="color:#000000;font-style:normal;font-variant:normal;font-weight:normal;font-stretch:normal;font-size:medium;line-height:normal;font-family:sans-serif;font-variant-ligatures:normal;font-variant-position:normal;font-variant-caps:normal;font-variant-numeric:normal;font-variant-alternates:normal;font-feature-settings:normal;text-indent:0;text-align:start;text-decoration:none;text-decoration-line:none;text-decoration-style:solid;text-decoration-color:#000000;letter-spacing:normal;word-spacing:normal;text-transform:none;writing-mode:lr-tb;direction:ltr;text-orientation:mixed;dominant-baseline:auto;baseline-shift:baseline;text-anchor:start;white-space:normal;shape-padding:0;clip-rule:nonzero;display:inline;overflow:visible;visibility:visible;opacity:1;isolation:auto;mix-blend-mode:normal;color-interpolation:sRGB;color-interpolation-filters:linearRGB;solid-color:#000000;solid-opacity:1;vector-effect:none;fill:#000000;fill-opacity:1;fill-rule:nonzero;stroke:none;stroke-width:0.30000001;stroke-linecap:butt;stroke-linejoin:miter;stroke-miterlimit:4;stroke-dasharray:none;stroke-dashoffset:0;stroke-opacity:1;color-rendering:auto;image-rendering:auto;shape-rendering:auto;text-rendering:auto;enable-background:accumulate"
       d="m 123.01953,153.59766 v 5.12304 h 5.4082 v -5.12304 c -1.80273,0 -3.60547,0 -5.4082,0 z m 0.30078,0.29882 h 4.80664 v 4.5254 h -4.80664 z"
       id="path7585"
       inkscape:connector-curvature="0"
       sodipodi:nodetypes="cccccccccc" />
    <path
       style="color:#000000;font-style:normal;font-variant:normal;font-weight:normal;font-stretch:normal;font-size:medium;line-height:normal;font-family:sans-serif;font-variant-ligatures:normal;font-variant-position:normal;font-variant-caps:normal;font-variant-numeric:normal;font-variant-alternates:normal;font-feature-settings:normal;text-indent:0;text-align:start;text-decoration:none;text-decoration-line:none;text-decoration-style:solid;text-decoration-color:#000000;letter-spacing:normal;word-spacing:normal;text-transform:none;writing-mode:lr-tb;direction:ltr;text-orientation:mixed;dominant-baseline:auto;baseline-shift:baseline;text-anchor:start;white-space:normal;shape-padding:0;clip-rule:nonzero;display:inline;overflow:visible;visibility:visible;opacity:1;isolation:auto;mix-blend-mode:normal;color-interpolation:sRGB;color-interpolation-filters:linearRGB;solid-color:#000000;solid-opacity:1;vector-effect:none;fill:#000000;fill-opacity:1;fill-rule:nonzero;stroke:none;stroke-width:0.30000001;stroke-linecap:butt;stroke-linejoin:miter;stroke-miterlimit:4;stroke-dasharray:none;stroke-dashoffset:0;stroke-opacity:1;color-rendering:auto;image-rendering:auto;shape-rendering:auto;text-rendering:auto;enable-background:accumulate"
       d="m 140.82346,160.3842 5.88415,2.53001 6.82874,3.12038 -0.59961,1.39844 5.32812,2.1211 0.75977,1.58984 0.37695,0.86523 0.006,0.56055 -25.27148,-11.30469 -0.01,-0.004 -2.94603,-1.18366 -2.91335,-1.26947 -0.0898,-0.0391 -0.0264,-3.91044 c 4.231,1.8338 8.45167,3.68044 12.6729,5.52581 z m -12.36137,-5.07808 0.0137,3.26367 2.87504,1.25345 2.88668,1.15866 0.006,0.002 24.85937,11.1211 v -0.0312 l -0.34961,-0.80469 -0.70703,-1.48047 -5.50586,-2.18945 0.60352,-1.41016 -12.44141,-5.5293 -12.24027,-5.35361"
       id="path1493"
       inkscape:connector-curvature="0"
       sodipodi:nodetypes="cccccccccccccccccccccccccccc" />
    <path
       sodipodi:nodetypes="cccccccccc"
       inkscape:connector-curvature="0"
       id="path1499"
       d="m 82.795466,153.50412 v 5.12304 h 5.4082 v -5.12304 c -1.80273,0 -3.60547,0 -5.4082,0 z m 0.30078,0.29882 h 4.80664 v 4.5254 h -4.80664 z"
       style="color:#000000;font-style:normal;font-variant:normal;font-weight:normal;font-stretch:normal;font-size:medium;line-height:normal;font-family:sans-serif;font-variant-ligatures:normal;font-variant-position:normal;font-variant-caps:normal;font-variant-numeric:normal;font-variant-alternates:normal;font-feature-settings:normal;text-indent:0;text-align:start;text-decoration:none;text-decoration-line:none;text-decoration-style:solid;text-decoration-color:#000000;letter-spacing:normal;word-spacing:normal;text-transform:none;writing-mode:lr-tb;direction:ltr;text-orientation:mixed;dominant-baseline:auto;baseline-shift:baseline;text-anchor:start;white-space:normal;shape-padding:0;clip-rule:nonzero;display:inline;overflow:visible;visibility:visible;opacity:1;isolation:auto;mix-blend-mode:normal;color-interpolation:sRGB;color-interpolation-filters:linearRGB;solid-color:#000000;solid-opacity:1;vector-effect:none;fill:#000000;fill-opacity:1;fill-rule:nonzero;stroke:none;stroke-width:0.30000001;stroke-linecap:butt;stroke-linejoin:miter;stroke-miterlimit:4;stroke-dasharray:none;stroke-dashoffset:0;stroke-opacity:1;color-rendering:auto;image-rendering:auto;shape-rendering:auto;text-rendering:auto;enable-background:accumulate" />
  </g>
  <g
     inkscape:groupmode="layer"
     id="layer4"
     inkscape:label="Edge.Cuts"
     style="display:inline">
    <path
       sodipodi:insensitive="true"
       transform="scale(0.26458333)"
       inkscape:label="outline"
       sodipodi:nodetypes="cccccccccccccccccccccccccccccccccccccccccccccccccccccccccccccccccccccccccccccccccccccccccccccccccccccccccccccccccccccccccccccccccccccccccccccccccccccccccccccccccccccccccccccccccccccccccccccccccccccccccccccccccccccccccccccccccccccccccccccccccccccc"
       inkscape:connector-curvature="0"
       d="m 396.90551,305.17105 -1.64664,0.63164 -1.63868,0.98358 -1.62528,1.33823 -1.60646,1.69559 -1.5822,2.05566 -1.55252,2.41843 -1.5174,2.78392 -1.75922,3.74738 -1.62309,4.021 -1.49171,4.33177 -1.36503,4.67965 -1.24309,5.06469 -1.12586,5.48684 -1.01337,5.94613 -0.9056,6.44256 -0.80256,6.97613 -0.70423,7.54681 -1.1324,16.95425 -0.79581,19.68262 -0.49702,22.70807 -0.67578,45.60937 -18.83203,15.09375 -12.30469,9.76172 h -7.45507 -18.0586 -19.18164 l 0.0841,10.94157 0.25834,3.74621 0.44401,2.82824 0.66078,2.08404 0.90863,1.51365 1.18758,1.11705 1.49763,0.89424 2.72368,1.68968 1.01841,0.85338 0.5997,0.7167 -0.0868,0.36136 -0.51217,0.6786 -2.4019,2.39375 -4.40782,3.91729 -6.6167,5.61052 -20.67199,16.97966 -31.94324,25.78929 -26.67747,21.57948 -22.75873,18.65664 -16.42686,13.73877 -5.08488,4.40175 -2.59698,2.42415 -3.7993,4.32343 -3.37867,4.31178 -2.95648,4.2973 -2.53271,4.28003 -2.10741,4.25992 -1.68053,4.23701 -1.2521,4.21129 -0.8221,4.18275 -0.22445,2.10018 -0.002,1.64575 0.21719,1.15072 0.4331,0.61507 0.37542,-0.002 0.63955,-0.27462 1.93275,-1.2658 2.57315,-2.05088 2.93616,-2.6316 3.1144,-2.79591 3.45344,-2.84332 3.72367,-2.84336 3.92509,-2.79599 4.05767,-2.70123 4.12146,-2.55908 4.11641,-2.36954 4.04255,-2.13259 12.6038,-5.91831 22.02062,-9.95371 28.04434,-12.46936 30.67499,-13.46526 34.70703,-15.13281 h 28.50195 28.50195 l 0.42188,49.33789 0.44662,32.14692 0.38369,11.86087 0.55934,10.01794 0.78651,8.89913 1.06521,8.50442 1.39546,8.83381 1.77723,9.8873 2.40821,12.91602 -6.35157,6.53906 -11.85339,11.62915 -19.5802,18.7771 -9.77329,9.436 -8.0685,8.0488 -5.52651,5.80835 -1.54839,1.79737 -0.59894,0.91729 -0.49543,4.01655 -0.58269,6.64947 -0.20264,3.59688 -0.002,2.67826 0.19521,1.67155 0.17016,0.43073 0.21787,0.14602 2.84636,-1.05979 6.99416,-2.88562 22.22393,-9.48623 15.13852,-6.45809 10.27524,-4.13182 6.43604,-2.19282 2.09834,-0.49031 1.52256,-0.15079 4.42774,0.008 2.29882,8.25391 1.11101,3.80923 1.02015,3.03829 0.98716,2.34843 1.01201,1.73963 1.09472,1.21193 1.23529,0.76528 1.43369,0.39972 1.68996,0.11522 1.68996,-0.11516 1.43369,-0.39954 1.23529,-0.76502 1.09473,-1.21162 1.01201,-1.73931 0.98716,-2.34811 1.02015,-3.03801 1.11099,-3.80901 2.29883,-8.25586 4.42773,-0.008 1.52258,0.15124 2.09834,0.49052 6.43604,2.19275 10.27524,4.13145 15.13851,6.45787 22.22391,9.48719 6.99417,2.8863 2.84637,1.0601 0.16,-0.15311 0.12754,-0.43851 0.16221,-1.60814 -0.0152,-5.26555 -0.40726,-6.33075 -0.72654,-5.39535 -0.59895,-0.91729 -1.54839,-1.79737 -5.52651,-5.80835 -8.06848,-8.0488 -9.77329,-9.436 -19.5854,-18.7771 -11.86577,-11.62915 -6.36915,-6.53906 1.42774,-6.71485 1.98095,-10.12068 1.64236,-10.25382 1.32707,-10.69664 1.03507,-11.44913 0.76639,-12.51129 0.52099,-13.88313 0.29891,-15.56464 0.10013,-17.55582 0.0195,-43.6543 h 28.58007 28.58204 l 34.70507,15.13281 30.6753,13.46526 28.04501,12.46936 22.02129,9.95371 12.60411,5.91831 4.04246,2.13259 4.11619,2.36954 4.12114,2.55908 4.05733,2.70123 3.92472,2.79599 3.72336,2.84336 3.45322,2.84332 3.11431,2.79591 2.93647,2.63158 2.57382,2.05086 1.93342,1.26579 0.63976,0.27464 0.37552,0.002 0.43279,-0.61507 0.21651,-1.15072 -0.003,-1.64575 -0.22477,-2.10018 -0.82213,-4.18365 -1.25197,-4.21187 -1.68042,-4.23749 -2.1075,-4.26048 -2.53319,-4.28088 -2.95751,-4.29866 -3.38044,-4.31384 -3.802,-4.32641 -2.59846,-2.42602 -5.0858,-4.40353 -16.42707,-13.74187 -22.75665,-18.6588 -26.67303,-21.58033 -31.83325,-25.70634 -20.67966,-16.98844 -6.64328,-5.63148 -4.43813,-3.93975 -2.4274,-2.41062 -0.52043,-0.68269 -0.0907,-0.36138 0.59789,-0.71302 1.01721,-0.85027 2.72279,-1.68671 1.4976,-0.89423 1.18757,-1.11704 0.90862,-1.51363 0.66078,-2.08403 0.44402,-2.82822 0.25835,-3.74622 0.0841,-10.94163 h -29.77539 -7.32422 -7.79101 l -11.87696,-9.50781 -19.53906,-15.64063 -0.0234,-35.1289 -0.1366,-18.63749 -0.39141,-16.90628 -0.65651,-15.301 -0.93194,-13.82163 -1.21768,-12.46819 -1.51372,-11.24067 -1.82008,-10.13908 -2.13674,-9.1634 -1.91304,-6.49054 -2.08673,-5.66964 -2.23754,-4.83738 -2.36549,-3.99374 -1.22358,-1.67697 -1.24698,-1.46179 -1.26753,-1.24521 -1.28522,-1.02719 -1.30005,-0.80777 -1.31203,-0.58691 -1.32114,-0.36464 -1.42261,-0.15434 c -0.65667,0.0199 -2.24083,0.31144 -2.24083,0.31144 z"
       style="display:inline;fill:none;stroke:#000000;stroke-width:1.03325272;stroke-opacity:1"
       id="path965" />
  </g>
</svg>
