  0
SECTION
  2
HEADER
  9
$ACADVER
  1
AC1014
  9
$HANDSEED
  5
FFFF
  9
$MEASUREMENT
 70
     1
  0
ENDSEC
  0
SECTION
  2
TABLES
  0
TABLE
  2
VPORT
  5
8
330
0
100
AcDbSymbolTable
 70
     4
  0
VPORT
  5
2E
330
8
100
AcDbSymbolTableRecord
100
AcDbViewportTableRecord
  2
*ACTIVE
 70
     0
 10
0.0
 20
0.0
 11
1.0
 21
1.0
 12
210.0
 22
148.5
 13
0.0
 23
0.0
 14
10.0
 24
10.0
 15
10.0
 25
10.0
 16
0.0
 26
0.0
 36
1.0
 17
0.0
 27
0.0
 37
0.0
 40
341.0
 41
1.24
 42
50.0
 43
0.0
 44
0.0
 50
0.0
 51
0.0
 71
     0
 72
   100
 73
     1
 74
     3
 75
     0
 76
     0
 77
     0
 78
     0
  0
ENDTAB
  0
TABLE
  2
LTYPE
  5
5
330
0
100
AcDbSymbolTable
 70
     1
  0
LTYPE
  5
14
330
5
100
AcDbSymbolTableRecord
100
AcDbLinetypeTableRecord
  2
BYBLOCK
 70
     0
  3

 72
    65
 73
     0
 40
0.0
  0
LTYPE
  5
15
330
5
100
AcDbSymbolTableRecord
100
AcDbLinetypeTableRecord
  2
BYLAYER
 70
     0
  3

 72
    65
 73
     0
 40
0.0
  0
LTYPE
  5
16
330
5
100
AcDbSymbolTableRecord
100
AcDbLinetypeTableRecord
  2
CONTINUOUS
 70
     0
  3
Solid line
 72
    65
 73
     0
 40
0.0
  0
ENDTAB
  0
TABLE
  2
LAYER
  5
2
100
AcDbSymbolTable
 70
5
  0
LAYER
  5
50
100
AcDbSymbolTableRecord
100
AcDbLayerTableRecord
  2
0
 70
0
  6
CONTINUOUS
  0
LAYER
  5
51
100
AcDbSymbolTableRecord
100
AcDbLayerTableRecord
  2
Mask
 70
0
  6
CONTINUOUS
  0
LAYER
  5
52
100
AcDbSymbolTableRecord
100
AcDbLayerTableRecord
  2
SilkS
 70
0
  6
CONTINUOUS
  0
LAYER
  5
53
100
AcDbSymbolTableRecord
100
AcDbLayerTableRecord
  2
Edge.Cuts
 70
0
  6
CONTINUOUS
  0
LAYER
  5
54
100
AcDbSymbolTableRecord
100
AcDbLayerTableRecord
  2
Cu
 70
0
  6
CONTINUOUS
  0
ENDTAB
  0
TABLE
  2
STYLE
  5
3
330
0
100
AcDbSymbolTable
 70
     1
  0
STYLE
  5
11
330
3
100
AcDbSymbolTableRecord
100
AcDbTextStyleTableRecord
  2
STANDARD
 70
     0
 40
0.0
 41
1.0
 50
0.0
 71
     0
 42
2.5
  3
txt
  4

  0
ENDTAB
  0
TABLE
  2
VIEW
  5
6
330
0
100
AcDbSymbolTable
 70
     0
  0
ENDTAB
  0
TABLE
  2
UCS
  5
7
330
0
100
AcDbSymbolTable
 70
     0
  0
ENDTAB
  0
TABLE
  2
APPID
  5
9
330
0
100
AcDbSymbolTable
 70
     2
  0
APPID
  5
12
330
9
100
AcDbSymbolTableRecord
100
AcDbRegAppTableRecord
  2
ACAD
 70
     0
  0
ENDTAB
  0
TABLE
  2
DIMSTYLE
  5
A
330
0
100
AcDbSymbolTable
 70
     1
  0
DIMSTYLE
105
27
330
A
100
AcDbSymbolTableRecord
100
AcDbDimStyleTableRecord
  2
ISO-25
 70
     0
  3

  4

  5

  6

  7

 40
1.0
 41
2.5
 42
0.625
 43
3.75
 44
1.25
 45
0.0
 46
0.0
 47
0.0
 48
0.0
140
2.5
141
2.5
142
0.0
143
0.03937007874016
144
1.0
145
0.0
146
1.0
147
0.625
 71
     0
 72
     0
 73
     0
 74
     0
 75
     0
 76
     0
 77
     1
 78
     8
170
     0
171
     3
172
     1
173
     0
174
     0
175
     0
176
     0
177
     0
178
     0
270
     2
271
     2
272
     2
273
     2
274
     3
340
11
275
     0
280
     0
281
     0
282
     0
283
     0
284
     8
285
     0
286
     0
287
     3
288
     0
  0
ENDTAB
  0
TABLE
  2
BLOCK_RECORD
  5
1
330
0
100
AcDbSymbolTable
 70
     1
  0
BLOCK_RECORD
  5
1F
330
1
100
AcDbSymbolTableRecord
100
AcDbBlockTableRecord
  2
*MODEL_SPACE
  0
BLOCK_RECORD
  5
1B
330
1
100
AcDbSymbolTableRecord
100
AcDbBlockTableRecord
  2
*PAPER_SPACE
  0
ENDTAB
  0
ENDSEC
  0
SECTION
  2
BLOCKS
  0
BLOCK
  5
20
330
1F
100
AcDbEntity
  8
0
100
AcDbBlockBegin
  2
*MODEL_SPACE
 70
     0
 10
0.0
 20
0.0
 30
0.0
  3
*MODEL_SPACE
  1

  0
ENDBLK
  5
21
330
1F
100
AcDbEntity
  8
0
100
AcDbBlockEnd
  0
BLOCK
  5
1C
330
1B
100
AcDbEntity
 67
     1
  8
0
100
AcDbBlockBegin
  2
*PAPER_SPACE
  1

  0
ENDBLK
  5
1D
330
1B
100
AcDbEntity
 67
     1
  8
0
100
AcDbBlockEnd
  0
ENDSEC
  0
SECTION
  2
ENTITIES
  0
LWPOLYLINE
  5
100
100
AcDbEntity
  8
Edge.Cuts
 62
7
100
AcDbPolyline
 90
248
 70
0
 10
105.632828
 20
216.335673
 30
0.0
 10
105.450927
 20
216.331546
 30
0.0
 10
105.014582
 20
216.256827
 30
0.0
 10
104.578908
 20
216.089706
 30
0.0
 10
104.145341
 20
215.829467
 30
0.0
 10
103.715319
 20
215.475394
 30
0.0
 10
103.290276
 20
215.026769
 30
0.0
 10
102.871652
 20
214.482876
 30
0.0
 10
102.460881
 20
213.842999
 30
0.0
 10
102.059403
 20
213.106420
 30
0.0
 10
101.593942
 20
212.114926
 30
0.0
 10
101.164500
 20
211.051037
 30
0.0
 10
100.769818
 20
209.904922
 30
0.0
 10
100.408654
 20
208.666765
 30
0.0
 10
100.079753
 20
207.326733
 30
0.0
 10
99.781869
 20
205.875006
 30
0.0
 10
99.513749
 20
204.301759
 30
0.0
 10
99.274142
 20
202.597165
 30
0.0
 10
99.061798
 20
200.751398
 30
0.0
 10
98.875470
 20
198.754637
 30
0.0
 10
98.575856
 20
194.268826
 30
0.0
 10
98.365298
 20
189.061132
 30
0.0
 10
98.233795
 20
183.052956
 30
0.0
 10
98.054995
 20
170.985477
 30
0.0
 10
93.072354
 20
166.991922
 30
0.0
 10
89.816738
 20
164.409134
 30
0.0
 10
87.844251
 20
164.409134
 30
0.0
 10
83.066246
 20
164.409134
 30
0.0
 10
77.991104
 20
164.409134
 30
0.0
 10
78.013355
 20
161.514177
 30
0.0
 10
78.081708
 20
160.522992
 30
0.0
 10
78.199185
 20
159.774687
 30
0.0
 10
78.374017
 20
159.223284
 30
0.0
 10
78.614425
 20
158.822798
 30
0.0
 10
78.928639
 20
158.527245
 30
0.0
 10
79.324887
 20
158.290644
 30
0.0
 10
80.045527
 20
157.843583
 30
0.0
 10
80.314982
 20
157.617793
 30
0.0
 10
80.473652
 20
157.428166
 30
0.0
 10
80.450686
 20
157.332556
 30
0.0
 10
80.315175
 20
157.153010
 30
0.0
 10
79.679672
 20
156.519664
 30
0.0
 10
78.513436
 20
155.483214
 30
0.0
 10
76.762768
 20
153.998764
 30
0.0
 10
71.293304
 20
149.506229
 30
0.0
 10
62.841655
 20
142.682813
 30
0.0
 10
55.783241
 20
136.973242
 30
0.0
 10
49.761661
 20
132.037006
 30
0.0
 10
45.415387
 20
128.401956
 30
0.0
 10
44.070013
 20
127.237327
 30
0.0
 10
43.382895
 20
126.595937
 30
0.0
 10
42.377664
 20
125.452030
 30
0.0
 10
41.483724
 20
124.311204
 30
0.0
 10
40.701489
 20
123.174211
 30
0.0
 10
40.031376
 20
122.041786
 30
0.0
 10
39.473790
 20
120.914682
 30
0.0
 10
39.029150
 20
119.793640
 30
0.0
 10
38.697865
 20
118.679403
 30
0.0
 10
38.480351
 20
117.572717
 30
0.0
 10
38.420966
 20
117.017044
 30
0.0
 10
38.420436
 20
116.581606
 30
0.0
 10
38.477901
 20
116.277145
 30
0.0
 10
38.592492
 20
116.114408
 30
0.0
 10
38.691822
 20
116.114937
 30
0.0
 10
38.861036
 20
116.187597
 30
0.0
 10
39.372410
 20
116.522506
 30
0.0
 10
40.053222
 20
117.065135
 30
0.0
 10
40.830081
 20
117.761412
 30
0.0
 10
41.654100
 20
118.501164
 30
0.0
 10
42.567822
 20
119.253459
 30
0.0
 10
43.553043
 20
120.005764
 30
0.0
 10
44.591557
 20
120.745537
 30
0.0
 10
45.665149
 20
121.460237
 30
0.0
 10
46.755618
 20
122.137327
 30
0.0
 10
47.844752
 20
122.764268
 30
0.0
 10
48.914343
 20
123.328516
 30
0.0
 10
52.249098
 20
124.894402
 30
0.0
 10
58.075387
 20
127.527987
 30
0.0
 10
65.495452
 20
130.827172
 30
0.0
 10
73.611543
 20
134.389856
 30
0.0
 10
82.794445
 20
138.393745
 30
0.0
 10
90.335586
 20
138.393745
 30
0.0
 10
97.876727
 20
138.393745
 30
0.0
 10
97.988349
 20
125.339762
 30
0.0
 10
98.106517
 20
116.834222
 30
0.0
 10
98.208035
 20
113.696034
 30
0.0
 10
98.356027
 20
111.045454
 30
0.0
 10
98.564125
 20
108.690893
 30
0.0
 10
98.845961
 20
106.440765
 30
0.0
 10
99.215177
 20
104.103486
 30
0.0
 10
99.685402
 20
101.487471
 30
0.0
 10
100.322575
 20
98.070108
 30
0.0
 10
98.642055
 20
96.339981
 30
0.0
 10
95.505846
 20
93.263102
 30
0.0
 10
90.325251
 20
88.294994
 30
0.0
 10
87.739401
 20
85.798386
 30
0.0
 10
85.604611
 20
83.668808
 30
0.0
 10
84.142388
 20
82.132015
 30
0.0
 10
83.732710
 20
81.656461
 30
0.0
 10
83.574241
 20
81.413762
 30
0.0
 10
83.443158
 20
80.351049
 30
0.0
 10
83.288988
 20
78.591710
 30
0.0
 10
83.235373
 20
77.640036
 30
0.0
 10
83.234844
 20
76.931413
 30
0.0
 10
83.286493
 20
76.489149
 30
0.0
 10
83.331515
 20
76.375185
 30
0.0
 10
83.389159
 20
76.336550
 30
0.0
 10
84.142259
 20
76.616953
 30
0.0
 10
85.992797
 20
77.380440
 30
0.0
 10
91.872878
 20
79.890338
 30
0.0
 10
95.878278
 20
81.599041
 30
0.0
 10
98.596936
 20
82.692252
 30
0.0
 10
100.299804
 20
83.272436
 30
0.0
 10
100.854990
 20
83.402163
 30
0.0
 10
101.257834
 20
83.442060
 30
0.0
 10
102.429340
 20
83.439943
 30
0.0
 10
103.037570
 20
81.256096
 30
0.0
 10
103.331525
 20
80.248238
 30
0.0
 10
103.601439
 20
79.444357
 30
0.0
 10
103.862625
 20
78.823001
 30
0.0
 10
104.130386
 20
78.362724
 30
0.0
 10
104.420031
 20
78.042068
 30
0.0
 10
104.746868
 20
77.839587
 30
0.0
 10
105.126199
 20
77.733828
 30
0.0
 10
105.573334
 20
77.703343
 30
0.0
 10
106.020469
 20
77.733812
 30
0.0
 10
106.399800
 20
77.839524
 30
0.0
 10
106.726637
 20
78.041935
 30
0.0
 10
107.016284
 20
78.362510
 30
0.0
 10
107.284045
 20
78.822702
 30
0.0
 10
107.545231
 20
79.443973
 30
0.0
 10
107.815146
 20
80.247780
 30
0.0
 10
108.109095
 20
81.255580
 30
0.0
 10
108.717327
 20
83.439943
 30
0.0
 10
109.888831
 20
83.442060
 30
0.0
 10
110.291680
 20
83.402044
 30
0.0
 10
110.846866
 20
83.272261
 30
0.0
 10
112.549735
 20
82.692096
 30
0.0
 10
115.268392
 20
81.598983
 30
0.0
 10
119.273789
 20
79.890338
 30
0.0
 10
125.153866
 20
77.380186
 30
0.0
 10
127.004406
 20
76.616519
 30
0.0
 10
127.757508
 20
76.336034
 30
0.0
 10
127.799842
 20
76.376545
 30
0.0
 10
127.833587
 20
76.492567
 30
0.0
 10
127.876505
 20
76.918054
 30
0.0
 10
127.872483
 20
78.311231
 30
0.0
 10
127.764729
 20
79.986242
 30
0.0
 10
127.572499
 20
81.413762
 30
0.0
 10
127.414026
 20
81.656461
 30
0.0
 10
127.004348
 20
82.132015
 30
0.0
 10
125.542126
 20
83.668808
 30
0.0
 10
123.407340
 20
85.798386
 30
0.0
 10
120.821491
 20
88.294994
 30
0.0
 10
115.639520
 20
93.263102
 30
0.0
 10
112.500036
 20
96.339981
 30
0.0
 10
110.814865
 20
98.070108
 30
0.0
 10
111.192621
 20
99.846745
 30
0.0
 10
111.716747
 20
102.524508
 30
0.0
 10
112.151288
 20
105.237498
 30
0.0
 10
112.502409
 20
108.067651
 30
0.0
 10
112.776271
 20
111.096900
 30
0.0
 10
112.979045
 20
114.407178
 30
0.0
 10
113.116890
 20
118.080423
 30
0.0
 10
113.195977
 20
122.198567
 30
0.0
 10
113.222470
 20
126.843545
 30
0.0
 10
113.227629
 20
138.393745
 30
0.0
 10
120.789439
 20
138.393745
 30
0.0
 10
128.351771
 20
138.393745
 30
0.0
 10
137.534153
 20
134.389856
 30
0.0
 10
145.650327
 20
130.827172
 30
0.0
 10
153.070569
 20
127.527987
 30
0.0
 10
158.897035
 20
124.894402
 30
0.0
 10
162.231872
 20
123.328516
 30
0.0
 10
163.301440
 20
122.764268
 30
0.0
 10
164.390515
 20
122.137327
 30
0.0
 10
165.480900
 20
121.460237
 30
0.0
 10
166.554402
 20
120.745537
 30
0.0
 10
167.592817
 20
120.005764
 30
0.0
 10
168.577956
 20
119.253459
 30
0.0
 10
169.491621
 20
118.501164
 30
0.0
 10
170.315615
 20
117.761412
 30
0.0
 10
171.092556
 20
117.065140
 30
0.0
 10
171.773546
 20
116.522517
 30
0.0
 10
172.285097
 20
116.187610
 30
0.0
 10
172.454367
 20
116.114945
 30
0.0
 10
172.553723
 20
116.114416
 30
0.0
 10
172.668232
 20
116.277153
 30
0.0
 10
172.725517
 20
116.581614
 30
0.0
 10
172.724723
 20
117.017052
 30
0.0
 10
172.665253
 20
117.572725
 30
0.0
 10
172.447731
 20
118.679649
 30
0.0
 10
172.116481
 20
119.794039
 30
0.0
 10
171.671869
 20
120.915209
 30
0.0
 10
171.114260
 20
122.042461
 30
0.0
 10
170.444020
 20
123.175110
 30
0.0
 10
169.661512
 20
124.312464
 30
0.0
 10
168.767104
 20
125.453834
 30
0.0
 10
167.761159
 20
126.598530
 30
0.0
 10
167.073649
 20
127.240414
 30
0.0
 10
165.728031
 20
128.405515
 30
0.0
 10
161.381703
 20
132.041385
 30
0.0
 10
155.360672
 20
136.978192
 30
0.0
 10
148.303433
 20
142.687988
 30
0.0
 10
139.880886
 20
149.489457
 30
0.0
 10
134.409393
 20
153.984315
 30
0.0
 10
132.651691
 20
155.474311
 30
0.0
 10
131.477436
 20
156.516703
 30
0.0
 10
130.835187
 20
157.154513
 30
0.0
 10
130.697490
 20
157.335141
 30
0.0
 10
130.673492
 20
157.430756
 30
0.0
 10
130.831684
 20
157.619409
 30
0.0
 10
131.100820
 20
157.844377
 30
0.0
 10
131.821225
 20
158.290652
 30
0.0
 10
132.217465
 20
158.527250
 30
0.0
 10
132.531676
 20
158.822801
 30
0.0
 10
132.772082
 20
159.223282
 30
0.0
 10
132.946914
 20
159.774681
 30
0.0
 10
133.064394
 20
160.522981
 30
0.0
 10
133.132749
 20
161.514169
 30
0.0
 10
133.155000
 20
164.409142
 30
0.0
 10
125.276929
 20
164.409142
 30
0.0
 10
123.339062
 20
164.409142
 30
0.0
 10
121.277691
 20
164.409142
 30
0.0
 10
118.135245
 20
166.924750
 30
0.0
 10
112.965535
 20
171.063000
 30
0.0
 10
112.959344
 20
180.357521
 30
0.0
 10
112.923202
 20
185.288690
 30
0.0
 10
112.819642
 20
189.761810
 30
0.0
 10
112.645940
 20
193.810199
 30
0.0
 10
112.399364
 20
197.467172
 30
0.0
 10
112.077186
 20
200.766048
 30
0.0
 10
111.676681
 20
203.740141
 30
0.0
 10
111.195118
 20
206.422773
 30
0.0
 10
110.629773
 20
208.847256
 30
0.0
 10
110.123614
 20
210.564545
 30
0.0
 10
109.571500
 20
212.064637
 30
0.0
 10
108.979484
 20
213.344527
 30
0.0
 10
108.353615
 20
214.401204
 30
0.0
 10
108.029876
 20
214.844902
 30
0.0
 10
107.699946
 20
215.231668
 30
0.0
 10
107.364579
 20
215.561129
 30
0.0
 10
107.024531
 20
215.832907
 30
0.0
 10
106.680560
 20
216.046629
 30
0.0
 10
106.333418
 20
216.201916
 30
0.0
 10
105.983867
 20
216.298393
 30
0.0
 10
105.632661
 20
216.335686
 30
0.0
 10
105.632661
 20
216.335681
 30
0.0
  0
ENDSEC
  0
SECTION
  2
OBJECTS
  0
DICTIONARY
  5
C
330
0
100
AcDbDictionary
  3
ACAD_GROUP
350
D
  3
ACAD_MLINESTYLE
350
17
  0
DICTIONARY
  5
D
330
C
100
AcDbDictionary
  0
DICTIONARY
  5
1A
330
C
100
AcDbDictionary
  0
DICTIONARY
  5
17
330
C
100
AcDbDictionary
  3
STANDARD
350
18
  0
DICTIONARY
  5
19
330
C
100
AcDbDictionary
  0
ENDSEC
  0
EOF
