<?xml version="1.0" encoding="UTF-8" standalone="no"?>
<!-- Created with Inkscape (http://www.inkscape.org/) -->

<svg
   xmlns:dc="http://purl.org/dc/elements/1.1/"
   xmlns:cc="http://creativecommons.org/ns#"
   xmlns:rdf="http://www.w3.org/1999/02/22-rdf-syntax-ns#"
   xmlns:svg="http://www.w3.org/2000/svg"
   xmlns="http://www.w3.org/2000/svg"
   xmlns:sodipodi="http://sodipodi.sourceforge.net/DTD/sodipodi-0.dtd"
   xmlns:inkscape="http://www.inkscape.org/namespaces/inkscape"
   width="210mm"
   height="297mm"
   viewBox="0 0 210 297"
   version="1.1"
   id="svg8"
   sodipodi:docname="defconLogo.svg"
   inkscape:version="0.92.3 (2405546, 2018-03-11)">
  <sodipodi:namedview
     id="base"
     pagecolor="#ffffff"
     bordercolor="#666666"
     borderopacity="1.0"
     inkscape:pageopacity="0.0"
     inkscape:pageshadow="2"
     inkscape:zoom="7.8190542"
     inkscape:cx="388.67736"
     inkscape:cy="575.09373"
     inkscape:document-units="mm"
     inkscape:current-layer="layer1"
     showgrid="false"
     inkscape:window-width="1920"
     inkscape:window-height="1172"
     inkscape:window-x="1920"
     inkscape:window-y="0"
     inkscape:window-maximized="1"
     showguides="false" />
  <defs
     id="defs2" />
  <metadata
     id="metadata5">
    <rdf:RDF>
      <cc:Work
         rdf:about="">
        <dc:format>image/svg+xml</dc:format>
        <dc:type
           rdf:resource="http://purl.org/dc/dcmitype/StillImage" />
        <dc:title />
      </cc:Work>
    </rdf:RDF>
  </metadata>
  <g
     inkscape:label="SilkS"
     inkscape:groupmode="layer"
     id="layer1">
    <path
       inkscape:connector-curvature="0"
       id="path1091"
       d="m 104.53798,137.3268 -1.09442,0.049 -0.88894,0.14703 -1.29123,0.46636 -1.16676,0.6493 -1.027591,0.81325 -0.873728,0.95815 -0.705158,1.08404 -0.521886,1.19092 -0.323914,1.27875 -0.111238,1.34759 0.03218,0.72565 0.09486,0.70896 0.155055,0.68929 0.21275,0.66663 0.588599,1.25337 0.789424,1.12693 0.97028,0.97662 1.131167,0.80246 0.61967,0.32845 0.65241,0.27596 0.68264,0.22048 0.71038,0.16201 0.72965,0.059 0.95797,-0.0134 0.96477,-0.0756 0.75003,-0.12753 0.80198,-0.26127 0.77114,-0.34974 0.73291,-0.43211 0.6873,-0.50843 0.63433,-0.57868 0.57396,-0.64285 0.50621,-0.70095 0.43109,-0.75298 0.35506,-0.82859 0.25611,-0.86929 0.157,-0.89627 0.0578,-0.90957 -0.0416,-0.90915 -0.14103,-0.89503 -0.24063,-0.86722 -0.34035,-0.82571 -0.42805,-0.76794 -0.50655,-0.71437 -0.57848,-0.65536 -0.64386,-0.59095 -0.70267,-0.52111 -0.75493,-0.44586 -0.80062,-0.36518 -0.83975,-0.2791 -0.88894,-0.14703 -1.09443,-0.049 v 0"
       style="display:inline;fill:none;stroke:#000000;stroke-width:0.30700001;stroke-miterlimit:4;stroke-dasharray:none;stroke-opacity:1" />
    <path
       inkscape:connector-curvature="0"
       id="path1087"
       transform="scale(0.26458333)"
       d="m 395.09961,521.12109 -3.62109,0.16797 -3.06055,0.50196 -3.22656,1.05273 -3.0918,1.44727 -2.91406,1.80273 -2.69141,2.11719 -2.42383,2.39648 -2.11523,2.63672 -1.76172,2.83594 -1.36524,2.99804 -0.99218,3.18165 -0.60547,3.1914 -0.23828,3.17578 0.11914,3.13672 0.46094,3.07031 0.78711,2.98243 1.0996,2.86523 1.39649,2.72656 1.67969,2.5625 1.94922,2.3711 2.20312,2.1582 2.44141,1.91602 2.66797,1.65429 2.8789,1.36328 3.07422,1.04883 3.25586,0.70899 2.44531,0.19336 2.93945,-0.0586 2.99219,-0.2832 2.60938,-0.48438 2.72851,-0.92773 3.14649,-1.36524 3.45312,-2.03906 3.47657,-3.125 3.18554,-3.55273 2.19336,-3.78125 1.35352,-3.14063 0.96679,-3.12695 0.58008,-3.12109 0.19141,-3.12305 -0.19727,-3.12695 -0.58203,-3.14063 -0.9707,-3.1582 -1.35938,-3.1836 -2.16406,-3.77734 -3.19336,-3.52539 -2.98047,-2.61914 -3.15234,-2.12695 -3.33789,-1.64258 -3.54102,-1.16797 -3.0664,-0.5 -3.62305,-0.16602 m 0.49609,6.76172 2.47461,0.22657 2.40625,0.70703 2.26953,1.18945 2.06446,1.66992 1.30078,1.56836 1.10742,1.88672 0.83398,2.04492 0.47657,2.03516 0.25976,1.89258 h -1.87109 l -2.10156,-0.28711 -2.69532,-0.7168 -2.60547,-0.93359 -1.83984,-0.94336 -0.90234,-0.49805 -0.875,-0.23633 -0.73047,0.0391 -0.46875,0.33204 -2.14453,1.33398 -2.36719,1.01172 -2.48242,0.66211 -2.52539,0.23633 h -2.54688 l 0.23828,-2.02735 0.41211,-2.05273 0.72657,-1.90821 1.03906,-1.75 1.34375,-1.58203 2.05859,-1.69531 2.26758,-1.21484 2.4043,-0.73438 2.47265,-0.2559 m -4.25781,6.19141 -0.96875,0.18555 -0.79102,0.5039 -0.5332,0.75 -0.19726,0.91797 0.18945,0.90234 0.54101,0.76563 0.80665,0.51172 0.95312,0.17969 0.95313,-0.17969 0.80859,-0.51172 0.53906,-0.76563 0.18945,-0.90234 -0.18945,-0.90234 -0.53906,-0.76563 -0.80859,-0.51172 -0.95313,-0.17773 m 9.0293,0.14062 -0.69922,0.11328 -0.58789,0.31055 -0.76953,1.05078 -0.13282,1.34375 0.63477,1.30274 0.67383,0.45898 0.88281,0.24219 0.91016,-0.002 0.7539,-0.26954 0.59571,-0.59179 0.39062,-0.78516 0.15039,-0.85937 -0.13476,-0.81446 -0.37696,-0.68554 -0.54882,-0.46485 -1.74219,-0.34956 m -24.56641,2.4961 0.34375,0.0117 1.38672,0.38867 0.95703,0.82422 0.44922,1.15429 -0.13086,1.37891 -0.43359,1.41211 2.17968,1.23047 2.40625,1.23242 -0.0371,-1.41992 -0.26758,-1.41797 h 2.5332 2.53125 l -0.26172,2.22852 -0.0312,2.25 0.58594,2.30859 0.75586,1.89258 0.83789,1.41406 1.09765,1.17383 1.53711,1.17187 1.63868,0.89844 1.60742,0.41602 1.57617,-0.0664 1.54492,-0.54883 0.7832,-0.32226 0.87305,0.0957 4.09571,2.13086 5.9707,3.34375 1.44726,0.80078 0.88282,-0.88281 0.86132,-0.6211 0.83008,-0.25976 0.70313,0.14062 0.61328,0.38281 0.85937,1.25782 0.21875,1.52344 -0.18554,0.71679 -0.41407,0.60938 -0.82226,0.44922 -1.08203,0.1875 -0.90235,0.10156 0.1211,0.38476 0.41211,0.88868 0.0664,1.25195 -0.2539,1.27539 -0.54883,0.96094 -0.66211,0.51367 -0.65039,0.23633 -0.61524,-0.0274 -0.55468,-0.26758 -0.8418,-1.19531 -0.32227,-1.95898 v -1.70508 l -11.24414,-6.36523 -16.48242,-9.32227 -5.23633,-2.95898 -1.17578,0.98828 -0.95117,0.69531 -0.76953,0.23633 -0.75586,-0.21875 -0.91016,-0.67188 -0.95312,-1.35156 -0.13086,-1.49414 0.64062,-1.35938 1.35938,-0.94726 0.70117,-0.54102 -0.0254,-1.23242 -0.0234,-1.38476 0.39844,-1.06836 0.77148,-0.69336 1.09758,-0.2558 m 40.08008,1.24218 0.76562,0.0879 0.91211,0.57031 0.67383,1.03711 0.32227,1.24804 -0.14258,1.19727 -0.18359,0.84766 0.5625,0.18554 0.79101,0.30469 0.79688,0.76367 0.61523,0.98828 0.24609,0.98243 -0.24609,0.95117 -0.59375,1.01953 -0.93555,0.80078 -1.05078,0.27344 -1.05078,-0.25391 -0.92578,-0.7832 -0.81055,-1.03125 -6.91406,3.46289 -7.32227,3.46094 -0.32226,-0.17188 -0.0703,-0.41797 0.16601,-0.52148 0.39063,-0.48047 2.03125,-3.55078 0.84375,-1.94336 0.3789,-1.50195 -0.0371,-1.45704 -0.41015,-1.80664 -0.0215,-0.36914 0.25782,-0.21679 1.82617,-0.12305 1.45703,0.0527 0.66797,0.33594 0.0312,0.87695 -0.45899,1.68164 -0.56054,1.86133 2.98242,-1.47656 2.98242,-1.47656 -0.23633,-1.48047 0.0156,-1.52344 0.5039,-1.23828 0.89258,-0.83984 1.17976,-0.32615 m -24.98242,16.9043 2.00195,1.12305 2.00195,1.33789 -7.04687,3.77539 -7.04688,3.5625 0.60547,1.20898 0.39258,1.21289 -0.29883,1.22657 -0.64648,0.97656 -0.83789,0.62109 -0.87696,0.28516 -0.6289,0.0156 -0.58203,-0.30273 -0.72657,-0.66797 -0.81054,-1.14648 -0.0195,-1.49024 0.0176,-1.37304 -0.26953,-0.28711 -0.52343,-0.17969 -0.74805,-0.42969 -0.70313,-0.79101 -0.52148,-0.96289 -0.20508,-0.9336 0.8418,-1.64062 0.91015,-0.77344 1.05665,-0.28906 1.07812,0.20117 0.97266,0.69336 0.83789,0.89844 5.88672,-2.93555 5.88861,-2.93553"
       style="display:inline;fill:#000000;stroke-width:0.40519935" />
  </g>
</svg>
