  0
SECTION
  2
HEADER
  9
$ACADVER
  1
AC1014
  9
$HANDSEED
  5
FFFF
  9
$MEASUREMENT
 70
     1
  0
ENDSEC
  0
SECTION
  2
TABLES
  0
TABLE
  2
VPORT
  5
8
330
0
100
AcDbSymbolTable
 70
     4
  0
VPORT
  5
2E
330
8
100
AcDbSymbolTableRecord
100
AcDbViewportTableRecord
  2
*ACTIVE
 70
     0
 10
0.0
 20
0.0
 11
1.0
 21
1.0
 12
210.0
 22
148.5
 13
0.0
 23
0.0
 14
10.0
 24
10.0
 15
10.0
 25
10.0
 16
0.0
 26
0.0
 36
1.0
 17
0.0
 27
0.0
 37
0.0
 40
341.0
 41
1.24
 42
50.0
 43
0.0
 44
0.0
 50
0.0
 51
0.0
 71
     0
 72
   100
 73
     1
 74
     3
 75
     0
 76
     0
 77
     0
 78
     0
  0
ENDTAB
  0
TABLE
  2
LTYPE
  5
5
330
0
100
AcDbSymbolTable
 70
     1
  0
LTYPE
  5
14
330
5
100
AcDbSymbolTableRecord
100
AcDbLinetypeTableRecord
  2
BYBLOCK
 70
     0
  3

 72
    65
 73
     0
 40
0.0
  0
LTYPE
  5
15
330
5
100
AcDbSymbolTableRecord
100
AcDbLinetypeTableRecord
  2
BYLAYER
 70
     0
  3

 72
    65
 73
     0
 40
0.0
  0
LTYPE
  5
16
330
5
100
AcDbSymbolTableRecord
100
AcDbLinetypeTableRecord
  2
CONTINUOUS
 70
     0
  3
Solid line
 72
    65
 73
     0
 40
0.0
  0
ENDTAB
  0
TABLE
  2
LAYER
  5
2
100
AcDbSymbolTable
 70
2
  0
LAYER
  5
50
100
AcDbSymbolTableRecord
100
AcDbLayerTableRecord
  2
0
 70
0
  6
CONTINUOUS
  0
LAYER
  5
51
100
AcDbSymbolTableRecord
100
AcDbLayerTableRecord
  2
SilkS
 70
0
  6
CONTINUOUS
  0
ENDTAB
  0
TABLE
  2
STYLE
  5
3
330
0
100
AcDbSymbolTable
 70
     1
  0
STYLE
  5
11
330
3
100
AcDbSymbolTableRecord
100
AcDbTextStyleTableRecord
  2
STANDARD
 70
     0
 40
0.0
 41
1.0
 50
0.0
 71
     0
 42
2.5
  3
txt
  4

  0
ENDTAB
  0
TABLE
  2
VIEW
  5
6
330
0
100
AcDbSymbolTable
 70
     0
  0
ENDTAB
  0
TABLE
  2
UCS
  5
7
330
0
100
AcDbSymbolTable
 70
     0
  0
ENDTAB
  0
TABLE
  2
APPID
  5
9
330
0
100
AcDbSymbolTable
 70
     2
  0
APPID
  5
12
330
9
100
AcDbSymbolTableRecord
100
AcDbRegAppTableRecord
  2
ACAD
 70
     0
  0
ENDTAB
  0
TABLE
  2
DIMSTYLE
  5
A
330
0
100
AcDbSymbolTable
 70
     1
  0
DIMSTYLE
105
27
330
A
100
AcDbSymbolTableRecord
100
AcDbDimStyleTableRecord
  2
ISO-25
 70
     0
  3

  4

  5

  6

  7

 40
1.0
 41
2.5
 42
0.625
 43
3.75
 44
1.25
 45
0.0
 46
0.0
 47
0.0
 48
0.0
140
2.5
141
2.5
142
0.0
143
0.03937007874016
144
1.0
145
0.0
146
1.0
147
0.625
 71
     0
 72
     0
 73
     0
 74
     0
 75
     0
 76
     0
 77
     1
 78
     8
170
     0
171
     3
172
     1
173
     0
174
     0
175
     0
176
     0
177
     0
178
     0
270
     2
271
     2
272
     2
273
     2
274
     3
340
11
275
     0
280
     0
281
     0
282
     0
283
     0
284
     8
285
     0
286
     0
287
     3
288
     0
  0
ENDTAB
  0
TABLE
  2
BLOCK_RECORD
  5
1
330
0
100
AcDbSymbolTable
 70
     1
  0
BLOCK_RECORD
  5
1F
330
1
100
AcDbSymbolTableRecord
100
AcDbBlockTableRecord
  2
*MODEL_SPACE
  0
BLOCK_RECORD
  5
1B
330
1
100
AcDbSymbolTableRecord
100
AcDbBlockTableRecord
  2
*PAPER_SPACE
  0
ENDTAB
  0
ENDSEC
  0
SECTION
  2
BLOCKS
  0
BLOCK
  5
20
330
1F
100
AcDbEntity
  8
0
100
AcDbBlockBegin
  2
*MODEL_SPACE
 70
     0
 10
0.0
 20
0.0
 30
0.0
  3
*MODEL_SPACE
  1

  0
ENDBLK
  5
21
330
1F
100
AcDbEntity
  8
0
100
AcDbBlockEnd
  0
BLOCK
  5
1C
330
1B
100
AcDbEntity
 67
     1
  8
0
100
AcDbBlockBegin
  2
*PAPER_SPACE
  1

  0
ENDBLK
  5
1D
330
1B
100
AcDbEntity
 67
     1
  8
0
100
AcDbBlockEnd
  0
ENDSEC
  0
SECTION
  2
ENTITIES
  0
LWPOLYLINE
  5
100
100
AcDbEntity
  8
SilkS
 62
7
100
AcDbPolyline
 90
53
 70
1
 10
104.537980
 20
159.673200
 30
0.0
 10
103.443560
 20
159.624200
 30
0.0
 10
102.554620
 20
159.477170
 30
0.0
 10
101.263390
 20
159.010810
 30
0.0
 10
100.096630
 20
158.361510
 30
0.0
 10
99.069039
 20
157.548260
 30
0.0
 10
98.195311
 20
156.590110
 30
0.0
 10
97.490153
 20
155.506070
 30
0.0
 10
96.968267
 20
154.315150
 30
0.0
 10
96.644353
 20
153.036400
 30
0.0
 10
96.533115
 20
151.688810
 30
0.0
 10
96.565295
 20
150.963160
 30
0.0
 10
96.660155
 20
150.254200
 30
0.0
 10
96.815210
 20
149.564910
 30
0.0
 10
97.027960
 20
148.898280
 30
0.0
 10
97.616559
 20
147.644910
 30
0.0
 10
98.405983
 20
146.517980
 30
0.0
 10
99.376263
 20
145.541360
 30
0.0
 10
100.507430
 20
144.738900
 30
0.0
 10
101.127100
 20
144.410450
 30
0.0
 10
101.779510
 20
144.134490
 30
0.0
 10
102.462150
 20
143.914010
 30
0.0
 10
103.172530
 20
143.752000
 30
0.0
 10
103.902180
 20
143.693000
 30
0.0
 10
104.860150
 20
143.706400
 30
0.0
 10
105.824920
 20
143.782000
 30
0.0
 10
106.574950
 20
143.909530
 30
0.0
 10
107.376930
 20
144.170800
 30
0.0
 10
108.148070
 20
144.520540
 30
0.0
 10
108.880980
 20
144.952650
 30
0.0
 10
109.568280
 20
145.461080
 30
0.0
 10
110.202610
 20
146.039760
 30
0.0
 10
110.776570
 20
146.682610
 30
0.0
 10
111.282780
 20
147.383560
 30
0.0
 10
111.713870
 20
148.136540
 30
0.0
 10
112.068930
 20
148.965130
 30
0.0
 10
112.325040
 20
149.834420
 30
0.0
 10
112.482040
 20
150.730690
 30
0.0
 10
112.539840
 20
151.640260
 30
0.0
 10
112.498240
 20
152.549410
 30
0.0
 10
112.357210
 20
153.444440
 30
0.0
 10
112.116580
 20
154.311660
 30
0.0
 10
111.776230
 20
155.137370
 30
0.0
 10
111.348180
 20
155.905310
 30
0.0
 10
110.841630
 20
156.619680
 30
0.0
 10
110.263150
 20
157.275040
 30
0.0
 10
109.619290
 20
157.865990
 30
0.0
 10
108.916620
 20
158.387100
 30
0.0
 10
108.161690
 20
158.832960
 30
0.0
 10
107.361070
 20
159.198140
 30
0.0
 10
106.521320
 20
159.477240
 30
0.0
 10
105.632380
 20
159.624270
 30
0.0
 10
104.537950
 20
159.673270
 30
0.0
  0
LWPOLYLINE
  5
101
100
AcDbEntity
  8
SilkS
 62
7
100
AcDbPolyline
 90
52
 70
1
 10
104.536770
 20
159.120047
 30
0.0
 10
103.578690
 20
159.075605
 30
0.0
 10
102.768920
 20
158.942794
 30
0.0
 10
101.915226
 20
158.664260
 30
0.0
 10
101.097187
 20
158.281336
 30
0.0
 10
100.326176
 20
157.804364
 30
0.0
 10
99.614073
 20
157.244191
 30
0.0
 10
98.972768
 20
156.610122
 30
0.0
 10
98.413114
 20
155.912490
 30
0.0
 10
97.946992
 20
155.162147
 30
0.0
 10
97.585772
 20
154.368916
 30
0.0
 10
97.323258
 20
153.527104
 30
0.0
 10
97.163061
 20
152.682713
 30
0.0
 10
97.100016
 20
151.842455
 30
0.0
 10
97.131538
 20
151.012531
 30
0.0
 10
97.253495
 20
150.200178
 30
0.0
 10
97.461751
 20
149.411077
 30
0.0
 10
97.752687
 20
148.652985
 30
0.0
 10
98.122175
 20
147.931582
 30
0.0
 10
98.566593
 20
147.253588
 30
0.0
 10
99.082324
 20
146.626234
 30
0.0
 10
99.665233
 20
146.055210
 30
0.0
 10
100.311190
 20
145.548263
 30
0.0
 10
101.017090
 20
145.110566
 30
0.0
 10
101.778799
 20
144.749865
 30
0.0
 10
102.592186
 20
144.472362
 30
0.0
 10
103.453632
 20
144.284775
 30
0.0
 10
104.100621
 20
144.233615
 30
0.0
 10
104.878350
 20
144.249119
 30
0.0
 10
105.670034
 20
144.324049
 30
0.0
 10
106.360432
 20
144.452208
 30
0.0
 10
107.082351
 20
144.697670
 30
0.0
 10
107.914859
 20
145.058890
 30
0.0
 10
108.828497
 20
145.598391
 30
0.0
 10
109.748340
 20
146.425214
 30
0.0
 10
110.591181
 20
147.365207
 30
0.0
 10
111.171507
 20
148.365663
 30
0.0
 10
111.529626
 20
149.196621
 30
0.0
 10
111.785422
 20
150.023960
 30
0.0
 10
111.938902
 20
150.849749
 30
0.0
 10
111.989546
 20
151.676056
 30
0.0
 10
111.937351
 20
152.503394
 30
0.0
 10
111.783356
 20
153.334353
 30
0.0
 10
111.526525
 20
154.169960
 30
0.0
 10
111.166856
 20
155.012287
 30
0.0
 10
110.594281
 20
156.011708
 30
0.0
 10
109.749372
 20
156.944468
 30
0.0
 10
108.960789
 20
157.637449
 30
0.0
 10
108.126732
 20
158.200204
 30
0.0
 10
107.243582
 20
158.634803
 30
0.0
 10
106.306687
 20
158.943829
 30
0.0
 10
105.495369
 20
159.076121
 30
0.0
  0
LWPOLYLINE
  5
102
100
AcDbEntity
  8
SilkS
 62
7
100
AcDbPolyline
 90
32
 70
1
 10
104.668028
 20
157.331008
 30
0.0
 10
105.322768
 20
157.271062
 30
0.0
 10
105.959422
 20
157.083993
 30
0.0
 10
106.559902
 20
156.769285
 30
0.0
 10
107.106123
 20
156.327452
 30
0.0
 10
107.450288
 20
155.912490
 30
0.0
 10
107.743293
 20
155.413295
 30
0.0
 10
107.963950
 20
154.872243
 30
0.0
 10
108.090043
 20
154.333774
 30
0.0
 10
108.158771
 20
153.833029
 30
0.0
 10
107.663712
 20
153.833029
 30
0.0
 10
107.107674
 20
153.908993
 30
0.0
 10
106.394537
 20
154.098647
 30
0.0
 10
105.705173
 20
154.345659
 30
0.0
 10
105.218382
 20
154.595256
 30
0.0
 10
104.979638
 20
154.727032
 30
0.0
 10
104.748128
 20
154.789561
 30
0.0
 10
104.554857
 20
154.779216
 30
0.0
 10
104.430834
 20
154.691364
 30
0.0
 10
103.863427
 20
154.338415
 30
0.0
 10
103.237108
 20
154.070730
 30
0.0
 10
102.580301
 20
153.895547
 30
0.0
 10
101.912125
 20
153.833018
 30
0.0
 10
101.238263
 20
153.833018
 30
0.0
 10
101.301308
 20
154.369421
 30
0.0
 10
101.410345
 20
154.912539
 30
0.0
 10
101.602584
 20
155.417420
 30
0.0
 10
101.877502
 20
155.880441
 30
0.0
 10
102.233036
 20
156.299020
 30
0.0
 10
102.777704
 20
156.747570
 30
0.0
 10
103.377668
 20
157.068997
 30
0.0
 10
104.013806
 20
157.263301
 30
0.0
  0
LWPOLYLINE
  5
103
100
AcDbEntity
  8
SilkS
 62
7
100
AcDbPolyline
 90
16
 70
1
 10
103.541482
 20
155.692864
 30
0.0
 10
103.285167
 20
155.643771
 30
0.0
 10
103.075876
 20
155.510447
 30
0.0
 10
102.934800
 20
155.312010
 30
0.0
 10
102.882609
 20
155.069130
 30
0.0
 10
102.932734
 20
154.830386
 30
0.0
 10
103.075876
 20
154.627813
 30
0.0
 10
103.289302
 20
154.492421
 30
0.0
 10
103.541482
 20
154.444878
 30
0.0
 10
103.793664
 20
154.492421
 30
0.0
 10
104.007604
 20
154.627813
 30
0.0
 10
104.150230
 20
154.830386
 30
0.0
 10
104.200355
 20
155.069130
 30
0.0
 10
104.150230
 20
155.307874
 30
0.0
 10
104.007604
 20
155.510447
 30
0.0
 10
103.793664
 20
155.645840
 30
0.0
  0
LWPOLYLINE
  5
104
100
AcDbEntity
  8
SilkS
 62
7
100
AcDbPolyline
 90
16
 70
1
 10
105.930484
 20
155.655659
 30
0.0
 10
105.745482
 20
155.625687
 30
0.0
 10
105.589937
 20
155.543520
 30
0.0
 10
105.386332
 20
155.265501
 30
0.0
 10
105.351190
 20
154.909968
 30
0.0
 10
105.519139
 20
154.565284
 30
0.0
 10
105.697423
 20
154.443846
 30
0.0
 10
105.931000
 20
154.379766
 30
0.0
 10
106.171813
 20
154.380296
 30
0.0
 10
106.371283
 20
154.451611
 30
0.0
 10
106.528898
 20
154.608189
 30
0.0
 10
106.632249
 20
154.815929
 30
0.0
 10
106.672040
 20
155.043304
 30
0.0
 10
106.636385
 20
155.258797
 30
0.0
 10
106.536647
 20
155.440179
 30
0.0
 10
106.391439
 20
155.563171
 30
0.0
  0
LWPOLYLINE
  5
105
100
AcDbEntity
  8
SilkS
 62
7
100
AcDbPolyline
 90
70
 70
1
 10
99.430622
 20
154.995232
 30
0.0
 10
99.521572
 20
154.992137
 30
0.0
 10
99.888475
 20
154.889301
 30
0.0
 10
100.141689
 20
154.671226
 30
0.0
 10
100.260546
 20
154.365820
 30
0.0
 10
100.225922
 20
154.000984
 30
0.0
 10
100.111202
 20
153.627363
 30
0.0
 10
100.687909
 20
153.301801
 30
0.0
 10
101.324562
 20
152.975723
 30
0.0
 10
101.314746
 20
153.351410
 30
0.0
 10
101.243949
 20
153.726582
 30
0.0
 10
101.914191
 20
153.726582
 30
0.0
 10
102.583918
 20
153.726582
 30
0.0
 10
102.514671
 20
153.136952
 30
0.0
 10
102.506416
 20
152.541640
 30
0.0
 10
102.661446
 20
151.930825
 30
0.0
 10
102.861434
 20
151.430080
 30
0.0
 10
103.083126
 20
151.055944
 30
0.0
 10
103.373546
 20
150.745368
 30
0.0
 10
103.780239
 20
150.435311
 30
0.0
 10
104.213807
 20
150.197598
 30
0.0
 10
104.639103
 20
150.087526
 30
0.0
 10
105.056132
 20
150.105095
 30
0.0
 10
105.464892
 20
150.250306
 30
0.0
 10
105.672113
 20
150.335571
 30
0.0
 10
105.903108
 20
150.310250
 30
0.0
 10
106.986765
 20
149.746460
 30
0.0
 10
108.566512
 20
148.861759
 30
0.0
 10
108.949433
 20
148.649886
 30
0.0
 10
109.183013
 20
148.883463
 30
0.0
 10
109.410903
 20
149.047796
 30
0.0
 10
109.630529
 20
149.116524
 30
0.0
 10
109.816565
 20
149.079318
 30
0.0
 10
109.978829
 20
148.978033
 30
0.0
 10
110.206204
 20
148.645235
 30
0.0
 10
110.264081
 20
148.242158
 30
0.0
 10
110.214991
 20
148.052507
 30
0.0
 10
110.105435
 20
147.891276
 30
0.0
 10
109.887878
 20
147.772420
 30
0.0
 10
109.601591
 20
147.722810
 30
0.0
 10
109.362845
 20
147.695939
 30
0.0
 10
109.394886
 20
147.594138
 30
0.0
 10
109.503923
 20
147.359008
 30
0.0
 10
109.521491
 20
147.027763
 30
0.0
 10
109.454314
 20
146.690316
 30
0.0
 10
109.309102
 20
146.436067
 30
0.0
 10
109.133919
 20
146.300159
 30
0.0
 10
108.961837
 20
146.237630
 30
0.0
 10
108.799054
 20
146.244879
 30
0.0
 10
108.652295
 20
146.315677
 30
0.0
 10
108.429569
 20
146.631936
 30
0.0
 10
108.344302
 20
147.150249
 30
0.0
 10
108.344302
 20
147.601385
 30
0.0
 10
105.369290
 20
149.285519
 30
0.0
 10
101.008316
 20
151.752036
 30
0.0
 10
99.622871
 20
152.534933
 30
0.0
 10
99.311779
 20
152.273450
 30
0.0
 10
99.060115
 20
152.089483
 30
0.0
 10
98.856510
 20
152.026954
 30
0.0
 10
98.656522
 20
152.084831
 30
0.0
 10
98.415709
 20
152.262600
 30
0.0
 10
98.163530
 20
152.620200
 30
0.0
 10
98.128906
 20
153.015525
 30
0.0
 10
98.298404
 20
153.375194
 30
0.0
 10
98.658073
 20
153.625823
 30
0.0
 10
98.843591
 20
153.768968
 30
0.0
 10
98.836870
 20
154.095046
 30
0.0
 10
98.830679
 20
154.461430
 30
0.0
 10
98.936100
 20
154.744100
 30
0.0
 10
99.140220
 20
154.927552
 30
0.0
  0
LWPOLYLINE
  5
106
100
AcDbEntity
  8
SilkS
 62
7
100
AcDbPolyline
 90
44
 70
1
 10
110.035143
 20
154.666572
 30
0.0
 10
110.237713
 20
154.643315
 30
0.0
 10
110.479042
 20
154.492421
 30
0.0
 10
110.657326
 20
154.218019
 30
0.0
 10
110.742594
 20
153.887808
 30
0.0
 10
110.704869
 20
153.571030
 30
0.0
 10
110.656295
 20
153.346754
 30
0.0
 10
110.805123
 20
153.297663
 30
0.0
 10
111.014411
 20
153.217047
 30
0.0
 10
111.225252
 20
153.014993
 30
0.0
 10
111.388031
 20
152.753510
 30
0.0
 10
111.453143
 20
152.493576
 30
0.0
 10
111.388031
 20
152.241912
 30
0.0
 10
111.230935
 20
151.972161
 30
0.0
 10
110.983404
 20
151.760288
 30
0.0
 10
110.705385
 20
151.687941
 30
0.0
 10
110.427366
 20
151.755121
 30
0.0
 10
110.182420
 20
151.962343
 30
0.0
 10
109.967962
 20
152.235194
 30
0.0
 10
108.138617
 20
151.318971
 30
0.0
 10
106.201267
 20
150.403264
 30
0.0
 10
106.116002
 20
150.448741
 30
0.0
 10
106.097402
 20
150.559329
 30
0.0
 10
106.141326
 20
150.697304
 30
0.0
 10
106.244680
 20
150.824428
 30
0.0
 10
106.782115
 20
151.763905
 30
0.0
 10
107.005357
 20
152.278086
 30
0.0
 10
107.105607
 20
152.675477
 30
0.0
 10
107.095791
 20
153.060985
 30
0.0
 10
106.987273
 20
153.538992
 30
0.0
 10
106.981584
 20
153.636660
 30
0.0
 10
107.049799
 20
153.694019
 30
0.0
 10
107.532973
 20
153.726576
 30
0.0
 10
107.918479
 20
153.712633
 30
0.0
 10
108.095213
 20
153.623749
 30
0.0
 10
108.103468
 20
153.391722
 30
0.0
 10
107.982026
 20
152.946788
 30
0.0
 10
107.833717
 20
152.454312
 30
0.0
 10
108.622816
 20
152.844985
 30
0.0
 10
109.411914
 20
153.235658
 30
0.0
 10
109.349385
 20
153.627366
 30
0.0
 10
109.353513
 20
154.030442
 30
0.0
 10
109.486836
 20
154.358071
 30
0.0
 10
109.722998
 20
154.580278
 30
0.0
  0
LWPOLYLINE
  5
107
100
AcDbEntity
  8
SilkS
 62
7
100
AcDbPolyline
 90
30
 70
1
 10
103.425211
 20
150.193976
 30
0.0
 10
103.954894
 20
149.896836
 30
0.0
 10
104.484576
 20
149.542852
 30
0.0
 10
102.620092
 20
148.543947
 30
0.0
 10
100.755605
 20
147.601369
 30
0.0
 10
100.915802
 20
147.281493
 30
0.0
 10
101.019672
 20
146.960583
 30
0.0
 10
100.940607
 20
146.636053
 30
0.0
 10
100.769559
 20
146.377671
 30
0.0
 10
100.547867
 20
146.213341
 30
0.0
 10
100.315838
 20
146.137893
 30
0.0
 10
100.149442
 20
146.133765
 30
0.0
 10
99.995446
 20
146.213862
 30
0.0
 10
99.803208
 20
146.390596
 30
0.0
 10
99.588753
 20
146.693936
 30
0.0
 10
99.583593
 20
147.088228
 30
0.0
 10
99.588250
 20
147.451512
 30
0.0
 10
99.516937
 20
147.527476
 30
0.0
 10
99.378446
 20
147.575019
 30
0.0
 10
99.180524
 20
147.688708
 30
0.0
 10
98.994488
 20
147.897996
 30
0.0
 10
98.856513
 20
148.152761
 30
0.0
 10
98.802252
 20
148.399776
 30
0.0
 10
99.024979
 20
148.833856
 30
0.0
 10
99.265789
 20
149.038496
 30
0.0
 10
99.545361
 20
149.114976
 30
0.0
 10
99.830614
 20
149.061750
 30
0.0
 10
100.087963
 20
148.878298
 30
0.0
 10
100.309655
 20
148.640586
 30
0.0
 10
101.867183
 20
149.417284
 30
0.0
  0
ENDSEC
  0
SECTION
  2
OBJECTS
  0
DICTIONARY
  5
C
330
0
100
AcDbDictionary
  3
ACAD_GROUP
350
D
  3
ACAD_MLINESTYLE
350
17
  0
DICTIONARY
  5
D
330
C
100
AcDbDictionary
  0
DICTIONARY
  5
1A
330
C
100
AcDbDictionary
  0
DICTIONARY
  5
17
330
C
100
AcDbDictionary
  3
STANDARD
350
18
  0
DICTIONARY
  5
19
330
C
100
AcDbDictionary
  0
ENDSEC
  0
EOF
