%TF.GenerationSoftware,KiCad,Pcbnew,5.1.6-c6e7f7d~86~ubuntu18.04.1*%
%TF.CreationDate,2020-06-22T17:01:26-04:00*%
%TF.ProjectId,aerospace_badge,6165726f-7370-4616-9365-5f6261646765,V02*%
%TF.SameCoordinates,Original*%
%TF.FileFunction,Legend,Top*%
%TF.FilePolarity,Positive*%
%FSLAX46Y46*%
G04 Gerber Fmt 4.6, Leading zero omitted, Abs format (unit mm)*
G04 Created by KiCad (PCBNEW 5.1.6-c6e7f7d~86~ubuntu18.04.1) date 2020-06-22 17:01:26*
%MOMM*%
%LPD*%
G01*
G04 APERTURE LIST*
%ADD10C,0.300000*%
%ADD11C,0.100000*%
%ADD12C,0.158750*%
%ADD13C,0.079375*%
%ADD14C,0.105833*%
%ADD15C,0.077942*%
%ADD16C,0.082608*%
%ADD17C,0.070115*%
G04 APERTURE END LIST*
D10*
X107302384Y-101436519D02*
X106647622Y-100302438D01*
X106425476Y-100155765D01*
X106159756Y-100171714D01*
X105747363Y-100409810D01*
X105600690Y-100631956D01*
X107242860Y-101333420D02*
X107096187Y-101555566D01*
X106580696Y-101853185D01*
X106314976Y-101869135D01*
X106092830Y-101722462D01*
X105973782Y-101516265D01*
X105957833Y-101250545D01*
X106104505Y-101028399D01*
X106619997Y-100730780D01*
X106766669Y-100508634D01*
X109098629Y-100261992D02*
X108951956Y-100484138D01*
X108539563Y-100722233D01*
X108273843Y-100738182D01*
X108051697Y-100591510D01*
X107575506Y-99766724D01*
X107559557Y-99501003D01*
X107706230Y-99278857D01*
X108118623Y-99040762D01*
X108384343Y-99024813D01*
X108606489Y-99171485D01*
X108725536Y-99377682D01*
X107813601Y-100179117D01*
X110189135Y-99769852D02*
X109355802Y-98326476D01*
X109593897Y-98738869D02*
X109577948Y-98473149D01*
X109621522Y-98310527D01*
X109768195Y-98088381D01*
X109974391Y-97969334D01*
X111838707Y-98817471D02*
X111572987Y-98833420D01*
X111410365Y-98789846D01*
X111188219Y-98643173D01*
X110831076Y-98024584D01*
X110815127Y-97758863D01*
X110858701Y-97596241D01*
X111005374Y-97374095D01*
X111314669Y-97195524D01*
X111580389Y-97179575D01*
X111743011Y-97223149D01*
X111965157Y-97369822D01*
X112322300Y-97988411D01*
X112338249Y-98254132D01*
X112294675Y-98416754D01*
X112148002Y-98638900D01*
X111838707Y-98817471D01*
X113325657Y-97821516D02*
X113591378Y-97805566D01*
X114003771Y-97567471D01*
X114150443Y-97345325D01*
X114134494Y-97079605D01*
X114074970Y-96976507D01*
X113852824Y-96829834D01*
X113587104Y-96845783D01*
X113277809Y-97024355D01*
X113012089Y-97040304D01*
X112789943Y-96893631D01*
X112730419Y-96790533D01*
X112714470Y-96524813D01*
X112861143Y-96302667D01*
X113170437Y-96124095D01*
X113436158Y-96108146D01*
X114407617Y-95409810D02*
X115657617Y-97574873D01*
X114467140Y-95512908D02*
X114613813Y-95290762D01*
X115026206Y-95052667D01*
X115291927Y-95036717D01*
X115454549Y-95080292D01*
X115676694Y-95226965D01*
X116033837Y-95845554D01*
X116049787Y-96111275D01*
X116006212Y-96273897D01*
X115859540Y-96496043D01*
X115447146Y-96734138D01*
X115181426Y-96750087D01*
X118127701Y-95186519D02*
X117472939Y-94052438D01*
X117250793Y-93905765D01*
X116985073Y-93921714D01*
X116572680Y-94159810D01*
X116426007Y-94381956D01*
X118068177Y-95083420D02*
X117921505Y-95305566D01*
X117406013Y-95603185D01*
X117140293Y-95619135D01*
X116918147Y-95472462D01*
X116799100Y-95266265D01*
X116783150Y-95000545D01*
X116929823Y-94778399D01*
X117445314Y-94480780D01*
X117591987Y-94258634D01*
X120027044Y-93952468D02*
X119880372Y-94174614D01*
X119467979Y-94412709D01*
X119202258Y-94428659D01*
X119039636Y-94385084D01*
X118817490Y-94238411D01*
X118460348Y-93619822D01*
X118444398Y-93354101D01*
X118487973Y-93191479D01*
X118634645Y-92969334D01*
X119047038Y-92731238D01*
X119312759Y-92715289D01*
X121779715Y-92940563D02*
X121633042Y-93162709D01*
X121220649Y-93400804D01*
X120954929Y-93416754D01*
X120732783Y-93270081D01*
X120256592Y-92445295D01*
X120240643Y-92179575D01*
X120387316Y-91957429D01*
X120799709Y-91719334D01*
X121065429Y-91703384D01*
X121287575Y-91850057D01*
X121406623Y-92056253D01*
X120494688Y-92857688D01*
X121830691Y-91124095D02*
X123179516Y-92269852D01*
X122861674Y-90528857D01*
X124519794Y-91496043D02*
X123686460Y-90052667D01*
X123269794Y-89330979D02*
X123226219Y-89493601D01*
X123388841Y-89537176D01*
X123432416Y-89374553D01*
X123269794Y-89330979D01*
X123388841Y-89537176D01*
X125860071Y-90722233D02*
X125594351Y-90738182D01*
X125372205Y-90591510D01*
X124300776Y-88735741D01*
X126994152Y-90067471D02*
X126728432Y-90083420D01*
X126506286Y-89936748D01*
X125434857Y-88080979D01*
X128746822Y-89055566D02*
X128092060Y-87921485D01*
X127869915Y-87774813D01*
X127604194Y-87790762D01*
X127191801Y-88028857D01*
X127045128Y-88251003D01*
X128687298Y-88952468D02*
X128540626Y-89174614D01*
X128025134Y-89472233D01*
X127759414Y-89488182D01*
X127537268Y-89341510D01*
X127418221Y-89135313D01*
X127402271Y-88869593D01*
X127548944Y-88647447D01*
X128064435Y-88349828D01*
X128211108Y-88127682D01*
X129872356Y-86481238D02*
X130884261Y-88233909D01*
X130900210Y-88499629D01*
X130856636Y-88662251D01*
X130709963Y-88884397D01*
X130400668Y-89062968D01*
X130134948Y-89078918D01*
X130646165Y-87821516D02*
X130499493Y-88043662D01*
X130087100Y-88281757D01*
X129821379Y-88297706D01*
X129658757Y-88254132D01*
X129436611Y-88107459D01*
X129079469Y-87488869D01*
X129063519Y-87223149D01*
X129107094Y-87060527D01*
X129253766Y-86838381D01*
X129666159Y-86600286D01*
X129931880Y-86584337D01*
X132501934Y-86750087D02*
X132355261Y-86972233D01*
X131942868Y-87210328D01*
X131677148Y-87226278D01*
X131455002Y-87079605D01*
X130978812Y-86254819D01*
X130962862Y-85989098D01*
X131109535Y-85766953D01*
X131521928Y-85528857D01*
X131787648Y-85512908D01*
X132009794Y-85659581D01*
X132128842Y-85865777D01*
X131216907Y-86667212D01*
X133473393Y-86051751D02*
X133636015Y-86095325D01*
X133592441Y-86257947D01*
X133429819Y-86214373D01*
X133473393Y-86051751D01*
X133592441Y-86257947D01*
X134932718Y-85484138D02*
X134666998Y-85500087D01*
X134504376Y-85456513D01*
X134282230Y-85309840D01*
X133925087Y-84691250D01*
X133909138Y-84425530D01*
X133952712Y-84262908D01*
X134099385Y-84040762D01*
X134408679Y-83862191D01*
X134674400Y-83846241D01*
X134837022Y-83889816D01*
X135059168Y-84036488D01*
X135416311Y-84655078D01*
X135432260Y-84920798D01*
X135388686Y-85083420D01*
X135242013Y-85305566D01*
X134932718Y-85484138D01*
X136582290Y-84531757D02*
X135748957Y-83088381D01*
X135987052Y-83500774D02*
X135971103Y-83235054D01*
X136014677Y-83072432D01*
X136161350Y-82850286D01*
X136367546Y-82731238D01*
X138017119Y-81778857D02*
X139029023Y-83531528D01*
X139044973Y-83797248D01*
X139001398Y-83959870D01*
X138854726Y-84182016D01*
X138545431Y-84360587D01*
X138279711Y-84376537D01*
X138790928Y-83119135D02*
X138644255Y-83341281D01*
X138231862Y-83579376D01*
X137966142Y-83595325D01*
X137803520Y-83551751D01*
X137581374Y-83405078D01*
X137224231Y-82786488D01*
X137208282Y-82520768D01*
X137251856Y-82358146D01*
X137398529Y-82136000D01*
X137810922Y-81897905D01*
X138076642Y-81881956D01*
D11*
%TO.C,J8*%
G36*
X125611348Y-94328771D02*
G01*
X125912128Y-94627591D01*
X130718768Y-94627591D01*
X130718768Y-99152991D01*
X125912128Y-99152991D01*
X125912128Y-94627591D01*
X125611348Y-94328771D01*
X125611348Y-99451811D01*
X131019548Y-99451811D01*
X131019548Y-94328771D01*
X129216815Y-94328771D01*
X127414081Y-94328771D01*
X125611348Y-94328771D01*
G37*
G36*
X183639342Y-101208851D02*
G01*
X195959742Y-107013681D01*
X183518332Y-101484381D01*
X171278062Y-96130771D01*
X171277932Y-96130771D01*
X171291632Y-99394441D01*
X174166672Y-100647891D01*
X177053352Y-101806551D01*
X177059352Y-101808551D01*
X201918722Y-112929651D01*
X201918722Y-112898451D01*
X201569112Y-112093761D01*
X200862082Y-110613291D01*
X195356222Y-108423841D01*
X195959742Y-107013681D01*
X183639342Y-101208851D01*
X189523492Y-103738861D01*
X196352232Y-106859241D01*
X195752622Y-108257681D01*
X201080742Y-110378781D01*
X201840512Y-111968621D01*
X202217462Y-112833851D01*
X202223462Y-113394401D01*
X176951982Y-102089711D01*
X176941982Y-102085711D01*
X173995952Y-100902051D01*
X171082602Y-99632581D01*
X170992802Y-99593481D01*
X170966402Y-95683041D01*
X173081092Y-96600946D01*
X175194362Y-97520599D01*
X177306516Y-98441607D01*
X179417855Y-99363580D01*
X181528683Y-100286126D01*
X183639302Y-101208851D01*
X183639342Y-101208851D01*
G37*
G36*
X165835412Y-94422311D02*
G01*
X166136192Y-94721131D01*
X170942832Y-94721131D01*
X170942832Y-99246531D01*
X166136192Y-99246531D01*
X166136192Y-94721131D01*
X165835412Y-94422311D01*
X165835412Y-99545351D01*
X171243612Y-99545351D01*
X171243612Y-94422311D01*
X169440879Y-94422311D01*
X167638145Y-94422311D01*
X165835412Y-94422311D01*
G37*
G36*
X165964322Y-95160591D02*
G01*
X155997522Y-95195791D01*
X155997522Y-95494621D01*
X165964322Y-95459521D01*
X165964322Y-95160591D01*
G37*
G36*
X140692835Y-95248481D02*
G01*
X130726038Y-95283581D01*
X130726038Y-95584371D01*
X140692835Y-95549171D01*
X140692835Y-95248481D01*
G37*
G36*
X113218179Y-101076561D02*
G01*
X100897873Y-106881391D01*
X113339280Y-101352091D01*
X125579553Y-95998481D01*
X125565883Y-99262151D01*
X122690839Y-100515601D01*
X119804164Y-101674261D01*
X119798264Y-101676261D01*
X94938889Y-112797361D01*
X94938889Y-112766161D01*
X95288498Y-111961471D01*
X95995530Y-110481001D01*
X101501389Y-108291551D01*
X100897873Y-106881391D01*
X113218179Y-101076561D01*
X107334023Y-103606571D01*
X100505288Y-106726951D01*
X101104897Y-108125391D01*
X95776773Y-110246491D01*
X95017007Y-111836331D01*
X94640054Y-112701561D01*
X94634154Y-113262111D01*
X119905639Y-101957421D01*
X119915439Y-101953421D01*
X122861464Y-100769761D01*
X125774814Y-99500291D01*
X125864654Y-99461191D01*
X125891074Y-95550751D01*
X123776387Y-96468656D01*
X121663118Y-97388309D01*
X119550964Y-98309317D01*
X117439625Y-99231290D01*
X115328798Y-100153836D01*
X113218182Y-101076561D01*
X113218179Y-101076561D01*
G37*
D10*
X210052184Y-110817374D02*
X175303399Y-82125069D01*
X209349900Y-112020919D02*
X210052184Y-110817374D01*
X174287442Y-83391659D02*
X209349900Y-112020919D01*
X175303399Y-82125069D02*
X174287442Y-83391659D01*
X122471485Y-83379255D02*
X121413151Y-82125069D01*
X87659655Y-112020919D02*
X122471485Y-83379255D01*
X86756868Y-110717121D02*
X87659655Y-112020919D01*
X121413151Y-82125069D02*
X86756868Y-110717121D01*
D12*
X148229632Y-126238841D02*
X148230062Y-126238841D01*
X148581812Y-126595621D02*
X148229632Y-126238841D01*
X148891942Y-127616791D02*
X148581812Y-126595621D01*
X149390452Y-131277711D02*
X148891942Y-127616791D01*
X149733992Y-136472301D02*
X149390452Y-131277711D01*
X149931372Y-142451281D02*
X149733992Y-136472301D01*
X149923372Y-153765191D02*
X149931372Y-142451281D01*
X149735152Y-157601551D02*
X149923372Y-153765191D01*
X149436042Y-159225111D02*
X149735152Y-157601551D01*
X148823462Y-159613671D02*
X149436042Y-159225111D01*
X148322482Y-159726461D02*
X148823462Y-159613671D01*
X147828512Y-159588571D02*
X148322482Y-159726461D01*
X147236962Y-159225111D02*
X147828512Y-159588571D01*
X146939442Y-157630071D02*
X147236962Y-159225111D01*
X146732152Y-153812801D02*
X146939442Y-157630071D01*
X146648752Y-142511311D02*
X146732152Y-153812801D01*
X146802892Y-136526971D02*
X146648752Y-142511311D01*
X147107752Y-131320151D02*
X146802892Y-136526971D01*
X147578432Y-127640791D02*
X147107752Y-131320151D01*
X147880682Y-126608271D02*
X147578432Y-127640791D01*
X148230062Y-126238841D02*
X147880682Y-126608271D01*
D10*
X151489352Y-154356834D02*
X153646325Y-139734988D01*
X153646325Y-139734988D02*
X151489352Y-154356834D01*
X145269575Y-154356834D02*
X143188050Y-139734988D01*
X143188050Y-139734988D02*
X145269575Y-154356834D01*
D13*
X144642492Y-149992921D02*
X145267912Y-154348961D01*
X127688107Y-158294551D02*
X144642492Y-149992921D01*
X127726697Y-160809641D02*
X127688107Y-158294551D01*
X128540855Y-160556967D02*
X127726697Y-160809641D01*
X130665450Y-159689341D02*
X128540855Y-160556967D01*
X133611575Y-158443412D02*
X130665450Y-159689341D01*
X136890323Y-157055831D02*
X133611575Y-158443412D01*
X140012788Y-155763246D02*
X136890323Y-157055831D01*
X142490063Y-154802306D02*
X140012788Y-155763246D01*
X143833242Y-154409661D02*
X142490063Y-154802306D01*
X145267912Y-154348961D02*
X143833242Y-154409661D01*
X151508732Y-154342641D02*
X152116462Y-150243731D01*
X153576222Y-154521881D02*
X151508732Y-154342641D01*
X168980262Y-160797831D02*
X153576222Y-154521881D01*
X168949062Y-158057141D02*
X168980262Y-160797831D01*
X152116462Y-150243731D02*
X168949062Y-158057141D01*
D11*
G36*
X140688929Y-66826601D02*
G01*
X140476038Y-99494571D01*
X140874476Y-99496571D01*
X141087366Y-66828601D01*
X140688929Y-66826601D01*
G37*
D14*
X155784982Y-66792621D02*
X156033262Y-99388731D01*
X156033262Y-99388731D02*
X155784982Y-66792621D01*
D15*
G36*
X142434180Y-33429968D02*
G01*
X143494142Y-33828902D01*
X143120042Y-37120105D01*
X141873020Y-37045305D01*
X142434180Y-33429968D01*
G37*
X142434180Y-33429968D02*
X143494142Y-33828902D01*
X143120042Y-37120105D01*
X141873020Y-37045305D01*
X142434180Y-33429968D01*
D16*
G36*
X154365072Y-33620523D02*
G01*
X153136862Y-33951967D01*
X153724112Y-37214091D01*
X154919262Y-37164411D01*
X154365072Y-33620523D01*
G37*
X154365072Y-33620523D02*
X153136862Y-33951967D01*
X153724112Y-37214091D01*
X154919262Y-37164411D01*
X154365072Y-33620523D01*
D17*
G36*
X140980745Y-55765691D02*
G01*
X142861782Y-55740591D01*
X142861782Y-59502661D01*
X140955665Y-59477561D01*
X140980745Y-55765691D01*
G37*
X140980745Y-55765691D02*
X142861782Y-55740591D01*
X142861782Y-59502661D01*
X140955665Y-59477561D01*
X140980745Y-55765691D01*
G36*
X155753122Y-55891101D02*
G01*
X153947332Y-55891101D01*
X153897132Y-59427441D01*
X155728002Y-59427441D01*
X155753122Y-55891101D01*
G37*
X155753122Y-55891101D02*
X153947332Y-55891101D01*
X153897132Y-59427441D01*
X155728002Y-59427441D01*
X155753122Y-55891101D01*
G36*
X141029836Y-124766871D02*
G01*
X142785558Y-124802371D01*
X142803288Y-128491161D01*
X141278119Y-128526661D01*
X141029836Y-124766871D01*
G37*
X141029836Y-124766871D02*
X142785558Y-124802371D01*
X142803288Y-128491161D01*
X141278119Y-128526661D01*
X141029836Y-124766871D01*
G36*
X155714042Y-124820081D02*
G01*
X154259812Y-124802381D01*
X154259812Y-128420231D01*
X155430292Y-128491131D01*
X155714042Y-124820081D01*
G37*
X155714042Y-124820081D02*
X154259812Y-124802381D01*
X154259812Y-128420231D01*
X155430292Y-128491131D01*
X155714042Y-124820081D01*
G36*
X140639676Y-97225111D02*
G01*
X142696883Y-97225111D01*
X142668603Y-100741341D01*
X140675145Y-100736341D01*
X140639676Y-97225111D01*
G37*
X140639676Y-97225111D02*
X142696883Y-97225111D01*
X142668603Y-100741341D01*
X140675145Y-100736341D01*
X140639676Y-97225111D01*
G36*
X156033262Y-97260581D02*
G01*
X154188872Y-97260581D01*
X154153372Y-100772021D01*
X156068702Y-100807521D01*
X156033262Y-97260581D01*
G37*
X156033262Y-97260581D02*
X154188872Y-97260581D01*
X154153372Y-100772021D01*
X156068702Y-100807521D01*
X156033262Y-97260581D01*
%TD*%
M02*
