%TF.GenerationSoftware,KiCad,Pcbnew,5.1.6-c6e7f7d~86~ubuntu18.04.1*%
%TF.CreationDate,2020-06-23T08:01:43-04:00*%
%TF.ProjectId,aerospace_badge,6165726f-7370-4616-9365-5f6261646765,V02*%
%TF.SameCoordinates,Original*%
%TF.FileFunction,Soldermask,Top*%
%TF.FilePolarity,Negative*%
%FSLAX46Y46*%
G04 Gerber Fmt 4.6, Leading zero omitted, Abs format (unit mm)*
G04 Created by KiCad (PCBNEW 5.1.6-c6e7f7d~86~ubuntu18.04.1) date 2020-06-23 08:01:43*
%MOMM*%
%LPD*%
G01*
G04 APERTURE LIST*
%ADD10C,0.007294*%
%ADD11C,0.100000*%
%ADD12C,0.070004*%
%ADD13R,2.600000X2.600000*%
%ADD14R,1.700000X5.000000*%
%ADD15C,2.500000*%
%ADD16R,1.800000X1.800000*%
%ADD17O,1.800000X1.800000*%
G04 APERTURE END LIST*
D10*
%TO.C,J8*%
G36*
X167575782Y-84334491D02*
G01*
X164492142Y-86333171D01*
X164571642Y-86368271D01*
X164506142Y-86449271D01*
X164440842Y-86510671D01*
X164348642Y-86394481D01*
X164256642Y-86278281D01*
X164256642Y-86278071D01*
X164334642Y-86297671D01*
X164492142Y-86333171D01*
X167575782Y-84334491D01*
X164137132Y-86811511D01*
X164030322Y-86932701D01*
X163902872Y-87056821D01*
X163888272Y-86977621D01*
X163882272Y-86783581D01*
X163892672Y-86508021D01*
X163892652Y-86507991D01*
X164020102Y-86659641D01*
X164137132Y-86811511D01*
X167575782Y-84334491D01*
X163468232Y-87556921D01*
X163362672Y-87673531D01*
X162936902Y-88177901D01*
X162422282Y-88823781D01*
X162117802Y-89207511D01*
X162098202Y-89220211D01*
X162092202Y-89208111D01*
X162102802Y-89127011D01*
X162175402Y-88784571D01*
X162291452Y-88423731D01*
X162446882Y-88055361D01*
X162637642Y-87690351D01*
X163004072Y-87123941D01*
X163370472Y-86632091D01*
X163466172Y-86521741D01*
X163466492Y-86521821D01*
X163467362Y-87039371D01*
X163468232Y-87556921D01*
X167575782Y-84334491D01*
X167382562Y-84357091D01*
X161593362Y-89713701D01*
X161664062Y-89730001D01*
X161676362Y-89760701D01*
X161584862Y-89935031D01*
X161364742Y-90277631D01*
X160955882Y-90900731D01*
X160858682Y-91061151D01*
X160783782Y-90894261D01*
X160680162Y-90640181D01*
X160597062Y-90385921D01*
X160535062Y-90132591D01*
X160494262Y-89881271D01*
X160473162Y-89706261D01*
X160473092Y-89705701D01*
X161074712Y-89705701D01*
X161593362Y-89713701D01*
X167382562Y-84357091D01*
X167160082Y-84423091D01*
X165090162Y-86555741D01*
X165271442Y-86656921D01*
X165511012Y-86807791D01*
X165738622Y-86984711D01*
X165951912Y-87184811D01*
X166148532Y-87405201D01*
X166326112Y-87642961D01*
X166482292Y-87895231D01*
X166614722Y-88159121D01*
X166721042Y-88431731D01*
X166831522Y-88857281D01*
X166886922Y-89213371D01*
X166873222Y-89241971D01*
X166801022Y-89257471D01*
X166295952Y-89265471D01*
X165704972Y-89265471D01*
X165686872Y-89134471D01*
X165616172Y-88748371D01*
X165519572Y-88389751D01*
X165417642Y-88129321D01*
X165267872Y-87809171D01*
X165096732Y-87482621D01*
X164930682Y-87203001D01*
X164764212Y-86912821D01*
X164812112Y-86841521D01*
X164927302Y-86717571D01*
X165090232Y-86556321D01*
X165090162Y-86555741D01*
X167160082Y-84423091D01*
X166910412Y-84531371D01*
X164342042Y-87357511D01*
X164404542Y-87300711D01*
X164450042Y-87283711D01*
X164450232Y-87283731D01*
X164480032Y-87295931D01*
X164510032Y-87328831D01*
X164589032Y-87450381D01*
X164817582Y-87844151D01*
X165010062Y-88257641D01*
X165155842Y-88665041D01*
X165244242Y-89040571D01*
X165280042Y-89265451D01*
X164581002Y-89265451D01*
X163881762Y-89265451D01*
X163881762Y-88576641D01*
X163881762Y-87887821D01*
X164127292Y-87603491D01*
X164342042Y-87357511D01*
X166910412Y-84531371D01*
X166635632Y-84680891D01*
X166337812Y-84870601D01*
X163468132Y-88377211D01*
X163468132Y-88821331D01*
X163468132Y-89265451D01*
X163123532Y-89265451D01*
X162778912Y-89250851D01*
X163123532Y-88806731D01*
X163468132Y-88377211D01*
X166337812Y-84870601D01*
X166019022Y-85099481D01*
X162409352Y-89720421D01*
X162938792Y-89712421D01*
X163468012Y-89704421D01*
X163468132Y-89705401D01*
X163468132Y-91084491D01*
X163461132Y-92462741D01*
X163171132Y-92081531D01*
X162791092Y-91539871D01*
X162621732Y-91258321D01*
X162469822Y-90968191D01*
X162340552Y-90680141D01*
X162239122Y-90404851D01*
X162138162Y-90092371D01*
X162273752Y-89906281D01*
X162409352Y-89720421D01*
X166019022Y-85099481D01*
X165681332Y-85366461D01*
X165326812Y-85670531D01*
X165103192Y-85869331D01*
X163060292Y-86294181D01*
X163067292Y-86308881D01*
X163041392Y-86354981D01*
X162865352Y-86590471D01*
X162556372Y-87023301D01*
X162282402Y-87461821D01*
X162055422Y-87885431D01*
X161887412Y-88273491D01*
X161745052Y-88767471D01*
X161695652Y-89009211D01*
X161676552Y-89179471D01*
X161676552Y-89264771D01*
X161074932Y-89264771D01*
X160473322Y-89264771D01*
X160495922Y-89076611D01*
X160570622Y-88677381D01*
X160695642Y-88291711D01*
X160867342Y-87924761D01*
X161082012Y-87581711D01*
X161335972Y-87267711D01*
X161625552Y-86987921D01*
X161947062Y-86747511D01*
X162296822Y-86551661D01*
X162655412Y-86409331D01*
X163009202Y-86302371D01*
X163060102Y-86294371D01*
X163060292Y-86294181D01*
X165103192Y-85869331D01*
X161824492Y-90528161D01*
X161901892Y-90730511D01*
X162072152Y-91115531D01*
X162297912Y-91533381D01*
X162566452Y-91962261D01*
X162865012Y-92380371D01*
X163064652Y-92649261D01*
X163070652Y-92674561D01*
X163037652Y-92678561D01*
X162806592Y-92617061D01*
X162370802Y-92451811D01*
X161964702Y-92233301D01*
X161603952Y-91971361D01*
X161445482Y-91827181D01*
X161304222Y-91675841D01*
X161169462Y-91518141D01*
X161232262Y-91409031D01*
X161559772Y-90914011D01*
X161824492Y-90528091D01*
X161824492Y-90528161D01*
X165103192Y-85869331D01*
X164867872Y-85790231D01*
X164582132Y-85704831D01*
X164312792Y-85650631D01*
X164022892Y-85622331D01*
X163675492Y-85614331D01*
X163881982Y-89706261D01*
X164581222Y-89706261D01*
X165280252Y-89706261D01*
X165246052Y-89919871D01*
X165193152Y-90179371D01*
X165116852Y-90441801D01*
X165016112Y-90709241D01*
X164889872Y-90983771D01*
X164737092Y-91267471D01*
X164556722Y-91562391D01*
X164109082Y-92194291D01*
X163892762Y-92463181D01*
X163881962Y-91084721D01*
X163881962Y-89706261D01*
X163881982Y-89706261D01*
X163675492Y-85614331D01*
X163242022Y-85626831D01*
X162918672Y-85677031D01*
X162645142Y-85745931D01*
X162380892Y-85832331D01*
X162126462Y-85935651D01*
X161882362Y-86055431D01*
X161649112Y-86191131D01*
X161427242Y-86342271D01*
X161217262Y-86508331D01*
X161019692Y-86688811D01*
X160835062Y-86883191D01*
X160663872Y-87090951D01*
X160506662Y-87311601D01*
X160363942Y-87544621D01*
X160236222Y-87789511D01*
X160124042Y-88045741D01*
X160027942Y-88312821D01*
X159948342Y-88590231D01*
X159906342Y-88771491D01*
X159883442Y-88935891D01*
X159871542Y-89485361D01*
X166678652Y-89705231D01*
X166823902Y-89721331D01*
X166861302Y-89741331D01*
X166880202Y-89772331D01*
X166877202Y-89876791D01*
X166844102Y-90053491D01*
X166794102Y-90290001D01*
X166727802Y-90519681D01*
X166645302Y-90742251D01*
X166546702Y-90957461D01*
X166432252Y-91165021D01*
X166302052Y-91364691D01*
X166156222Y-91556181D01*
X165994902Y-91739221D01*
X165702052Y-92010701D01*
X165373442Y-92247641D01*
X165023662Y-92440751D01*
X164667342Y-92580741D01*
X164354222Y-92668941D01*
X164261622Y-92688741D01*
X164481902Y-92403371D01*
X164734162Y-92061151D01*
X164956532Y-91726931D01*
X165149462Y-91399751D01*
X165313402Y-91078671D01*
X165448782Y-90762761D01*
X165556062Y-90451041D01*
X165635662Y-90142611D01*
X165688062Y-89836491D01*
X165704762Y-89705691D01*
X166295882Y-89705691D01*
X166678882Y-89705291D01*
X166678882Y-89705301D01*
X166678652Y-89705231D01*
X159871542Y-89485361D01*
X159882342Y-90035531D01*
X159905242Y-90198941D01*
X159947742Y-90380491D01*
X160030242Y-90664051D01*
X160132572Y-90947851D01*
X160248542Y-91216341D01*
X160372002Y-91453971D01*
X160497582Y-91671951D01*
X160382212Y-91881391D01*
X160068852Y-92502171D01*
X159793122Y-93127601D01*
X159671432Y-93455751D01*
X159593932Y-93721901D01*
X159552932Y-93958961D01*
X159540732Y-94199831D01*
X159550832Y-94420201D01*
X159586632Y-94577271D01*
X159655132Y-94688981D01*
X159763242Y-94773281D01*
X159885742Y-94822981D01*
X160059672Y-94824981D01*
X160218202Y-94798281D01*
X160394872Y-94737281D01*
X160588832Y-94642381D01*
X160799192Y-94514301D01*
X161025082Y-94353541D01*
X161265612Y-94160701D01*
X161787132Y-93681071D01*
X162214562Y-93258021D01*
X161952562Y-93461831D01*
X161355332Y-93903551D01*
X160843002Y-94234081D01*
X160421402Y-94449991D01*
X160246452Y-94513891D01*
X160096392Y-94547791D01*
X159985312Y-94550791D01*
X159912212Y-94503191D01*
X159879012Y-94463691D01*
X159862212Y-94417791D01*
X159865212Y-94231001D01*
X159922712Y-93917341D01*
X160055742Y-93530381D01*
X160265242Y-93067711D01*
X160552132Y-92526911D01*
X160802682Y-92080281D01*
X161053832Y-92315591D01*
X161247252Y-92485711D01*
X161448712Y-92641411D01*
X161657592Y-92782511D01*
X161873232Y-92908881D01*
X162322302Y-93116761D01*
X162790852Y-93263831D01*
X163273822Y-93348931D01*
X163519122Y-93367731D01*
X163766122Y-93370731D01*
X164014182Y-93357431D01*
X164262692Y-93327831D01*
X164510982Y-93281831D01*
X164758442Y-93219231D01*
X165032302Y-93121731D01*
X165341112Y-92982161D01*
X165644522Y-92820351D01*
X165902232Y-92656171D01*
X166149562Y-92454171D01*
X166417362Y-92196421D01*
X166665832Y-91923791D01*
X166855132Y-91677181D01*
X167054172Y-91340931D01*
X167224072Y-90976751D01*
X167360172Y-90595991D01*
X167457772Y-90210071D01*
X167495572Y-89889251D01*
X167508172Y-89485791D01*
X167495572Y-89082331D01*
X167457772Y-88761521D01*
X167361272Y-88375921D01*
X167228742Y-88004161D01*
X167060252Y-87646481D01*
X166855902Y-87303161D01*
X166644532Y-87028021D01*
X166369922Y-86731741D01*
X166074622Y-86456971D01*
X165801192Y-86246371D01*
X165555662Y-86083861D01*
X165802662Y-85847101D01*
X166125062Y-85551491D01*
X166438622Y-85289271D01*
X166735802Y-85065021D01*
X167009142Y-84883361D01*
X167251132Y-84748851D01*
X167454282Y-84666151D01*
X167611102Y-84639751D01*
X167669802Y-84648751D01*
X167714102Y-84673951D01*
X167753102Y-84727451D01*
X167778202Y-84803951D01*
X167787202Y-85021661D01*
X167741702Y-85318161D01*
X167642302Y-85684451D01*
X167569002Y-85896141D01*
X167526202Y-85984241D01*
X167340962Y-85786901D01*
X167211042Y-85643871D01*
X167181542Y-85627071D01*
X167169942Y-85642071D01*
X167062712Y-87105221D01*
X167643472Y-86622711D01*
X168220052Y-86135621D01*
X168084462Y-86117521D01*
X167818072Y-86096821D01*
X167725572Y-86088821D01*
X167687072Y-86074121D01*
X167811812Y-85758501D01*
X167910312Y-85505511D01*
X167982012Y-85276831D01*
X168026912Y-85072381D01*
X168045012Y-84892021D01*
X168036012Y-84735681D01*
X168000412Y-84603231D01*
X167937912Y-84494591D01*
X167848612Y-84409591D01*
X167726352Y-84352591D01*
X167575752Y-84334091D01*
X167575782Y-84334491D01*
G37*
X167575782Y-84334491D02*
X164492142Y-86333171D01*
X164571642Y-86368271D01*
X164506142Y-86449271D01*
X164440842Y-86510671D01*
X164348642Y-86394481D01*
X164256642Y-86278281D01*
X164256642Y-86278071D01*
X164334642Y-86297671D01*
X164492142Y-86333171D01*
X167575782Y-84334491D01*
X164137132Y-86811511D01*
X164030322Y-86932701D01*
X163902872Y-87056821D01*
X163888272Y-86977621D01*
X163882272Y-86783581D01*
X163892672Y-86508021D01*
X163892652Y-86507991D01*
X164020102Y-86659641D01*
X164137132Y-86811511D01*
X167575782Y-84334491D01*
X163468232Y-87556921D01*
X163362672Y-87673531D01*
X162936902Y-88177901D01*
X162422282Y-88823781D01*
X162117802Y-89207511D01*
X162098202Y-89220211D01*
X162092202Y-89208111D01*
X162102802Y-89127011D01*
X162175402Y-88784571D01*
X162291452Y-88423731D01*
X162446882Y-88055361D01*
X162637642Y-87690351D01*
X163004072Y-87123941D01*
X163370472Y-86632091D01*
X163466172Y-86521741D01*
X163466492Y-86521821D01*
X163467362Y-87039371D01*
X163468232Y-87556921D01*
X167575782Y-84334491D01*
X167382562Y-84357091D01*
X161593362Y-89713701D01*
X161664062Y-89730001D01*
X161676362Y-89760701D01*
X161584862Y-89935031D01*
X161364742Y-90277631D01*
X160955882Y-90900731D01*
X160858682Y-91061151D01*
X160783782Y-90894261D01*
X160680162Y-90640181D01*
X160597062Y-90385921D01*
X160535062Y-90132591D01*
X160494262Y-89881271D01*
X160473162Y-89706261D01*
X160473092Y-89705701D01*
X161074712Y-89705701D01*
X161593362Y-89713701D01*
X167382562Y-84357091D01*
X167160082Y-84423091D01*
X165090162Y-86555741D01*
X165271442Y-86656921D01*
X165511012Y-86807791D01*
X165738622Y-86984711D01*
X165951912Y-87184811D01*
X166148532Y-87405201D01*
X166326112Y-87642961D01*
X166482292Y-87895231D01*
X166614722Y-88159121D01*
X166721042Y-88431731D01*
X166831522Y-88857281D01*
X166886922Y-89213371D01*
X166873222Y-89241971D01*
X166801022Y-89257471D01*
X166295952Y-89265471D01*
X165704972Y-89265471D01*
X165686872Y-89134471D01*
X165616172Y-88748371D01*
X165519572Y-88389751D01*
X165417642Y-88129321D01*
X165267872Y-87809171D01*
X165096732Y-87482621D01*
X164930682Y-87203001D01*
X164764212Y-86912821D01*
X164812112Y-86841521D01*
X164927302Y-86717571D01*
X165090232Y-86556321D01*
X165090162Y-86555741D01*
X167160082Y-84423091D01*
X166910412Y-84531371D01*
X164342042Y-87357511D01*
X164404542Y-87300711D01*
X164450042Y-87283711D01*
X164450232Y-87283731D01*
X164480032Y-87295931D01*
X164510032Y-87328831D01*
X164589032Y-87450381D01*
X164817582Y-87844151D01*
X165010062Y-88257641D01*
X165155842Y-88665041D01*
X165244242Y-89040571D01*
X165280042Y-89265451D01*
X164581002Y-89265451D01*
X163881762Y-89265451D01*
X163881762Y-88576641D01*
X163881762Y-87887821D01*
X164127292Y-87603491D01*
X164342042Y-87357511D01*
X166910412Y-84531371D01*
X166635632Y-84680891D01*
X166337812Y-84870601D01*
X163468132Y-88377211D01*
X163468132Y-88821331D01*
X163468132Y-89265451D01*
X163123532Y-89265451D01*
X162778912Y-89250851D01*
X163123532Y-88806731D01*
X163468132Y-88377211D01*
X166337812Y-84870601D01*
X166019022Y-85099481D01*
X162409352Y-89720421D01*
X162938792Y-89712421D01*
X163468012Y-89704421D01*
X163468132Y-89705401D01*
X163468132Y-91084491D01*
X163461132Y-92462741D01*
X163171132Y-92081531D01*
X162791092Y-91539871D01*
X162621732Y-91258321D01*
X162469822Y-90968191D01*
X162340552Y-90680141D01*
X162239122Y-90404851D01*
X162138162Y-90092371D01*
X162273752Y-89906281D01*
X162409352Y-89720421D01*
X166019022Y-85099481D01*
X165681332Y-85366461D01*
X165326812Y-85670531D01*
X165103192Y-85869331D01*
X163060292Y-86294181D01*
X163067292Y-86308881D01*
X163041392Y-86354981D01*
X162865352Y-86590471D01*
X162556372Y-87023301D01*
X162282402Y-87461821D01*
X162055422Y-87885431D01*
X161887412Y-88273491D01*
X161745052Y-88767471D01*
X161695652Y-89009211D01*
X161676552Y-89179471D01*
X161676552Y-89264771D01*
X161074932Y-89264771D01*
X160473322Y-89264771D01*
X160495922Y-89076611D01*
X160570622Y-88677381D01*
X160695642Y-88291711D01*
X160867342Y-87924761D01*
X161082012Y-87581711D01*
X161335972Y-87267711D01*
X161625552Y-86987921D01*
X161947062Y-86747511D01*
X162296822Y-86551661D01*
X162655412Y-86409331D01*
X163009202Y-86302371D01*
X163060102Y-86294371D01*
X163060292Y-86294181D01*
X165103192Y-85869331D01*
X161824492Y-90528161D01*
X161901892Y-90730511D01*
X162072152Y-91115531D01*
X162297912Y-91533381D01*
X162566452Y-91962261D01*
X162865012Y-92380371D01*
X163064652Y-92649261D01*
X163070652Y-92674561D01*
X163037652Y-92678561D01*
X162806592Y-92617061D01*
X162370802Y-92451811D01*
X161964702Y-92233301D01*
X161603952Y-91971361D01*
X161445482Y-91827181D01*
X161304222Y-91675841D01*
X161169462Y-91518141D01*
X161232262Y-91409031D01*
X161559772Y-90914011D01*
X161824492Y-90528091D01*
X161824492Y-90528161D01*
X165103192Y-85869331D01*
X164867872Y-85790231D01*
X164582132Y-85704831D01*
X164312792Y-85650631D01*
X164022892Y-85622331D01*
X163675492Y-85614331D01*
X163881982Y-89706261D01*
X164581222Y-89706261D01*
X165280252Y-89706261D01*
X165246052Y-89919871D01*
X165193152Y-90179371D01*
X165116852Y-90441801D01*
X165016112Y-90709241D01*
X164889872Y-90983771D01*
X164737092Y-91267471D01*
X164556722Y-91562391D01*
X164109082Y-92194291D01*
X163892762Y-92463181D01*
X163881962Y-91084721D01*
X163881962Y-89706261D01*
X163881982Y-89706261D01*
X163675492Y-85614331D01*
X163242022Y-85626831D01*
X162918672Y-85677031D01*
X162645142Y-85745931D01*
X162380892Y-85832331D01*
X162126462Y-85935651D01*
X161882362Y-86055431D01*
X161649112Y-86191131D01*
X161427242Y-86342271D01*
X161217262Y-86508331D01*
X161019692Y-86688811D01*
X160835062Y-86883191D01*
X160663872Y-87090951D01*
X160506662Y-87311601D01*
X160363942Y-87544621D01*
X160236222Y-87789511D01*
X160124042Y-88045741D01*
X160027942Y-88312821D01*
X159948342Y-88590231D01*
X159906342Y-88771491D01*
X159883442Y-88935891D01*
X159871542Y-89485361D01*
X166678652Y-89705231D01*
X166823902Y-89721331D01*
X166861302Y-89741331D01*
X166880202Y-89772331D01*
X166877202Y-89876791D01*
X166844102Y-90053491D01*
X166794102Y-90290001D01*
X166727802Y-90519681D01*
X166645302Y-90742251D01*
X166546702Y-90957461D01*
X166432252Y-91165021D01*
X166302052Y-91364691D01*
X166156222Y-91556181D01*
X165994902Y-91739221D01*
X165702052Y-92010701D01*
X165373442Y-92247641D01*
X165023662Y-92440751D01*
X164667342Y-92580741D01*
X164354222Y-92668941D01*
X164261622Y-92688741D01*
X164481902Y-92403371D01*
X164734162Y-92061151D01*
X164956532Y-91726931D01*
X165149462Y-91399751D01*
X165313402Y-91078671D01*
X165448782Y-90762761D01*
X165556062Y-90451041D01*
X165635662Y-90142611D01*
X165688062Y-89836491D01*
X165704762Y-89705691D01*
X166295882Y-89705691D01*
X166678882Y-89705291D01*
X166678882Y-89705301D01*
X166678652Y-89705231D01*
X159871542Y-89485361D01*
X159882342Y-90035531D01*
X159905242Y-90198941D01*
X159947742Y-90380491D01*
X160030242Y-90664051D01*
X160132572Y-90947851D01*
X160248542Y-91216341D01*
X160372002Y-91453971D01*
X160497582Y-91671951D01*
X160382212Y-91881391D01*
X160068852Y-92502171D01*
X159793122Y-93127601D01*
X159671432Y-93455751D01*
X159593932Y-93721901D01*
X159552932Y-93958961D01*
X159540732Y-94199831D01*
X159550832Y-94420201D01*
X159586632Y-94577271D01*
X159655132Y-94688981D01*
X159763242Y-94773281D01*
X159885742Y-94822981D01*
X160059672Y-94824981D01*
X160218202Y-94798281D01*
X160394872Y-94737281D01*
X160588832Y-94642381D01*
X160799192Y-94514301D01*
X161025082Y-94353541D01*
X161265612Y-94160701D01*
X161787132Y-93681071D01*
X162214562Y-93258021D01*
X161952562Y-93461831D01*
X161355332Y-93903551D01*
X160843002Y-94234081D01*
X160421402Y-94449991D01*
X160246452Y-94513891D01*
X160096392Y-94547791D01*
X159985312Y-94550791D01*
X159912212Y-94503191D01*
X159879012Y-94463691D01*
X159862212Y-94417791D01*
X159865212Y-94231001D01*
X159922712Y-93917341D01*
X160055742Y-93530381D01*
X160265242Y-93067711D01*
X160552132Y-92526911D01*
X160802682Y-92080281D01*
X161053832Y-92315591D01*
X161247252Y-92485711D01*
X161448712Y-92641411D01*
X161657592Y-92782511D01*
X161873232Y-92908881D01*
X162322302Y-93116761D01*
X162790852Y-93263831D01*
X163273822Y-93348931D01*
X163519122Y-93367731D01*
X163766122Y-93370731D01*
X164014182Y-93357431D01*
X164262692Y-93327831D01*
X164510982Y-93281831D01*
X164758442Y-93219231D01*
X165032302Y-93121731D01*
X165341112Y-92982161D01*
X165644522Y-92820351D01*
X165902232Y-92656171D01*
X166149562Y-92454171D01*
X166417362Y-92196421D01*
X166665832Y-91923791D01*
X166855132Y-91677181D01*
X167054172Y-91340931D01*
X167224072Y-90976751D01*
X167360172Y-90595991D01*
X167457772Y-90210071D01*
X167495572Y-89889251D01*
X167508172Y-89485791D01*
X167495572Y-89082331D01*
X167457772Y-88761521D01*
X167361272Y-88375921D01*
X167228742Y-88004161D01*
X167060252Y-87646481D01*
X166855902Y-87303161D01*
X166644532Y-87028021D01*
X166369922Y-86731741D01*
X166074622Y-86456971D01*
X165801192Y-86246371D01*
X165555662Y-86083861D01*
X165802662Y-85847101D01*
X166125062Y-85551491D01*
X166438622Y-85289271D01*
X166735802Y-85065021D01*
X167009142Y-84883361D01*
X167251132Y-84748851D01*
X167454282Y-84666151D01*
X167611102Y-84639751D01*
X167669802Y-84648751D01*
X167714102Y-84673951D01*
X167753102Y-84727451D01*
X167778202Y-84803951D01*
X167787202Y-85021661D01*
X167741702Y-85318161D01*
X167642302Y-85684451D01*
X167569002Y-85896141D01*
X167526202Y-85984241D01*
X167340962Y-85786901D01*
X167211042Y-85643871D01*
X167181542Y-85627071D01*
X167169942Y-85642071D01*
X167062712Y-87105221D01*
X167643472Y-86622711D01*
X168220052Y-86135621D01*
X168084462Y-86117521D01*
X167818072Y-86096821D01*
X167725572Y-86088821D01*
X167687072Y-86074121D01*
X167811812Y-85758501D01*
X167910312Y-85505511D01*
X167982012Y-85276831D01*
X168026912Y-85072381D01*
X168045012Y-84892021D01*
X168036012Y-84735681D01*
X168000412Y-84603231D01*
X167937912Y-84494591D01*
X167848612Y-84409591D01*
X167726352Y-84352591D01*
X167575752Y-84334091D01*
X167575782Y-84334491D01*
D11*
G36*
X211706960Y-116136345D02*
G01*
X210869691Y-115138526D01*
X210337520Y-115585070D01*
X211174790Y-116582889D01*
X211706960Y-116136345D01*
G37*
G36*
X84718176Y-116443111D02*
G01*
X85555446Y-115445293D01*
X86087617Y-115891837D01*
X85250347Y-116889656D01*
X84718176Y-116443111D01*
G37*
D12*
G36*
X144787573Y-27711948D02*
G01*
X145032411Y-26897576D01*
X145790692Y-25549691D01*
X146627891Y-24819124D01*
X147459623Y-24307811D01*
X148450975Y-24100521D01*
X149453556Y-24295438D01*
X150308284Y-24797359D01*
X151005809Y-25465163D01*
X151536785Y-26157729D01*
X151908791Y-26915744D01*
X152149243Y-27728097D01*
X152317115Y-28640559D01*
X151536785Y-28640559D01*
X151450275Y-28256126D01*
X151048944Y-27408502D01*
X150663748Y-26954278D01*
X150120080Y-26556199D01*
X149391351Y-26271578D01*
X148450973Y-26157729D01*
X147512810Y-26257249D01*
X146789902Y-26535144D01*
X146254458Y-26932347D01*
X145878688Y-27389787D01*
X145495002Y-28249107D01*
X145416512Y-28640558D01*
X144620314Y-28640558D01*
X144787573Y-27711948D01*
G37*
X144787573Y-27711948D02*
X145032411Y-26897576D01*
X145790692Y-25549691D01*
X146627891Y-24819124D01*
X147459623Y-24307811D01*
X148450975Y-24100521D01*
X149453556Y-24295438D01*
X150308284Y-24797359D01*
X151005809Y-25465163D01*
X151536785Y-26157729D01*
X151908791Y-26915744D01*
X152149243Y-27728097D01*
X152317115Y-28640559D01*
X151536785Y-28640559D01*
X151450275Y-28256126D01*
X151048944Y-27408502D01*
X150663748Y-26954278D01*
X150120080Y-26556199D01*
X149391351Y-26271578D01*
X148450973Y-26157729D01*
X147512810Y-26257249D01*
X146789902Y-26535144D01*
X146254458Y-26932347D01*
X145878688Y-27389787D01*
X145495002Y-28249107D01*
X145416512Y-28640558D01*
X144620314Y-28640558D01*
X144787573Y-27711948D01*
%TD*%
D13*
%TO.C,J6*%
X151384000Y-131279900D03*
X151384000Y-123779900D03*
%TD*%
%TO.C,J7*%
X151384000Y-102126400D03*
X151384000Y-109626400D03*
%TD*%
D14*
%TO.C,J2*%
X165589800Y-75951600D03*
X174109800Y-75951600D03*
%TD*%
D15*
%TO.C,D4*%
X143865600Y-129338900D03*
%TD*%
%TO.C,D5*%
X152438100Y-42966200D03*
%TD*%
D16*
%TO.C,J4*%
X143332200Y-102781100D03*
D17*
X143332200Y-105321100D03*
X143332200Y-107861100D03*
X143332200Y-110401100D03*
%TD*%
D14*
%TO.C,J1*%
X131006000Y-75920600D03*
X122486000Y-75920600D03*
%TD*%
M02*
