%TF.GenerationSoftware,KiCad,Pcbnew,5.1.6-c6e7f7d~86~ubuntu18.04.1*%
%TF.CreationDate,2020-06-23T08:01:43-04:00*%
%TF.ProjectId,aerospace_badge,6165726f-7370-4616-9365-5f6261646765,V02*%
%TF.SameCoordinates,Original*%
%TF.FileFunction,Soldermask,Bot*%
%TF.FilePolarity,Negative*%
%FSLAX46Y46*%
G04 Gerber Fmt 4.6, Leading zero omitted, Abs format (unit mm)*
G04 Created by KiCad (PCBNEW 5.1.6-c6e7f7d~86~ubuntu18.04.1) date 2020-06-23 08:01:43*
%MOMM*%
%LPD*%
G01*
G04 APERTURE LIST*
%ADD10C,1.600000*%
%ADD11C,1.624000*%
%ADD12R,2.600000X2.600000*%
%ADD13R,2.600000X1.300000*%
%ADD14R,1.500000X2.700000*%
%ADD15C,0.100000*%
%ADD16R,1.370000X5.180000*%
%ADD17C,17.900000*%
%ADD18R,1.700000X5.000000*%
%ADD19R,1.700000X5.700000*%
%ADD20R,1.800000X0.750000*%
%ADD21C,2.500000*%
%ADD22R,1.350000X1.180000*%
%ADD23R,1.800000X1.800000*%
%ADD24O,1.800000X1.800000*%
G04 APERTURE END LIST*
D10*
%TO.C,D1*%
X149202040Y-26862940D02*
G75*
G03*
X149202040Y-26862940I-800000J0D01*
G01*
%TO.C,D3*%
X86884383Y-115558508D02*
G75*
G03*
X86884383Y-115558508I-800000J0D01*
G01*
%TO.C,D2*%
X211438709Y-115650582D02*
G75*
G03*
X211438709Y-115650582I-800000J0D01*
G01*
%TD*%
D11*
%TO.C,J3*%
X122269093Y-92240696D03*
X120636413Y-90294943D03*
X120323340Y-93873376D03*
X118690660Y-91927624D03*
X118377587Y-95506057D03*
X116744907Y-93560304D03*
%TD*%
D12*
%TO.C,J6*%
X151384000Y-131279900D03*
X151384000Y-123779900D03*
%TD*%
%TO.C,J7*%
X151384000Y-102126400D03*
X151384000Y-109626400D03*
%TD*%
D13*
%TO.C,SW1*%
X145110200Y-90961200D03*
X145110200Y-93461200D03*
X145110200Y-95961200D03*
X139610200Y-90961200D03*
X139610200Y-93461200D03*
X139610200Y-95961200D03*
%TD*%
D14*
%TO.C,D1*%
X150986800Y-26720800D03*
X145786800Y-26720800D03*
%TD*%
D15*
%TO.C,D3*%
G36*
X84208564Y-118693538D02*
G01*
X82659908Y-116481827D01*
X83888636Y-115621462D01*
X85437292Y-117833173D01*
X84208564Y-118693538D01*
G37*
G36*
X88468154Y-115710940D02*
G01*
X86919498Y-113499229D01*
X88148226Y-112638864D01*
X89696882Y-114850575D01*
X88468154Y-115710940D01*
G37*
%TD*%
%TO.C,D2*%
G36*
X210168981Y-113308583D02*
G01*
X208433454Y-115376903D01*
X207284387Y-114412721D01*
X209019914Y-112344401D01*
X210168981Y-113308583D01*
G37*
G36*
X214152413Y-116651079D02*
G01*
X212416886Y-118719399D01*
X211267819Y-117755217D01*
X213003346Y-115686897D01*
X214152413Y-116651079D01*
G37*
%TD*%
D16*
%TO.C,BT1*%
X137617700Y-78486000D03*
X159587700Y-78486000D03*
D17*
X148602700Y-78486000D03*
%TD*%
D18*
%TO.C,J2*%
X165589800Y-75951600D03*
D19*
X169849800Y-76301600D03*
D18*
X174109800Y-75951600D03*
%TD*%
%TO.C,R1*%
G36*
G01*
X146171600Y-30488600D02*
X144861600Y-30488600D01*
G75*
G02*
X144591600Y-30218600I0J270000D01*
G01*
X144591600Y-29408600D01*
G75*
G02*
X144861600Y-29138600I270000J0D01*
G01*
X146171600Y-29138600D01*
G75*
G02*
X146441600Y-29408600I0J-270000D01*
G01*
X146441600Y-30218600D01*
G75*
G02*
X146171600Y-30488600I-270000J0D01*
G01*
G37*
G36*
G01*
X146171600Y-33288600D02*
X144861600Y-33288600D01*
G75*
G02*
X144591600Y-33018600I0J270000D01*
G01*
X144591600Y-32208600D01*
G75*
G02*
X144861600Y-31938600I270000J0D01*
G01*
X146171600Y-31938600D01*
G75*
G02*
X146441600Y-32208600I0J-270000D01*
G01*
X146441600Y-33018600D01*
G75*
G02*
X146171600Y-33288600I-270000J0D01*
G01*
G37*
%TD*%
%TO.C,R2*%
G36*
G01*
X204966994Y-111675477D02*
X205809046Y-110671959D01*
G75*
G02*
X206189431Y-110638680I206832J-173553D01*
G01*
X206809927Y-111159338D01*
G75*
G02*
X206843206Y-111539723I-173553J-206832D01*
G01*
X206001154Y-112543241D01*
G75*
G02*
X205620769Y-112576520I-206832J173553D01*
G01*
X205000273Y-112055862D01*
G75*
G02*
X204966994Y-111675477I173553J206832D01*
G01*
G37*
G36*
G01*
X202822070Y-109875671D02*
X203664122Y-108872153D01*
G75*
G02*
X204044507Y-108838874I206832J-173553D01*
G01*
X204665003Y-109359532D01*
G75*
G02*
X204698282Y-109739917I-173553J-206832D01*
G01*
X203856230Y-110743435D01*
G75*
G02*
X203475845Y-110776714I-206832J173553D01*
G01*
X202855349Y-110256056D01*
G75*
G02*
X202822070Y-109875671I173553J206832D01*
G01*
G37*
%TD*%
%TO.C,R3*%
G36*
G01*
X91410430Y-110388965D02*
X92252482Y-111392483D01*
G75*
G02*
X92219203Y-111772868I-206832J-173553D01*
G01*
X91598707Y-112293526D01*
G75*
G02*
X91218322Y-112260247I-173553J206832D01*
G01*
X90376270Y-111256729D01*
G75*
G02*
X90409549Y-110876344I206832J173553D01*
G01*
X91030045Y-110355686D01*
G75*
G02*
X91410430Y-110388965I173553J-206832D01*
G01*
G37*
G36*
G01*
X93555354Y-108589159D02*
X94397406Y-109592677D01*
G75*
G02*
X94364127Y-109973062I-206832J-173553D01*
G01*
X93743631Y-110493720D01*
G75*
G02*
X93363246Y-110460441I-173553J206832D01*
G01*
X92521194Y-109456923D01*
G75*
G02*
X92554473Y-109076538I206832J173553D01*
G01*
X93174969Y-108555880D01*
G75*
G02*
X93555354Y-108589159I173553J-206832D01*
G01*
G37*
%TD*%
%TO.C,R4*%
G36*
G01*
X142905800Y-124216800D02*
X144215800Y-124216800D01*
G75*
G02*
X144485800Y-124486800I0J-270000D01*
G01*
X144485800Y-125296800D01*
G75*
G02*
X144215800Y-125566800I-270000J0D01*
G01*
X142905800Y-125566800D01*
G75*
G02*
X142635800Y-125296800I0J270000D01*
G01*
X142635800Y-124486800D01*
G75*
G02*
X142905800Y-124216800I270000J0D01*
G01*
G37*
G36*
G01*
X142905800Y-121416800D02*
X144215800Y-121416800D01*
G75*
G02*
X144485800Y-121686800I0J-270000D01*
G01*
X144485800Y-122496800D01*
G75*
G02*
X144215800Y-122766800I-270000J0D01*
G01*
X142905800Y-122766800D01*
G75*
G02*
X142635800Y-122496800I0J270000D01*
G01*
X142635800Y-121686800D01*
G75*
G02*
X142905800Y-121416800I270000J0D01*
G01*
G37*
%TD*%
%TO.C,R5*%
G36*
G01*
X153194700Y-47042700D02*
X151884700Y-47042700D01*
G75*
G02*
X151614700Y-46772700I0J270000D01*
G01*
X151614700Y-45962700D01*
G75*
G02*
X151884700Y-45692700I270000J0D01*
G01*
X153194700Y-45692700D01*
G75*
G02*
X153464700Y-45962700I0J-270000D01*
G01*
X153464700Y-46772700D01*
G75*
G02*
X153194700Y-47042700I-270000J0D01*
G01*
G37*
G36*
G01*
X153194700Y-49842700D02*
X151884700Y-49842700D01*
G75*
G02*
X151614700Y-49572700I0J270000D01*
G01*
X151614700Y-48762700D01*
G75*
G02*
X151884700Y-48492700I270000J0D01*
G01*
X153194700Y-48492700D01*
G75*
G02*
X153464700Y-48762700I0J-270000D01*
G01*
X153464700Y-49572700D01*
G75*
G02*
X153194700Y-49842700I-270000J0D01*
G01*
G37*
%TD*%
D20*
%TO.C,U1*%
X133558300Y-92240100D03*
X133558300Y-90970100D03*
X133558300Y-89700100D03*
X133558300Y-88430100D03*
X126258300Y-88430100D03*
X126258300Y-89700100D03*
X126258300Y-90970100D03*
X126258300Y-92240100D03*
%TD*%
D21*
%TO.C,D4*%
X143865600Y-129338900D03*
D22*
X143865600Y-127778900D03*
X143865600Y-130898900D03*
%TD*%
%TO.C,D5*%
X152438100Y-41406200D03*
X152438100Y-44526200D03*
D21*
X152438100Y-42966200D03*
%TD*%
D23*
%TO.C,J4*%
X143332200Y-102781100D03*
D24*
X143332200Y-105321100D03*
X143332200Y-107861100D03*
X143332200Y-110401100D03*
%TD*%
D18*
%TO.C,J1*%
X131006000Y-75920600D03*
D19*
X126746000Y-76270600D03*
D18*
X122486000Y-75920600D03*
%TD*%
M02*
