%TF.GenerationSoftware,KiCad,Pcbnew,5.1.6-c6e7f7d~86~ubuntu18.04.1*%
%TF.CreationDate,2020-06-22T17:01:26-04:00*%
%TF.ProjectId,aerospace_badge,6165726f-7370-4616-9365-5f6261646765,V02*%
%TF.SameCoordinates,Original*%
%TF.FileFunction,Copper,L2,Bot*%
%TF.FilePolarity,Positive*%
%FSLAX46Y46*%
G04 Gerber Fmt 4.6, Leading zero omitted, Abs format (unit mm)*
G04 Created by KiCad (PCBNEW 5.1.6-c6e7f7d~86~ubuntu18.04.1) date 2020-06-22 17:01:26*
%MOMM*%
%LPD*%
G01*
G04 APERTURE LIST*
%TA.AperFunction,NonConductor*%
%ADD10C,0.300000*%
%TD*%
%TA.AperFunction,SMDPad,CuDef*%
%ADD11C,1.524000*%
%TD*%
%TA.AperFunction,ComponentPad*%
%ADD12R,2.500000X2.500000*%
%TD*%
%TA.AperFunction,SMDPad,CuDef*%
%ADD13R,2.500000X1.200000*%
%TD*%
%TA.AperFunction,SMDPad,CuDef*%
%ADD14R,1.400000X2.600000*%
%TD*%
%TA.AperFunction,SMDPad,CuDef*%
%ADD15C,0.100000*%
%TD*%
%TA.AperFunction,SMDPad,CuDef*%
%ADD16R,1.270000X5.080000*%
%TD*%
%TA.AperFunction,SMDPad,CuDef*%
%ADD17C,17.800000*%
%TD*%
%TA.AperFunction,SMDPad,CuDef*%
%ADD18R,1.600000X4.900000*%
%TD*%
%TA.AperFunction,SMDPad,CuDef*%
%ADD19R,1.600000X5.600000*%
%TD*%
%TA.AperFunction,SMDPad,CuDef*%
%ADD20R,1.700000X0.650000*%
%TD*%
%TA.AperFunction,SMDPad,CuDef*%
%ADD21R,1.250000X1.080000*%
%TD*%
%TA.AperFunction,ComponentPad*%
%ADD22R,1.700000X1.700000*%
%TD*%
%TA.AperFunction,ComponentPad*%
%ADD23O,1.700000X1.700000*%
%TD*%
%TA.AperFunction,ViaPad*%
%ADD24C,0.800000*%
%TD*%
%TA.AperFunction,Conductor*%
%ADD25C,0.254000*%
%TD*%
%TA.AperFunction,Conductor*%
%ADD26C,0.250000*%
%TD*%
%TA.AperFunction,Conductor*%
%ADD27C,0.300000*%
%TD*%
G04 APERTURE END LIST*
D10*
X130601814Y-158009471D02*
X130244671Y-159009471D01*
X129887528Y-158009471D01*
X129030385Y-157509471D02*
X128887528Y-157509471D01*
X128744671Y-157580900D01*
X128673242Y-157652328D01*
X128601814Y-157795185D01*
X128530385Y-158080900D01*
X128530385Y-158438042D01*
X128601814Y-158723757D01*
X128673242Y-158866614D01*
X128744671Y-158938042D01*
X128887528Y-159009471D01*
X129030385Y-159009471D01*
X129173242Y-158938042D01*
X129244671Y-158866614D01*
X129316100Y-158723757D01*
X129387528Y-158438042D01*
X129387528Y-158080900D01*
X129316100Y-157795185D01*
X129244671Y-157652328D01*
X129173242Y-157580900D01*
X129030385Y-157509471D01*
X127958957Y-157652328D02*
X127887528Y-157580900D01*
X127744671Y-157509471D01*
X127387528Y-157509471D01*
X127244671Y-157580900D01*
X127173242Y-157652328D01*
X127101814Y-157795185D01*
X127101814Y-157938042D01*
X127173242Y-158152328D01*
X128030385Y-159009471D01*
X127101814Y-159009471D01*
D11*
%TO.P,J3,1*%
%TO.N,Net-(J3-Pad1)*%
X122269093Y-92240696D03*
%TO.P,J3,2*%
%TO.N,VCC*%
X120636413Y-90294943D03*
%TO.P,J3,3*%
%TO.N,Net-(J3-Pad3)*%
X120323340Y-93873376D03*
%TO.P,J3,4*%
%TO.N,Net-(J3-Pad4)*%
X118690660Y-91927624D03*
%TO.P,J3,5*%
%TO.N,Net-(J3-Pad5)*%
X118377587Y-95506057D03*
%TO.P,J3,6*%
%TO.N,GND*%
X116744907Y-93560304D03*
%TD*%
D12*
%TO.P,J6,*%
%TO.N,*%
X151384000Y-131279900D03*
%TO.P,J6,1*%
%TO.N,Net-(J2-Pad1)*%
X151384000Y-123779900D03*
%TD*%
%TO.P,J7,*%
%TO.N,*%
X151384000Y-102126400D03*
%TO.P,J7,1*%
%TO.N,Net-(J2-Pad1)*%
X151384000Y-109626400D03*
%TD*%
D13*
%TO.P,SW1,1*%
%TO.N,Net-(SW1-Pad1)*%
X145110200Y-90961200D03*
%TO.P,SW1,2*%
%TO.N,Net-(BT1-Pad1)*%
X145110200Y-93461200D03*
%TO.P,SW1,3*%
%TO.N,VCC*%
X145110200Y-95961200D03*
%TO.P,SW1,1*%
%TO.N,Net-(SW1-Pad1)*%
X139610200Y-90961200D03*
%TO.P,SW1,2*%
%TO.N,Net-(BT1-Pad1)*%
X139610200Y-93461200D03*
%TO.P,SW1,3*%
%TO.N,VCC*%
X139610200Y-95961200D03*
%TD*%
D14*
%TO.P,D1,1*%
%TO.N,GND*%
X150986800Y-26720800D03*
%TO.P,D1,2*%
%TO.N,Net-(D1-Pad2)*%
X145786800Y-26720800D03*
%TD*%
%TA.AperFunction,SMDPad,CuDef*%
D15*
%TO.P,D3,1*%
%TO.N,GND*%
G36*
X84220843Y-118623901D02*
G01*
X82729544Y-116494106D01*
X83876357Y-115691099D01*
X85367656Y-117820894D01*
X84220843Y-118623901D01*
G37*
%TD.AperFunction*%
%TA.AperFunction,SMDPad,CuDef*%
%TO.P,D3,2*%
%TO.N,Net-(D3-Pad2)*%
G36*
X88480433Y-115641303D02*
G01*
X86989134Y-113511508D01*
X88135947Y-112708501D01*
X89627246Y-114838296D01*
X88480433Y-115641303D01*
G37*
%TD.AperFunction*%
%TD*%
%TA.AperFunction,SMDPad,CuDef*%
%TO.P,D2,2*%
%TO.N,Net-(D2-Pad2)*%
G36*
X210098539Y-113314746D02*
G01*
X208427291Y-115306461D01*
X207354829Y-114406558D01*
X209026077Y-112414843D01*
X210098539Y-113314746D01*
G37*
%TD.AperFunction*%
%TA.AperFunction,SMDPad,CuDef*%
%TO.P,D2,1*%
%TO.N,GND*%
G36*
X214081971Y-116657242D02*
G01*
X212410723Y-118648957D01*
X211338261Y-117749054D01*
X213009509Y-115757339D01*
X214081971Y-116657242D01*
G37*
%TD.AperFunction*%
%TD*%
D16*
%TO.P,BT1,1*%
%TO.N,Net-(BT1-Pad1)*%
X137617700Y-78486000D03*
X159587700Y-78486000D03*
D17*
%TO.P,BT1,2*%
%TO.N,GND*%
X148602700Y-78486000D03*
%TD*%
D18*
%TO.P,J2,2*%
%TO.N,GND*%
X165589800Y-75951600D03*
D19*
%TO.P,J2,1*%
%TO.N,Net-(J2-Pad1)*%
X169849800Y-76301600D03*
D18*
%TO.P,J2,2*%
%TO.N,GND*%
X174109800Y-75951600D03*
%TD*%
%TO.P,R1,2*%
%TO.N,Net-(D1-Pad2)*%
%TA.AperFunction,SMDPad,CuDef*%
G36*
G01*
X146141600Y-30438600D02*
X144891600Y-30438600D01*
G75*
G02*
X144641600Y-30188600I0J250000D01*
G01*
X144641600Y-29438600D01*
G75*
G02*
X144891600Y-29188600I250000J0D01*
G01*
X146141600Y-29188600D01*
G75*
G02*
X146391600Y-29438600I0J-250000D01*
G01*
X146391600Y-30188600D01*
G75*
G02*
X146141600Y-30438600I-250000J0D01*
G01*
G37*
%TD.AperFunction*%
%TO.P,R1,1*%
%TO.N,Net-(J3-Pad1)*%
%TA.AperFunction,SMDPad,CuDef*%
G36*
G01*
X146141600Y-33238600D02*
X144891600Y-33238600D01*
G75*
G02*
X144641600Y-32988600I0J250000D01*
G01*
X144641600Y-32238600D01*
G75*
G02*
X144891600Y-31988600I250000J0D01*
G01*
X146141600Y-31988600D01*
G75*
G02*
X146391600Y-32238600I0J-250000D01*
G01*
X146391600Y-32988600D01*
G75*
G02*
X146141600Y-33238600I-250000J0D01*
G01*
G37*
%TD.AperFunction*%
%TD*%
%TO.P,R2,2*%
%TO.N,Net-(D2-Pad2)*%
%TA.AperFunction,SMDPad,CuDef*%
G36*
G01*
X204962600Y-111572200D02*
X204962600Y-110322200D01*
G75*
G02*
X205212600Y-110072200I250000J0D01*
G01*
X205962600Y-110072200D01*
G75*
G02*
X206212600Y-110322200I0J-250000D01*
G01*
X206212600Y-111572200D01*
G75*
G02*
X205962600Y-111822200I-250000J0D01*
G01*
X205212600Y-111822200D01*
G75*
G02*
X204962600Y-111572200I0J250000D01*
G01*
G37*
%TD.AperFunction*%
%TO.P,R2,1*%
%TO.N,Net-(R2-Pad1)*%
%TA.AperFunction,SMDPad,CuDef*%
G36*
G01*
X202162600Y-111572200D02*
X202162600Y-110322200D01*
G75*
G02*
X202412600Y-110072200I250000J0D01*
G01*
X203162600Y-110072200D01*
G75*
G02*
X203412600Y-110322200I0J-250000D01*
G01*
X203412600Y-111572200D01*
G75*
G02*
X203162600Y-111822200I-250000J0D01*
G01*
X202412600Y-111822200D01*
G75*
G02*
X202162600Y-111572200I0J250000D01*
G01*
G37*
%TD.AperFunction*%
%TD*%
%TO.P,R3,2*%
%TO.N,Net-(D3-Pad2)*%
%TA.AperFunction,SMDPad,CuDef*%
G36*
G01*
X92306300Y-110068200D02*
X92306300Y-111318200D01*
G75*
G02*
X92056300Y-111568200I-250000J0D01*
G01*
X91306300Y-111568200D01*
G75*
G02*
X91056300Y-111318200I0J250000D01*
G01*
X91056300Y-110068200D01*
G75*
G02*
X91306300Y-109818200I250000J0D01*
G01*
X92056300Y-109818200D01*
G75*
G02*
X92306300Y-110068200I0J-250000D01*
G01*
G37*
%TD.AperFunction*%
%TO.P,R3,1*%
%TO.N,Net-(R2-Pad1)*%
%TA.AperFunction,SMDPad,CuDef*%
G36*
G01*
X95106300Y-110068200D02*
X95106300Y-111318200D01*
G75*
G02*
X94856300Y-111568200I-250000J0D01*
G01*
X94106300Y-111568200D01*
G75*
G02*
X93856300Y-111318200I0J250000D01*
G01*
X93856300Y-110068200D01*
G75*
G02*
X94106300Y-109818200I250000J0D01*
G01*
X94856300Y-109818200D01*
G75*
G02*
X95106300Y-110068200I0J-250000D01*
G01*
G37*
%TD.AperFunction*%
%TD*%
%TO.P,R4,2*%
%TO.N,Net-(D4-Pad2)*%
%TA.AperFunction,SMDPad,CuDef*%
G36*
G01*
X142935800Y-124266800D02*
X144185800Y-124266800D01*
G75*
G02*
X144435800Y-124516800I0J-250000D01*
G01*
X144435800Y-125266800D01*
G75*
G02*
X144185800Y-125516800I-250000J0D01*
G01*
X142935800Y-125516800D01*
G75*
G02*
X142685800Y-125266800I0J250000D01*
G01*
X142685800Y-124516800D01*
G75*
G02*
X142935800Y-124266800I250000J0D01*
G01*
G37*
%TD.AperFunction*%
%TO.P,R4,1*%
%TO.N,Net-(R4-Pad1)*%
%TA.AperFunction,SMDPad,CuDef*%
G36*
G01*
X142935800Y-121466800D02*
X144185800Y-121466800D01*
G75*
G02*
X144435800Y-121716800I0J-250000D01*
G01*
X144435800Y-122466800D01*
G75*
G02*
X144185800Y-122716800I-250000J0D01*
G01*
X142935800Y-122716800D01*
G75*
G02*
X142685800Y-122466800I0J250000D01*
G01*
X142685800Y-121716800D01*
G75*
G02*
X142935800Y-121466800I250000J0D01*
G01*
G37*
%TD.AperFunction*%
%TD*%
%TO.P,R5,2*%
%TO.N,Net-(D5-Pad2)*%
%TA.AperFunction,SMDPad,CuDef*%
G36*
G01*
X153164700Y-46992700D02*
X151914700Y-46992700D01*
G75*
G02*
X151664700Y-46742700I0J250000D01*
G01*
X151664700Y-45992700D01*
G75*
G02*
X151914700Y-45742700I250000J0D01*
G01*
X153164700Y-45742700D01*
G75*
G02*
X153414700Y-45992700I0J-250000D01*
G01*
X153414700Y-46742700D01*
G75*
G02*
X153164700Y-46992700I-250000J0D01*
G01*
G37*
%TD.AperFunction*%
%TO.P,R5,1*%
%TO.N,Net-(R4-Pad1)*%
%TA.AperFunction,SMDPad,CuDef*%
G36*
G01*
X153164700Y-49792700D02*
X151914700Y-49792700D01*
G75*
G02*
X151664700Y-49542700I0J250000D01*
G01*
X151664700Y-48792700D01*
G75*
G02*
X151914700Y-48542700I250000J0D01*
G01*
X153164700Y-48542700D01*
G75*
G02*
X153414700Y-48792700I0J-250000D01*
G01*
X153414700Y-49542700D01*
G75*
G02*
X153164700Y-49792700I-250000J0D01*
G01*
G37*
%TD.AperFunction*%
%TD*%
D20*
%TO.P,U1,8*%
%TO.N,VCC*%
X133558300Y-92240100D03*
%TO.P,U1,7*%
%TO.N,Net-(J3-Pad3)*%
X133558300Y-90970100D03*
%TO.P,U1,6*%
%TO.N,Net-(J3-Pad1)*%
X133558300Y-89700100D03*
%TO.P,U1,5*%
%TO.N,Net-(J3-Pad4)*%
X133558300Y-88430100D03*
%TO.P,U1,4*%
%TO.N,GND*%
X126258300Y-88430100D03*
%TO.P,U1,3*%
%TO.N,Net-(R4-Pad1)*%
X126258300Y-89700100D03*
%TO.P,U1,2*%
%TO.N,Net-(R2-Pad1)*%
X126258300Y-90970100D03*
%TO.P,U1,1*%
%TO.N,Net-(J3-Pad5)*%
X126258300Y-92240100D03*
%TD*%
D21*
%TO.P,D4,2*%
%TO.N,Net-(D4-Pad2)*%
X143662400Y-127713300D03*
%TO.P,D4,1*%
%TO.N,GND*%
X143662400Y-130833300D03*
%TD*%
%TO.P,D5,1*%
%TO.N,GND*%
X152438100Y-41406200D03*
%TO.P,D5,2*%
%TO.N,Net-(D5-Pad2)*%
X152438100Y-44526200D03*
%TD*%
D22*
%TO.P,J4,1*%
%TO.N,Net-(J3-Pad3)*%
X143332200Y-102781100D03*
D23*
%TO.P,J4,2*%
%TO.N,Net-(J3-Pad4)*%
X143332200Y-105321100D03*
%TO.P,J4,3*%
%TO.N,GND*%
X143332200Y-107861100D03*
%TO.P,J4,4*%
%TO.N,VCC*%
X143332200Y-110401100D03*
%TD*%
D18*
%TO.P,J1,2*%
%TO.N,GND*%
X131006000Y-75920600D03*
D19*
%TO.P,J1,1*%
%TO.N,Net-(J1-Pad1)*%
X126746000Y-76270600D03*
D18*
%TO.P,J1,2*%
%TO.N,GND*%
X122486000Y-75920600D03*
%TD*%
D24*
%TO.N,GND*%
X129120900Y-74790300D03*
X134264400Y-74790300D03*
%TO.N,Net-(J1-Pad1)*%
X128981200Y-76200000D03*
%TO.N,Net-(R4-Pad1)*%
X130086447Y-89623553D03*
X131572000Y-85686900D03*
%TO.N,Net-(J3-Pad1)*%
X130454400Y-87731600D03*
X130454400Y-85705070D03*
%TO.N,Net-(J3-Pad4)*%
X131654299Y-91452700D03*
X131740152Y-87956646D03*
%TD*%
D25*
%TO.N,GND*%
X84039090Y-116365854D02*
X84039090Y-115046110D01*
X84048600Y-117157500D02*
X84048600Y-116375364D01*
X84048600Y-116375364D02*
X84039090Y-116365854D01*
X212710116Y-117203148D02*
X212710116Y-114668525D01*
X131006000Y-75920600D02*
X130225800Y-75920600D01*
X130225800Y-75920600D02*
X129120900Y-74815700D01*
X129120900Y-74815700D02*
X129120900Y-74790300D01*
X125081299Y-89113499D02*
X125764698Y-88430100D01*
X125764698Y-88430100D02*
X126258300Y-88430100D01*
X125081299Y-91676490D02*
X125081299Y-89113499D01*
X121795412Y-94962377D02*
X125081299Y-91676490D01*
X119800619Y-94962377D02*
X121795412Y-94962377D01*
X118398546Y-93560304D02*
X119800619Y-94962377D01*
X116744907Y-93560304D02*
X118398546Y-93560304D01*
X212710116Y-114668525D02*
X212420425Y-114668525D01*
X212420425Y-114668525D02*
X209245200Y-111493300D01*
X209245200Y-111493300D02*
X209181700Y-111429800D01*
X84578810Y-114506390D02*
X86312390Y-114506390D01*
X84039090Y-115046110D02*
X84578810Y-114506390D01*
X86312390Y-113725789D02*
X87922579Y-112115600D01*
X86312390Y-114506390D02*
X86312390Y-113725789D01*
X143223969Y-112251293D02*
X144509201Y-110966061D01*
X142285802Y-120670402D02*
X142285802Y-112364602D01*
X142392400Y-120777000D02*
X142285802Y-120670402D01*
X144395361Y-130800301D02*
X145189401Y-130006261D01*
X144509201Y-110966061D02*
X144509201Y-109038101D01*
X143662400Y-130810000D02*
X143672099Y-130800301D01*
X144509201Y-109038101D02*
X143332200Y-107861100D01*
X143672099Y-130800301D02*
X144395361Y-130800301D01*
X145189401Y-130006261D02*
X145189401Y-121389601D01*
X144576800Y-120777000D02*
X142392400Y-120777000D01*
X143662400Y-130833300D02*
X143662400Y-130810000D01*
X145189401Y-121389601D02*
X144576800Y-120777000D01*
D26*
X151563100Y-41406200D02*
X150901400Y-42067900D01*
X152438100Y-41406200D02*
X151563100Y-41406200D01*
X150901400Y-42067900D02*
X150901400Y-51151362D01*
X150901400Y-51151362D02*
X148519106Y-53533656D01*
X148519106Y-53533656D02*
X141988704Y-53533656D01*
X142024042Y-51919068D02*
X142194710Y-51748400D01*
X141988704Y-53533656D02*
X142024042Y-51919068D01*
X142194710Y-47646300D02*
X142347110Y-47493900D01*
X142194710Y-51748400D02*
X142194710Y-47646300D01*
X142347110Y-45284100D02*
X142510116Y-45121094D01*
X142347110Y-47493900D02*
X142347110Y-45284100D01*
X142510116Y-40663394D02*
X142677859Y-40495651D01*
X142510116Y-45121094D02*
X142510116Y-40663394D01*
X142677859Y-38476351D02*
X142840958Y-38313252D01*
X142677859Y-40495651D02*
X142677859Y-38476351D01*
X142840958Y-36677271D02*
X142994444Y-35343114D01*
X142840958Y-38313252D02*
X142840958Y-36677271D01*
X146842476Y-33100914D02*
X146842476Y-28598385D01*
X142994444Y-35343114D02*
X144600276Y-35343114D01*
X144600276Y-35343114D02*
X146842476Y-33100914D01*
X150986800Y-28270800D02*
X150986800Y-26720800D01*
X150659215Y-28598385D02*
X150986800Y-28270800D01*
X146842476Y-28598385D02*
X150659215Y-28598385D01*
X143110660Y-112364602D02*
X143223969Y-112251293D01*
X142285802Y-112364602D02*
X143110660Y-112364602D01*
D25*
%TO.N,VCC*%
X139610200Y-95961200D02*
X145110200Y-95961200D01*
D26*
X134733301Y-87845099D02*
X134733301Y-91555101D01*
X133318272Y-86430070D02*
X134733301Y-87845099D01*
X134048302Y-92240100D02*
X133558300Y-92240100D01*
X134733301Y-91555101D02*
X134048302Y-92240100D01*
X124501286Y-86430070D02*
X133318272Y-86430070D01*
X120636413Y-90294943D02*
X124501286Y-86430070D01*
D25*
X141114200Y-95961200D02*
X139610200Y-95961200D01*
X142155199Y-109224099D02*
X142155199Y-107110141D01*
X143332200Y-110401100D02*
X142155199Y-109224099D01*
X142155199Y-107110141D02*
X142767239Y-106498101D01*
X142767239Y-106498101D02*
X143897161Y-106498101D01*
X143897161Y-106498101D02*
X144509201Y-105886061D01*
X144509201Y-105886061D02*
X144509201Y-99356201D01*
X133558300Y-92240100D02*
X133558300Y-95598000D01*
X133558300Y-95598000D02*
X135115466Y-97155166D01*
X135064832Y-97129600D02*
X139611100Y-97129600D01*
X139610200Y-97103632D02*
X139610200Y-95961200D01*
D26*
X142282600Y-97129600D02*
X139611100Y-97129600D01*
X144509201Y-99356201D02*
X142282600Y-97129600D01*
%TO.N,Net-(D1-Pad2)*%
X145516600Y-26296000D02*
X145637900Y-26174700D01*
X145516600Y-29813600D02*
X145516600Y-26296000D01*
%TO.N,Net-(D2-Pad2)*%
X205813232Y-110947200D02*
X208726684Y-113860652D01*
X205587600Y-110947200D02*
X205813232Y-110947200D01*
%TO.N,Net-(D3-Pad2)*%
X91681300Y-110801792D02*
X88308190Y-114174902D01*
X91681300Y-110693200D02*
X91681300Y-110801792D01*
%TO.N,Net-(D4-Pad2)*%
X143560800Y-127611700D02*
X143662400Y-127713300D01*
X143560800Y-124891800D02*
X143560800Y-127611700D01*
D25*
%TO.N,Net-(D5-Pad2)*%
X152539700Y-44627800D02*
X152438100Y-44526200D01*
X152539700Y-46367700D02*
X152539700Y-44627800D01*
%TO.N,Net-(J1-Pad1)*%
X126816600Y-76200000D02*
X126746000Y-76270600D01*
X128981200Y-76200000D02*
X126816600Y-76200000D01*
%TO.N,Net-(J2-Pad1)*%
X157773600Y-88074500D02*
X169837100Y-76011000D01*
D26*
X151853900Y-120116600D02*
X151853900Y-116751100D01*
X151853900Y-123755800D02*
X151853900Y-120116600D01*
X155657194Y-90190906D02*
X169837100Y-76011000D01*
X155657194Y-98519196D02*
X155657194Y-90190906D01*
X151853900Y-109931200D02*
X151663400Y-109740700D01*
X151853900Y-116217700D02*
X155088619Y-116217700D01*
X151853900Y-116217700D02*
X151853900Y-109931200D01*
X151853900Y-123755800D02*
X151853900Y-116217700D01*
X155088619Y-99145119D02*
X155059945Y-99116445D01*
X155088619Y-116217700D02*
X155088619Y-99145119D01*
X155059945Y-99116445D02*
X155657194Y-98519196D01*
%TO.N,Net-(R2-Pad1)*%
X94481300Y-110693200D02*
X95173800Y-110693200D01*
X126258300Y-90970100D02*
X125784861Y-90970100D01*
X200177400Y-111569500D02*
X200799700Y-110947200D01*
X199823386Y-111569500D02*
X200177400Y-111569500D01*
X196249369Y-109954031D02*
X199823386Y-111569500D01*
X196248773Y-109952481D02*
X196249369Y-109954031D01*
X181388520Y-103386427D02*
X188826897Y-106651585D01*
X180710118Y-103088636D02*
X181388520Y-103386427D01*
X180709875Y-103088018D02*
X180710118Y-103088636D01*
X155843594Y-98969206D02*
X171358894Y-98969206D01*
X155580961Y-99231839D02*
X155843594Y-98969206D01*
X155580961Y-101097961D02*
X155580961Y-99231839D01*
X155581066Y-101098067D02*
X155580961Y-101097961D01*
X155576654Y-110979395D02*
X155581066Y-101098067D01*
X155482205Y-119160205D02*
X155550185Y-115620313D01*
X155333759Y-123394642D02*
X155471241Y-119731073D01*
X155131727Y-126692836D02*
X155333759Y-123394642D01*
X153186290Y-139624910D02*
X153556120Y-137885546D01*
X153139370Y-139845583D02*
X153186290Y-139624910D01*
X153167245Y-139888514D02*
X153139370Y-139845583D01*
X153166572Y-139939693D02*
X153167245Y-139888514D01*
X159035115Y-145859500D02*
X153166572Y-139990957D01*
X153556120Y-137885546D02*
X154078002Y-135219246D01*
X160719901Y-147372201D02*
X159142083Y-145859500D01*
X164465000Y-151117300D02*
X160719901Y-147372201D01*
X165731114Y-152192914D02*
X164617053Y-151117300D01*
X168243630Y-154705430D02*
X165731114Y-152192914D01*
X169860094Y-156446299D02*
X169477884Y-156002629D01*
X169944739Y-156575934D02*
X169860094Y-156446299D01*
X170120895Y-157884083D02*
X169944739Y-156575934D01*
X170120895Y-159630695D02*
X170120895Y-157884083D01*
X155471241Y-119171169D02*
X155482205Y-119160205D01*
X169988968Y-160778273D02*
X170230574Y-160868257D01*
X162446761Y-157584742D02*
X168148452Y-160018743D01*
X162446735Y-157584678D02*
X162446761Y-157584742D01*
X153954064Y-154146343D02*
X153967879Y-154168588D01*
X153406794Y-154018410D02*
X153954064Y-154146343D01*
X153308931Y-153920547D02*
X153406794Y-154018410D01*
X188827362Y-106652777D02*
X196248773Y-109952481D01*
X154509994Y-132522163D02*
X154859161Y-129707746D01*
X150888754Y-154279546D02*
X151247753Y-153920547D01*
X154078002Y-135219246D02*
X154509994Y-132522163D01*
X159142083Y-145859500D02*
X159035115Y-145859500D01*
X150888754Y-154977964D02*
X150888754Y-154279546D01*
X150480975Y-156442434D02*
X150888754Y-154977964D01*
X150190395Y-157438686D02*
X150480975Y-156442434D01*
X158436158Y-155873824D02*
X162446735Y-157584678D01*
X142984726Y-136411118D02*
X143627387Y-139857920D01*
X143171332Y-154065077D02*
X143752044Y-153929385D01*
X142955417Y-136253920D02*
X142984726Y-136411118D01*
X142486336Y-133644268D02*
X142955417Y-136253920D01*
X132740400Y-150596600D02*
X128766231Y-154570769D01*
X149028449Y-159558013D02*
X149213458Y-159443436D01*
X171432317Y-99042629D02*
X180709875Y-103088018D01*
X142092464Y-131106964D02*
X142126750Y-131141250D01*
X148020593Y-159633404D02*
X148130876Y-159640923D01*
X141839171Y-129084710D02*
X142092464Y-131106964D01*
X141152656Y-99235724D02*
X141163181Y-100466636D01*
X138505481Y-145025024D02*
X133461256Y-149862355D01*
X141655874Y-141943538D02*
X141649391Y-141943632D01*
X155550185Y-115620313D02*
X155576654Y-110979395D01*
X116067346Y-103088635D02*
X116067592Y-103088389D01*
X141658991Y-125885591D02*
X141658991Y-127046028D01*
X128766231Y-154570769D02*
X128766231Y-154635200D01*
X146353116Y-156411516D02*
X146353116Y-156632766D01*
X149685867Y-158795529D02*
X149928877Y-158217488D01*
X141580025Y-125806625D02*
X141658991Y-125885591D01*
X155471241Y-119731073D02*
X155471241Y-119171169D01*
X168148452Y-160018743D02*
X169988968Y-160778273D01*
X125292311Y-99065889D02*
X125388994Y-98969206D01*
X138694120Y-155727998D02*
X138652702Y-155744652D01*
X200799700Y-110947200D02*
X202787600Y-110947200D01*
X144355209Y-153904291D02*
X145466370Y-153904291D01*
X146264229Y-156322629D02*
X146353116Y-156411516D01*
X132740400Y-150558333D02*
X132740400Y-150596600D01*
X116067592Y-103088389D02*
X116067592Y-103088010D01*
X154859161Y-129707746D02*
X155131727Y-126692836D01*
X142126750Y-131367953D02*
X142486336Y-133644268D01*
X141249137Y-154700405D02*
X143147809Y-154053510D01*
X134683395Y-157434603D02*
X134683447Y-157434623D01*
X125388994Y-98969206D02*
X140883850Y-98969206D01*
X164617053Y-151117300D02*
X164465000Y-151117300D01*
X138652702Y-155744652D02*
X141097726Y-154761474D01*
X141459412Y-123311112D02*
X141580025Y-123431725D01*
X141266473Y-112183473D02*
X141266473Y-112520704D01*
X155701905Y-154770146D02*
X158433948Y-155868641D01*
X116067592Y-103088010D02*
X125292311Y-99065889D01*
X131622800Y-157793151D02*
X131621255Y-157794696D01*
X188826897Y-106651585D02*
X188827362Y-106652777D01*
X141163181Y-100466636D02*
X141263343Y-112180343D01*
X142126750Y-131141250D02*
X142126750Y-131367953D01*
X143602887Y-139893649D02*
X143602887Y-139939052D01*
X146849563Y-158217124D02*
X147092579Y-158795254D01*
X169477884Y-156002629D02*
X168243630Y-154705430D01*
X141263343Y-112180343D02*
X141266473Y-112183473D01*
X149352000Y-159304894D02*
X149352000Y-159129396D01*
X143627387Y-139857920D02*
X143602887Y-139893649D01*
X143883309Y-153920547D02*
X144338131Y-153921368D01*
X141580025Y-123431725D02*
X141580025Y-125806625D01*
X170227309Y-159737109D02*
X170120895Y-159630695D01*
X131622800Y-157543500D02*
X131622800Y-157793151D01*
X128766231Y-154635200D02*
X126849313Y-156552118D01*
X141017691Y-99103047D02*
X141152656Y-99235724D01*
X126849313Y-156552118D02*
X130631418Y-156552118D01*
X155695537Y-154757198D02*
X155701905Y-154770146D01*
X146353116Y-156632766D02*
X146588046Y-157438250D01*
X148130876Y-159640923D02*
X148138382Y-159633418D01*
X130631418Y-156552118D02*
X131622800Y-157543500D01*
X153166572Y-139990957D02*
X153166572Y-139939693D01*
X131621255Y-158741670D02*
X134683395Y-157434603D01*
X133461256Y-149862355D02*
X132740400Y-150558333D01*
X134683447Y-157434623D02*
X138688900Y-155725899D01*
X170230574Y-160868257D02*
X170227309Y-159737109D01*
X151247753Y-153920547D02*
X153308931Y-153920547D01*
X138688900Y-155725899D02*
X138694120Y-155727998D01*
X140883850Y-98969206D02*
X141017691Y-99103047D01*
X141097726Y-154761474D02*
X141158795Y-154700405D01*
X141158795Y-154700405D02*
X141249137Y-154700405D01*
X143752044Y-153929385D02*
X143874471Y-153929385D01*
X141658991Y-127046028D02*
X141839171Y-129084710D01*
X141383995Y-120979767D02*
X141459412Y-123311112D01*
X143874471Y-153929385D02*
X143883309Y-153920547D01*
X144338131Y-153921368D02*
X144355209Y-153904291D01*
X145466370Y-153904291D02*
X145638683Y-154076604D01*
X153967879Y-154168588D02*
X155695537Y-154757198D01*
X149928877Y-158217488D02*
X150190395Y-157438686D01*
X145638683Y-154076604D02*
X145780087Y-154584318D01*
X141266473Y-112520704D02*
X141383995Y-120979767D01*
X146588046Y-157438250D02*
X146849563Y-158217124D01*
X141649391Y-141943632D02*
X138508553Y-145025053D01*
X147092579Y-158795254D02*
X147238977Y-159046910D01*
X171358894Y-98969206D02*
X171432317Y-99042629D01*
X158433948Y-155868641D02*
X158436158Y-155873824D01*
X145780087Y-154584318D02*
X146264229Y-156322629D01*
X148138382Y-159633418D02*
X148757872Y-159633418D01*
X143147809Y-154053510D02*
X143171332Y-154065077D01*
X138508553Y-145025053D02*
X138505481Y-145025024D01*
X147238977Y-159046910D02*
X147750040Y-159557973D01*
X143602887Y-139939052D02*
X141655874Y-141943538D01*
X147750040Y-159557973D02*
X148020593Y-159633404D01*
X148757872Y-159633418D02*
X149028449Y-159558013D01*
X131621255Y-157794696D02*
X131621255Y-158741670D01*
X149213458Y-159443436D02*
X149352000Y-159304894D01*
X149352000Y-159129396D02*
X149685867Y-158795529D01*
X116067592Y-103088527D02*
X108125047Y-106575028D01*
X116067592Y-103088010D02*
X116067592Y-103088527D01*
X108125047Y-106575028D02*
X100876918Y-109797764D01*
X100876918Y-109797764D02*
X100875364Y-109797178D01*
X95807535Y-110693200D02*
X94481300Y-110693200D01*
X100875364Y-109797178D02*
X96768079Y-111653744D01*
X96768079Y-111653744D02*
X95807535Y-110693200D01*
D25*
X126258300Y-90970100D02*
X130292490Y-90970100D01*
X134031906Y-98967206D02*
X134033906Y-98967206D01*
X130457590Y-95392890D02*
X134031906Y-98967206D01*
X130292490Y-90970100D02*
X130457590Y-91135200D01*
X130457590Y-91135200D02*
X130457590Y-95392890D01*
%TO.N,Net-(R4-Pad1)*%
X126321800Y-89636600D02*
X126258300Y-89700100D01*
X130429000Y-89636600D02*
X126321800Y-89636600D01*
X141718483Y-110933683D02*
X141704589Y-110919789D01*
X141867337Y-121941037D02*
X141835901Y-120969267D01*
X142018100Y-122091800D02*
X141867337Y-121941037D01*
X141718483Y-112517536D02*
X141718483Y-110933683D01*
X141835901Y-120969267D02*
X141718483Y-112517536D01*
X143560800Y-122091800D02*
X142018100Y-122091800D01*
X141704589Y-110919789D02*
X141657673Y-105432994D01*
X141657673Y-105432994D02*
X141613574Y-100275551D01*
X141613574Y-100275551D02*
X141613571Y-100275548D01*
X141335860Y-98781978D02*
X141071078Y-98517196D01*
X141603049Y-99044639D02*
X141335860Y-98781978D01*
X130911600Y-95019810D02*
X130911600Y-90119200D01*
X141071078Y-98517196D02*
X134408986Y-98517196D01*
X134408986Y-98517196D02*
X130911600Y-95019810D01*
X141613571Y-100275548D02*
X141603049Y-99044639D01*
X130911600Y-90119200D02*
X130429000Y-89636600D01*
X130429000Y-89636600D02*
X130099494Y-89636600D01*
X130099494Y-89636600D02*
X130086447Y-89623553D01*
X141980810Y-53985666D02*
X148706334Y-53985666D01*
X141980810Y-56067228D02*
X141980810Y-53985666D01*
X141946508Y-67198989D02*
X141946508Y-56101530D01*
X141946508Y-56101530D02*
X141980810Y-56067228D01*
X141529960Y-67615537D02*
X141946508Y-67198989D01*
X141369618Y-67615537D02*
X141529960Y-67615537D01*
X136165564Y-71786549D02*
X141369618Y-67615537D01*
X131572000Y-80594200D02*
X132927710Y-79238490D01*
X131572000Y-85686900D02*
X131572000Y-80594200D01*
X148706334Y-53985666D02*
X152539700Y-50152300D01*
X132927710Y-74488690D02*
X133585041Y-73831359D01*
X132927710Y-79238490D02*
X132927710Y-74488690D01*
X152539700Y-50152300D02*
X152539700Y-49167700D01*
X133585041Y-73831359D02*
X136162903Y-71786255D01*
X136162903Y-71786255D02*
X136165564Y-71786549D01*
%TO.N,Net-(BT1-Pad1)*%
X137617700Y-81156962D02*
X137617700Y-78486000D01*
X144173739Y-87713001D02*
X137617700Y-81156962D01*
X153154699Y-87713001D02*
X144173739Y-87713001D01*
X159587700Y-81280000D02*
X153154699Y-87713001D01*
X159587700Y-78486000D02*
X159587700Y-81280000D01*
X143533199Y-91896899D02*
X145110200Y-93473900D01*
X143533199Y-88353541D02*
X143533199Y-91896899D01*
X144173739Y-87713001D02*
X143533199Y-88353541D01*
X139610200Y-93461200D02*
X145110200Y-93461200D01*
D26*
%TO.N,Net-(J3-Pad1)*%
X132458300Y-89700100D02*
X133558300Y-89700100D01*
X124961899Y-87330089D02*
X130088289Y-87330089D01*
X122269093Y-90022895D02*
X124961899Y-87330089D01*
X122269093Y-92240696D02*
X122269093Y-90022895D01*
X145516600Y-32613600D02*
X143141700Y-32613600D01*
X142785901Y-33593810D02*
X142773400Y-33682742D01*
X143141700Y-32613600D02*
X142914178Y-32841122D01*
X142914178Y-32841122D02*
X142785901Y-33593810D01*
X142773400Y-33682742D02*
X142548033Y-35286037D01*
X142548033Y-35286037D02*
X142390948Y-36651470D01*
X142390948Y-38126852D02*
X142227849Y-38289951D01*
X142390948Y-36651470D02*
X142390948Y-38126852D01*
X142227849Y-40309251D02*
X142060106Y-40476994D01*
X142227849Y-38289951D02*
X142227849Y-40309251D01*
X142060106Y-40476994D02*
X142060106Y-42280394D01*
X142060106Y-42280394D02*
X142049500Y-42291000D01*
X142049500Y-42291000D02*
X142049500Y-44297600D01*
X142049500Y-44297600D02*
X142049500Y-44945300D01*
X142049500Y-44945300D02*
X141897100Y-45097700D01*
X141897100Y-45097700D02*
X141897100Y-47307500D01*
X141897100Y-47307500D02*
X141744700Y-47459900D01*
X141744700Y-47459900D02*
X141744700Y-51562000D01*
X141578093Y-51728607D02*
X141528800Y-53980719D01*
X141744700Y-51562000D02*
X141578093Y-51728607D01*
X141528800Y-55880000D02*
X141494498Y-55914302D01*
X141528800Y-53980719D02*
X141528800Y-55880000D01*
X141494498Y-55914302D02*
X141494498Y-63516498D01*
X141380165Y-63630831D02*
X141380165Y-67123265D01*
X141494498Y-63516498D02*
X141380165Y-63630831D01*
D25*
X141380165Y-67123265D02*
X141257866Y-67123265D01*
X141257866Y-67123265D02*
X138191885Y-69580627D01*
X138191885Y-69580627D02*
X136283495Y-71110189D01*
X130459400Y-87726600D02*
X130454400Y-87731600D01*
X130484800Y-87726600D02*
X130459400Y-87726600D01*
D26*
X130484800Y-87726600D02*
X132458300Y-89700100D01*
X130088289Y-87330089D02*
X130484800Y-87726600D01*
D25*
X136028364Y-71314675D02*
X136447356Y-70978855D01*
X136027020Y-71314527D02*
X136028364Y-71314675D01*
X132770343Y-73898157D02*
X136027020Y-71314527D01*
X130454400Y-85705070D02*
X130454400Y-80683100D01*
X132473700Y-73964800D02*
X132559282Y-73879218D01*
X130454400Y-80683100D02*
X132473700Y-78663800D01*
X132473700Y-78663800D02*
X132473700Y-73964800D01*
X132559282Y-73879218D02*
X132606001Y-73879218D01*
X132606001Y-73879218D02*
X132770343Y-73898157D01*
D26*
%TO.N,Net-(J3-Pad3)*%
X125083299Y-87845099D02*
X125148299Y-87780099D01*
X120323340Y-93873376D02*
X122245175Y-93873376D01*
X123356094Y-92762457D02*
X123356094Y-89572304D01*
X122245175Y-93873376D02*
X123356094Y-92762457D01*
X132458300Y-90970100D02*
X133558300Y-90970100D01*
X125148299Y-87780099D02*
X129268299Y-87780099D01*
X123356094Y-89572304D02*
X125148299Y-87780099D01*
D25*
X132454300Y-90970100D02*
X133558300Y-90970100D01*
X143332200Y-102781100D02*
X143332200Y-99487407D01*
X143332200Y-99487407D02*
X141453969Y-97609176D01*
X134785100Y-97609176D02*
X132381299Y-95205375D01*
X141453969Y-97609176D02*
X134785100Y-97609176D01*
X132381299Y-91043101D02*
X132454300Y-90970100D01*
D26*
X132381299Y-91322199D02*
X132381299Y-90893099D01*
X132237400Y-90749200D02*
X132458300Y-90970100D01*
X129268299Y-87780099D02*
X132237400Y-90749200D01*
X132381299Y-90893099D02*
X132237400Y-90749200D01*
D25*
X132381299Y-91322199D02*
X132381299Y-91043101D01*
X132381299Y-95205375D02*
X132381299Y-91322199D01*
D26*
%TO.N,Net-(J3-Pad4)*%
X124775499Y-86880079D02*
X132008279Y-86880079D01*
X121819084Y-89836494D02*
X124775499Y-86880079D01*
X121819084Y-91081943D02*
X121819084Y-89836494D01*
X120973403Y-91927624D02*
X121819084Y-91081943D01*
X118690660Y-91927624D02*
X120973403Y-91927624D01*
D25*
X143217900Y-105206800D02*
X142109764Y-105206800D01*
X143332200Y-105321100D02*
X143217900Y-105206800D01*
X142109764Y-102066664D02*
X142082683Y-102039583D01*
X142109764Y-105206800D02*
X142109764Y-102066664D01*
X142055436Y-98852710D02*
X141265912Y-98063186D01*
X142082683Y-102039583D02*
X142055436Y-98852710D01*
X141265912Y-98063186D02*
X141259135Y-98063186D01*
X131775200Y-91452700D02*
X131654299Y-91452700D01*
X131775200Y-95241343D02*
X131775200Y-91452700D01*
X134597043Y-98063186D02*
X131775200Y-95241343D01*
X141265912Y-98063186D02*
X134597043Y-98063186D01*
X133084846Y-87956646D02*
X133558300Y-88430100D01*
D26*
X132342398Y-87354400D02*
X132482600Y-87354400D01*
X131740152Y-87956646D02*
X132342398Y-87354400D01*
X132008279Y-86880079D02*
X132482600Y-87354400D01*
X132482600Y-87354400D02*
X133558300Y-88430100D01*
%TO.N,Net-(J3-Pad5)*%
X122992343Y-95506057D02*
X126258300Y-92240100D01*
X118377587Y-95506057D02*
X122992343Y-95506057D01*
%TD*%
D27*
%TO.N,GND*%
G36*
X148651714Y-22301503D02*
G01*
X148882512Y-22365205D01*
X149126544Y-22474368D01*
X149385651Y-22635361D01*
X149657867Y-22852925D01*
X149939799Y-23129893D01*
X150227868Y-23467585D01*
X150511806Y-23856735D01*
X151098136Y-24846658D01*
X151121320Y-24896780D01*
X151090800Y-24927300D01*
X151090800Y-26616800D01*
X151110800Y-26616800D01*
X151110800Y-26824800D01*
X151090800Y-26824800D01*
X151090800Y-28514300D01*
X151255300Y-28678800D01*
X151686800Y-28681984D01*
X151815791Y-28669280D01*
X151939824Y-28631654D01*
X152054134Y-28570554D01*
X152154328Y-28488328D01*
X152236554Y-28388134D01*
X152297654Y-28273824D01*
X152335280Y-28149791D01*
X152346875Y-28032061D01*
X152684660Y-29178093D01*
X153240267Y-31560814D01*
X153715210Y-34206568D01*
X154111502Y-37149388D01*
X154431133Y-40422178D01*
X154676268Y-44057787D01*
X154849225Y-48088823D01*
X154952460Y-52547901D01*
X154988538Y-57470261D01*
X154994679Y-66689274D01*
X154993842Y-66693766D01*
X154994730Y-66766625D01*
X154994753Y-66800818D01*
X154995202Y-66805349D01*
X154995731Y-66848717D01*
X155002829Y-66882257D01*
X155006213Y-66916386D01*
X155018836Y-66957898D01*
X155027814Y-67000324D01*
X155041318Y-67031835D01*
X155051296Y-67064648D01*
X155071770Y-67102890D01*
X155088856Y-67142759D01*
X155108255Y-67171038D01*
X155124437Y-67201265D01*
X155151975Y-67234775D01*
X155176514Y-67270548D01*
X155201054Y-67294497D01*
X155222825Y-67320989D01*
X155256375Y-67348485D01*
X155259628Y-67351660D01*
X155286279Y-67372993D01*
X155342679Y-67419217D01*
X155346713Y-67421370D01*
X160460692Y-71515008D01*
X163598207Y-74026669D01*
X163654397Y-74072783D01*
X163692874Y-74093349D01*
X163729441Y-74117145D01*
X163761043Y-74129787D01*
X163791063Y-74145833D01*
X163832817Y-74158499D01*
X163873321Y-74174702D01*
X163906779Y-74180935D01*
X163939355Y-74190817D01*
X163982781Y-74195094D01*
X164025664Y-74203083D01*
X164098249Y-74202200D01*
X164129639Y-74202200D01*
X164131800Y-75683100D01*
X164296300Y-75847600D01*
X165485800Y-75847600D01*
X165485800Y-75827600D01*
X165693800Y-75827600D01*
X165693800Y-75847600D01*
X166883300Y-75847600D01*
X167047800Y-75683100D01*
X167049961Y-74202200D01*
X168396655Y-74202200D01*
X168396655Y-76352601D01*
X167049959Y-77699297D01*
X167047800Y-76220100D01*
X166883300Y-76055600D01*
X165693800Y-76055600D01*
X165693800Y-78895100D01*
X165773978Y-78975278D01*
X157197191Y-87552066D01*
X157184245Y-87567841D01*
X155136108Y-89615978D01*
X155106536Y-89640247D01*
X155057417Y-89700099D01*
X155009688Y-89758256D01*
X154937725Y-89892892D01*
X154893409Y-90038980D01*
X154878445Y-90190906D01*
X154882195Y-90228979D01*
X154882194Y-98198181D01*
X154538855Y-98541521D01*
X154509287Y-98565787D01*
X154423435Y-98670397D01*
X154412439Y-98683795D01*
X154340476Y-98818431D01*
X154296160Y-98964519D01*
X154281196Y-99116445D01*
X154296160Y-99268371D01*
X154313620Y-99325928D01*
X154313619Y-115442700D01*
X152628900Y-115442700D01*
X152628900Y-111529545D01*
X152634000Y-111529545D01*
X152761422Y-111516995D01*
X152883948Y-111479827D01*
X152996868Y-111419470D01*
X153095843Y-111338243D01*
X153177070Y-111239268D01*
X153237427Y-111126348D01*
X153274595Y-111003822D01*
X153287145Y-110876400D01*
X153287145Y-108376400D01*
X153274595Y-108248978D01*
X153237427Y-108126452D01*
X153177070Y-108013532D01*
X153095843Y-107914557D01*
X152996868Y-107833330D01*
X152883948Y-107772973D01*
X152761422Y-107735805D01*
X152634000Y-107723255D01*
X150134000Y-107723255D01*
X150006578Y-107735805D01*
X149884052Y-107772973D01*
X149771132Y-107833330D01*
X149672157Y-107914557D01*
X149590930Y-108013532D01*
X149530573Y-108126452D01*
X149493405Y-108248978D01*
X149480855Y-108376400D01*
X149480855Y-110876400D01*
X149493405Y-111003822D01*
X149530573Y-111126348D01*
X149590930Y-111239268D01*
X149672157Y-111338243D01*
X149771132Y-111419470D01*
X149884052Y-111479827D01*
X150006578Y-111516995D01*
X150134000Y-111529545D01*
X151078901Y-111529545D01*
X151078900Y-116179635D01*
X151075151Y-116217700D01*
X151078901Y-116255775D01*
X151078901Y-119974022D01*
X151078900Y-121876755D01*
X150134000Y-121876755D01*
X150006578Y-121889305D01*
X149884052Y-121926473D01*
X149771132Y-121986830D01*
X149672157Y-122068057D01*
X149590930Y-122167032D01*
X149530573Y-122279952D01*
X149493405Y-122402478D01*
X149480855Y-122529900D01*
X149480855Y-125029900D01*
X149493405Y-125157322D01*
X149530573Y-125279848D01*
X149590930Y-125392768D01*
X149672157Y-125491743D01*
X149771132Y-125572970D01*
X149884052Y-125633327D01*
X150006578Y-125670495D01*
X150134000Y-125683045D01*
X152634000Y-125683045D01*
X152761422Y-125670495D01*
X152883948Y-125633327D01*
X152996868Y-125572970D01*
X153095843Y-125491743D01*
X153177070Y-125392768D01*
X153237427Y-125279848D01*
X153274595Y-125157322D01*
X153287145Y-125029900D01*
X153287145Y-122529900D01*
X153274595Y-122402478D01*
X153237427Y-122279952D01*
X153177070Y-122167032D01*
X153095843Y-122068057D01*
X152996868Y-121986830D01*
X152883948Y-121926473D01*
X152761422Y-121889305D01*
X152634000Y-121876755D01*
X152628900Y-121876755D01*
X152628900Y-116992700D01*
X154748687Y-116992700D01*
X154709927Y-119011096D01*
X154707455Y-119019243D01*
X154699477Y-119100247D01*
X154692492Y-119171169D01*
X154696241Y-119209232D01*
X154696241Y-119716548D01*
X154559648Y-123356435D01*
X154358863Y-126634256D01*
X154088471Y-129625112D01*
X153742580Y-132413131D01*
X153314866Y-135083503D01*
X152796763Y-137730496D01*
X152428818Y-139460999D01*
X152389235Y-139647160D01*
X152377651Y-139683614D01*
X152360689Y-139835330D01*
X152360690Y-139835336D01*
X152360689Y-139835341D01*
X152365984Y-139897471D01*
X152373651Y-139987439D01*
X152373653Y-139987444D01*
X152373653Y-139987450D01*
X152394623Y-140060002D01*
X152402786Y-140142882D01*
X152447102Y-140288970D01*
X152468847Y-140329652D01*
X152519066Y-140423607D01*
X152541457Y-140450890D01*
X152615913Y-140541616D01*
X152645490Y-140565889D01*
X158460187Y-146380587D01*
X158484456Y-146410159D01*
X158560003Y-146472158D01*
X158602464Y-146507006D01*
X158674428Y-146545471D01*
X158737101Y-146578970D01*
X158789134Y-146594754D01*
X160177717Y-147926031D01*
X163890072Y-151638387D01*
X163914341Y-151667959D01*
X163966763Y-151710980D01*
X164032349Y-151764806D01*
X164104313Y-151803271D01*
X164166986Y-151836770D01*
X164282877Y-151871926D01*
X165187972Y-152745786D01*
X167688814Y-155246629D01*
X168903232Y-156522981D01*
X169202374Y-156870225D01*
X169345896Y-157936033D01*
X169345895Y-159592632D01*
X169342146Y-159630695D01*
X169345895Y-159668758D01*
X169345895Y-159668759D01*
X169346484Y-159674741D01*
X168448503Y-159304169D01*
X162786367Y-156887055D01*
X162785837Y-156886764D01*
X162784511Y-156886198D01*
X162749646Y-156867256D01*
X162714497Y-156856332D01*
X158810406Y-155190904D01*
X158779568Y-155174831D01*
X158724498Y-155146124D01*
X158687765Y-155135395D01*
X156104418Y-154096688D01*
X156085662Y-154083216D01*
X156085646Y-154083209D01*
X156085634Y-154083200D01*
X156003800Y-154046015D01*
X155981501Y-154035882D01*
X155981493Y-154035879D01*
X155946648Y-154020046D01*
X155909415Y-154011322D01*
X154349915Y-153480003D01*
X154321319Y-153463471D01*
X154275869Y-153437195D01*
X154275866Y-153437194D01*
X154275861Y-153437191D01*
X154190891Y-153408294D01*
X154131338Y-153388040D01*
X154093416Y-153383025D01*
X153788841Y-153311826D01*
X153741581Y-153273041D01*
X153606945Y-153201077D01*
X153460857Y-153156761D01*
X153346996Y-153145547D01*
X153346994Y-153145547D01*
X153308931Y-153141798D01*
X153270868Y-153145547D01*
X151285815Y-153145547D01*
X151247752Y-153141798D01*
X151209689Y-153145547D01*
X151209688Y-153145547D01*
X151095827Y-153156761D01*
X150949739Y-153201077D01*
X150815103Y-153273041D01*
X150697094Y-153369888D01*
X150672820Y-153399466D01*
X150367668Y-153704618D01*
X150338096Y-153728887D01*
X150297411Y-153778462D01*
X150241248Y-153846896D01*
X150170759Y-153978775D01*
X150169285Y-153981532D01*
X150124968Y-154127620D01*
X150114586Y-154233038D01*
X150110005Y-154279546D01*
X150113754Y-154317609D01*
X150113754Y-154872082D01*
X149735661Y-156229940D01*
X149450748Y-157206761D01*
X149203326Y-157943583D01*
X149030354Y-158355028D01*
X148830917Y-158554465D01*
X148801341Y-158578737D01*
X148704494Y-158696746D01*
X148632530Y-158831382D01*
X148624329Y-158858418D01*
X148176470Y-158858418D01*
X148143222Y-158855141D01*
X147858216Y-158570135D01*
X147787636Y-158448808D01*
X147575127Y-157943256D01*
X147327689Y-157206314D01*
X147128116Y-156522055D01*
X147128116Y-156449578D01*
X147131865Y-156411515D01*
X147128116Y-156373451D01*
X147116902Y-156259590D01*
X147072586Y-156113502D01*
X147000622Y-155978866D01*
X146958784Y-155927886D01*
X146529973Y-154388241D01*
X146403345Y-153933578D01*
X146402468Y-153924677D01*
X146382902Y-153860179D01*
X146375055Y-153832003D01*
X146371836Y-153823698D01*
X146358152Y-153778590D01*
X146344317Y-153752706D01*
X146333703Y-153725325D01*
X146308410Y-153685529D01*
X146286188Y-153643954D01*
X146267562Y-153621258D01*
X146251816Y-153596483D01*
X146219257Y-153562397D01*
X146213606Y-153555512D01*
X146192918Y-153534824D01*
X146146368Y-153486092D01*
X146139049Y-153480956D01*
X146041301Y-153383208D01*
X146017029Y-153353632D01*
X145899020Y-153256785D01*
X145764384Y-153184821D01*
X145618296Y-153140505D01*
X145504435Y-153129291D01*
X145504433Y-153129291D01*
X145466370Y-153125542D01*
X145428307Y-153129291D01*
X144393284Y-153129291D01*
X144355231Y-153125542D01*
X144317158Y-153129291D01*
X144317144Y-153129291D01*
X144242248Y-153136667D01*
X144203306Y-153140502D01*
X144203302Y-153140503D01*
X144203283Y-153140505D01*
X144184871Y-153146090D01*
X143922073Y-153145616D01*
X143883309Y-153141798D01*
X143807923Y-153149223D01*
X143763655Y-153153503D01*
X143726196Y-153151065D01*
X143663292Y-153159377D01*
X143600118Y-153165599D01*
X143551180Y-153180444D01*
X143130948Y-153278638D01*
X143045293Y-153281538D01*
X142933899Y-153307644D01*
X142933889Y-153307647D01*
X142896650Y-153316375D01*
X142861837Y-153332196D01*
X141120738Y-153925404D01*
X141120733Y-153925405D01*
X141120730Y-153925405D01*
X141006869Y-153936619D01*
X140860781Y-153980935D01*
X140726145Y-154052899D01*
X140671953Y-154097373D01*
X138475670Y-154980529D01*
X138455234Y-154986964D01*
X138383436Y-155009560D01*
X138349840Y-155027969D01*
X134414609Y-156706736D01*
X134414154Y-156706879D01*
X134408878Y-156709131D01*
X134367115Y-156722973D01*
X134338846Y-156739024D01*
X132399240Y-157566940D01*
X132401549Y-157543500D01*
X132397637Y-157503781D01*
X132386586Y-157391574D01*
X132342270Y-157245486D01*
X132293931Y-157155049D01*
X132270306Y-157110849D01*
X132230605Y-157062474D01*
X132173459Y-156992841D01*
X132143888Y-156968573D01*
X131206350Y-156031036D01*
X131182077Y-156001459D01*
X131064068Y-155904612D01*
X130929432Y-155832648D01*
X130783344Y-155788332D01*
X130669483Y-155777118D01*
X130669481Y-155777118D01*
X130631418Y-155773369D01*
X130593355Y-155777118D01*
X128720328Y-155777118D01*
X129287323Y-155210124D01*
X129316890Y-155185859D01*
X129348515Y-155147323D01*
X129413736Y-155067851D01*
X129469511Y-154963503D01*
X133261487Y-151171528D01*
X133291059Y-151147259D01*
X133336653Y-151091702D01*
X133387906Y-151029251D01*
X133408681Y-150990383D01*
X133998885Y-150420550D01*
X139001399Y-145623221D01*
X139024131Y-145604926D01*
X139024161Y-145604896D01*
X139053989Y-145580885D01*
X139078503Y-145551582D01*
X142131978Y-142555872D01*
X142150627Y-142540108D01*
X142214458Y-142486155D01*
X142238306Y-142456222D01*
X144128346Y-140510392D01*
X144153546Y-140489711D01*
X144181392Y-140455781D01*
X144185328Y-140451728D01*
X144205563Y-140426328D01*
X144250393Y-140371701D01*
X144253071Y-140366691D01*
X144256616Y-140362241D01*
X144289043Y-140299391D01*
X144322357Y-140237065D01*
X144324008Y-140231624D01*
X144326614Y-140226572D01*
X144346144Y-140158651D01*
X144366673Y-140090977D01*
X144366745Y-140090245D01*
X144389289Y-140019021D01*
X144389290Y-140019015D01*
X144389291Y-140019011D01*
X144406080Y-139867276D01*
X144396234Y-139753288D01*
X144392944Y-139715191D01*
X144382282Y-139678458D01*
X143739619Y-136231647D01*
X143717740Y-136114296D01*
X143250565Y-133515250D01*
X143016323Y-132032408D01*
X143037400Y-132034484D01*
X143393900Y-132031300D01*
X143558400Y-131866800D01*
X143558400Y-131123300D01*
X143766400Y-131123300D01*
X143766400Y-131866800D01*
X143930900Y-132031300D01*
X144287400Y-132034484D01*
X144416391Y-132021780D01*
X144540424Y-131984154D01*
X144654734Y-131923054D01*
X144754928Y-131840828D01*
X144837154Y-131740634D01*
X144898254Y-131626324D01*
X144935880Y-131502291D01*
X144948584Y-131373300D01*
X144945400Y-131101800D01*
X144780900Y-130937300D01*
X144479429Y-130937300D01*
X144538703Y-130912748D01*
X144841706Y-130710289D01*
X145099389Y-130452606D01*
X145301848Y-130149603D01*
X145351430Y-130029900D01*
X149480855Y-130029900D01*
X149480855Y-132529900D01*
X149493405Y-132657322D01*
X149530573Y-132779848D01*
X149590930Y-132892768D01*
X149672157Y-132991743D01*
X149771132Y-133072970D01*
X149884052Y-133133327D01*
X150006578Y-133170495D01*
X150134000Y-133183045D01*
X152634000Y-133183045D01*
X152761422Y-133170495D01*
X152883948Y-133133327D01*
X152996868Y-133072970D01*
X153095843Y-132991743D01*
X153177070Y-132892768D01*
X153237427Y-132779848D01*
X153274595Y-132657322D01*
X153287145Y-132529900D01*
X153287145Y-130029900D01*
X153274595Y-129902478D01*
X153237427Y-129779952D01*
X153177070Y-129667032D01*
X153095843Y-129568057D01*
X152996868Y-129486830D01*
X152883948Y-129426473D01*
X152761422Y-129389305D01*
X152634000Y-129376755D01*
X150134000Y-129376755D01*
X150006578Y-129389305D01*
X149884052Y-129426473D01*
X149771132Y-129486830D01*
X149672157Y-129568057D01*
X149590930Y-129667032D01*
X149530573Y-129779952D01*
X149493405Y-129902478D01*
X149480855Y-130029900D01*
X145351430Y-130029900D01*
X145441305Y-129812925D01*
X145512400Y-129455509D01*
X145512400Y-129091091D01*
X145441305Y-128733675D01*
X145301848Y-128396997D01*
X145099389Y-128093994D01*
X144940545Y-127935150D01*
X144940545Y-127173300D01*
X144927995Y-127045878D01*
X144890827Y-126923352D01*
X144830470Y-126810432D01*
X144749243Y-126711457D01*
X144650268Y-126630230D01*
X144537348Y-126569873D01*
X144414822Y-126532705D01*
X144335800Y-126524922D01*
X144335800Y-126155171D01*
X144361995Y-126152591D01*
X144531419Y-126101197D01*
X144687560Y-126017738D01*
X144824420Y-125905420D01*
X144936738Y-125768560D01*
X145020197Y-125612419D01*
X145071591Y-125442995D01*
X145088945Y-125266800D01*
X145088945Y-124516800D01*
X145071591Y-124340605D01*
X145020197Y-124171181D01*
X144936738Y-124015040D01*
X144824420Y-123878180D01*
X144687560Y-123765862D01*
X144531419Y-123682403D01*
X144361995Y-123631009D01*
X144185800Y-123613655D01*
X142935800Y-123613655D01*
X142759605Y-123631009D01*
X142590181Y-123682403D01*
X142434040Y-123765862D01*
X142355025Y-123830708D01*
X142355025Y-123469788D01*
X142358774Y-123431725D01*
X142353932Y-123382566D01*
X142343811Y-123279799D01*
X142299495Y-123133711D01*
X142260453Y-123060668D01*
X142297180Y-123105420D01*
X142434040Y-123217738D01*
X142590181Y-123301197D01*
X142759605Y-123352591D01*
X142935800Y-123369945D01*
X144185800Y-123369945D01*
X144361995Y-123352591D01*
X144531419Y-123301197D01*
X144687560Y-123217738D01*
X144824420Y-123105420D01*
X144936738Y-122968560D01*
X145020197Y-122812419D01*
X145071591Y-122642995D01*
X145088945Y-122466800D01*
X145088945Y-121716800D01*
X145071591Y-121540605D01*
X145020197Y-121371181D01*
X144936738Y-121215040D01*
X144824420Y-121078180D01*
X144687560Y-120965862D01*
X144531419Y-120882403D01*
X144361995Y-120831009D01*
X144185800Y-120813655D01*
X142935800Y-120813655D01*
X142759605Y-120831009D01*
X142611678Y-120875882D01*
X142495483Y-112512201D01*
X142495483Y-111646058D01*
X142621683Y-111730383D01*
X142894666Y-111843456D01*
X143184463Y-111901100D01*
X143479937Y-111901100D01*
X143769734Y-111843456D01*
X144042717Y-111730383D01*
X144288394Y-111566226D01*
X144497326Y-111357294D01*
X144661483Y-111111617D01*
X144774556Y-110838634D01*
X144832200Y-110548837D01*
X144832200Y-110253363D01*
X144774556Y-109963566D01*
X144661483Y-109690583D01*
X144497326Y-109444906D01*
X144288394Y-109235974D01*
X144132783Y-109131997D01*
X144206928Y-109089483D01*
X144429766Y-108895229D01*
X144610425Y-108661234D01*
X144741963Y-108396490D01*
X144801819Y-108199161D01*
X144671669Y-107965100D01*
X143436200Y-107965100D01*
X143436200Y-107985100D01*
X143228200Y-107985100D01*
X143228200Y-107965100D01*
X143208200Y-107965100D01*
X143208200Y-107757100D01*
X143228200Y-107757100D01*
X143228200Y-107737100D01*
X143436200Y-107737100D01*
X143436200Y-107757100D01*
X144671669Y-107757100D01*
X144801819Y-107523039D01*
X144741963Y-107325710D01*
X144610425Y-107060966D01*
X144533184Y-106960921D01*
X145031638Y-106462468D01*
X145061281Y-106438141D01*
X145099576Y-106391478D01*
X145158378Y-106319828D01*
X145230528Y-106184845D01*
X145230528Y-106184844D01*
X145274958Y-106038380D01*
X145286201Y-105924227D01*
X145286201Y-105924218D01*
X145289959Y-105886062D01*
X145286201Y-105847906D01*
X145286201Y-100876400D01*
X149480855Y-100876400D01*
X149480855Y-103376400D01*
X149493405Y-103503822D01*
X149530573Y-103626348D01*
X149590930Y-103739268D01*
X149672157Y-103838243D01*
X149771132Y-103919470D01*
X149884052Y-103979827D01*
X150006578Y-104016995D01*
X150134000Y-104029545D01*
X152634000Y-104029545D01*
X152761422Y-104016995D01*
X152883948Y-103979827D01*
X152996868Y-103919470D01*
X153095843Y-103838243D01*
X153177070Y-103739268D01*
X153237427Y-103626348D01*
X153274595Y-103503822D01*
X153287145Y-103376400D01*
X153287145Y-100876400D01*
X153274595Y-100748978D01*
X153237427Y-100626452D01*
X153177070Y-100513532D01*
X153095843Y-100414557D01*
X152996868Y-100333330D01*
X152883948Y-100272973D01*
X152761422Y-100235805D01*
X152634000Y-100223255D01*
X150134000Y-100223255D01*
X150006578Y-100235805D01*
X149884052Y-100272973D01*
X149771132Y-100333330D01*
X149672157Y-100414557D01*
X149590930Y-100513532D01*
X149530573Y-100626452D01*
X149493405Y-100748978D01*
X149480855Y-100876400D01*
X145286201Y-100876400D01*
X145286201Y-99373957D01*
X145287950Y-99356200D01*
X145286201Y-99338443D01*
X145286201Y-99318035D01*
X145274958Y-99203882D01*
X145230528Y-99057417D01*
X145158378Y-98922435D01*
X145061281Y-98804121D01*
X145015861Y-98766846D01*
X142987214Y-96738200D01*
X143234644Y-96738200D01*
X143256773Y-96811148D01*
X143317130Y-96924068D01*
X143398357Y-97023043D01*
X143497332Y-97104270D01*
X143610252Y-97164627D01*
X143732778Y-97201795D01*
X143860200Y-97214345D01*
X146360200Y-97214345D01*
X146487622Y-97201795D01*
X146610148Y-97164627D01*
X146723068Y-97104270D01*
X146822043Y-97023043D01*
X146903270Y-96924068D01*
X146963627Y-96811148D01*
X147000795Y-96688622D01*
X147013345Y-96561200D01*
X147013345Y-95361200D01*
X147000795Y-95233778D01*
X146963627Y-95111252D01*
X146903270Y-94998332D01*
X146822043Y-94899357D01*
X146723068Y-94818130D01*
X146610148Y-94757773D01*
X146487622Y-94720605D01*
X146392132Y-94711200D01*
X146487622Y-94701795D01*
X146610148Y-94664627D01*
X146723068Y-94604270D01*
X146822043Y-94523043D01*
X146903270Y-94424068D01*
X146963627Y-94311148D01*
X147000795Y-94188622D01*
X147013345Y-94061200D01*
X147013345Y-92861200D01*
X147000795Y-92733778D01*
X146963627Y-92611252D01*
X146903270Y-92498332D01*
X146822043Y-92399357D01*
X146723068Y-92318130D01*
X146610148Y-92257773D01*
X146487622Y-92220605D01*
X146392132Y-92211200D01*
X146487622Y-92201795D01*
X146610148Y-92164627D01*
X146723068Y-92104270D01*
X146822043Y-92023043D01*
X146903270Y-91924068D01*
X146963627Y-91811148D01*
X147000795Y-91688622D01*
X147013345Y-91561200D01*
X147013345Y-90361200D01*
X147000795Y-90233778D01*
X146963627Y-90111252D01*
X146903270Y-89998332D01*
X146822043Y-89899357D01*
X146723068Y-89818130D01*
X146610148Y-89757773D01*
X146487622Y-89720605D01*
X146360200Y-89708055D01*
X144310199Y-89708055D01*
X144310199Y-88675384D01*
X144495583Y-88490001D01*
X153116536Y-88490001D01*
X153154699Y-88493760D01*
X153192862Y-88490001D01*
X153192865Y-88490001D01*
X153307018Y-88478758D01*
X153453483Y-88434328D01*
X153588465Y-88362178D01*
X153706779Y-88265081D01*
X153731112Y-88235431D01*
X160110136Y-81856408D01*
X160139780Y-81832080D01*
X160176226Y-81787670D01*
X160236877Y-81713767D01*
X160257199Y-81675747D01*
X160350122Y-81666595D01*
X160472648Y-81629427D01*
X160585568Y-81569070D01*
X160684543Y-81487843D01*
X160765770Y-81388868D01*
X160826127Y-81275948D01*
X160863295Y-81153422D01*
X160875845Y-81026000D01*
X160875845Y-78401600D01*
X164128616Y-78401600D01*
X164141320Y-78530591D01*
X164178946Y-78654624D01*
X164240046Y-78768934D01*
X164322272Y-78869128D01*
X164422466Y-78951354D01*
X164536776Y-79012454D01*
X164660809Y-79050080D01*
X164789800Y-79062784D01*
X165321300Y-79059600D01*
X165485800Y-78895100D01*
X165485800Y-76055600D01*
X164296300Y-76055600D01*
X164131800Y-76220100D01*
X164128616Y-78401600D01*
X160875845Y-78401600D01*
X160875845Y-75946000D01*
X160863295Y-75818578D01*
X160826127Y-75696052D01*
X160765770Y-75583132D01*
X160684543Y-75484157D01*
X160585568Y-75402930D01*
X160472648Y-75342573D01*
X160350122Y-75305405D01*
X160222700Y-75292855D01*
X158952700Y-75292855D01*
X158825278Y-75305405D01*
X158702752Y-75342573D01*
X158589832Y-75402930D01*
X158490857Y-75484157D01*
X158409630Y-75583132D01*
X158349273Y-75696052D01*
X158312105Y-75818578D01*
X158299555Y-75946000D01*
X158299555Y-81026000D01*
X158312105Y-81153422D01*
X158349273Y-81275948D01*
X158399305Y-81369551D01*
X157373362Y-82395494D01*
X157965312Y-80626809D01*
X158203063Y-78759119D01*
X158071878Y-76880933D01*
X157576797Y-75064429D01*
X156736847Y-73379414D01*
X156433374Y-72925234D01*
X155350743Y-71885035D01*
X148749778Y-78486000D01*
X148763921Y-78500143D01*
X148616843Y-78647221D01*
X148602700Y-78633078D01*
X148588558Y-78647221D01*
X148441480Y-78500143D01*
X148455622Y-78486000D01*
X141854657Y-71885035D01*
X140772026Y-72925234D01*
X139837639Y-74559771D01*
X139240088Y-76345191D01*
X139002337Y-78212881D01*
X139133522Y-80091067D01*
X139628603Y-81907571D01*
X139789077Y-82229495D01*
X138848952Y-81289371D01*
X138856127Y-81275948D01*
X138893295Y-81153422D01*
X138905845Y-81026000D01*
X138905845Y-75946000D01*
X138893295Y-75818578D01*
X138856127Y-75696052D01*
X138795770Y-75583132D01*
X138714543Y-75484157D01*
X138615568Y-75402930D01*
X138502648Y-75342573D01*
X138380122Y-75305405D01*
X138252700Y-75292855D01*
X136982700Y-75292855D01*
X136855278Y-75305405D01*
X136732752Y-75342573D01*
X136619832Y-75402930D01*
X136520857Y-75484157D01*
X136439630Y-75583132D01*
X136379273Y-75696052D01*
X136342105Y-75818578D01*
X136329555Y-75946000D01*
X136329555Y-81026000D01*
X136342105Y-81153422D01*
X136379273Y-81275948D01*
X136439630Y-81388868D01*
X136520857Y-81487843D01*
X136619832Y-81569070D01*
X136732752Y-81629427D01*
X136855278Y-81666595D01*
X136982700Y-81679145D01*
X137041085Y-81679145D01*
X137065620Y-81709042D01*
X137095270Y-81733375D01*
X143074895Y-87713001D01*
X143010768Y-87777129D01*
X142981119Y-87801461D01*
X142940316Y-87851181D01*
X142884022Y-87919775D01*
X142840122Y-88001906D01*
X142811872Y-88054758D01*
X142767442Y-88201223D01*
X142756925Y-88308009D01*
X142752440Y-88353541D01*
X142756199Y-88391704D01*
X142756200Y-91858726D01*
X142752440Y-91896899D01*
X142763066Y-92004780D01*
X142767443Y-92049218D01*
X142775626Y-92076193D01*
X142811872Y-92195682D01*
X142884022Y-92330665D01*
X142955749Y-92418064D01*
X142981120Y-92448979D01*
X143010764Y-92473307D01*
X143221657Y-92684200D01*
X141485756Y-92684200D01*
X141463627Y-92611252D01*
X141403270Y-92498332D01*
X141322043Y-92399357D01*
X141223068Y-92318130D01*
X141110148Y-92257773D01*
X140987622Y-92220605D01*
X140892132Y-92211200D01*
X140987622Y-92201795D01*
X141110148Y-92164627D01*
X141223068Y-92104270D01*
X141322043Y-92023043D01*
X141403270Y-91924068D01*
X141463627Y-91811148D01*
X141500795Y-91688622D01*
X141513345Y-91561200D01*
X141513345Y-90361200D01*
X141500795Y-90233778D01*
X141463627Y-90111252D01*
X141403270Y-89998332D01*
X141322043Y-89899357D01*
X141223068Y-89818130D01*
X141110148Y-89757773D01*
X140987622Y-89720605D01*
X140860200Y-89708055D01*
X138360200Y-89708055D01*
X138232778Y-89720605D01*
X138110252Y-89757773D01*
X137997332Y-89818130D01*
X137898357Y-89899357D01*
X137817130Y-89998332D01*
X137756773Y-90111252D01*
X137719605Y-90233778D01*
X137707055Y-90361200D01*
X137707055Y-91561200D01*
X137719605Y-91688622D01*
X137756773Y-91811148D01*
X137817130Y-91924068D01*
X137898357Y-92023043D01*
X137997332Y-92104270D01*
X138110252Y-92164627D01*
X138232778Y-92201795D01*
X138328268Y-92211200D01*
X138232778Y-92220605D01*
X138110252Y-92257773D01*
X137997332Y-92318130D01*
X137898357Y-92399357D01*
X137817130Y-92498332D01*
X137756773Y-92611252D01*
X137719605Y-92733778D01*
X137707055Y-92861200D01*
X137707055Y-94061200D01*
X137719605Y-94188622D01*
X137756773Y-94311148D01*
X137817130Y-94424068D01*
X137898357Y-94523043D01*
X137997332Y-94604270D01*
X138110252Y-94664627D01*
X138232778Y-94701795D01*
X138328268Y-94711200D01*
X138232778Y-94720605D01*
X138110252Y-94757773D01*
X137997332Y-94818130D01*
X137898357Y-94899357D01*
X137817130Y-94998332D01*
X137756773Y-95111252D01*
X137719605Y-95233778D01*
X137707055Y-95361200D01*
X137707055Y-96352600D01*
X135411744Y-96352600D01*
X134335300Y-95276157D01*
X134335300Y-93218245D01*
X134408300Y-93218245D01*
X134535722Y-93205695D01*
X134658248Y-93168527D01*
X134771168Y-93108170D01*
X134870143Y-93026943D01*
X134951370Y-92927968D01*
X135011727Y-92815048D01*
X135048895Y-92692522D01*
X135061445Y-92565100D01*
X135061445Y-92322972D01*
X135254388Y-92130029D01*
X135283960Y-92105760D01*
X135366832Y-92004780D01*
X135380807Y-91987752D01*
X135419640Y-91915100D01*
X135452771Y-91853115D01*
X135497087Y-91707027D01*
X135508301Y-91593166D01*
X135508301Y-91593164D01*
X135512050Y-91555101D01*
X135508301Y-91517038D01*
X135508301Y-87883161D01*
X135512050Y-87845098D01*
X135505648Y-87780099D01*
X135497087Y-87693173D01*
X135452771Y-87547085D01*
X135404417Y-87456620D01*
X135380807Y-87412448D01*
X135333168Y-87354401D01*
X135283960Y-87294440D01*
X135254389Y-87270172D01*
X133893204Y-85908988D01*
X133868931Y-85879411D01*
X133750922Y-85782564D01*
X133616286Y-85710600D01*
X133470198Y-85666284D01*
X133356337Y-85655070D01*
X133356335Y-85655070D01*
X133318272Y-85651321D01*
X133280209Y-85655070D01*
X132622000Y-85655070D01*
X132622000Y-85583484D01*
X132581650Y-85380626D01*
X132502498Y-85189538D01*
X132387589Y-85017564D01*
X132349000Y-84978975D01*
X132349000Y-80916043D01*
X133450147Y-79814897D01*
X133479790Y-79790570D01*
X133516696Y-79745600D01*
X133576887Y-79672257D01*
X133649037Y-79537274D01*
X133650502Y-79532443D01*
X133693467Y-79390809D01*
X133704710Y-79276656D01*
X133704710Y-79276647D01*
X133708468Y-79238491D01*
X133704710Y-79200335D01*
X133704710Y-74810533D01*
X134102917Y-74412327D01*
X136603104Y-72428847D01*
X136653677Y-72395917D01*
X136681195Y-72369044D01*
X137468584Y-71737957D01*
X142001735Y-71737957D01*
X148602700Y-78338922D01*
X155203665Y-71737957D01*
X154163466Y-70655326D01*
X152528929Y-69720939D01*
X150743509Y-69123388D01*
X148875819Y-68885637D01*
X146997633Y-69016822D01*
X145181129Y-69511903D01*
X143496114Y-70351853D01*
X143041934Y-70655326D01*
X142001735Y-71737957D01*
X137468584Y-71737957D01*
X141653001Y-68384178D01*
X141682279Y-68381294D01*
X141828744Y-68336864D01*
X141963726Y-68264714D01*
X142082040Y-68167617D01*
X142106373Y-68137967D01*
X142468940Y-67775400D01*
X142498588Y-67751069D01*
X142595685Y-67632755D01*
X142667835Y-67497773D01*
X142712265Y-67351308D01*
X142723508Y-67237155D01*
X142723508Y-67237153D01*
X142727267Y-67198989D01*
X142723508Y-67160826D01*
X142723508Y-56295562D01*
X142746567Y-56219547D01*
X142757810Y-56105394D01*
X142757810Y-56105384D01*
X142761568Y-56067229D01*
X142757810Y-56029073D01*
X142757810Y-54762666D01*
X148668171Y-54762666D01*
X148706334Y-54766425D01*
X148744497Y-54762666D01*
X148744500Y-54762666D01*
X148858653Y-54751423D01*
X149005118Y-54706993D01*
X149140100Y-54634843D01*
X149258414Y-54537746D01*
X149282747Y-54508096D01*
X153062137Y-50728707D01*
X153091780Y-50704380D01*
X153116109Y-50674735D01*
X153188877Y-50586067D01*
X153261027Y-50451084D01*
X153262616Y-50445845D01*
X153265632Y-50435904D01*
X153340895Y-50428491D01*
X153510319Y-50377097D01*
X153666460Y-50293638D01*
X153803320Y-50181320D01*
X153915638Y-50044460D01*
X153999097Y-49888319D01*
X154050491Y-49718895D01*
X154067845Y-49542700D01*
X154067845Y-48792700D01*
X154050491Y-48616505D01*
X153999097Y-48447081D01*
X153915638Y-48290940D01*
X153803320Y-48154080D01*
X153666460Y-48041762D01*
X153510319Y-47958303D01*
X153340895Y-47906909D01*
X153164700Y-47889555D01*
X151914700Y-47889555D01*
X151738505Y-47906909D01*
X151569081Y-47958303D01*
X151412940Y-48041762D01*
X151276080Y-48154080D01*
X151163762Y-48290940D01*
X151080303Y-48447081D01*
X151028909Y-48616505D01*
X151011555Y-48792700D01*
X151011555Y-49542700D01*
X151028909Y-49718895D01*
X151080303Y-49888319D01*
X151163762Y-50044460D01*
X151276080Y-50181320D01*
X151350644Y-50242513D01*
X148384491Y-53208666D01*
X142320883Y-53208666D01*
X142346229Y-52050673D01*
X142392206Y-51994650D01*
X142464170Y-51860014D01*
X142508486Y-51713926D01*
X142519700Y-51600065D01*
X142519700Y-51600063D01*
X142523449Y-51562000D01*
X142519700Y-51523937D01*
X142519700Y-47770498D01*
X142544606Y-47740150D01*
X142616570Y-47605514D01*
X142660886Y-47459426D01*
X142672100Y-47345565D01*
X142672100Y-47345564D01*
X142675849Y-47307501D01*
X142672100Y-47269438D01*
X142672100Y-45408298D01*
X142697006Y-45377950D01*
X142768970Y-45243314D01*
X142813286Y-45097226D01*
X142824500Y-44983365D01*
X142824500Y-44983364D01*
X142828249Y-44945301D01*
X142824500Y-44907238D01*
X142824500Y-42783991D01*
X150588100Y-42783991D01*
X150588100Y-43148409D01*
X150659195Y-43505825D01*
X150798652Y-43842503D01*
X151001111Y-44145506D01*
X151159955Y-44304350D01*
X151159955Y-45066200D01*
X151172505Y-45193622D01*
X151209673Y-45316148D01*
X151248143Y-45388121D01*
X151163762Y-45490940D01*
X151080303Y-45647081D01*
X151028909Y-45816505D01*
X151011555Y-45992700D01*
X151011555Y-46742700D01*
X151028909Y-46918895D01*
X151080303Y-47088319D01*
X151163762Y-47244460D01*
X151276080Y-47381320D01*
X151412940Y-47493638D01*
X151569081Y-47577097D01*
X151738505Y-47628491D01*
X151914700Y-47645845D01*
X153164700Y-47645845D01*
X153340895Y-47628491D01*
X153510319Y-47577097D01*
X153666460Y-47493638D01*
X153803320Y-47381320D01*
X153915638Y-47244460D01*
X153999097Y-47088319D01*
X154050491Y-46918895D01*
X154067845Y-46742700D01*
X154067845Y-45992700D01*
X154050491Y-45816505D01*
X153999097Y-45647081D01*
X153915638Y-45490940D01*
X153803320Y-45354080D01*
X153684581Y-45256633D01*
X153703695Y-45193622D01*
X153716245Y-45066200D01*
X153716245Y-44304350D01*
X153875089Y-44145506D01*
X154077548Y-43842503D01*
X154217005Y-43505825D01*
X154288100Y-43148409D01*
X154288100Y-42783991D01*
X154217005Y-42426575D01*
X154077548Y-42089897D01*
X153875089Y-41786894D01*
X153617406Y-41529211D01*
X153314403Y-41326752D01*
X153255129Y-41302200D01*
X153556600Y-41302200D01*
X153721100Y-41137700D01*
X153724284Y-40866200D01*
X153711580Y-40737209D01*
X153673954Y-40613176D01*
X153612854Y-40498866D01*
X153530628Y-40398672D01*
X153430434Y-40316446D01*
X153316124Y-40255346D01*
X153192091Y-40217720D01*
X153063100Y-40205016D01*
X152706600Y-40208200D01*
X152542100Y-40372700D01*
X152542100Y-41116200D01*
X152334100Y-41116200D01*
X152334100Y-40372700D01*
X152169600Y-40208200D01*
X151813100Y-40205016D01*
X151684109Y-40217720D01*
X151560076Y-40255346D01*
X151445766Y-40316446D01*
X151345572Y-40398672D01*
X151263346Y-40498866D01*
X151202246Y-40613176D01*
X151164620Y-40737209D01*
X151151916Y-40866200D01*
X151155100Y-41137700D01*
X151319600Y-41302200D01*
X151621071Y-41302200D01*
X151561797Y-41326752D01*
X151258794Y-41529211D01*
X151001111Y-41786894D01*
X150798652Y-42089897D01*
X150659195Y-42426575D01*
X150588100Y-42783991D01*
X142824500Y-42783991D01*
X142824500Y-42426147D01*
X142835106Y-42318459D01*
X142835106Y-42318457D01*
X142838855Y-42280395D01*
X142835106Y-42242332D01*
X142835106Y-40790945D01*
X142875355Y-40741901D01*
X142947319Y-40607265D01*
X142991635Y-40461177D01*
X143002849Y-40347316D01*
X143002849Y-40347315D01*
X143006598Y-40309252D01*
X143002849Y-40271189D01*
X143002849Y-38602887D01*
X143038454Y-38559502D01*
X143110418Y-38424866D01*
X143154734Y-38278778D01*
X143165948Y-38164917D01*
X143165948Y-38164915D01*
X143169697Y-38126852D01*
X143165948Y-38088789D01*
X143165948Y-36695900D01*
X143316845Y-35384253D01*
X143535572Y-33828200D01*
X143551784Y-33712870D01*
X143607048Y-33388600D01*
X144086270Y-33388600D01*
X144140662Y-33490360D01*
X144252980Y-33627220D01*
X144389840Y-33739538D01*
X144545981Y-33822997D01*
X144715405Y-33874391D01*
X144891600Y-33891745D01*
X146141600Y-33891745D01*
X146317795Y-33874391D01*
X146487219Y-33822997D01*
X146643360Y-33739538D01*
X146780220Y-33627220D01*
X146892538Y-33490360D01*
X146975997Y-33334219D01*
X147027391Y-33164795D01*
X147044745Y-32988600D01*
X147044745Y-32238600D01*
X147027391Y-32062405D01*
X146975997Y-31892981D01*
X146892538Y-31736840D01*
X146780220Y-31599980D01*
X146643360Y-31487662D01*
X146487219Y-31404203D01*
X146317795Y-31352809D01*
X146141600Y-31335455D01*
X144891600Y-31335455D01*
X144715405Y-31352809D01*
X144545981Y-31404203D01*
X144389840Y-31487662D01*
X144252980Y-31599980D01*
X144140662Y-31736840D01*
X144086270Y-31838600D01*
X143423617Y-31838600D01*
X143663242Y-30670797D01*
X143984505Y-29361884D01*
X144001877Y-29302329D01*
X143988455Y-29438600D01*
X143988455Y-30188600D01*
X144005809Y-30364795D01*
X144057203Y-30534219D01*
X144140662Y-30690360D01*
X144252980Y-30827220D01*
X144389840Y-30939538D01*
X144545981Y-31022997D01*
X144715405Y-31074391D01*
X144891600Y-31091745D01*
X146141600Y-31091745D01*
X146317795Y-31074391D01*
X146487219Y-31022997D01*
X146643360Y-30939538D01*
X146780220Y-30827220D01*
X146892538Y-30690360D01*
X146975997Y-30534219D01*
X147027391Y-30364795D01*
X147044745Y-30188600D01*
X147044745Y-29438600D01*
X147027391Y-29262405D01*
X146975997Y-29092981D01*
X146892538Y-28936840D01*
X146780220Y-28799980D01*
X146643360Y-28687662D01*
X146597330Y-28663059D01*
X146614222Y-28661395D01*
X146736748Y-28624227D01*
X146849668Y-28563870D01*
X146948643Y-28482643D01*
X147029870Y-28383668D01*
X147050373Y-28345309D01*
X149765139Y-28422365D01*
X149819272Y-28488328D01*
X149919466Y-28570554D01*
X150033776Y-28631654D01*
X150157809Y-28669280D01*
X150286800Y-28681984D01*
X150718300Y-28678800D01*
X150882800Y-28514300D01*
X150882800Y-26824800D01*
X150862800Y-26824800D01*
X150862800Y-26616800D01*
X150882800Y-26616800D01*
X150882800Y-24927300D01*
X150718300Y-24762800D01*
X150286800Y-24759616D01*
X150157809Y-24772320D01*
X150033776Y-24809946D01*
X150020469Y-24817059D01*
X150022671Y-24704433D01*
X150018478Y-24666161D01*
X150008782Y-24638400D01*
X149993858Y-24613064D01*
X149974277Y-24591127D01*
X149950792Y-24573431D01*
X149924307Y-24560657D01*
X148260607Y-23951057D01*
X148224296Y-23942682D01*
X148194891Y-23942565D01*
X148166028Y-23948187D01*
X148138817Y-23959332D01*
X146627517Y-24759432D01*
X146607083Y-24772465D01*
X146600212Y-24778825D01*
X146486800Y-24767655D01*
X145744305Y-24767655D01*
X145954016Y-24382904D01*
X146331426Y-23794999D01*
X146704977Y-23309665D01*
X147068816Y-22925640D01*
X147416176Y-22639630D01*
X147740715Y-22444832D01*
X148028049Y-22334613D01*
X148435252Y-22278019D01*
X148651714Y-22301503D01*
G37*
X148651714Y-22301503D02*
X148882512Y-22365205D01*
X149126544Y-22474368D01*
X149385651Y-22635361D01*
X149657867Y-22852925D01*
X149939799Y-23129893D01*
X150227868Y-23467585D01*
X150511806Y-23856735D01*
X151098136Y-24846658D01*
X151121320Y-24896780D01*
X151090800Y-24927300D01*
X151090800Y-26616800D01*
X151110800Y-26616800D01*
X151110800Y-26824800D01*
X151090800Y-26824800D01*
X151090800Y-28514300D01*
X151255300Y-28678800D01*
X151686800Y-28681984D01*
X151815791Y-28669280D01*
X151939824Y-28631654D01*
X152054134Y-28570554D01*
X152154328Y-28488328D01*
X152236554Y-28388134D01*
X152297654Y-28273824D01*
X152335280Y-28149791D01*
X152346875Y-28032061D01*
X152684660Y-29178093D01*
X153240267Y-31560814D01*
X153715210Y-34206568D01*
X154111502Y-37149388D01*
X154431133Y-40422178D01*
X154676268Y-44057787D01*
X154849225Y-48088823D01*
X154952460Y-52547901D01*
X154988538Y-57470261D01*
X154994679Y-66689274D01*
X154993842Y-66693766D01*
X154994730Y-66766625D01*
X154994753Y-66800818D01*
X154995202Y-66805349D01*
X154995731Y-66848717D01*
X155002829Y-66882257D01*
X155006213Y-66916386D01*
X155018836Y-66957898D01*
X155027814Y-67000324D01*
X155041318Y-67031835D01*
X155051296Y-67064648D01*
X155071770Y-67102890D01*
X155088856Y-67142759D01*
X155108255Y-67171038D01*
X155124437Y-67201265D01*
X155151975Y-67234775D01*
X155176514Y-67270548D01*
X155201054Y-67294497D01*
X155222825Y-67320989D01*
X155256375Y-67348485D01*
X155259628Y-67351660D01*
X155286279Y-67372993D01*
X155342679Y-67419217D01*
X155346713Y-67421370D01*
X160460692Y-71515008D01*
X163598207Y-74026669D01*
X163654397Y-74072783D01*
X163692874Y-74093349D01*
X163729441Y-74117145D01*
X163761043Y-74129787D01*
X163791063Y-74145833D01*
X163832817Y-74158499D01*
X163873321Y-74174702D01*
X163906779Y-74180935D01*
X163939355Y-74190817D01*
X163982781Y-74195094D01*
X164025664Y-74203083D01*
X164098249Y-74202200D01*
X164129639Y-74202200D01*
X164131800Y-75683100D01*
X164296300Y-75847600D01*
X165485800Y-75847600D01*
X165485800Y-75827600D01*
X165693800Y-75827600D01*
X165693800Y-75847600D01*
X166883300Y-75847600D01*
X167047800Y-75683100D01*
X167049961Y-74202200D01*
X168396655Y-74202200D01*
X168396655Y-76352601D01*
X167049959Y-77699297D01*
X167047800Y-76220100D01*
X166883300Y-76055600D01*
X165693800Y-76055600D01*
X165693800Y-78895100D01*
X165773978Y-78975278D01*
X157197191Y-87552066D01*
X157184245Y-87567841D01*
X155136108Y-89615978D01*
X155106536Y-89640247D01*
X155057417Y-89700099D01*
X155009688Y-89758256D01*
X154937725Y-89892892D01*
X154893409Y-90038980D01*
X154878445Y-90190906D01*
X154882195Y-90228979D01*
X154882194Y-98198181D01*
X154538855Y-98541521D01*
X154509287Y-98565787D01*
X154423435Y-98670397D01*
X154412439Y-98683795D01*
X154340476Y-98818431D01*
X154296160Y-98964519D01*
X154281196Y-99116445D01*
X154296160Y-99268371D01*
X154313620Y-99325928D01*
X154313619Y-115442700D01*
X152628900Y-115442700D01*
X152628900Y-111529545D01*
X152634000Y-111529545D01*
X152761422Y-111516995D01*
X152883948Y-111479827D01*
X152996868Y-111419470D01*
X153095843Y-111338243D01*
X153177070Y-111239268D01*
X153237427Y-111126348D01*
X153274595Y-111003822D01*
X153287145Y-110876400D01*
X153287145Y-108376400D01*
X153274595Y-108248978D01*
X153237427Y-108126452D01*
X153177070Y-108013532D01*
X153095843Y-107914557D01*
X152996868Y-107833330D01*
X152883948Y-107772973D01*
X152761422Y-107735805D01*
X152634000Y-107723255D01*
X150134000Y-107723255D01*
X150006578Y-107735805D01*
X149884052Y-107772973D01*
X149771132Y-107833330D01*
X149672157Y-107914557D01*
X149590930Y-108013532D01*
X149530573Y-108126452D01*
X149493405Y-108248978D01*
X149480855Y-108376400D01*
X149480855Y-110876400D01*
X149493405Y-111003822D01*
X149530573Y-111126348D01*
X149590930Y-111239268D01*
X149672157Y-111338243D01*
X149771132Y-111419470D01*
X149884052Y-111479827D01*
X150006578Y-111516995D01*
X150134000Y-111529545D01*
X151078901Y-111529545D01*
X151078900Y-116179635D01*
X151075151Y-116217700D01*
X151078901Y-116255775D01*
X151078901Y-119974022D01*
X151078900Y-121876755D01*
X150134000Y-121876755D01*
X150006578Y-121889305D01*
X149884052Y-121926473D01*
X149771132Y-121986830D01*
X149672157Y-122068057D01*
X149590930Y-122167032D01*
X149530573Y-122279952D01*
X149493405Y-122402478D01*
X149480855Y-122529900D01*
X149480855Y-125029900D01*
X149493405Y-125157322D01*
X149530573Y-125279848D01*
X149590930Y-125392768D01*
X149672157Y-125491743D01*
X149771132Y-125572970D01*
X149884052Y-125633327D01*
X150006578Y-125670495D01*
X150134000Y-125683045D01*
X152634000Y-125683045D01*
X152761422Y-125670495D01*
X152883948Y-125633327D01*
X152996868Y-125572970D01*
X153095843Y-125491743D01*
X153177070Y-125392768D01*
X153237427Y-125279848D01*
X153274595Y-125157322D01*
X153287145Y-125029900D01*
X153287145Y-122529900D01*
X153274595Y-122402478D01*
X153237427Y-122279952D01*
X153177070Y-122167032D01*
X153095843Y-122068057D01*
X152996868Y-121986830D01*
X152883948Y-121926473D01*
X152761422Y-121889305D01*
X152634000Y-121876755D01*
X152628900Y-121876755D01*
X152628900Y-116992700D01*
X154748687Y-116992700D01*
X154709927Y-119011096D01*
X154707455Y-119019243D01*
X154699477Y-119100247D01*
X154692492Y-119171169D01*
X154696241Y-119209232D01*
X154696241Y-119716548D01*
X154559648Y-123356435D01*
X154358863Y-126634256D01*
X154088471Y-129625112D01*
X153742580Y-132413131D01*
X153314866Y-135083503D01*
X152796763Y-137730496D01*
X152428818Y-139460999D01*
X152389235Y-139647160D01*
X152377651Y-139683614D01*
X152360689Y-139835330D01*
X152360690Y-139835336D01*
X152360689Y-139835341D01*
X152365984Y-139897471D01*
X152373651Y-139987439D01*
X152373653Y-139987444D01*
X152373653Y-139987450D01*
X152394623Y-140060002D01*
X152402786Y-140142882D01*
X152447102Y-140288970D01*
X152468847Y-140329652D01*
X152519066Y-140423607D01*
X152541457Y-140450890D01*
X152615913Y-140541616D01*
X152645490Y-140565889D01*
X158460187Y-146380587D01*
X158484456Y-146410159D01*
X158560003Y-146472158D01*
X158602464Y-146507006D01*
X158674428Y-146545471D01*
X158737101Y-146578970D01*
X158789134Y-146594754D01*
X160177717Y-147926031D01*
X163890072Y-151638387D01*
X163914341Y-151667959D01*
X163966763Y-151710980D01*
X164032349Y-151764806D01*
X164104313Y-151803271D01*
X164166986Y-151836770D01*
X164282877Y-151871926D01*
X165187972Y-152745786D01*
X167688814Y-155246629D01*
X168903232Y-156522981D01*
X169202374Y-156870225D01*
X169345896Y-157936033D01*
X169345895Y-159592632D01*
X169342146Y-159630695D01*
X169345895Y-159668758D01*
X169345895Y-159668759D01*
X169346484Y-159674741D01*
X168448503Y-159304169D01*
X162786367Y-156887055D01*
X162785837Y-156886764D01*
X162784511Y-156886198D01*
X162749646Y-156867256D01*
X162714497Y-156856332D01*
X158810406Y-155190904D01*
X158779568Y-155174831D01*
X158724498Y-155146124D01*
X158687765Y-155135395D01*
X156104418Y-154096688D01*
X156085662Y-154083216D01*
X156085646Y-154083209D01*
X156085634Y-154083200D01*
X156003800Y-154046015D01*
X155981501Y-154035882D01*
X155981493Y-154035879D01*
X155946648Y-154020046D01*
X155909415Y-154011322D01*
X154349915Y-153480003D01*
X154321319Y-153463471D01*
X154275869Y-153437195D01*
X154275866Y-153437194D01*
X154275861Y-153437191D01*
X154190891Y-153408294D01*
X154131338Y-153388040D01*
X154093416Y-153383025D01*
X153788841Y-153311826D01*
X153741581Y-153273041D01*
X153606945Y-153201077D01*
X153460857Y-153156761D01*
X153346996Y-153145547D01*
X153346994Y-153145547D01*
X153308931Y-153141798D01*
X153270868Y-153145547D01*
X151285815Y-153145547D01*
X151247752Y-153141798D01*
X151209689Y-153145547D01*
X151209688Y-153145547D01*
X151095827Y-153156761D01*
X150949739Y-153201077D01*
X150815103Y-153273041D01*
X150697094Y-153369888D01*
X150672820Y-153399466D01*
X150367668Y-153704618D01*
X150338096Y-153728887D01*
X150297411Y-153778462D01*
X150241248Y-153846896D01*
X150170759Y-153978775D01*
X150169285Y-153981532D01*
X150124968Y-154127620D01*
X150114586Y-154233038D01*
X150110005Y-154279546D01*
X150113754Y-154317609D01*
X150113754Y-154872082D01*
X149735661Y-156229940D01*
X149450748Y-157206761D01*
X149203326Y-157943583D01*
X149030354Y-158355028D01*
X148830917Y-158554465D01*
X148801341Y-158578737D01*
X148704494Y-158696746D01*
X148632530Y-158831382D01*
X148624329Y-158858418D01*
X148176470Y-158858418D01*
X148143222Y-158855141D01*
X147858216Y-158570135D01*
X147787636Y-158448808D01*
X147575127Y-157943256D01*
X147327689Y-157206314D01*
X147128116Y-156522055D01*
X147128116Y-156449578D01*
X147131865Y-156411515D01*
X147128116Y-156373451D01*
X147116902Y-156259590D01*
X147072586Y-156113502D01*
X147000622Y-155978866D01*
X146958784Y-155927886D01*
X146529973Y-154388241D01*
X146403345Y-153933578D01*
X146402468Y-153924677D01*
X146382902Y-153860179D01*
X146375055Y-153832003D01*
X146371836Y-153823698D01*
X146358152Y-153778590D01*
X146344317Y-153752706D01*
X146333703Y-153725325D01*
X146308410Y-153685529D01*
X146286188Y-153643954D01*
X146267562Y-153621258D01*
X146251816Y-153596483D01*
X146219257Y-153562397D01*
X146213606Y-153555512D01*
X146192918Y-153534824D01*
X146146368Y-153486092D01*
X146139049Y-153480956D01*
X146041301Y-153383208D01*
X146017029Y-153353632D01*
X145899020Y-153256785D01*
X145764384Y-153184821D01*
X145618296Y-153140505D01*
X145504435Y-153129291D01*
X145504433Y-153129291D01*
X145466370Y-153125542D01*
X145428307Y-153129291D01*
X144393284Y-153129291D01*
X144355231Y-153125542D01*
X144317158Y-153129291D01*
X144317144Y-153129291D01*
X144242248Y-153136667D01*
X144203306Y-153140502D01*
X144203302Y-153140503D01*
X144203283Y-153140505D01*
X144184871Y-153146090D01*
X143922073Y-153145616D01*
X143883309Y-153141798D01*
X143807923Y-153149223D01*
X143763655Y-153153503D01*
X143726196Y-153151065D01*
X143663292Y-153159377D01*
X143600118Y-153165599D01*
X143551180Y-153180444D01*
X143130948Y-153278638D01*
X143045293Y-153281538D01*
X142933899Y-153307644D01*
X142933889Y-153307647D01*
X142896650Y-153316375D01*
X142861837Y-153332196D01*
X141120738Y-153925404D01*
X141120733Y-153925405D01*
X141120730Y-153925405D01*
X141006869Y-153936619D01*
X140860781Y-153980935D01*
X140726145Y-154052899D01*
X140671953Y-154097373D01*
X138475670Y-154980529D01*
X138455234Y-154986964D01*
X138383436Y-155009560D01*
X138349840Y-155027969D01*
X134414609Y-156706736D01*
X134414154Y-156706879D01*
X134408878Y-156709131D01*
X134367115Y-156722973D01*
X134338846Y-156739024D01*
X132399240Y-157566940D01*
X132401549Y-157543500D01*
X132397637Y-157503781D01*
X132386586Y-157391574D01*
X132342270Y-157245486D01*
X132293931Y-157155049D01*
X132270306Y-157110849D01*
X132230605Y-157062474D01*
X132173459Y-156992841D01*
X132143888Y-156968573D01*
X131206350Y-156031036D01*
X131182077Y-156001459D01*
X131064068Y-155904612D01*
X130929432Y-155832648D01*
X130783344Y-155788332D01*
X130669483Y-155777118D01*
X130669481Y-155777118D01*
X130631418Y-155773369D01*
X130593355Y-155777118D01*
X128720328Y-155777118D01*
X129287323Y-155210124D01*
X129316890Y-155185859D01*
X129348515Y-155147323D01*
X129413736Y-155067851D01*
X129469511Y-154963503D01*
X133261487Y-151171528D01*
X133291059Y-151147259D01*
X133336653Y-151091702D01*
X133387906Y-151029251D01*
X133408681Y-150990383D01*
X133998885Y-150420550D01*
X139001399Y-145623221D01*
X139024131Y-145604926D01*
X139024161Y-145604896D01*
X139053989Y-145580885D01*
X139078503Y-145551582D01*
X142131978Y-142555872D01*
X142150627Y-142540108D01*
X142214458Y-142486155D01*
X142238306Y-142456222D01*
X144128346Y-140510392D01*
X144153546Y-140489711D01*
X144181392Y-140455781D01*
X144185328Y-140451728D01*
X144205563Y-140426328D01*
X144250393Y-140371701D01*
X144253071Y-140366691D01*
X144256616Y-140362241D01*
X144289043Y-140299391D01*
X144322357Y-140237065D01*
X144324008Y-140231624D01*
X144326614Y-140226572D01*
X144346144Y-140158651D01*
X144366673Y-140090977D01*
X144366745Y-140090245D01*
X144389289Y-140019021D01*
X144389290Y-140019015D01*
X144389291Y-140019011D01*
X144406080Y-139867276D01*
X144396234Y-139753288D01*
X144392944Y-139715191D01*
X144382282Y-139678458D01*
X143739619Y-136231647D01*
X143717740Y-136114296D01*
X143250565Y-133515250D01*
X143016323Y-132032408D01*
X143037400Y-132034484D01*
X143393900Y-132031300D01*
X143558400Y-131866800D01*
X143558400Y-131123300D01*
X143766400Y-131123300D01*
X143766400Y-131866800D01*
X143930900Y-132031300D01*
X144287400Y-132034484D01*
X144416391Y-132021780D01*
X144540424Y-131984154D01*
X144654734Y-131923054D01*
X144754928Y-131840828D01*
X144837154Y-131740634D01*
X144898254Y-131626324D01*
X144935880Y-131502291D01*
X144948584Y-131373300D01*
X144945400Y-131101800D01*
X144780900Y-130937300D01*
X144479429Y-130937300D01*
X144538703Y-130912748D01*
X144841706Y-130710289D01*
X145099389Y-130452606D01*
X145301848Y-130149603D01*
X145351430Y-130029900D01*
X149480855Y-130029900D01*
X149480855Y-132529900D01*
X149493405Y-132657322D01*
X149530573Y-132779848D01*
X149590930Y-132892768D01*
X149672157Y-132991743D01*
X149771132Y-133072970D01*
X149884052Y-133133327D01*
X150006578Y-133170495D01*
X150134000Y-133183045D01*
X152634000Y-133183045D01*
X152761422Y-133170495D01*
X152883948Y-133133327D01*
X152996868Y-133072970D01*
X153095843Y-132991743D01*
X153177070Y-132892768D01*
X153237427Y-132779848D01*
X153274595Y-132657322D01*
X153287145Y-132529900D01*
X153287145Y-130029900D01*
X153274595Y-129902478D01*
X153237427Y-129779952D01*
X153177070Y-129667032D01*
X153095843Y-129568057D01*
X152996868Y-129486830D01*
X152883948Y-129426473D01*
X152761422Y-129389305D01*
X152634000Y-129376755D01*
X150134000Y-129376755D01*
X150006578Y-129389305D01*
X149884052Y-129426473D01*
X149771132Y-129486830D01*
X149672157Y-129568057D01*
X149590930Y-129667032D01*
X149530573Y-129779952D01*
X149493405Y-129902478D01*
X149480855Y-130029900D01*
X145351430Y-130029900D01*
X145441305Y-129812925D01*
X145512400Y-129455509D01*
X145512400Y-129091091D01*
X145441305Y-128733675D01*
X145301848Y-128396997D01*
X145099389Y-128093994D01*
X144940545Y-127935150D01*
X144940545Y-127173300D01*
X144927995Y-127045878D01*
X144890827Y-126923352D01*
X144830470Y-126810432D01*
X144749243Y-126711457D01*
X144650268Y-126630230D01*
X144537348Y-126569873D01*
X144414822Y-126532705D01*
X144335800Y-126524922D01*
X144335800Y-126155171D01*
X144361995Y-126152591D01*
X144531419Y-126101197D01*
X144687560Y-126017738D01*
X144824420Y-125905420D01*
X144936738Y-125768560D01*
X145020197Y-125612419D01*
X145071591Y-125442995D01*
X145088945Y-125266800D01*
X145088945Y-124516800D01*
X145071591Y-124340605D01*
X145020197Y-124171181D01*
X144936738Y-124015040D01*
X144824420Y-123878180D01*
X144687560Y-123765862D01*
X144531419Y-123682403D01*
X144361995Y-123631009D01*
X144185800Y-123613655D01*
X142935800Y-123613655D01*
X142759605Y-123631009D01*
X142590181Y-123682403D01*
X142434040Y-123765862D01*
X142355025Y-123830708D01*
X142355025Y-123469788D01*
X142358774Y-123431725D01*
X142353932Y-123382566D01*
X142343811Y-123279799D01*
X142299495Y-123133711D01*
X142260453Y-123060668D01*
X142297180Y-123105420D01*
X142434040Y-123217738D01*
X142590181Y-123301197D01*
X142759605Y-123352591D01*
X142935800Y-123369945D01*
X144185800Y-123369945D01*
X144361995Y-123352591D01*
X144531419Y-123301197D01*
X144687560Y-123217738D01*
X144824420Y-123105420D01*
X144936738Y-122968560D01*
X145020197Y-122812419D01*
X145071591Y-122642995D01*
X145088945Y-122466800D01*
X145088945Y-121716800D01*
X145071591Y-121540605D01*
X145020197Y-121371181D01*
X144936738Y-121215040D01*
X144824420Y-121078180D01*
X144687560Y-120965862D01*
X144531419Y-120882403D01*
X144361995Y-120831009D01*
X144185800Y-120813655D01*
X142935800Y-120813655D01*
X142759605Y-120831009D01*
X142611678Y-120875882D01*
X142495483Y-112512201D01*
X142495483Y-111646058D01*
X142621683Y-111730383D01*
X142894666Y-111843456D01*
X143184463Y-111901100D01*
X143479937Y-111901100D01*
X143769734Y-111843456D01*
X144042717Y-111730383D01*
X144288394Y-111566226D01*
X144497326Y-111357294D01*
X144661483Y-111111617D01*
X144774556Y-110838634D01*
X144832200Y-110548837D01*
X144832200Y-110253363D01*
X144774556Y-109963566D01*
X144661483Y-109690583D01*
X144497326Y-109444906D01*
X144288394Y-109235974D01*
X144132783Y-109131997D01*
X144206928Y-109089483D01*
X144429766Y-108895229D01*
X144610425Y-108661234D01*
X144741963Y-108396490D01*
X144801819Y-108199161D01*
X144671669Y-107965100D01*
X143436200Y-107965100D01*
X143436200Y-107985100D01*
X143228200Y-107985100D01*
X143228200Y-107965100D01*
X143208200Y-107965100D01*
X143208200Y-107757100D01*
X143228200Y-107757100D01*
X143228200Y-107737100D01*
X143436200Y-107737100D01*
X143436200Y-107757100D01*
X144671669Y-107757100D01*
X144801819Y-107523039D01*
X144741963Y-107325710D01*
X144610425Y-107060966D01*
X144533184Y-106960921D01*
X145031638Y-106462468D01*
X145061281Y-106438141D01*
X145099576Y-106391478D01*
X145158378Y-106319828D01*
X145230528Y-106184845D01*
X145230528Y-106184844D01*
X145274958Y-106038380D01*
X145286201Y-105924227D01*
X145286201Y-105924218D01*
X145289959Y-105886062D01*
X145286201Y-105847906D01*
X145286201Y-100876400D01*
X149480855Y-100876400D01*
X149480855Y-103376400D01*
X149493405Y-103503822D01*
X149530573Y-103626348D01*
X149590930Y-103739268D01*
X149672157Y-103838243D01*
X149771132Y-103919470D01*
X149884052Y-103979827D01*
X150006578Y-104016995D01*
X150134000Y-104029545D01*
X152634000Y-104029545D01*
X152761422Y-104016995D01*
X152883948Y-103979827D01*
X152996868Y-103919470D01*
X153095843Y-103838243D01*
X153177070Y-103739268D01*
X153237427Y-103626348D01*
X153274595Y-103503822D01*
X153287145Y-103376400D01*
X153287145Y-100876400D01*
X153274595Y-100748978D01*
X153237427Y-100626452D01*
X153177070Y-100513532D01*
X153095843Y-100414557D01*
X152996868Y-100333330D01*
X152883948Y-100272973D01*
X152761422Y-100235805D01*
X152634000Y-100223255D01*
X150134000Y-100223255D01*
X150006578Y-100235805D01*
X149884052Y-100272973D01*
X149771132Y-100333330D01*
X149672157Y-100414557D01*
X149590930Y-100513532D01*
X149530573Y-100626452D01*
X149493405Y-100748978D01*
X149480855Y-100876400D01*
X145286201Y-100876400D01*
X145286201Y-99373957D01*
X145287950Y-99356200D01*
X145286201Y-99338443D01*
X145286201Y-99318035D01*
X145274958Y-99203882D01*
X145230528Y-99057417D01*
X145158378Y-98922435D01*
X145061281Y-98804121D01*
X145015861Y-98766846D01*
X142987214Y-96738200D01*
X143234644Y-96738200D01*
X143256773Y-96811148D01*
X143317130Y-96924068D01*
X143398357Y-97023043D01*
X143497332Y-97104270D01*
X143610252Y-97164627D01*
X143732778Y-97201795D01*
X143860200Y-97214345D01*
X146360200Y-97214345D01*
X146487622Y-97201795D01*
X146610148Y-97164627D01*
X146723068Y-97104270D01*
X146822043Y-97023043D01*
X146903270Y-96924068D01*
X146963627Y-96811148D01*
X147000795Y-96688622D01*
X147013345Y-96561200D01*
X147013345Y-95361200D01*
X147000795Y-95233778D01*
X146963627Y-95111252D01*
X146903270Y-94998332D01*
X146822043Y-94899357D01*
X146723068Y-94818130D01*
X146610148Y-94757773D01*
X146487622Y-94720605D01*
X146392132Y-94711200D01*
X146487622Y-94701795D01*
X146610148Y-94664627D01*
X146723068Y-94604270D01*
X146822043Y-94523043D01*
X146903270Y-94424068D01*
X146963627Y-94311148D01*
X147000795Y-94188622D01*
X147013345Y-94061200D01*
X147013345Y-92861200D01*
X147000795Y-92733778D01*
X146963627Y-92611252D01*
X146903270Y-92498332D01*
X146822043Y-92399357D01*
X146723068Y-92318130D01*
X146610148Y-92257773D01*
X146487622Y-92220605D01*
X146392132Y-92211200D01*
X146487622Y-92201795D01*
X146610148Y-92164627D01*
X146723068Y-92104270D01*
X146822043Y-92023043D01*
X146903270Y-91924068D01*
X146963627Y-91811148D01*
X147000795Y-91688622D01*
X147013345Y-91561200D01*
X147013345Y-90361200D01*
X147000795Y-90233778D01*
X146963627Y-90111252D01*
X146903270Y-89998332D01*
X146822043Y-89899357D01*
X146723068Y-89818130D01*
X146610148Y-89757773D01*
X146487622Y-89720605D01*
X146360200Y-89708055D01*
X144310199Y-89708055D01*
X144310199Y-88675384D01*
X144495583Y-88490001D01*
X153116536Y-88490001D01*
X153154699Y-88493760D01*
X153192862Y-88490001D01*
X153192865Y-88490001D01*
X153307018Y-88478758D01*
X153453483Y-88434328D01*
X153588465Y-88362178D01*
X153706779Y-88265081D01*
X153731112Y-88235431D01*
X160110136Y-81856408D01*
X160139780Y-81832080D01*
X160176226Y-81787670D01*
X160236877Y-81713767D01*
X160257199Y-81675747D01*
X160350122Y-81666595D01*
X160472648Y-81629427D01*
X160585568Y-81569070D01*
X160684543Y-81487843D01*
X160765770Y-81388868D01*
X160826127Y-81275948D01*
X160863295Y-81153422D01*
X160875845Y-81026000D01*
X160875845Y-78401600D01*
X164128616Y-78401600D01*
X164141320Y-78530591D01*
X164178946Y-78654624D01*
X164240046Y-78768934D01*
X164322272Y-78869128D01*
X164422466Y-78951354D01*
X164536776Y-79012454D01*
X164660809Y-79050080D01*
X164789800Y-79062784D01*
X165321300Y-79059600D01*
X165485800Y-78895100D01*
X165485800Y-76055600D01*
X164296300Y-76055600D01*
X164131800Y-76220100D01*
X164128616Y-78401600D01*
X160875845Y-78401600D01*
X160875845Y-75946000D01*
X160863295Y-75818578D01*
X160826127Y-75696052D01*
X160765770Y-75583132D01*
X160684543Y-75484157D01*
X160585568Y-75402930D01*
X160472648Y-75342573D01*
X160350122Y-75305405D01*
X160222700Y-75292855D01*
X158952700Y-75292855D01*
X158825278Y-75305405D01*
X158702752Y-75342573D01*
X158589832Y-75402930D01*
X158490857Y-75484157D01*
X158409630Y-75583132D01*
X158349273Y-75696052D01*
X158312105Y-75818578D01*
X158299555Y-75946000D01*
X158299555Y-81026000D01*
X158312105Y-81153422D01*
X158349273Y-81275948D01*
X158399305Y-81369551D01*
X157373362Y-82395494D01*
X157965312Y-80626809D01*
X158203063Y-78759119D01*
X158071878Y-76880933D01*
X157576797Y-75064429D01*
X156736847Y-73379414D01*
X156433374Y-72925234D01*
X155350743Y-71885035D01*
X148749778Y-78486000D01*
X148763921Y-78500143D01*
X148616843Y-78647221D01*
X148602700Y-78633078D01*
X148588558Y-78647221D01*
X148441480Y-78500143D01*
X148455622Y-78486000D01*
X141854657Y-71885035D01*
X140772026Y-72925234D01*
X139837639Y-74559771D01*
X139240088Y-76345191D01*
X139002337Y-78212881D01*
X139133522Y-80091067D01*
X139628603Y-81907571D01*
X139789077Y-82229495D01*
X138848952Y-81289371D01*
X138856127Y-81275948D01*
X138893295Y-81153422D01*
X138905845Y-81026000D01*
X138905845Y-75946000D01*
X138893295Y-75818578D01*
X138856127Y-75696052D01*
X138795770Y-75583132D01*
X138714543Y-75484157D01*
X138615568Y-75402930D01*
X138502648Y-75342573D01*
X138380122Y-75305405D01*
X138252700Y-75292855D01*
X136982700Y-75292855D01*
X136855278Y-75305405D01*
X136732752Y-75342573D01*
X136619832Y-75402930D01*
X136520857Y-75484157D01*
X136439630Y-75583132D01*
X136379273Y-75696052D01*
X136342105Y-75818578D01*
X136329555Y-75946000D01*
X136329555Y-81026000D01*
X136342105Y-81153422D01*
X136379273Y-81275948D01*
X136439630Y-81388868D01*
X136520857Y-81487843D01*
X136619832Y-81569070D01*
X136732752Y-81629427D01*
X136855278Y-81666595D01*
X136982700Y-81679145D01*
X137041085Y-81679145D01*
X137065620Y-81709042D01*
X137095270Y-81733375D01*
X143074895Y-87713001D01*
X143010768Y-87777129D01*
X142981119Y-87801461D01*
X142940316Y-87851181D01*
X142884022Y-87919775D01*
X142840122Y-88001906D01*
X142811872Y-88054758D01*
X142767442Y-88201223D01*
X142756925Y-88308009D01*
X142752440Y-88353541D01*
X142756199Y-88391704D01*
X142756200Y-91858726D01*
X142752440Y-91896899D01*
X142763066Y-92004780D01*
X142767443Y-92049218D01*
X142775626Y-92076193D01*
X142811872Y-92195682D01*
X142884022Y-92330665D01*
X142955749Y-92418064D01*
X142981120Y-92448979D01*
X143010764Y-92473307D01*
X143221657Y-92684200D01*
X141485756Y-92684200D01*
X141463627Y-92611252D01*
X141403270Y-92498332D01*
X141322043Y-92399357D01*
X141223068Y-92318130D01*
X141110148Y-92257773D01*
X140987622Y-92220605D01*
X140892132Y-92211200D01*
X140987622Y-92201795D01*
X141110148Y-92164627D01*
X141223068Y-92104270D01*
X141322043Y-92023043D01*
X141403270Y-91924068D01*
X141463627Y-91811148D01*
X141500795Y-91688622D01*
X141513345Y-91561200D01*
X141513345Y-90361200D01*
X141500795Y-90233778D01*
X141463627Y-90111252D01*
X141403270Y-89998332D01*
X141322043Y-89899357D01*
X141223068Y-89818130D01*
X141110148Y-89757773D01*
X140987622Y-89720605D01*
X140860200Y-89708055D01*
X138360200Y-89708055D01*
X138232778Y-89720605D01*
X138110252Y-89757773D01*
X137997332Y-89818130D01*
X137898357Y-89899357D01*
X137817130Y-89998332D01*
X137756773Y-90111252D01*
X137719605Y-90233778D01*
X137707055Y-90361200D01*
X137707055Y-91561200D01*
X137719605Y-91688622D01*
X137756773Y-91811148D01*
X137817130Y-91924068D01*
X137898357Y-92023043D01*
X137997332Y-92104270D01*
X138110252Y-92164627D01*
X138232778Y-92201795D01*
X138328268Y-92211200D01*
X138232778Y-92220605D01*
X138110252Y-92257773D01*
X137997332Y-92318130D01*
X137898357Y-92399357D01*
X137817130Y-92498332D01*
X137756773Y-92611252D01*
X137719605Y-92733778D01*
X137707055Y-92861200D01*
X137707055Y-94061200D01*
X137719605Y-94188622D01*
X137756773Y-94311148D01*
X137817130Y-94424068D01*
X137898357Y-94523043D01*
X137997332Y-94604270D01*
X138110252Y-94664627D01*
X138232778Y-94701795D01*
X138328268Y-94711200D01*
X138232778Y-94720605D01*
X138110252Y-94757773D01*
X137997332Y-94818130D01*
X137898357Y-94899357D01*
X137817130Y-94998332D01*
X137756773Y-95111252D01*
X137719605Y-95233778D01*
X137707055Y-95361200D01*
X137707055Y-96352600D01*
X135411744Y-96352600D01*
X134335300Y-95276157D01*
X134335300Y-93218245D01*
X134408300Y-93218245D01*
X134535722Y-93205695D01*
X134658248Y-93168527D01*
X134771168Y-93108170D01*
X134870143Y-93026943D01*
X134951370Y-92927968D01*
X135011727Y-92815048D01*
X135048895Y-92692522D01*
X135061445Y-92565100D01*
X135061445Y-92322972D01*
X135254388Y-92130029D01*
X135283960Y-92105760D01*
X135366832Y-92004780D01*
X135380807Y-91987752D01*
X135419640Y-91915100D01*
X135452771Y-91853115D01*
X135497087Y-91707027D01*
X135508301Y-91593166D01*
X135508301Y-91593164D01*
X135512050Y-91555101D01*
X135508301Y-91517038D01*
X135508301Y-87883161D01*
X135512050Y-87845098D01*
X135505648Y-87780099D01*
X135497087Y-87693173D01*
X135452771Y-87547085D01*
X135404417Y-87456620D01*
X135380807Y-87412448D01*
X135333168Y-87354401D01*
X135283960Y-87294440D01*
X135254389Y-87270172D01*
X133893204Y-85908988D01*
X133868931Y-85879411D01*
X133750922Y-85782564D01*
X133616286Y-85710600D01*
X133470198Y-85666284D01*
X133356337Y-85655070D01*
X133356335Y-85655070D01*
X133318272Y-85651321D01*
X133280209Y-85655070D01*
X132622000Y-85655070D01*
X132622000Y-85583484D01*
X132581650Y-85380626D01*
X132502498Y-85189538D01*
X132387589Y-85017564D01*
X132349000Y-84978975D01*
X132349000Y-80916043D01*
X133450147Y-79814897D01*
X133479790Y-79790570D01*
X133516696Y-79745600D01*
X133576887Y-79672257D01*
X133649037Y-79537274D01*
X133650502Y-79532443D01*
X133693467Y-79390809D01*
X133704710Y-79276656D01*
X133704710Y-79276647D01*
X133708468Y-79238491D01*
X133704710Y-79200335D01*
X133704710Y-74810533D01*
X134102917Y-74412327D01*
X136603104Y-72428847D01*
X136653677Y-72395917D01*
X136681195Y-72369044D01*
X137468584Y-71737957D01*
X142001735Y-71737957D01*
X148602700Y-78338922D01*
X155203665Y-71737957D01*
X154163466Y-70655326D01*
X152528929Y-69720939D01*
X150743509Y-69123388D01*
X148875819Y-68885637D01*
X146997633Y-69016822D01*
X145181129Y-69511903D01*
X143496114Y-70351853D01*
X143041934Y-70655326D01*
X142001735Y-71737957D01*
X137468584Y-71737957D01*
X141653001Y-68384178D01*
X141682279Y-68381294D01*
X141828744Y-68336864D01*
X141963726Y-68264714D01*
X142082040Y-68167617D01*
X142106373Y-68137967D01*
X142468940Y-67775400D01*
X142498588Y-67751069D01*
X142595685Y-67632755D01*
X142667835Y-67497773D01*
X142712265Y-67351308D01*
X142723508Y-67237155D01*
X142723508Y-67237153D01*
X142727267Y-67198989D01*
X142723508Y-67160826D01*
X142723508Y-56295562D01*
X142746567Y-56219547D01*
X142757810Y-56105394D01*
X142757810Y-56105384D01*
X142761568Y-56067229D01*
X142757810Y-56029073D01*
X142757810Y-54762666D01*
X148668171Y-54762666D01*
X148706334Y-54766425D01*
X148744497Y-54762666D01*
X148744500Y-54762666D01*
X148858653Y-54751423D01*
X149005118Y-54706993D01*
X149140100Y-54634843D01*
X149258414Y-54537746D01*
X149282747Y-54508096D01*
X153062137Y-50728707D01*
X153091780Y-50704380D01*
X153116109Y-50674735D01*
X153188877Y-50586067D01*
X153261027Y-50451084D01*
X153262616Y-50445845D01*
X153265632Y-50435904D01*
X153340895Y-50428491D01*
X153510319Y-50377097D01*
X153666460Y-50293638D01*
X153803320Y-50181320D01*
X153915638Y-50044460D01*
X153999097Y-49888319D01*
X154050491Y-49718895D01*
X154067845Y-49542700D01*
X154067845Y-48792700D01*
X154050491Y-48616505D01*
X153999097Y-48447081D01*
X153915638Y-48290940D01*
X153803320Y-48154080D01*
X153666460Y-48041762D01*
X153510319Y-47958303D01*
X153340895Y-47906909D01*
X153164700Y-47889555D01*
X151914700Y-47889555D01*
X151738505Y-47906909D01*
X151569081Y-47958303D01*
X151412940Y-48041762D01*
X151276080Y-48154080D01*
X151163762Y-48290940D01*
X151080303Y-48447081D01*
X151028909Y-48616505D01*
X151011555Y-48792700D01*
X151011555Y-49542700D01*
X151028909Y-49718895D01*
X151080303Y-49888319D01*
X151163762Y-50044460D01*
X151276080Y-50181320D01*
X151350644Y-50242513D01*
X148384491Y-53208666D01*
X142320883Y-53208666D01*
X142346229Y-52050673D01*
X142392206Y-51994650D01*
X142464170Y-51860014D01*
X142508486Y-51713926D01*
X142519700Y-51600065D01*
X142519700Y-51600063D01*
X142523449Y-51562000D01*
X142519700Y-51523937D01*
X142519700Y-47770498D01*
X142544606Y-47740150D01*
X142616570Y-47605514D01*
X142660886Y-47459426D01*
X142672100Y-47345565D01*
X142672100Y-47345564D01*
X142675849Y-47307501D01*
X142672100Y-47269438D01*
X142672100Y-45408298D01*
X142697006Y-45377950D01*
X142768970Y-45243314D01*
X142813286Y-45097226D01*
X142824500Y-44983365D01*
X142824500Y-44983364D01*
X142828249Y-44945301D01*
X142824500Y-44907238D01*
X142824500Y-42783991D01*
X150588100Y-42783991D01*
X150588100Y-43148409D01*
X150659195Y-43505825D01*
X150798652Y-43842503D01*
X151001111Y-44145506D01*
X151159955Y-44304350D01*
X151159955Y-45066200D01*
X151172505Y-45193622D01*
X151209673Y-45316148D01*
X151248143Y-45388121D01*
X151163762Y-45490940D01*
X151080303Y-45647081D01*
X151028909Y-45816505D01*
X151011555Y-45992700D01*
X151011555Y-46742700D01*
X151028909Y-46918895D01*
X151080303Y-47088319D01*
X151163762Y-47244460D01*
X151276080Y-47381320D01*
X151412940Y-47493638D01*
X151569081Y-47577097D01*
X151738505Y-47628491D01*
X151914700Y-47645845D01*
X153164700Y-47645845D01*
X153340895Y-47628491D01*
X153510319Y-47577097D01*
X153666460Y-47493638D01*
X153803320Y-47381320D01*
X153915638Y-47244460D01*
X153999097Y-47088319D01*
X154050491Y-46918895D01*
X154067845Y-46742700D01*
X154067845Y-45992700D01*
X154050491Y-45816505D01*
X153999097Y-45647081D01*
X153915638Y-45490940D01*
X153803320Y-45354080D01*
X153684581Y-45256633D01*
X153703695Y-45193622D01*
X153716245Y-45066200D01*
X153716245Y-44304350D01*
X153875089Y-44145506D01*
X154077548Y-43842503D01*
X154217005Y-43505825D01*
X154288100Y-43148409D01*
X154288100Y-42783991D01*
X154217005Y-42426575D01*
X154077548Y-42089897D01*
X153875089Y-41786894D01*
X153617406Y-41529211D01*
X153314403Y-41326752D01*
X153255129Y-41302200D01*
X153556600Y-41302200D01*
X153721100Y-41137700D01*
X153724284Y-40866200D01*
X153711580Y-40737209D01*
X153673954Y-40613176D01*
X153612854Y-40498866D01*
X153530628Y-40398672D01*
X153430434Y-40316446D01*
X153316124Y-40255346D01*
X153192091Y-40217720D01*
X153063100Y-40205016D01*
X152706600Y-40208200D01*
X152542100Y-40372700D01*
X152542100Y-41116200D01*
X152334100Y-41116200D01*
X152334100Y-40372700D01*
X152169600Y-40208200D01*
X151813100Y-40205016D01*
X151684109Y-40217720D01*
X151560076Y-40255346D01*
X151445766Y-40316446D01*
X151345572Y-40398672D01*
X151263346Y-40498866D01*
X151202246Y-40613176D01*
X151164620Y-40737209D01*
X151151916Y-40866200D01*
X151155100Y-41137700D01*
X151319600Y-41302200D01*
X151621071Y-41302200D01*
X151561797Y-41326752D01*
X151258794Y-41529211D01*
X151001111Y-41786894D01*
X150798652Y-42089897D01*
X150659195Y-42426575D01*
X150588100Y-42783991D01*
X142824500Y-42783991D01*
X142824500Y-42426147D01*
X142835106Y-42318459D01*
X142835106Y-42318457D01*
X142838855Y-42280395D01*
X142835106Y-42242332D01*
X142835106Y-40790945D01*
X142875355Y-40741901D01*
X142947319Y-40607265D01*
X142991635Y-40461177D01*
X143002849Y-40347316D01*
X143002849Y-40347315D01*
X143006598Y-40309252D01*
X143002849Y-40271189D01*
X143002849Y-38602887D01*
X143038454Y-38559502D01*
X143110418Y-38424866D01*
X143154734Y-38278778D01*
X143165948Y-38164917D01*
X143165948Y-38164915D01*
X143169697Y-38126852D01*
X143165948Y-38088789D01*
X143165948Y-36695900D01*
X143316845Y-35384253D01*
X143535572Y-33828200D01*
X143551784Y-33712870D01*
X143607048Y-33388600D01*
X144086270Y-33388600D01*
X144140662Y-33490360D01*
X144252980Y-33627220D01*
X144389840Y-33739538D01*
X144545981Y-33822997D01*
X144715405Y-33874391D01*
X144891600Y-33891745D01*
X146141600Y-33891745D01*
X146317795Y-33874391D01*
X146487219Y-33822997D01*
X146643360Y-33739538D01*
X146780220Y-33627220D01*
X146892538Y-33490360D01*
X146975997Y-33334219D01*
X147027391Y-33164795D01*
X147044745Y-32988600D01*
X147044745Y-32238600D01*
X147027391Y-32062405D01*
X146975997Y-31892981D01*
X146892538Y-31736840D01*
X146780220Y-31599980D01*
X146643360Y-31487662D01*
X146487219Y-31404203D01*
X146317795Y-31352809D01*
X146141600Y-31335455D01*
X144891600Y-31335455D01*
X144715405Y-31352809D01*
X144545981Y-31404203D01*
X144389840Y-31487662D01*
X144252980Y-31599980D01*
X144140662Y-31736840D01*
X144086270Y-31838600D01*
X143423617Y-31838600D01*
X143663242Y-30670797D01*
X143984505Y-29361884D01*
X144001877Y-29302329D01*
X143988455Y-29438600D01*
X143988455Y-30188600D01*
X144005809Y-30364795D01*
X144057203Y-30534219D01*
X144140662Y-30690360D01*
X144252980Y-30827220D01*
X144389840Y-30939538D01*
X144545981Y-31022997D01*
X144715405Y-31074391D01*
X144891600Y-31091745D01*
X146141600Y-31091745D01*
X146317795Y-31074391D01*
X146487219Y-31022997D01*
X146643360Y-30939538D01*
X146780220Y-30827220D01*
X146892538Y-30690360D01*
X146975997Y-30534219D01*
X147027391Y-30364795D01*
X147044745Y-30188600D01*
X147044745Y-29438600D01*
X147027391Y-29262405D01*
X146975997Y-29092981D01*
X146892538Y-28936840D01*
X146780220Y-28799980D01*
X146643360Y-28687662D01*
X146597330Y-28663059D01*
X146614222Y-28661395D01*
X146736748Y-28624227D01*
X146849668Y-28563870D01*
X146948643Y-28482643D01*
X147029870Y-28383668D01*
X147050373Y-28345309D01*
X149765139Y-28422365D01*
X149819272Y-28488328D01*
X149919466Y-28570554D01*
X150033776Y-28631654D01*
X150157809Y-28669280D01*
X150286800Y-28681984D01*
X150718300Y-28678800D01*
X150882800Y-28514300D01*
X150882800Y-26824800D01*
X150862800Y-26824800D01*
X150862800Y-26616800D01*
X150882800Y-26616800D01*
X150882800Y-24927300D01*
X150718300Y-24762800D01*
X150286800Y-24759616D01*
X150157809Y-24772320D01*
X150033776Y-24809946D01*
X150020469Y-24817059D01*
X150022671Y-24704433D01*
X150018478Y-24666161D01*
X150008782Y-24638400D01*
X149993858Y-24613064D01*
X149974277Y-24591127D01*
X149950792Y-24573431D01*
X149924307Y-24560657D01*
X148260607Y-23951057D01*
X148224296Y-23942682D01*
X148194891Y-23942565D01*
X148166028Y-23948187D01*
X148138817Y-23959332D01*
X146627517Y-24759432D01*
X146607083Y-24772465D01*
X146600212Y-24778825D01*
X146486800Y-24767655D01*
X145744305Y-24767655D01*
X145954016Y-24382904D01*
X146331426Y-23794999D01*
X146704977Y-23309665D01*
X147068816Y-22925640D01*
X147416176Y-22639630D01*
X147740715Y-22444832D01*
X148028049Y-22334613D01*
X148435252Y-22278019D01*
X148651714Y-22301503D01*
G36*
X84074140Y-117012656D02*
G01*
X84090523Y-117001184D01*
X84209827Y-117171569D01*
X84193444Y-117183040D01*
X84204916Y-117199423D01*
X84034531Y-117318727D01*
X84023060Y-117302344D01*
X83130594Y-117927255D01*
X83090197Y-118156359D01*
X83667688Y-118986544D01*
X83120928Y-119477389D01*
X82360990Y-120158501D01*
X82072843Y-120388164D01*
X82074803Y-120369827D01*
X82278464Y-119333624D01*
X82589162Y-118288630D01*
X82813880Y-117722063D01*
X83011290Y-117756872D01*
X83903756Y-117131960D01*
X83892284Y-117115577D01*
X84062669Y-116996273D01*
X84074140Y-117012656D01*
G37*
X84074140Y-117012656D02*
X84090523Y-117001184D01*
X84209827Y-117171569D01*
X84193444Y-117183040D01*
X84204916Y-117199423D01*
X84034531Y-117318727D01*
X84023060Y-117302344D01*
X83130594Y-117927255D01*
X83090197Y-118156359D01*
X83667688Y-118986544D01*
X83120928Y-119477389D01*
X82360990Y-120158501D01*
X82072843Y-120388164D01*
X82074803Y-120369827D01*
X82278464Y-119333624D01*
X82589162Y-118288630D01*
X82813880Y-117722063D01*
X83011290Y-117756872D01*
X83903756Y-117131960D01*
X83892284Y-117115577D01*
X84062669Y-116996273D01*
X84074140Y-117012656D01*
G36*
X212869490Y-117175009D02*
G01*
X212856635Y-117190329D01*
X213691240Y-117890646D01*
X213922993Y-117870371D01*
X213990720Y-117790161D01*
X214188221Y-118288195D01*
X214498890Y-119333348D01*
X214702574Y-120369852D01*
X214704510Y-120387942D01*
X214416508Y-120158459D01*
X213656778Y-119477610D01*
X213041346Y-118925099D01*
X213577816Y-118281737D01*
X213557540Y-118049984D01*
X212722935Y-117349667D01*
X212710079Y-117364988D01*
X212550742Y-117231287D01*
X212563597Y-117215967D01*
X212548276Y-117203111D01*
X212681977Y-117043774D01*
X212697297Y-117056629D01*
X212710153Y-117041308D01*
X212869490Y-117175009D01*
G37*
X212869490Y-117175009D02*
X212856635Y-117190329D01*
X213691240Y-117890646D01*
X213922993Y-117870371D01*
X213990720Y-117790161D01*
X214188221Y-118288195D01*
X214498890Y-119333348D01*
X214702574Y-120369852D01*
X214704510Y-120387942D01*
X214416508Y-120158459D01*
X213656778Y-119477610D01*
X213041346Y-118925099D01*
X213577816Y-118281737D01*
X213557540Y-118049984D01*
X212722935Y-117349667D01*
X212710079Y-117364988D01*
X212550742Y-117231287D01*
X212563597Y-117215967D01*
X212548276Y-117203111D01*
X212681977Y-117043774D01*
X212697297Y-117056629D01*
X212710153Y-117041308D01*
X212869490Y-117175009D01*
G36*
X125292855Y-79070600D02*
G01*
X125305405Y-79198022D01*
X125342573Y-79320548D01*
X125402930Y-79433468D01*
X125484157Y-79532443D01*
X125583132Y-79613670D01*
X125696052Y-79674027D01*
X125818578Y-79711195D01*
X125946000Y-79723745D01*
X127546000Y-79723745D01*
X127673422Y-79711195D01*
X127795948Y-79674027D01*
X127908868Y-79613670D01*
X128007843Y-79532443D01*
X128089070Y-79433468D01*
X128149427Y-79320548D01*
X128186595Y-79198022D01*
X128199145Y-79070600D01*
X128199145Y-76977000D01*
X128273275Y-76977000D01*
X128311864Y-77015589D01*
X128483838Y-77130498D01*
X128674926Y-77209650D01*
X128877784Y-77250000D01*
X129084616Y-77250000D01*
X129287474Y-77209650D01*
X129478562Y-77130498D01*
X129546692Y-77084975D01*
X129544816Y-78370600D01*
X129557520Y-78499591D01*
X129595146Y-78623624D01*
X129656246Y-78737934D01*
X129738472Y-78838128D01*
X129838666Y-78920354D01*
X129952976Y-78981454D01*
X130077009Y-79019080D01*
X130206000Y-79031784D01*
X130737500Y-79028600D01*
X130902000Y-78864100D01*
X130902000Y-76024600D01*
X130882000Y-76024600D01*
X130882000Y-75816600D01*
X130902000Y-75816600D01*
X130902000Y-75796600D01*
X131110000Y-75796600D01*
X131110000Y-75816600D01*
X131130000Y-75816600D01*
X131130000Y-76024600D01*
X131110000Y-76024600D01*
X131110000Y-78864100D01*
X131142278Y-78896378D01*
X129931965Y-80106692D01*
X129902321Y-80131020D01*
X129877993Y-80160664D01*
X129877991Y-80160666D01*
X129805223Y-80249334D01*
X129733073Y-80384317D01*
X129706130Y-80473138D01*
X129691663Y-80520831D01*
X129688644Y-80530782D01*
X129673641Y-80683100D01*
X129677401Y-80721273D01*
X129677400Y-84997145D01*
X129638811Y-85035734D01*
X129523902Y-85207708D01*
X129444750Y-85398796D01*
X129404400Y-85601654D01*
X129404400Y-85655070D01*
X124539349Y-85655070D01*
X124501286Y-85651321D01*
X124463223Y-85655070D01*
X124463221Y-85655070D01*
X124349360Y-85666284D01*
X124203272Y-85710600D01*
X124176210Y-85725065D01*
X124068635Y-85782564D01*
X124037050Y-85808486D01*
X123950627Y-85879411D01*
X123926358Y-85908983D01*
X120923047Y-88912295D01*
X120775483Y-88882943D01*
X120497343Y-88882943D01*
X120224548Y-88937205D01*
X119967580Y-89043645D01*
X119736316Y-89198171D01*
X119539641Y-89394846D01*
X119385115Y-89626110D01*
X119278675Y-89883078D01*
X119224413Y-90155873D01*
X119224413Y-90434013D01*
X119264811Y-90637107D01*
X119102525Y-90569886D01*
X118829730Y-90515624D01*
X118551590Y-90515624D01*
X118278795Y-90569886D01*
X118021827Y-90676326D01*
X117790563Y-90830852D01*
X117593888Y-91027527D01*
X117439362Y-91258791D01*
X117332922Y-91515759D01*
X117278660Y-91788554D01*
X117278660Y-92066694D01*
X117316172Y-92255280D01*
X117190091Y-92204660D01*
X116958160Y-92316076D01*
X116873415Y-93284715D01*
X116759048Y-93399082D01*
X116906129Y-93546163D01*
X116976154Y-93476138D01*
X118007264Y-93566349D01*
X118157261Y-93357288D01*
X118123814Y-93221167D01*
X118278795Y-93285362D01*
X118551590Y-93339624D01*
X118829730Y-93339624D01*
X119032823Y-93299227D01*
X118965602Y-93461511D01*
X118911340Y-93734306D01*
X118911340Y-94012446D01*
X118951738Y-94215540D01*
X118789452Y-94148319D01*
X118516657Y-94094057D01*
X118238517Y-94094057D01*
X118049931Y-94131569D01*
X118100551Y-94005488D01*
X117989135Y-93773557D01*
X117020496Y-93688812D01*
X116906129Y-93574445D01*
X116759048Y-93721526D01*
X116829073Y-93791551D01*
X116738862Y-94822661D01*
X116947923Y-94972658D01*
X117084044Y-94939211D01*
X117019849Y-95094192D01*
X116965587Y-95366987D01*
X116965587Y-95645127D01*
X117019849Y-95917922D01*
X117126289Y-96174890D01*
X117280815Y-96406154D01*
X117477490Y-96602829D01*
X117708754Y-96757355D01*
X117965722Y-96863795D01*
X118238517Y-96918057D01*
X118516657Y-96918057D01*
X118789452Y-96863795D01*
X119046420Y-96757355D01*
X119277684Y-96602829D01*
X119474359Y-96406154D01*
X119557946Y-96281057D01*
X122954280Y-96281057D01*
X122992343Y-96284806D01*
X123030406Y-96281057D01*
X123030408Y-96281057D01*
X123144269Y-96269843D01*
X123290357Y-96225527D01*
X123424993Y-96153563D01*
X123543002Y-96056716D01*
X123567275Y-96027139D01*
X126376170Y-93218245D01*
X127108300Y-93218245D01*
X127235722Y-93205695D01*
X127358248Y-93168527D01*
X127471168Y-93108170D01*
X127570143Y-93026943D01*
X127651370Y-92927968D01*
X127711727Y-92815048D01*
X127748895Y-92692522D01*
X127761445Y-92565100D01*
X127761445Y-91915100D01*
X127748895Y-91787678D01*
X127736586Y-91747100D01*
X129680590Y-91747100D01*
X129680591Y-95354717D01*
X129676831Y-95392890D01*
X129687753Y-95503776D01*
X129691334Y-95540127D01*
X129691834Y-95545208D01*
X129736263Y-95691673D01*
X129808413Y-95826656D01*
X129865676Y-95896431D01*
X129905511Y-95944970D01*
X129935155Y-95969298D01*
X132160062Y-98194206D01*
X125427056Y-98194206D01*
X125388993Y-98190457D01*
X125350931Y-98194206D01*
X125350929Y-98194206D01*
X125237068Y-98205420D01*
X125090980Y-98249736D01*
X124956344Y-98321700D01*
X124838806Y-98418160D01*
X115799321Y-102359517D01*
X115769578Y-102368540D01*
X115729515Y-102389954D01*
X115722951Y-102392816D01*
X115717793Y-102395696D01*
X107846718Y-105850826D01*
X107844961Y-105851408D01*
X107811672Y-105866209D01*
X107778686Y-105880689D01*
X107777090Y-105881585D01*
X100605124Y-109070458D01*
X100590832Y-109075295D01*
X100590737Y-109075338D01*
X100554415Y-109087642D01*
X100521370Y-109106693D01*
X96937167Y-110726817D01*
X96382467Y-110172118D01*
X96358194Y-110142541D01*
X96240185Y-110045694D01*
X96105549Y-109973730D01*
X95959461Y-109929414D01*
X95845600Y-109918200D01*
X95845598Y-109918200D01*
X95807535Y-109914451D01*
X95769472Y-109918200D01*
X95744671Y-109918200D01*
X95742091Y-109892005D01*
X95690697Y-109722581D01*
X95607238Y-109566440D01*
X95494920Y-109429580D01*
X95358060Y-109317262D01*
X95201919Y-109233803D01*
X95032495Y-109182409D01*
X94856300Y-109165055D01*
X94106300Y-109165055D01*
X93930105Y-109182409D01*
X93760681Y-109233803D01*
X93604540Y-109317262D01*
X93467680Y-109429580D01*
X93355362Y-109566440D01*
X93271903Y-109722581D01*
X93220509Y-109892005D01*
X93203155Y-110068200D01*
X93203155Y-111318200D01*
X93220509Y-111494395D01*
X93271903Y-111663819D01*
X93355362Y-111819960D01*
X93467680Y-111956820D01*
X93604540Y-112069138D01*
X93760681Y-112152597D01*
X93930105Y-112203991D01*
X94106300Y-112221345D01*
X94723355Y-112221345D01*
X94705736Y-112229309D01*
X94700796Y-112232155D01*
X91414272Y-113775395D01*
X91397341Y-113782300D01*
X91379317Y-113791809D01*
X91360873Y-113800469D01*
X91345165Y-113809824D01*
X90314905Y-114353323D01*
X90301658Y-114359305D01*
X90280727Y-114371353D01*
X90259393Y-114382608D01*
X90247279Y-114390607D01*
X90150231Y-114446472D01*
X89731147Y-113847959D01*
X91357762Y-112221345D01*
X92056300Y-112221345D01*
X92232495Y-112203991D01*
X92401919Y-112152597D01*
X92558060Y-112069138D01*
X92694920Y-111956820D01*
X92807238Y-111819960D01*
X92890697Y-111663819D01*
X92942091Y-111494395D01*
X92959445Y-111318200D01*
X92959445Y-110068200D01*
X92942091Y-109892005D01*
X92890697Y-109722581D01*
X92807238Y-109566440D01*
X92694920Y-109429580D01*
X92558060Y-109317262D01*
X92401919Y-109233803D01*
X92232495Y-109182409D01*
X92056300Y-109165055D01*
X91306300Y-109165055D01*
X91130105Y-109182409D01*
X90960681Y-109233803D01*
X90804540Y-109317262D01*
X90667680Y-109429580D01*
X90555362Y-109566440D01*
X90471903Y-109722581D01*
X90420509Y-109892005D01*
X90403155Y-110068200D01*
X90403155Y-110983922D01*
X88828390Y-112558688D01*
X88670972Y-112333872D01*
X88587605Y-112236693D01*
X88486882Y-112157644D01*
X88372672Y-112099765D01*
X88249364Y-112065279D01*
X88121699Y-112055511D01*
X87994581Y-112070838D01*
X87872895Y-112110670D01*
X87761318Y-112173476D01*
X86614505Y-112976483D01*
X86517326Y-113059850D01*
X86438277Y-113160574D01*
X86380398Y-113274784D01*
X86345912Y-113398091D01*
X86336144Y-113525756D01*
X86351471Y-113652875D01*
X86391303Y-113774560D01*
X86454109Y-113886137D01*
X87830780Y-115852227D01*
X86993295Y-116409749D01*
X86982485Y-116415950D01*
X86961133Y-116431160D01*
X86939329Y-116445675D01*
X86929691Y-116453557D01*
X85933325Y-117163306D01*
X85922203Y-117170186D01*
X85901860Y-117185720D01*
X85881024Y-117200562D01*
X85871174Y-117209152D01*
X85789402Y-117271591D01*
X85687798Y-117127434D01*
X86783566Y-116031666D01*
X86809185Y-115997427D01*
X86820667Y-115970357D01*
X86826648Y-115941566D01*
X86826897Y-115912162D01*
X86821405Y-115883275D01*
X86810382Y-115856013D01*
X86794253Y-115831426D01*
X86773638Y-115810458D01*
X85465538Y-114718258D01*
X85428071Y-114695351D01*
X85400012Y-114686557D01*
X85370776Y-114683406D01*
X85341487Y-114686020D01*
X85313271Y-114694297D01*
X85287212Y-114707920D01*
X85264311Y-114726365D01*
X84565811Y-115412165D01*
X84555341Y-115423565D01*
X84522921Y-115462739D01*
X84417967Y-115311859D01*
X84333575Y-115213483D01*
X84231611Y-115133462D01*
X84165482Y-115099949D01*
X84180721Y-115074196D01*
X84933898Y-113979441D01*
X85799120Y-112875266D01*
X86764027Y-111777245D01*
X87411940Y-111172452D01*
X88741145Y-110021821D01*
X93079363Y-106393509D01*
X99095956Y-101461363D01*
X106152429Y-95753364D01*
X108617345Y-93763320D01*
X115332553Y-93763320D01*
X115399297Y-94034956D01*
X115517753Y-94288351D01*
X115683367Y-94513768D01*
X115889775Y-94702544D01*
X116129047Y-94847424D01*
X116299723Y-94915948D01*
X116531654Y-94804532D01*
X116632239Y-93654844D01*
X115482550Y-93554259D01*
X115332553Y-93763320D01*
X108617345Y-93763320D01*
X109420221Y-93115120D01*
X115389263Y-93115120D01*
X115500679Y-93347051D01*
X116650367Y-93447636D01*
X116750952Y-92297947D01*
X116541891Y-92147950D01*
X116270255Y-92214694D01*
X116016860Y-92333150D01*
X115791443Y-92498764D01*
X115602667Y-92705172D01*
X115457787Y-92944444D01*
X115389263Y-93115120D01*
X109420221Y-93115120D01*
X114575893Y-88952703D01*
X114578652Y-88950858D01*
X114605888Y-88928487D01*
X114633431Y-88906250D01*
X114635807Y-88903912D01*
X120052888Y-84454404D01*
X120057954Y-84450900D01*
X120082703Y-84429915D01*
X120107838Y-84409269D01*
X120112202Y-84404901D01*
X121815621Y-82960516D01*
X121823023Y-82955137D01*
X121845044Y-82935567D01*
X121867569Y-82916467D01*
X121873950Y-82909877D01*
X123006107Y-81903717D01*
X123023510Y-81889484D01*
X123034942Y-81878091D01*
X123047029Y-81867349D01*
X123062319Y-81850807D01*
X123643411Y-81271687D01*
X123656987Y-81261794D01*
X123698178Y-81217106D01*
X123713756Y-81201581D01*
X123724385Y-81188674D01*
X123735697Y-81176402D01*
X123748922Y-81158879D01*
X123787583Y-81111934D01*
X123795531Y-81097124D01*
X123875504Y-80991164D01*
X123906037Y-80956813D01*
X123941635Y-80896094D01*
X123978305Y-80836062D01*
X123980780Y-80829325D01*
X123984412Y-80823129D01*
X124007480Y-80756632D01*
X124031734Y-80690599D01*
X124038858Y-80645200D01*
X124040898Y-80636709D01*
X124048143Y-80618734D01*
X124058957Y-80561525D01*
X124063491Y-80542650D01*
X124066135Y-80523554D01*
X124076926Y-80466466D01*
X124076740Y-80446951D01*
X124079417Y-80427614D01*
X124076003Y-80369605D01*
X124075449Y-80311509D01*
X124071459Y-80292403D01*
X124070312Y-80272917D01*
X124055648Y-80216696D01*
X124043770Y-80159819D01*
X124036128Y-80141856D01*
X124031202Y-80122969D01*
X124005853Y-80070690D01*
X123983106Y-80017222D01*
X123972107Y-80001095D01*
X123963591Y-79983533D01*
X123928529Y-79937202D01*
X123917668Y-79921279D01*
X123905215Y-79906397D01*
X123870077Y-79859966D01*
X123855588Y-79847088D01*
X123764002Y-79737634D01*
X123747025Y-79711654D01*
X123714396Y-79678350D01*
X123709400Y-79672379D01*
X123687382Y-79650777D01*
X123665751Y-79628698D01*
X123659772Y-79623688D01*
X123626502Y-79591046D01*
X123600540Y-79574054D01*
X123412692Y-79416646D01*
X123401172Y-79403539D01*
X123353409Y-79366970D01*
X123337059Y-79353270D01*
X123322732Y-79343483D01*
X123308961Y-79332940D01*
X123290839Y-79321698D01*
X123241162Y-79287764D01*
X123225110Y-79280922D01*
X122819003Y-79028986D01*
X123286000Y-79031784D01*
X123414991Y-79019080D01*
X123539024Y-78981454D01*
X123653334Y-78920354D01*
X123753528Y-78838128D01*
X123835754Y-78737934D01*
X123896854Y-78623624D01*
X123934480Y-78499591D01*
X123947184Y-78370600D01*
X123944000Y-76189100D01*
X123779500Y-76024600D01*
X122590000Y-76024600D01*
X122590000Y-76044600D01*
X122382000Y-76044600D01*
X122382000Y-76024600D01*
X122362000Y-76024600D01*
X122362000Y-75816600D01*
X122382000Y-75816600D01*
X122382000Y-75796600D01*
X122590000Y-75796600D01*
X122590000Y-75816600D01*
X123779500Y-75816600D01*
X123944000Y-75652100D01*
X123946116Y-74202208D01*
X125292855Y-74202208D01*
X125292855Y-79070600D01*
G37*
X125292855Y-79070600D02*
X125305405Y-79198022D01*
X125342573Y-79320548D01*
X125402930Y-79433468D01*
X125484157Y-79532443D01*
X125583132Y-79613670D01*
X125696052Y-79674027D01*
X125818578Y-79711195D01*
X125946000Y-79723745D01*
X127546000Y-79723745D01*
X127673422Y-79711195D01*
X127795948Y-79674027D01*
X127908868Y-79613670D01*
X128007843Y-79532443D01*
X128089070Y-79433468D01*
X128149427Y-79320548D01*
X128186595Y-79198022D01*
X128199145Y-79070600D01*
X128199145Y-76977000D01*
X128273275Y-76977000D01*
X128311864Y-77015589D01*
X128483838Y-77130498D01*
X128674926Y-77209650D01*
X128877784Y-77250000D01*
X129084616Y-77250000D01*
X129287474Y-77209650D01*
X129478562Y-77130498D01*
X129546692Y-77084975D01*
X129544816Y-78370600D01*
X129557520Y-78499591D01*
X129595146Y-78623624D01*
X129656246Y-78737934D01*
X129738472Y-78838128D01*
X129838666Y-78920354D01*
X129952976Y-78981454D01*
X130077009Y-79019080D01*
X130206000Y-79031784D01*
X130737500Y-79028600D01*
X130902000Y-78864100D01*
X130902000Y-76024600D01*
X130882000Y-76024600D01*
X130882000Y-75816600D01*
X130902000Y-75816600D01*
X130902000Y-75796600D01*
X131110000Y-75796600D01*
X131110000Y-75816600D01*
X131130000Y-75816600D01*
X131130000Y-76024600D01*
X131110000Y-76024600D01*
X131110000Y-78864100D01*
X131142278Y-78896378D01*
X129931965Y-80106692D01*
X129902321Y-80131020D01*
X129877993Y-80160664D01*
X129877991Y-80160666D01*
X129805223Y-80249334D01*
X129733073Y-80384317D01*
X129706130Y-80473138D01*
X129691663Y-80520831D01*
X129688644Y-80530782D01*
X129673641Y-80683100D01*
X129677401Y-80721273D01*
X129677400Y-84997145D01*
X129638811Y-85035734D01*
X129523902Y-85207708D01*
X129444750Y-85398796D01*
X129404400Y-85601654D01*
X129404400Y-85655070D01*
X124539349Y-85655070D01*
X124501286Y-85651321D01*
X124463223Y-85655070D01*
X124463221Y-85655070D01*
X124349360Y-85666284D01*
X124203272Y-85710600D01*
X124176210Y-85725065D01*
X124068635Y-85782564D01*
X124037050Y-85808486D01*
X123950627Y-85879411D01*
X123926358Y-85908983D01*
X120923047Y-88912295D01*
X120775483Y-88882943D01*
X120497343Y-88882943D01*
X120224548Y-88937205D01*
X119967580Y-89043645D01*
X119736316Y-89198171D01*
X119539641Y-89394846D01*
X119385115Y-89626110D01*
X119278675Y-89883078D01*
X119224413Y-90155873D01*
X119224413Y-90434013D01*
X119264811Y-90637107D01*
X119102525Y-90569886D01*
X118829730Y-90515624D01*
X118551590Y-90515624D01*
X118278795Y-90569886D01*
X118021827Y-90676326D01*
X117790563Y-90830852D01*
X117593888Y-91027527D01*
X117439362Y-91258791D01*
X117332922Y-91515759D01*
X117278660Y-91788554D01*
X117278660Y-92066694D01*
X117316172Y-92255280D01*
X117190091Y-92204660D01*
X116958160Y-92316076D01*
X116873415Y-93284715D01*
X116759048Y-93399082D01*
X116906129Y-93546163D01*
X116976154Y-93476138D01*
X118007264Y-93566349D01*
X118157261Y-93357288D01*
X118123814Y-93221167D01*
X118278795Y-93285362D01*
X118551590Y-93339624D01*
X118829730Y-93339624D01*
X119032823Y-93299227D01*
X118965602Y-93461511D01*
X118911340Y-93734306D01*
X118911340Y-94012446D01*
X118951738Y-94215540D01*
X118789452Y-94148319D01*
X118516657Y-94094057D01*
X118238517Y-94094057D01*
X118049931Y-94131569D01*
X118100551Y-94005488D01*
X117989135Y-93773557D01*
X117020496Y-93688812D01*
X116906129Y-93574445D01*
X116759048Y-93721526D01*
X116829073Y-93791551D01*
X116738862Y-94822661D01*
X116947923Y-94972658D01*
X117084044Y-94939211D01*
X117019849Y-95094192D01*
X116965587Y-95366987D01*
X116965587Y-95645127D01*
X117019849Y-95917922D01*
X117126289Y-96174890D01*
X117280815Y-96406154D01*
X117477490Y-96602829D01*
X117708754Y-96757355D01*
X117965722Y-96863795D01*
X118238517Y-96918057D01*
X118516657Y-96918057D01*
X118789452Y-96863795D01*
X119046420Y-96757355D01*
X119277684Y-96602829D01*
X119474359Y-96406154D01*
X119557946Y-96281057D01*
X122954280Y-96281057D01*
X122992343Y-96284806D01*
X123030406Y-96281057D01*
X123030408Y-96281057D01*
X123144269Y-96269843D01*
X123290357Y-96225527D01*
X123424993Y-96153563D01*
X123543002Y-96056716D01*
X123567275Y-96027139D01*
X126376170Y-93218245D01*
X127108300Y-93218245D01*
X127235722Y-93205695D01*
X127358248Y-93168527D01*
X127471168Y-93108170D01*
X127570143Y-93026943D01*
X127651370Y-92927968D01*
X127711727Y-92815048D01*
X127748895Y-92692522D01*
X127761445Y-92565100D01*
X127761445Y-91915100D01*
X127748895Y-91787678D01*
X127736586Y-91747100D01*
X129680590Y-91747100D01*
X129680591Y-95354717D01*
X129676831Y-95392890D01*
X129687753Y-95503776D01*
X129691334Y-95540127D01*
X129691834Y-95545208D01*
X129736263Y-95691673D01*
X129808413Y-95826656D01*
X129865676Y-95896431D01*
X129905511Y-95944970D01*
X129935155Y-95969298D01*
X132160062Y-98194206D01*
X125427056Y-98194206D01*
X125388993Y-98190457D01*
X125350931Y-98194206D01*
X125350929Y-98194206D01*
X125237068Y-98205420D01*
X125090980Y-98249736D01*
X124956344Y-98321700D01*
X124838806Y-98418160D01*
X115799321Y-102359517D01*
X115769578Y-102368540D01*
X115729515Y-102389954D01*
X115722951Y-102392816D01*
X115717793Y-102395696D01*
X107846718Y-105850826D01*
X107844961Y-105851408D01*
X107811672Y-105866209D01*
X107778686Y-105880689D01*
X107777090Y-105881585D01*
X100605124Y-109070458D01*
X100590832Y-109075295D01*
X100590737Y-109075338D01*
X100554415Y-109087642D01*
X100521370Y-109106693D01*
X96937167Y-110726817D01*
X96382467Y-110172118D01*
X96358194Y-110142541D01*
X96240185Y-110045694D01*
X96105549Y-109973730D01*
X95959461Y-109929414D01*
X95845600Y-109918200D01*
X95845598Y-109918200D01*
X95807535Y-109914451D01*
X95769472Y-109918200D01*
X95744671Y-109918200D01*
X95742091Y-109892005D01*
X95690697Y-109722581D01*
X95607238Y-109566440D01*
X95494920Y-109429580D01*
X95358060Y-109317262D01*
X95201919Y-109233803D01*
X95032495Y-109182409D01*
X94856300Y-109165055D01*
X94106300Y-109165055D01*
X93930105Y-109182409D01*
X93760681Y-109233803D01*
X93604540Y-109317262D01*
X93467680Y-109429580D01*
X93355362Y-109566440D01*
X93271903Y-109722581D01*
X93220509Y-109892005D01*
X93203155Y-110068200D01*
X93203155Y-111318200D01*
X93220509Y-111494395D01*
X93271903Y-111663819D01*
X93355362Y-111819960D01*
X93467680Y-111956820D01*
X93604540Y-112069138D01*
X93760681Y-112152597D01*
X93930105Y-112203991D01*
X94106300Y-112221345D01*
X94723355Y-112221345D01*
X94705736Y-112229309D01*
X94700796Y-112232155D01*
X91414272Y-113775395D01*
X91397341Y-113782300D01*
X91379317Y-113791809D01*
X91360873Y-113800469D01*
X91345165Y-113809824D01*
X90314905Y-114353323D01*
X90301658Y-114359305D01*
X90280727Y-114371353D01*
X90259393Y-114382608D01*
X90247279Y-114390607D01*
X90150231Y-114446472D01*
X89731147Y-113847959D01*
X91357762Y-112221345D01*
X92056300Y-112221345D01*
X92232495Y-112203991D01*
X92401919Y-112152597D01*
X92558060Y-112069138D01*
X92694920Y-111956820D01*
X92807238Y-111819960D01*
X92890697Y-111663819D01*
X92942091Y-111494395D01*
X92959445Y-111318200D01*
X92959445Y-110068200D01*
X92942091Y-109892005D01*
X92890697Y-109722581D01*
X92807238Y-109566440D01*
X92694920Y-109429580D01*
X92558060Y-109317262D01*
X92401919Y-109233803D01*
X92232495Y-109182409D01*
X92056300Y-109165055D01*
X91306300Y-109165055D01*
X91130105Y-109182409D01*
X90960681Y-109233803D01*
X90804540Y-109317262D01*
X90667680Y-109429580D01*
X90555362Y-109566440D01*
X90471903Y-109722581D01*
X90420509Y-109892005D01*
X90403155Y-110068200D01*
X90403155Y-110983922D01*
X88828390Y-112558688D01*
X88670972Y-112333872D01*
X88587605Y-112236693D01*
X88486882Y-112157644D01*
X88372672Y-112099765D01*
X88249364Y-112065279D01*
X88121699Y-112055511D01*
X87994581Y-112070838D01*
X87872895Y-112110670D01*
X87761318Y-112173476D01*
X86614505Y-112976483D01*
X86517326Y-113059850D01*
X86438277Y-113160574D01*
X86380398Y-113274784D01*
X86345912Y-113398091D01*
X86336144Y-113525756D01*
X86351471Y-113652875D01*
X86391303Y-113774560D01*
X86454109Y-113886137D01*
X87830780Y-115852227D01*
X86993295Y-116409749D01*
X86982485Y-116415950D01*
X86961133Y-116431160D01*
X86939329Y-116445675D01*
X86929691Y-116453557D01*
X85933325Y-117163306D01*
X85922203Y-117170186D01*
X85901860Y-117185720D01*
X85881024Y-117200562D01*
X85871174Y-117209152D01*
X85789402Y-117271591D01*
X85687798Y-117127434D01*
X86783566Y-116031666D01*
X86809185Y-115997427D01*
X86820667Y-115970357D01*
X86826648Y-115941566D01*
X86826897Y-115912162D01*
X86821405Y-115883275D01*
X86810382Y-115856013D01*
X86794253Y-115831426D01*
X86773638Y-115810458D01*
X85465538Y-114718258D01*
X85428071Y-114695351D01*
X85400012Y-114686557D01*
X85370776Y-114683406D01*
X85341487Y-114686020D01*
X85313271Y-114694297D01*
X85287212Y-114707920D01*
X85264311Y-114726365D01*
X84565811Y-115412165D01*
X84555341Y-115423565D01*
X84522921Y-115462739D01*
X84417967Y-115311859D01*
X84333575Y-115213483D01*
X84231611Y-115133462D01*
X84165482Y-115099949D01*
X84180721Y-115074196D01*
X84933898Y-113979441D01*
X85799120Y-112875266D01*
X86764027Y-111777245D01*
X87411940Y-111172452D01*
X88741145Y-110021821D01*
X93079363Y-106393509D01*
X99095956Y-101461363D01*
X106152429Y-95753364D01*
X108617345Y-93763320D01*
X115332553Y-93763320D01*
X115399297Y-94034956D01*
X115517753Y-94288351D01*
X115683367Y-94513768D01*
X115889775Y-94702544D01*
X116129047Y-94847424D01*
X116299723Y-94915948D01*
X116531654Y-94804532D01*
X116632239Y-93654844D01*
X115482550Y-93554259D01*
X115332553Y-93763320D01*
X108617345Y-93763320D01*
X109420221Y-93115120D01*
X115389263Y-93115120D01*
X115500679Y-93347051D01*
X116650367Y-93447636D01*
X116750952Y-92297947D01*
X116541891Y-92147950D01*
X116270255Y-92214694D01*
X116016860Y-92333150D01*
X115791443Y-92498764D01*
X115602667Y-92705172D01*
X115457787Y-92944444D01*
X115389263Y-93115120D01*
X109420221Y-93115120D01*
X114575893Y-88952703D01*
X114578652Y-88950858D01*
X114605888Y-88928487D01*
X114633431Y-88906250D01*
X114635807Y-88903912D01*
X120052888Y-84454404D01*
X120057954Y-84450900D01*
X120082703Y-84429915D01*
X120107838Y-84409269D01*
X120112202Y-84404901D01*
X121815621Y-82960516D01*
X121823023Y-82955137D01*
X121845044Y-82935567D01*
X121867569Y-82916467D01*
X121873950Y-82909877D01*
X123006107Y-81903717D01*
X123023510Y-81889484D01*
X123034942Y-81878091D01*
X123047029Y-81867349D01*
X123062319Y-81850807D01*
X123643411Y-81271687D01*
X123656987Y-81261794D01*
X123698178Y-81217106D01*
X123713756Y-81201581D01*
X123724385Y-81188674D01*
X123735697Y-81176402D01*
X123748922Y-81158879D01*
X123787583Y-81111934D01*
X123795531Y-81097124D01*
X123875504Y-80991164D01*
X123906037Y-80956813D01*
X123941635Y-80896094D01*
X123978305Y-80836062D01*
X123980780Y-80829325D01*
X123984412Y-80823129D01*
X124007480Y-80756632D01*
X124031734Y-80690599D01*
X124038858Y-80645200D01*
X124040898Y-80636709D01*
X124048143Y-80618734D01*
X124058957Y-80561525D01*
X124063491Y-80542650D01*
X124066135Y-80523554D01*
X124076926Y-80466466D01*
X124076740Y-80446951D01*
X124079417Y-80427614D01*
X124076003Y-80369605D01*
X124075449Y-80311509D01*
X124071459Y-80292403D01*
X124070312Y-80272917D01*
X124055648Y-80216696D01*
X124043770Y-80159819D01*
X124036128Y-80141856D01*
X124031202Y-80122969D01*
X124005853Y-80070690D01*
X123983106Y-80017222D01*
X123972107Y-80001095D01*
X123963591Y-79983533D01*
X123928529Y-79937202D01*
X123917668Y-79921279D01*
X123905215Y-79906397D01*
X123870077Y-79859966D01*
X123855588Y-79847088D01*
X123764002Y-79737634D01*
X123747025Y-79711654D01*
X123714396Y-79678350D01*
X123709400Y-79672379D01*
X123687382Y-79650777D01*
X123665751Y-79628698D01*
X123659772Y-79623688D01*
X123626502Y-79591046D01*
X123600540Y-79574054D01*
X123412692Y-79416646D01*
X123401172Y-79403539D01*
X123353409Y-79366970D01*
X123337059Y-79353270D01*
X123322732Y-79343483D01*
X123308961Y-79332940D01*
X123290839Y-79321698D01*
X123241162Y-79287764D01*
X123225110Y-79280922D01*
X122819003Y-79028986D01*
X123286000Y-79031784D01*
X123414991Y-79019080D01*
X123539024Y-78981454D01*
X123653334Y-78920354D01*
X123753528Y-78838128D01*
X123835754Y-78737934D01*
X123896854Y-78623624D01*
X123934480Y-78499591D01*
X123947184Y-78370600D01*
X123944000Y-76189100D01*
X123779500Y-76024600D01*
X122590000Y-76024600D01*
X122590000Y-76044600D01*
X122382000Y-76044600D01*
X122382000Y-76024600D01*
X122362000Y-76024600D01*
X122362000Y-75816600D01*
X122382000Y-75816600D01*
X122382000Y-75796600D01*
X122590000Y-75796600D01*
X122590000Y-75816600D01*
X123779500Y-75816600D01*
X123944000Y-75652100D01*
X123946116Y-74202208D01*
X125292855Y-74202208D01*
X125292855Y-79070600D01*
G36*
X172651800Y-75683100D02*
G01*
X172816300Y-75847600D01*
X174005800Y-75847600D01*
X174005800Y-75827600D01*
X174213800Y-75827600D01*
X174213800Y-75847600D01*
X174233800Y-75847600D01*
X174233800Y-76055600D01*
X174213800Y-76055600D01*
X174213800Y-76075600D01*
X174005800Y-76075600D01*
X174005800Y-76055600D01*
X172816300Y-76055600D01*
X172651800Y-76220100D01*
X172648616Y-78401600D01*
X172661320Y-78530591D01*
X172698946Y-78654624D01*
X172760046Y-78768934D01*
X172842272Y-78869128D01*
X172942466Y-78951354D01*
X173056776Y-79012454D01*
X173180809Y-79050080D01*
X173309800Y-79062784D01*
X173841300Y-79059600D01*
X174005798Y-78895102D01*
X174005798Y-78999674D01*
X173553642Y-79279776D01*
X173537793Y-79286509D01*
X173487887Y-79320510D01*
X173469565Y-79331860D01*
X173455973Y-79342253D01*
X173441816Y-79351898D01*
X173425260Y-79365737D01*
X173377310Y-79402401D01*
X173365939Y-79415323D01*
X173178610Y-79571909D01*
X173152571Y-79588912D01*
X173119309Y-79621477D01*
X173113382Y-79626432D01*
X173091701Y-79648508D01*
X173069588Y-79670158D01*
X173064623Y-79676079D01*
X173032007Y-79709289D01*
X173014965Y-79735299D01*
X172921043Y-79847306D01*
X172903407Y-79863306D01*
X172871376Y-79906537D01*
X172861738Y-79918031D01*
X172848362Y-79937598D01*
X172811153Y-79987818D01*
X172804712Y-80001452D01*
X172796199Y-80013906D01*
X172771660Y-80071421D01*
X172744963Y-80127935D01*
X172741306Y-80142564D01*
X172735386Y-80156439D01*
X172722543Y-80217618D01*
X172707380Y-80278272D01*
X172706647Y-80293341D01*
X172703549Y-80308098D01*
X172702888Y-80370595D01*
X172699849Y-80433053D01*
X172702069Y-80447974D01*
X172701910Y-80463052D01*
X172713453Y-80524472D01*
X172716943Y-80547922D01*
X172720596Y-80562475D01*
X172730533Y-80615350D01*
X172739412Y-80637445D01*
X172742163Y-80648404D01*
X172749169Y-80691691D01*
X172774486Y-80759606D01*
X172798931Y-80827826D01*
X172801533Y-80832162D01*
X172803297Y-80836895D01*
X172841351Y-80898524D01*
X172878661Y-80960706D01*
X172908128Y-80993187D01*
X172987920Y-81097857D01*
X172995323Y-81111592D01*
X173034828Y-81159390D01*
X173048864Y-81177802D01*
X173059421Y-81189145D01*
X173069309Y-81201109D01*
X173085762Y-81217449D01*
X173127984Y-81262815D01*
X173140632Y-81271939D01*
X173727200Y-81854452D01*
X173742160Y-81870619D01*
X173754596Y-81881658D01*
X173766396Y-81893377D01*
X173783474Y-81907294D01*
X174923153Y-82918994D01*
X174929401Y-82925445D01*
X174951995Y-82944598D01*
X174974212Y-82964320D01*
X174981501Y-82969610D01*
X176691752Y-84419382D01*
X176696045Y-84423679D01*
X176721172Y-84444321D01*
X176746056Y-84465415D01*
X176751068Y-84468881D01*
X182170100Y-88920642D01*
X182172457Y-88922962D01*
X182199912Y-88945133D01*
X182227256Y-88967596D01*
X182230012Y-88969440D01*
X190625563Y-95749109D01*
X197679778Y-101456460D01*
X203695865Y-106389215D01*
X208034024Y-110018251D01*
X209363444Y-111169327D01*
X210011766Y-111774625D01*
X210977442Y-112873497D01*
X211843122Y-113978207D01*
X212596559Y-115073309D01*
X212668192Y-115194363D01*
X212595658Y-115241691D01*
X212503012Y-115332338D01*
X212318090Y-115554106D01*
X210758039Y-114076785D01*
X210723651Y-114052384D01*
X210696322Y-114041533D01*
X210667400Y-114036222D01*
X210637998Y-114036655D01*
X210609246Y-114042817D01*
X210582248Y-114054469D01*
X210558042Y-114071164D01*
X210537558Y-114092261D01*
X209445358Y-115463861D01*
X209424178Y-115499753D01*
X209415613Y-115527883D01*
X209412700Y-115557143D01*
X209415552Y-115586410D01*
X209424058Y-115614558D01*
X209437892Y-115640505D01*
X209514092Y-115754805D01*
X209535588Y-115780350D01*
X210978105Y-117150741D01*
X210920029Y-117219522D01*
X210906487Y-117209181D01*
X210896628Y-117200583D01*
X210875769Y-117185723D01*
X210855447Y-117170204D01*
X210844339Y-117163332D01*
X209848073Y-116453588D01*
X209838419Y-116445692D01*
X209816584Y-116431155D01*
X209795266Y-116415968D01*
X209784471Y-116409775D01*
X208858886Y-115793554D01*
X208927629Y-115726295D01*
X210598877Y-113734580D01*
X210671169Y-113628902D01*
X210721454Y-113511151D01*
X210747802Y-113385852D01*
X210749199Y-113257821D01*
X210725591Y-113131977D01*
X210677886Y-113013157D01*
X210607917Y-112905927D01*
X210518373Y-112814408D01*
X209445911Y-111914505D01*
X209340233Y-111842213D01*
X209222482Y-111791928D01*
X209097183Y-111765580D01*
X208969152Y-111764183D01*
X208843308Y-111787791D01*
X208724488Y-111835496D01*
X208617258Y-111905465D01*
X208525739Y-111995009D01*
X208266274Y-112304227D01*
X206865745Y-110903699D01*
X206865745Y-110322200D01*
X206848391Y-110146005D01*
X206796997Y-109976581D01*
X206713538Y-109820440D01*
X206601220Y-109683580D01*
X206464360Y-109571262D01*
X206308219Y-109487803D01*
X206138795Y-109436409D01*
X205962600Y-109419055D01*
X205212600Y-109419055D01*
X205036405Y-109436409D01*
X204866981Y-109487803D01*
X204710840Y-109571262D01*
X204573980Y-109683580D01*
X204461662Y-109820440D01*
X204378203Y-109976581D01*
X204326809Y-110146005D01*
X204309455Y-110322200D01*
X204309455Y-111572200D01*
X204326809Y-111748395D01*
X204378203Y-111917819D01*
X204461662Y-112073960D01*
X204573980Y-112210820D01*
X204710840Y-112323138D01*
X204866981Y-112406597D01*
X205036405Y-112457991D01*
X205212600Y-112475345D01*
X205962600Y-112475345D01*
X206138795Y-112457991D01*
X206207245Y-112437227D01*
X207266148Y-113496131D01*
X206854491Y-113986724D01*
X206782199Y-114092402D01*
X206731914Y-114210153D01*
X206705566Y-114335452D01*
X206704169Y-114463483D01*
X206709847Y-114493750D01*
X206530693Y-114390617D01*
X206518569Y-114382611D01*
X206497232Y-114371355D01*
X206476314Y-114359313D01*
X206463067Y-114353331D01*
X205432822Y-113809829D01*
X205417099Y-113800465D01*
X205398653Y-113791804D01*
X205380644Y-113782303D01*
X205363712Y-113775397D01*
X202595017Y-112475345D01*
X203162600Y-112475345D01*
X203338795Y-112457991D01*
X203508219Y-112406597D01*
X203664360Y-112323138D01*
X203801220Y-112210820D01*
X203913538Y-112073960D01*
X203996997Y-111917819D01*
X204048391Y-111748395D01*
X204065745Y-111572200D01*
X204065745Y-110322200D01*
X204048391Y-110146005D01*
X203996997Y-109976581D01*
X203913538Y-109820440D01*
X203801220Y-109683580D01*
X203664360Y-109571262D01*
X203508219Y-109487803D01*
X203338795Y-109436409D01*
X203162600Y-109419055D01*
X202412600Y-109419055D01*
X202236405Y-109436409D01*
X202066981Y-109487803D01*
X201910840Y-109571262D01*
X201773980Y-109683580D01*
X201661662Y-109820440D01*
X201578203Y-109976581D01*
X201526809Y-110146005D01*
X201524229Y-110172200D01*
X200837762Y-110172200D01*
X200799699Y-110168451D01*
X200761636Y-110172200D01*
X200761635Y-110172200D01*
X200647774Y-110183414D01*
X200501686Y-110227730D01*
X200459305Y-110250383D01*
X200367049Y-110299694D01*
X200330813Y-110329433D01*
X200249041Y-110396541D01*
X200224772Y-110426113D01*
X199898105Y-110752781D01*
X196611547Y-109267246D01*
X196598415Y-109259787D01*
X196598385Y-109259774D01*
X196565114Y-109240879D01*
X196528840Y-109228853D01*
X189183281Y-105962875D01*
X189173256Y-105957244D01*
X189173187Y-105957214D01*
X189139779Y-105938455D01*
X189103488Y-105926618D01*
X181734882Y-102692088D01*
X181734878Y-102692086D01*
X181059650Y-102395689D01*
X181054531Y-102392830D01*
X181054375Y-102392762D01*
X181020837Y-102374049D01*
X180984604Y-102362339D01*
X171874988Y-98390181D01*
X171791544Y-98321700D01*
X171656908Y-98249736D01*
X171510820Y-98205420D01*
X171396959Y-98194206D01*
X171396957Y-98194206D01*
X171358894Y-98190457D01*
X171320831Y-98194206D01*
X156432194Y-98194206D01*
X156432194Y-90511920D01*
X158280259Y-88663855D01*
X158296034Y-88650909D01*
X168396655Y-78550289D01*
X168396655Y-79101600D01*
X168409205Y-79229022D01*
X168446373Y-79351548D01*
X168506730Y-79464468D01*
X168587957Y-79563443D01*
X168686932Y-79644670D01*
X168799852Y-79705027D01*
X168922378Y-79742195D01*
X169049800Y-79754745D01*
X170649800Y-79754745D01*
X170777222Y-79742195D01*
X170899748Y-79705027D01*
X171012668Y-79644670D01*
X171111643Y-79563443D01*
X171192870Y-79464468D01*
X171253227Y-79351548D01*
X171290395Y-79229022D01*
X171302945Y-79101600D01*
X171302945Y-74202200D01*
X172649639Y-74202200D01*
X172651800Y-75683100D01*
G37*
X172651800Y-75683100D02*
X172816300Y-75847600D01*
X174005800Y-75847600D01*
X174005800Y-75827600D01*
X174213800Y-75827600D01*
X174213800Y-75847600D01*
X174233800Y-75847600D01*
X174233800Y-76055600D01*
X174213800Y-76055600D01*
X174213800Y-76075600D01*
X174005800Y-76075600D01*
X174005800Y-76055600D01*
X172816300Y-76055600D01*
X172651800Y-76220100D01*
X172648616Y-78401600D01*
X172661320Y-78530591D01*
X172698946Y-78654624D01*
X172760046Y-78768934D01*
X172842272Y-78869128D01*
X172942466Y-78951354D01*
X173056776Y-79012454D01*
X173180809Y-79050080D01*
X173309800Y-79062784D01*
X173841300Y-79059600D01*
X174005798Y-78895102D01*
X174005798Y-78999674D01*
X173553642Y-79279776D01*
X173537793Y-79286509D01*
X173487887Y-79320510D01*
X173469565Y-79331860D01*
X173455973Y-79342253D01*
X173441816Y-79351898D01*
X173425260Y-79365737D01*
X173377310Y-79402401D01*
X173365939Y-79415323D01*
X173178610Y-79571909D01*
X173152571Y-79588912D01*
X173119309Y-79621477D01*
X173113382Y-79626432D01*
X173091701Y-79648508D01*
X173069588Y-79670158D01*
X173064623Y-79676079D01*
X173032007Y-79709289D01*
X173014965Y-79735299D01*
X172921043Y-79847306D01*
X172903407Y-79863306D01*
X172871376Y-79906537D01*
X172861738Y-79918031D01*
X172848362Y-79937598D01*
X172811153Y-79987818D01*
X172804712Y-80001452D01*
X172796199Y-80013906D01*
X172771660Y-80071421D01*
X172744963Y-80127935D01*
X172741306Y-80142564D01*
X172735386Y-80156439D01*
X172722543Y-80217618D01*
X172707380Y-80278272D01*
X172706647Y-80293341D01*
X172703549Y-80308098D01*
X172702888Y-80370595D01*
X172699849Y-80433053D01*
X172702069Y-80447974D01*
X172701910Y-80463052D01*
X172713453Y-80524472D01*
X172716943Y-80547922D01*
X172720596Y-80562475D01*
X172730533Y-80615350D01*
X172739412Y-80637445D01*
X172742163Y-80648404D01*
X172749169Y-80691691D01*
X172774486Y-80759606D01*
X172798931Y-80827826D01*
X172801533Y-80832162D01*
X172803297Y-80836895D01*
X172841351Y-80898524D01*
X172878661Y-80960706D01*
X172908128Y-80993187D01*
X172987920Y-81097857D01*
X172995323Y-81111592D01*
X173034828Y-81159390D01*
X173048864Y-81177802D01*
X173059421Y-81189145D01*
X173069309Y-81201109D01*
X173085762Y-81217449D01*
X173127984Y-81262815D01*
X173140632Y-81271939D01*
X173727200Y-81854452D01*
X173742160Y-81870619D01*
X173754596Y-81881658D01*
X173766396Y-81893377D01*
X173783474Y-81907294D01*
X174923153Y-82918994D01*
X174929401Y-82925445D01*
X174951995Y-82944598D01*
X174974212Y-82964320D01*
X174981501Y-82969610D01*
X176691752Y-84419382D01*
X176696045Y-84423679D01*
X176721172Y-84444321D01*
X176746056Y-84465415D01*
X176751068Y-84468881D01*
X182170100Y-88920642D01*
X182172457Y-88922962D01*
X182199912Y-88945133D01*
X182227256Y-88967596D01*
X182230012Y-88969440D01*
X190625563Y-95749109D01*
X197679778Y-101456460D01*
X203695865Y-106389215D01*
X208034024Y-110018251D01*
X209363444Y-111169327D01*
X210011766Y-111774625D01*
X210977442Y-112873497D01*
X211843122Y-113978207D01*
X212596559Y-115073309D01*
X212668192Y-115194363D01*
X212595658Y-115241691D01*
X212503012Y-115332338D01*
X212318090Y-115554106D01*
X210758039Y-114076785D01*
X210723651Y-114052384D01*
X210696322Y-114041533D01*
X210667400Y-114036222D01*
X210637998Y-114036655D01*
X210609246Y-114042817D01*
X210582248Y-114054469D01*
X210558042Y-114071164D01*
X210537558Y-114092261D01*
X209445358Y-115463861D01*
X209424178Y-115499753D01*
X209415613Y-115527883D01*
X209412700Y-115557143D01*
X209415552Y-115586410D01*
X209424058Y-115614558D01*
X209437892Y-115640505D01*
X209514092Y-115754805D01*
X209535588Y-115780350D01*
X210978105Y-117150741D01*
X210920029Y-117219522D01*
X210906487Y-117209181D01*
X210896628Y-117200583D01*
X210875769Y-117185723D01*
X210855447Y-117170204D01*
X210844339Y-117163332D01*
X209848073Y-116453588D01*
X209838419Y-116445692D01*
X209816584Y-116431155D01*
X209795266Y-116415968D01*
X209784471Y-116409775D01*
X208858886Y-115793554D01*
X208927629Y-115726295D01*
X210598877Y-113734580D01*
X210671169Y-113628902D01*
X210721454Y-113511151D01*
X210747802Y-113385852D01*
X210749199Y-113257821D01*
X210725591Y-113131977D01*
X210677886Y-113013157D01*
X210607917Y-112905927D01*
X210518373Y-112814408D01*
X209445911Y-111914505D01*
X209340233Y-111842213D01*
X209222482Y-111791928D01*
X209097183Y-111765580D01*
X208969152Y-111764183D01*
X208843308Y-111787791D01*
X208724488Y-111835496D01*
X208617258Y-111905465D01*
X208525739Y-111995009D01*
X208266274Y-112304227D01*
X206865745Y-110903699D01*
X206865745Y-110322200D01*
X206848391Y-110146005D01*
X206796997Y-109976581D01*
X206713538Y-109820440D01*
X206601220Y-109683580D01*
X206464360Y-109571262D01*
X206308219Y-109487803D01*
X206138795Y-109436409D01*
X205962600Y-109419055D01*
X205212600Y-109419055D01*
X205036405Y-109436409D01*
X204866981Y-109487803D01*
X204710840Y-109571262D01*
X204573980Y-109683580D01*
X204461662Y-109820440D01*
X204378203Y-109976581D01*
X204326809Y-110146005D01*
X204309455Y-110322200D01*
X204309455Y-111572200D01*
X204326809Y-111748395D01*
X204378203Y-111917819D01*
X204461662Y-112073960D01*
X204573980Y-112210820D01*
X204710840Y-112323138D01*
X204866981Y-112406597D01*
X205036405Y-112457991D01*
X205212600Y-112475345D01*
X205962600Y-112475345D01*
X206138795Y-112457991D01*
X206207245Y-112437227D01*
X207266148Y-113496131D01*
X206854491Y-113986724D01*
X206782199Y-114092402D01*
X206731914Y-114210153D01*
X206705566Y-114335452D01*
X206704169Y-114463483D01*
X206709847Y-114493750D01*
X206530693Y-114390617D01*
X206518569Y-114382611D01*
X206497232Y-114371355D01*
X206476314Y-114359313D01*
X206463067Y-114353331D01*
X205432822Y-113809829D01*
X205417099Y-113800465D01*
X205398653Y-113791804D01*
X205380644Y-113782303D01*
X205363712Y-113775397D01*
X202595017Y-112475345D01*
X203162600Y-112475345D01*
X203338795Y-112457991D01*
X203508219Y-112406597D01*
X203664360Y-112323138D01*
X203801220Y-112210820D01*
X203913538Y-112073960D01*
X203996997Y-111917819D01*
X204048391Y-111748395D01*
X204065745Y-111572200D01*
X204065745Y-110322200D01*
X204048391Y-110146005D01*
X203996997Y-109976581D01*
X203913538Y-109820440D01*
X203801220Y-109683580D01*
X203664360Y-109571262D01*
X203508219Y-109487803D01*
X203338795Y-109436409D01*
X203162600Y-109419055D01*
X202412600Y-109419055D01*
X202236405Y-109436409D01*
X202066981Y-109487803D01*
X201910840Y-109571262D01*
X201773980Y-109683580D01*
X201661662Y-109820440D01*
X201578203Y-109976581D01*
X201526809Y-110146005D01*
X201524229Y-110172200D01*
X200837762Y-110172200D01*
X200799699Y-110168451D01*
X200761636Y-110172200D01*
X200761635Y-110172200D01*
X200647774Y-110183414D01*
X200501686Y-110227730D01*
X200459305Y-110250383D01*
X200367049Y-110299694D01*
X200330813Y-110329433D01*
X200249041Y-110396541D01*
X200224772Y-110426113D01*
X199898105Y-110752781D01*
X196611547Y-109267246D01*
X196598415Y-109259787D01*
X196598385Y-109259774D01*
X196565114Y-109240879D01*
X196528840Y-109228853D01*
X189183281Y-105962875D01*
X189173256Y-105957244D01*
X189173187Y-105957214D01*
X189139779Y-105938455D01*
X189103488Y-105926618D01*
X181734882Y-102692088D01*
X181734878Y-102692086D01*
X181059650Y-102395689D01*
X181054531Y-102392830D01*
X181054375Y-102392762D01*
X181020837Y-102374049D01*
X180984604Y-102362339D01*
X171874988Y-98390181D01*
X171791544Y-98321700D01*
X171656908Y-98249736D01*
X171510820Y-98205420D01*
X171396959Y-98194206D01*
X171396957Y-98194206D01*
X171358894Y-98190457D01*
X171320831Y-98194206D01*
X156432194Y-98194206D01*
X156432194Y-90511920D01*
X158280259Y-88663855D01*
X158296034Y-88650909D01*
X168396655Y-78550289D01*
X168396655Y-79101600D01*
X168409205Y-79229022D01*
X168446373Y-79351548D01*
X168506730Y-79464468D01*
X168587957Y-79563443D01*
X168686932Y-79644670D01*
X168799852Y-79705027D01*
X168922378Y-79742195D01*
X169049800Y-79754745D01*
X170649800Y-79754745D01*
X170777222Y-79742195D01*
X170899748Y-79705027D01*
X171012668Y-79644670D01*
X171111643Y-79563443D01*
X171192870Y-79464468D01*
X171253227Y-79351548D01*
X171290395Y-79229022D01*
X171302945Y-79101600D01*
X171302945Y-74202200D01*
X172649639Y-74202200D01*
X172651800Y-75683100D01*
G36*
X129547509Y-75315571D02*
G01*
X129478562Y-75269502D01*
X129287474Y-75190350D01*
X129084616Y-75150000D01*
X128877784Y-75150000D01*
X128674926Y-75190350D01*
X128483838Y-75269502D01*
X128311864Y-75384411D01*
X128273275Y-75423000D01*
X128199145Y-75423000D01*
X128199145Y-74202208D01*
X129545884Y-74202208D01*
X129547509Y-75315571D01*
G37*
X129547509Y-75315571D02*
X129478562Y-75269502D01*
X129287474Y-75190350D01*
X129084616Y-75150000D01*
X128877784Y-75150000D01*
X128674926Y-75190350D01*
X128483838Y-75269502D01*
X128311864Y-75384411D01*
X128273275Y-75423000D01*
X128199145Y-75423000D01*
X128199145Y-74202208D01*
X129545884Y-74202208D01*
X129547509Y-75315571D01*
%TD*%
M02*
