%TF.GenerationSoftware,KiCad,Pcbnew,5.1.6-c6e7f7d~86~ubuntu18.04.1*%
%TF.CreationDate,2020-06-22T17:01:26-04:00*%
%TF.ProjectId,aerospace_badge,6165726f-7370-4616-9365-5f6261646765,V02*%
%TF.SameCoordinates,Original*%
%TF.FileFunction,Paste,Bot*%
%TF.FilePolarity,Positive*%
%FSLAX46Y46*%
G04 Gerber Fmt 4.6, Leading zero omitted, Abs format (unit mm)*
G04 Created by KiCad (PCBNEW 5.1.6-c6e7f7d~86~ubuntu18.04.1) date 2020-06-22 17:01:26*
%MOMM*%
%LPD*%
G01*
G04 APERTURE LIST*
%ADD10C,1.524000*%
%ADD11R,2.500000X1.200000*%
%ADD12R,1.400000X2.600000*%
%ADD13C,0.100000*%
%ADD14R,1.270000X5.080000*%
%ADD15R,1.600000X4.900000*%
%ADD16R,1.600000X5.600000*%
%ADD17R,1.700000X0.650000*%
%ADD18R,1.250000X1.080000*%
G04 APERTURE END LIST*
D10*
%TO.C,J3*%
X122269093Y-92240696D03*
X120636413Y-90294943D03*
X120323340Y-93873376D03*
X118690660Y-91927624D03*
X118377587Y-95506057D03*
X116744907Y-93560304D03*
%TD*%
D11*
%TO.C,SW1*%
X145110200Y-90961200D03*
X145110200Y-93461200D03*
X145110200Y-95961200D03*
X139610200Y-90961200D03*
X139610200Y-93461200D03*
X139610200Y-95961200D03*
%TD*%
D12*
%TO.C,D1*%
X150986800Y-26720800D03*
X145786800Y-26720800D03*
%TD*%
D13*
%TO.C,D3*%
G36*
X84220843Y-118623901D02*
G01*
X82729544Y-116494106D01*
X83876357Y-115691099D01*
X85367656Y-117820894D01*
X84220843Y-118623901D01*
G37*
G36*
X88480433Y-115641303D02*
G01*
X86989134Y-113511508D01*
X88135947Y-112708501D01*
X89627246Y-114838296D01*
X88480433Y-115641303D01*
G37*
%TD*%
%TO.C,D2*%
G36*
X210098539Y-113314746D02*
G01*
X208427291Y-115306461D01*
X207354829Y-114406558D01*
X209026077Y-112414843D01*
X210098539Y-113314746D01*
G37*
G36*
X214081971Y-116657242D02*
G01*
X212410723Y-118648957D01*
X211338261Y-117749054D01*
X213009509Y-115757339D01*
X214081971Y-116657242D01*
G37*
%TD*%
D14*
%TO.C,BT1*%
X137617700Y-78486000D03*
X159587700Y-78486000D03*
%TD*%
D15*
%TO.C,J2*%
X165589800Y-75951600D03*
D16*
X169849800Y-76301600D03*
D15*
X174109800Y-75951600D03*
%TD*%
%TO.C,R1*%
G36*
G01*
X146141600Y-30438600D02*
X144891600Y-30438600D01*
G75*
G02*
X144641600Y-30188600I0J250000D01*
G01*
X144641600Y-29438600D01*
G75*
G02*
X144891600Y-29188600I250000J0D01*
G01*
X146141600Y-29188600D01*
G75*
G02*
X146391600Y-29438600I0J-250000D01*
G01*
X146391600Y-30188600D01*
G75*
G02*
X146141600Y-30438600I-250000J0D01*
G01*
G37*
G36*
G01*
X146141600Y-33238600D02*
X144891600Y-33238600D01*
G75*
G02*
X144641600Y-32988600I0J250000D01*
G01*
X144641600Y-32238600D01*
G75*
G02*
X144891600Y-31988600I250000J0D01*
G01*
X146141600Y-31988600D01*
G75*
G02*
X146391600Y-32238600I0J-250000D01*
G01*
X146391600Y-32988600D01*
G75*
G02*
X146141600Y-33238600I-250000J0D01*
G01*
G37*
%TD*%
%TO.C,R2*%
G36*
G01*
X204962600Y-111572200D02*
X204962600Y-110322200D01*
G75*
G02*
X205212600Y-110072200I250000J0D01*
G01*
X205962600Y-110072200D01*
G75*
G02*
X206212600Y-110322200I0J-250000D01*
G01*
X206212600Y-111572200D01*
G75*
G02*
X205962600Y-111822200I-250000J0D01*
G01*
X205212600Y-111822200D01*
G75*
G02*
X204962600Y-111572200I0J250000D01*
G01*
G37*
G36*
G01*
X202162600Y-111572200D02*
X202162600Y-110322200D01*
G75*
G02*
X202412600Y-110072200I250000J0D01*
G01*
X203162600Y-110072200D01*
G75*
G02*
X203412600Y-110322200I0J-250000D01*
G01*
X203412600Y-111572200D01*
G75*
G02*
X203162600Y-111822200I-250000J0D01*
G01*
X202412600Y-111822200D01*
G75*
G02*
X202162600Y-111572200I0J250000D01*
G01*
G37*
%TD*%
%TO.C,R3*%
G36*
G01*
X92306300Y-110068200D02*
X92306300Y-111318200D01*
G75*
G02*
X92056300Y-111568200I-250000J0D01*
G01*
X91306300Y-111568200D01*
G75*
G02*
X91056300Y-111318200I0J250000D01*
G01*
X91056300Y-110068200D01*
G75*
G02*
X91306300Y-109818200I250000J0D01*
G01*
X92056300Y-109818200D01*
G75*
G02*
X92306300Y-110068200I0J-250000D01*
G01*
G37*
G36*
G01*
X95106300Y-110068200D02*
X95106300Y-111318200D01*
G75*
G02*
X94856300Y-111568200I-250000J0D01*
G01*
X94106300Y-111568200D01*
G75*
G02*
X93856300Y-111318200I0J250000D01*
G01*
X93856300Y-110068200D01*
G75*
G02*
X94106300Y-109818200I250000J0D01*
G01*
X94856300Y-109818200D01*
G75*
G02*
X95106300Y-110068200I0J-250000D01*
G01*
G37*
%TD*%
%TO.C,R4*%
G36*
G01*
X142935800Y-124266800D02*
X144185800Y-124266800D01*
G75*
G02*
X144435800Y-124516800I0J-250000D01*
G01*
X144435800Y-125266800D01*
G75*
G02*
X144185800Y-125516800I-250000J0D01*
G01*
X142935800Y-125516800D01*
G75*
G02*
X142685800Y-125266800I0J250000D01*
G01*
X142685800Y-124516800D01*
G75*
G02*
X142935800Y-124266800I250000J0D01*
G01*
G37*
G36*
G01*
X142935800Y-121466800D02*
X144185800Y-121466800D01*
G75*
G02*
X144435800Y-121716800I0J-250000D01*
G01*
X144435800Y-122466800D01*
G75*
G02*
X144185800Y-122716800I-250000J0D01*
G01*
X142935800Y-122716800D01*
G75*
G02*
X142685800Y-122466800I0J250000D01*
G01*
X142685800Y-121716800D01*
G75*
G02*
X142935800Y-121466800I250000J0D01*
G01*
G37*
%TD*%
%TO.C,R5*%
G36*
G01*
X153164700Y-46992700D02*
X151914700Y-46992700D01*
G75*
G02*
X151664700Y-46742700I0J250000D01*
G01*
X151664700Y-45992700D01*
G75*
G02*
X151914700Y-45742700I250000J0D01*
G01*
X153164700Y-45742700D01*
G75*
G02*
X153414700Y-45992700I0J-250000D01*
G01*
X153414700Y-46742700D01*
G75*
G02*
X153164700Y-46992700I-250000J0D01*
G01*
G37*
G36*
G01*
X153164700Y-49792700D02*
X151914700Y-49792700D01*
G75*
G02*
X151664700Y-49542700I0J250000D01*
G01*
X151664700Y-48792700D01*
G75*
G02*
X151914700Y-48542700I250000J0D01*
G01*
X153164700Y-48542700D01*
G75*
G02*
X153414700Y-48792700I0J-250000D01*
G01*
X153414700Y-49542700D01*
G75*
G02*
X153164700Y-49792700I-250000J0D01*
G01*
G37*
%TD*%
D17*
%TO.C,U1*%
X133558300Y-92240100D03*
X133558300Y-90970100D03*
X133558300Y-89700100D03*
X133558300Y-88430100D03*
X126258300Y-88430100D03*
X126258300Y-89700100D03*
X126258300Y-90970100D03*
X126258300Y-92240100D03*
%TD*%
D18*
%TO.C,D4*%
X143662400Y-127713300D03*
X143662400Y-130833300D03*
%TD*%
%TO.C,D5*%
X152438100Y-41406200D03*
X152438100Y-44526200D03*
%TD*%
D15*
%TO.C,J1*%
X131006000Y-75920600D03*
D16*
X126746000Y-76270600D03*
D15*
X122486000Y-75920600D03*
%TD*%
M02*
