%TF.GenerationSoftware,KiCad,Pcbnew,5.1.6-c6e7f7d~86~ubuntu18.04.1*%
%TF.CreationDate,2020-06-07T16:50:32-04:00*%
%TF.ProjectId,aerospace_badge,6165726f-7370-4616-9365-5f6261646765,V01*%
%TF.SameCoordinates,Original*%
%TF.FileFunction,Soldermask,Bot*%
%TF.FilePolarity,Negative*%
%FSLAX46Y46*%
G04 Gerber Fmt 4.6, Leading zero omitted, Abs format (unit mm)*
G04 Created by KiCad (PCBNEW 5.1.6-c6e7f7d~86~ubuntu18.04.1) date 2020-06-07 16:50:32*
%MOMM*%
%LPD*%
G01*
G04 APERTURE LIST*
%ADD10C,1.600000*%
%ADD11C,1.624000*%
%ADD12R,1.370000X5.180000*%
%ADD13C,17.900000*%
%ADD14C,0.100000*%
%ADD15R,2.700000X1.500000*%
%ADD16R,1.500000X2.700000*%
%ADD17R,1.700000X5.000000*%
%ADD18R,1.800000X0.750000*%
%ADD19R,1.800000X1.800000*%
%ADD20O,1.800000X1.800000*%
G04 APERTURE END LIST*
D10*
%TO.C,D2*%
X211333343Y-115645982D02*
G75*
G03*
X211333343Y-115645982I-800000J0D01*
G01*
%TO.C,D3*%
X86909783Y-115571208D02*
G75*
G03*
X86909783Y-115571208I-800000J0D01*
G01*
%TO.C,D4*%
X144320260Y-120173440D02*
G75*
G03*
X144320260Y-120173440I-800000J0D01*
G01*
%TO.C,D1*%
X149062340Y-26316840D02*
G75*
G03*
X149062340Y-26316840I-800000J0D01*
G01*
%TO.C,D5*%
X153608840Y-46114660D02*
G75*
G03*
X153608840Y-46114660I-800000J0D01*
G01*
%TD*%
D11*
%TO.C,J1*%
X126657100Y-82105500D03*
X126657100Y-84645500D03*
X129197100Y-82105500D03*
X129197100Y-84645500D03*
X131737100Y-82105500D03*
X131737100Y-84645500D03*
%TD*%
D12*
%TO.C,BT1*%
X136919200Y-79552800D03*
X158889200Y-79552800D03*
D13*
X147904200Y-79552800D03*
%TD*%
D14*
%TO.C,D2*%
G36*
X210063615Y-113303983D02*
G01*
X208328088Y-115372303D01*
X207179021Y-114408121D01*
X208914548Y-112339801D01*
X210063615Y-113303983D01*
G37*
G36*
X214047047Y-116646479D02*
G01*
X212311520Y-118714799D01*
X211162453Y-117750617D01*
X212897980Y-115682297D01*
X214047047Y-116646479D01*
G37*
%TD*%
%TO.C,D3*%
G36*
X88493554Y-115723640D02*
G01*
X86944898Y-113511929D01*
X88173626Y-112651564D01*
X89722282Y-114863275D01*
X88493554Y-115723640D01*
G37*
G36*
X84233964Y-118706238D02*
G01*
X82685308Y-116494527D01*
X83914036Y-115634162D01*
X85462692Y-117845873D01*
X84233964Y-118706238D01*
G37*
%TD*%
D15*
%TO.C,D4*%
X143662400Y-117558200D03*
X143662400Y-122758200D03*
%TD*%
D16*
%TO.C,D1*%
X145647100Y-26174700D03*
X150847100Y-26174700D03*
%TD*%
D15*
%TO.C,D5*%
X152666700Y-48729900D03*
X152666700Y-43529900D03*
%TD*%
D17*
%TO.C,J2*%
X173957400Y-75844400D03*
X165437400Y-75844400D03*
%TD*%
%TO.C,J4*%
X130840900Y-75850000D03*
X122320900Y-75850000D03*
%TD*%
%TO.C,R1*%
G36*
G01*
X146171600Y-30488600D02*
X144861600Y-30488600D01*
G75*
G02*
X144591600Y-30218600I0J270000D01*
G01*
X144591600Y-29408600D01*
G75*
G02*
X144861600Y-29138600I270000J0D01*
G01*
X146171600Y-29138600D01*
G75*
G02*
X146441600Y-29408600I0J-270000D01*
G01*
X146441600Y-30218600D01*
G75*
G02*
X146171600Y-30488600I-270000J0D01*
G01*
G37*
G36*
G01*
X146171600Y-33288600D02*
X144861600Y-33288600D01*
G75*
G02*
X144591600Y-33018600I0J270000D01*
G01*
X144591600Y-32208600D01*
G75*
G02*
X144861600Y-31938600I270000J0D01*
G01*
X146171600Y-31938600D01*
G75*
G02*
X146441600Y-32208600I0J-270000D01*
G01*
X146441600Y-33018600D01*
G75*
G02*
X146171600Y-33288600I-270000J0D01*
G01*
G37*
%TD*%
%TO.C,R2*%
G36*
G01*
X204912600Y-111602200D02*
X204912600Y-110292200D01*
G75*
G02*
X205182600Y-110022200I270000J0D01*
G01*
X205992600Y-110022200D01*
G75*
G02*
X206262600Y-110292200I0J-270000D01*
G01*
X206262600Y-111602200D01*
G75*
G02*
X205992600Y-111872200I-270000J0D01*
G01*
X205182600Y-111872200D01*
G75*
G02*
X204912600Y-111602200I0J270000D01*
G01*
G37*
G36*
G01*
X202112600Y-111602200D02*
X202112600Y-110292200D01*
G75*
G02*
X202382600Y-110022200I270000J0D01*
G01*
X203192600Y-110022200D01*
G75*
G02*
X203462600Y-110292200I0J-270000D01*
G01*
X203462600Y-111602200D01*
G75*
G02*
X203192600Y-111872200I-270000J0D01*
G01*
X202382600Y-111872200D01*
G75*
G02*
X202112600Y-111602200I0J270000D01*
G01*
G37*
%TD*%
%TO.C,R3*%
G36*
G01*
X92356300Y-110038200D02*
X92356300Y-111348200D01*
G75*
G02*
X92086300Y-111618200I-270000J0D01*
G01*
X91276300Y-111618200D01*
G75*
G02*
X91006300Y-111348200I0J270000D01*
G01*
X91006300Y-110038200D01*
G75*
G02*
X91276300Y-109768200I270000J0D01*
G01*
X92086300Y-109768200D01*
G75*
G02*
X92356300Y-110038200I0J-270000D01*
G01*
G37*
G36*
G01*
X95156300Y-110038200D02*
X95156300Y-111348200D01*
G75*
G02*
X94886300Y-111618200I-270000J0D01*
G01*
X94076300Y-111618200D01*
G75*
G02*
X93806300Y-111348200I0J270000D01*
G01*
X93806300Y-110038200D01*
G75*
G02*
X94076300Y-109768200I270000J0D01*
G01*
X94886300Y-109768200D01*
G75*
G02*
X95156300Y-110038200I0J-270000D01*
G01*
G37*
%TD*%
%TO.C,R4*%
G36*
G01*
X142486700Y-112837600D02*
X143796700Y-112837600D01*
G75*
G02*
X144066700Y-113107600I0J-270000D01*
G01*
X144066700Y-113917600D01*
G75*
G02*
X143796700Y-114187600I-270000J0D01*
G01*
X142486700Y-114187600D01*
G75*
G02*
X142216700Y-113917600I0J270000D01*
G01*
X142216700Y-113107600D01*
G75*
G02*
X142486700Y-112837600I270000J0D01*
G01*
G37*
G36*
G01*
X142486700Y-110037600D02*
X143796700Y-110037600D01*
G75*
G02*
X144066700Y-110307600I0J-270000D01*
G01*
X144066700Y-111117600D01*
G75*
G02*
X143796700Y-111387600I-270000J0D01*
G01*
X142486700Y-111387600D01*
G75*
G02*
X142216700Y-111117600I0J270000D01*
G01*
X142216700Y-110307600D01*
G75*
G02*
X142486700Y-110037600I270000J0D01*
G01*
G37*
%TD*%
%TO.C,R5*%
G36*
G01*
X153359800Y-53189500D02*
X152049800Y-53189500D01*
G75*
G02*
X151779800Y-52919500I0J270000D01*
G01*
X151779800Y-52109500D01*
G75*
G02*
X152049800Y-51839500I270000J0D01*
G01*
X153359800Y-51839500D01*
G75*
G02*
X153629800Y-52109500I0J-270000D01*
G01*
X153629800Y-52919500D01*
G75*
G02*
X153359800Y-53189500I-270000J0D01*
G01*
G37*
G36*
G01*
X153359800Y-55989500D02*
X152049800Y-55989500D01*
G75*
G02*
X151779800Y-55719500I0J270000D01*
G01*
X151779800Y-54909500D01*
G75*
G02*
X152049800Y-54639500I270000J0D01*
G01*
X153359800Y-54639500D01*
G75*
G02*
X153629800Y-54909500I0J-270000D01*
G01*
X153629800Y-55719500D01*
G75*
G02*
X153359800Y-55989500I-270000J0D01*
G01*
G37*
%TD*%
D18*
%TO.C,U1*%
X133558300Y-92240100D03*
X133558300Y-90970100D03*
X133558300Y-89700100D03*
X133558300Y-88430100D03*
X126258300Y-88430100D03*
X126258300Y-89700100D03*
X126258300Y-90970100D03*
X126258300Y-92240100D03*
%TD*%
D19*
%TO.C,J5*%
X138252200Y-97205800D03*
D20*
X135712200Y-97205800D03*
X133172200Y-97205800D03*
%TD*%
M02*
