%TF.GenerationSoftware,KiCad,Pcbnew,5.1.6-c6e7f7d~86~ubuntu18.04.1*%
%TF.CreationDate,2020-06-07T16:50:32-04:00*%
%TF.ProjectId,aerospace_badge,6165726f-7370-4616-9365-5f6261646765,V01*%
%TF.SameCoordinates,Original*%
%TF.FileFunction,Legend,Bot*%
%TF.FilePolarity,Positive*%
%FSLAX46Y46*%
G04 Gerber Fmt 4.6, Leading zero omitted, Abs format (unit mm)*
G04 Created by KiCad (PCBNEW 5.1.6-c6e7f7d~86~ubuntu18.04.1) date 2020-06-07 16:50:32*
%MOMM*%
%LPD*%
G01*
G04 APERTURE LIST*
%ADD10C,0.100000*%
%ADD11C,0.150000*%
%ADD12C,0.500000*%
%ADD13C,0.120000*%
%ADD14C,0.400000*%
G04 APERTURE END LIST*
D10*
X161698980Y-84932802D02*
X160993822Y-86016842D01*
X162572708Y-83974652D02*
X161698980Y-84932802D01*
X166058289Y-82045742D02*
X164767059Y-82512102D01*
X164767059Y-82512102D02*
X163600299Y-83161402D01*
X163600299Y-83161402D02*
X162572708Y-83974652D01*
X162476437Y-84912790D02*
X161916783Y-85610422D01*
X163117742Y-84278721D02*
X162476437Y-84912790D01*
X165418895Y-82858652D02*
X164600856Y-83241576D01*
X166272589Y-82580118D02*
X165418895Y-82858652D01*
X166947229Y-81898712D02*
X166058289Y-82045742D01*
X170553468Y-87828893D02*
X171036642Y-87796336D01*
X170485253Y-87886252D02*
X170553468Y-87828893D01*
X170490942Y-87983920D02*
X170485253Y-87886252D01*
X170599460Y-88461927D02*
X170490942Y-87983920D01*
X170953957Y-85610422D02*
X171246962Y-86109617D01*
X170609792Y-85195460D02*
X170953957Y-85610422D01*
X170063571Y-84753627D02*
X170609792Y-85195460D01*
X164747618Y-87796330D02*
X165417860Y-87796330D01*
X164818415Y-88171502D02*
X164747618Y-87796330D01*
X164828231Y-88547189D02*
X164818415Y-88171502D01*
X166365103Y-90092832D02*
X166586795Y-90466968D01*
X166165115Y-89592087D02*
X166365103Y-90092832D01*
X166010085Y-88981272D02*
X166165115Y-89592087D01*
X169675482Y-87142616D02*
X169874952Y-87071301D01*
X169434669Y-87143146D02*
X169675482Y-87142616D01*
X169201092Y-87079066D02*
X169434669Y-87143146D01*
X165370852Y-92105628D02*
X166928880Y-91328936D01*
X163813324Y-92882326D02*
X165370852Y-92105628D01*
X160036784Y-89834102D02*
X160068964Y-90559752D01*
X160148022Y-88486512D02*
X160036784Y-89834102D01*
X167297333Y-85877072D02*
X167045151Y-85830048D01*
X167511273Y-86012465D02*
X167297333Y-85877072D01*
X167653899Y-86215038D02*
X167511273Y-86012465D01*
X166281373Y-84775342D02*
X166881337Y-84453915D01*
X165736705Y-85223892D02*
X166281373Y-84775342D01*
X165381171Y-85642471D02*
X165736705Y-85223892D01*
X165106253Y-86105492D02*
X165381171Y-85642471D01*
X164914014Y-86610373D02*
X165106253Y-86105492D01*
X164804977Y-87153491D02*
X164914014Y-86610373D01*
X163087262Y-94434684D02*
X163091919Y-94071400D01*
X163092422Y-94828976D02*
X163087262Y-94434684D01*
X163306877Y-95132316D02*
X163092422Y-94828976D01*
X163499115Y-95309050D02*
X163306877Y-95132316D01*
X167297333Y-87030491D02*
X167511273Y-86895099D01*
X167045151Y-87078034D02*
X167297333Y-87030491D01*
X166792971Y-87030491D02*
X167045151Y-87078034D01*
X174956812Y-89029336D02*
X174891700Y-89281000D01*
X174891700Y-88769402D02*
X174956812Y-89029336D01*
X174728921Y-88507919D02*
X174891700Y-88769402D01*
X174518080Y-88305865D02*
X174728921Y-88507919D01*
X171665359Y-82689952D02*
X170864739Y-82324772D01*
X172420289Y-83135812D02*
X171665359Y-82689952D01*
X170611343Y-87613919D02*
X169898206Y-87424265D01*
X171167381Y-87689883D02*
X170611343Y-87613919D01*
X171662440Y-87689883D02*
X171167381Y-87689883D01*
X172898555Y-93928774D02*
X173007592Y-94163904D01*
X172866514Y-93826973D02*
X172898555Y-93928774D01*
X173105260Y-93800102D02*
X172866514Y-93826973D01*
X173391547Y-93750492D02*
X173105260Y-93800102D01*
X161256356Y-92869927D02*
X161625844Y-93591330D01*
X160965420Y-92111835D02*
X161256356Y-92869927D01*
X162563784Y-89433429D02*
X162360179Y-89495958D01*
X162815448Y-89249462D02*
X162563784Y-89433429D01*
X163126540Y-88987979D02*
X162815448Y-89249462D01*
X164511985Y-89770876D02*
X163126540Y-88987979D01*
X169644995Y-90825608D02*
X169748349Y-90698484D01*
X169601071Y-90963583D02*
X169644995Y-90825608D01*
X169619671Y-91074171D02*
X169601071Y-90963583D01*
X169704936Y-91119648D02*
X169619671Y-91074171D01*
X173071949Y-96061832D02*
X173706279Y-95483152D01*
X172384649Y-96570262D02*
X173071949Y-96061832D01*
X160603685Y-89680457D02*
X160635207Y-90510381D01*
X160666730Y-88840199D02*
X160603685Y-89680457D01*
X163829845Y-83718548D02*
X163117742Y-84278721D01*
X164600856Y-83241576D02*
X163829845Y-83718548D01*
X164011099Y-96784012D02*
X164630769Y-97112462D01*
X162879932Y-95981552D02*
X164011099Y-96784012D01*
X173609104Y-93631636D02*
X173391547Y-93750492D01*
X173718660Y-93470405D02*
X173609104Y-93631636D01*
X173767750Y-93280754D02*
X173718660Y-93470405D01*
X160531629Y-92624632D02*
X161120228Y-93878002D01*
X160318879Y-91958002D02*
X160531629Y-92624632D01*
X161450661Y-86360765D02*
X161089441Y-87153996D01*
X161916783Y-85610422D02*
X161450661Y-86360765D01*
X168872959Y-92237393D02*
X164511985Y-89770876D01*
X171847971Y-93921527D02*
X168872959Y-92237393D01*
X171847971Y-94372663D02*
X171847971Y-93921527D01*
X171933238Y-94890976D02*
X171847971Y-94372663D01*
X166018340Y-88385960D02*
X166010085Y-88981272D01*
X166087587Y-87796330D02*
X166018340Y-88385960D01*
X165417860Y-87796330D02*
X166087587Y-87796330D01*
X171607137Y-88131190D02*
X171485695Y-88576124D01*
X171598882Y-87899163D02*
X171607137Y-88131190D01*
X171422148Y-87810279D02*
X171598882Y-87899163D01*
X171036642Y-87796336D02*
X171422148Y-87810279D01*
X174280239Y-94840302D02*
X174786449Y-94139352D01*
X173706279Y-95483152D02*
X174280239Y-94840302D01*
X175442571Y-90673163D02*
X175493215Y-89846856D01*
X175289091Y-91498952D02*
X175442571Y-90673163D01*
X175033295Y-92326291D02*
X175289091Y-91498952D01*
X168363819Y-97816512D02*
X169328589Y-97740912D01*
X167405849Y-97829912D02*
X168363819Y-97816512D01*
X175287025Y-88188559D02*
X175030194Y-87352952D01*
X175441020Y-89019518D02*
X175287025Y-88188559D01*
X175493215Y-89846856D02*
X175441020Y-89019518D01*
X172915583Y-88287254D02*
X172853054Y-87895546D01*
X172126485Y-88677927D02*
X172915583Y-88287254D01*
X171337386Y-89068600D02*
X172126485Y-88677927D01*
X171485695Y-88576124D02*
X171337386Y-89068600D01*
X174308792Y-88225249D02*
X174518080Y-88305865D01*
X174159964Y-88176158D02*
X174308792Y-88225249D01*
X174208538Y-87951882D02*
X174159964Y-88176158D01*
X174246263Y-87635104D02*
X174208538Y-87951882D01*
X167283908Y-91087601D02*
X167717476Y-91325314D01*
X166877215Y-90777544D02*
X167283908Y-91087601D01*
X166586795Y-90466968D02*
X166877215Y-90777544D01*
X174345299Y-84903232D02*
X173766819Y-84247872D01*
X174851849Y-85617602D02*
X174345299Y-84903232D01*
X175279899Y-86385542D02*
X174851849Y-85617602D01*
X175620249Y-87211252D02*
X175279899Y-86385542D01*
X165283179Y-97388422D02*
X165965819Y-97608902D01*
X164630769Y-97112462D02*
X165283179Y-97388422D01*
X175217539Y-93386372D02*
X175572599Y-92557782D01*
X174786449Y-94139352D02*
X175217539Y-93386372D01*
X162684193Y-93834204D02*
X162498157Y-93624916D01*
X162882115Y-93947893D02*
X162684193Y-93834204D01*
X163020606Y-93995436D02*
X162882115Y-93947893D01*
X163091919Y-94071400D02*
X163020606Y-93995436D01*
X164741932Y-87689894D02*
X164804977Y-87153491D01*
X165415794Y-87689894D02*
X164741932Y-87689894D01*
X166083970Y-87627365D02*
X165415794Y-87689894D01*
X169406777Y-91212662D02*
X170490434Y-91776452D01*
X169175782Y-91187341D02*
X169406777Y-91212662D01*
X168968561Y-91272606D02*
X169175782Y-91187341D01*
X167704024Y-86453782D02*
X167653899Y-86215038D01*
X167653899Y-86692526D02*
X167704024Y-86453782D01*
X167511273Y-86895099D02*
X167653899Y-86692526D01*
X173226667Y-86942634D02*
X173538812Y-86856340D01*
X172990505Y-87164841D02*
X173226667Y-86942634D01*
X172857182Y-87492470D02*
X172990505Y-87164841D01*
X172853054Y-87895546D02*
X172857182Y-87492470D01*
X169463091Y-84438919D02*
X170063571Y-84753627D01*
X168826437Y-84251850D02*
X169463091Y-84438919D01*
X168171697Y-84191904D02*
X168826437Y-84251850D01*
X166579545Y-86895099D02*
X166792971Y-87030491D01*
X166436403Y-86692526D02*
X166579545Y-86895099D01*
X166386278Y-86453782D02*
X166436403Y-86692526D01*
X162347260Y-87753944D02*
X162340539Y-87427866D01*
X162161742Y-87897089D02*
X162347260Y-87753944D01*
X161802073Y-88147718D02*
X162161742Y-87897089D01*
X161632575Y-88507387D02*
X161802073Y-88147718D01*
X172453102Y-92873026D02*
X172686682Y-92639449D01*
X172070181Y-92661153D02*
X172453102Y-92873026D01*
X170490434Y-91776452D02*
X172070181Y-92661153D01*
X169864101Y-97070704D02*
X170586020Y-96825242D01*
X169173703Y-97198863D02*
X169864101Y-97070704D01*
X168382019Y-97273793D02*
X169173703Y-97198863D01*
X162643889Y-86595360D02*
X162934291Y-86527680D01*
X162439769Y-86778812D02*
X162643889Y-86595360D01*
X162334348Y-87061482D02*
X162439769Y-86778812D01*
X162340539Y-87427866D02*
X162334348Y-87061482D01*
X160826927Y-87995808D02*
X160666730Y-88840199D01*
X161089441Y-87153996D02*
X160826927Y-87995808D01*
X168041649Y-81849712D02*
X166947229Y-81898712D01*
X171642286Y-90203941D02*
X169704936Y-91119648D01*
X173471631Y-89287718D02*
X171642286Y-90203941D01*
X173686089Y-89560569D02*
X173471631Y-89287718D01*
X173931035Y-89767791D02*
X173686089Y-89560569D01*
X166676199Y-97770912D02*
X167405849Y-97829912D01*
X165965819Y-97608902D02*
X166676199Y-97770912D01*
X160163824Y-91268712D02*
X160318879Y-91958002D01*
X160068964Y-90559752D02*
X160163824Y-91268712D01*
X163653111Y-95389147D02*
X163499115Y-95309050D01*
X163819507Y-95385019D02*
X163653111Y-95389147D01*
X164051536Y-95309571D02*
X163819507Y-95385019D01*
X164273228Y-95145241D02*
X164051536Y-95309571D01*
X163764215Y-87157092D02*
X163729591Y-87521928D01*
X163645358Y-86851686D02*
X163764215Y-87157092D01*
X163392144Y-86633611D02*
X163645358Y-86851686D01*
X175828709Y-91688492D02*
X175985709Y-90792222D01*
X175572599Y-92557782D02*
X175828709Y-91688492D01*
X163025241Y-86530775D02*
X163392144Y-86633611D01*
X162934291Y-86527680D02*
X163025241Y-86530775D01*
X169895108Y-85959741D02*
X169434153Y-85867253D01*
X169022808Y-86957628D02*
X169201092Y-87079066D01*
X168854859Y-86612944D02*
X169022808Y-86957628D01*
X168890001Y-86257411D02*
X168854859Y-86612944D01*
X174675176Y-93157249D02*
X175033295Y-92326291D01*
X174094850Y-94157705D02*
X174675176Y-93157249D01*
X173252009Y-95097698D02*
X174094850Y-94157705D01*
X166123761Y-92978965D02*
X164259274Y-93921543D01*
X167988245Y-91980060D02*
X166123761Y-92978965D01*
X167458563Y-91626076D02*
X167988245Y-91980060D01*
X166928880Y-91328936D02*
X167458563Y-91626076D01*
X163591632Y-92644614D02*
X163813324Y-92882326D01*
X163334283Y-92461162D02*
X163591632Y-92644614D01*
X163049030Y-92407936D02*
X163334283Y-92461162D01*
X162769458Y-92484416D02*
X163049030Y-92407936D01*
X170078619Y-97613382D02*
X170880599Y-97352112D01*
X169328589Y-97740912D02*
X170078619Y-97613382D01*
X167604290Y-97289297D02*
X168382019Y-97273793D01*
X166957301Y-97238137D02*
X167604290Y-97289297D01*
X166095855Y-97050550D02*
X166957301Y-97238137D01*
X171630401Y-83322708D02*
X170747251Y-82888109D01*
X172464458Y-83885463D02*
X171630401Y-83322708D01*
X173253041Y-84578444D02*
X172464458Y-83885463D01*
X166740777Y-87452182D02*
X166083970Y-87627365D01*
X167367096Y-87184497D02*
X166740777Y-87452182D01*
X167934503Y-86831548D02*
X167367096Y-87184497D01*
X174097950Y-85511204D02*
X173253041Y-84578444D01*
X174670525Y-86510625D02*
X174097950Y-85511204D01*
X175030194Y-87352952D02*
X174670525Y-86510625D01*
X165282468Y-96773047D02*
X166095855Y-97050550D01*
X164520759Y-96412346D02*
X165282468Y-96773047D01*
X163814859Y-95974649D02*
X164520759Y-96412346D01*
X173122959Y-83656922D02*
X172420289Y-83135812D01*
X173766819Y-84247872D02*
X173122959Y-83656922D01*
X162070262Y-94269324D02*
X162585993Y-94896678D01*
X161625844Y-93591330D02*
X162070262Y-94269324D01*
X168722051Y-86927656D02*
X168483307Y-86795880D01*
X169208842Y-87177253D02*
X168722051Y-86927656D01*
X169898206Y-87424265D02*
X169208842Y-87177253D01*
X162528648Y-92689056D02*
X162769458Y-92484416D01*
X162305921Y-93123136D02*
X162528648Y-92689056D01*
X162360182Y-93370151D02*
X162305921Y-93123136D01*
X162498157Y-93624916D02*
X162360182Y-93370151D01*
X169093606Y-85979392D02*
X168890001Y-86257411D01*
X169249151Y-85897225D02*
X169093606Y-85979392D01*
X169434153Y-85867253D02*
X169249151Y-85897225D01*
X161909652Y-95004932D02*
X162879932Y-95981552D01*
X161120228Y-93878002D02*
X161909652Y-95004932D01*
X160471936Y-87207762D02*
X160148022Y-88486512D01*
X160993822Y-86016842D02*
X160471936Y-87207762D01*
X171593712Y-87189138D02*
X171662440Y-87689883D01*
X171467619Y-86650669D02*
X171593712Y-87189138D01*
X171246962Y-86109617D02*
X171467619Y-86650669D01*
X170135918Y-86706983D02*
X170175709Y-86479608D01*
X170032567Y-86914723D02*
X170135918Y-86706983D01*
X169874952Y-87071301D02*
X170032567Y-86914723D01*
X170024989Y-82045672D02*
X169136049Y-81898642D01*
X170864739Y-82324772D02*
X170024989Y-82045672D01*
X170609276Y-88847435D02*
X170599460Y-88461927D01*
X170509026Y-89244826D02*
X170609276Y-88847435D01*
X170285784Y-89759007D02*
X170509026Y-89244826D01*
X169748349Y-90698484D02*
X170285784Y-89759007D01*
X166438469Y-86210902D02*
X166386278Y-86453782D01*
X166579545Y-86012465D02*
X166438469Y-86210902D01*
X166788836Y-85879141D02*
X166579545Y-86012465D01*
X173134198Y-92406388D02*
X173320234Y-92443594D01*
X172914572Y-92475116D02*
X173134198Y-92406388D01*
X172686682Y-92639449D02*
X172914572Y-92475116D01*
X168559801Y-91417817D02*
X168968561Y-91272606D01*
X168142772Y-91435386D02*
X168559801Y-91417817D01*
X167717476Y-91325314D02*
X168142772Y-91435386D01*
X170040316Y-86082733D02*
X169895108Y-85959741D01*
X170140054Y-86264115D02*
X170040316Y-86082733D01*
X170175709Y-86479608D02*
X170140054Y-86264115D01*
X164191578Y-88221111D02*
X164828231Y-88547189D01*
X163614871Y-87895549D02*
X164191578Y-88221111D01*
X163729591Y-87521928D02*
X163614871Y-87895549D01*
X173709873Y-92877677D02*
X173767750Y-93280754D01*
X173482498Y-92544879D02*
X173709873Y-92877677D01*
X173320234Y-92443594D02*
X173482498Y-92544879D01*
X164444276Y-94886859D02*
X164273228Y-95145241D01*
X164523341Y-94562329D02*
X164444276Y-94886859D01*
X164419471Y-94241419D02*
X164523341Y-94562329D01*
X164259274Y-93921543D02*
X164419471Y-94241419D01*
X171651739Y-97002372D02*
X172384649Y-96570262D01*
X170880599Y-97352112D02*
X171651739Y-97002372D01*
X168999038Y-82446791D02*
X168040439Y-82402865D01*
X169810356Y-82579083D02*
X168999038Y-82446791D01*
X170747251Y-82888109D02*
X169810356Y-82579083D01*
X167045151Y-85830048D02*
X166788836Y-85879141D01*
X167517475Y-84259611D02*
X168171697Y-84191904D01*
X166881337Y-84453915D02*
X167517475Y-84259611D01*
X168041619Y-81849642D02*
X168041649Y-81849712D01*
X169136049Y-81898642D02*
X168041619Y-81849642D01*
X175860879Y-88078472D02*
X175620249Y-87211252D01*
X176001909Y-88973502D02*
X175860879Y-88078472D01*
X172332166Y-95924521D02*
X173252009Y-95097698D01*
X171418528Y-96464022D02*
X172332166Y-95924521D01*
X170586020Y-96825242D02*
X171418528Y-96464022D01*
X168058526Y-86743696D02*
X167934503Y-86831548D01*
X168251797Y-86733351D02*
X168058526Y-86743696D01*
X168483307Y-86795880D02*
X168251797Y-86733351D01*
X163168902Y-95467702D02*
X163814859Y-95974649D01*
X162585993Y-94896678D02*
X163168902Y-95467702D01*
X176043509Y-89882652D02*
X176001909Y-88973502D01*
X175985709Y-90792222D02*
X176043509Y-89882652D01*
X167082359Y-82447307D02*
X166272589Y-82580118D01*
X168040439Y-82402865D02*
X167082359Y-82447307D01*
X160757164Y-91322734D02*
X160965420Y-92111835D01*
X160635207Y-90510381D02*
X160757164Y-91322734D01*
X172812771Y-95086845D02*
X172637588Y-95222753D01*
X172957983Y-94832596D02*
X172812771Y-95086845D01*
X173025160Y-94495149D02*
X172957983Y-94832596D01*
X173007592Y-94163904D02*
X173025160Y-94495149D01*
X161667199Y-88902712D02*
X161632575Y-88507387D01*
X161919378Y-89260312D02*
X161667199Y-88902712D01*
X162160191Y-89438081D02*
X161919378Y-89260312D01*
X162360179Y-89495958D02*
X162160191Y-89438081D01*
X174160995Y-87304893D02*
X174246263Y-87635104D01*
X173982711Y-87030491D02*
X174160995Y-87304893D01*
X173741382Y-86879597D02*
X173982711Y-87030491D01*
X173538812Y-86856340D02*
X173741382Y-86879597D01*
X172155964Y-95207235D02*
X171933238Y-94890976D01*
X172302723Y-95278033D02*
X172155964Y-95207235D01*
X172465506Y-95285282D02*
X172302723Y-95278033D01*
X172637588Y-95222753D02*
X172465506Y-95285282D01*
X174209054Y-89834971D02*
X173931035Y-89767791D01*
X174487073Y-89762624D02*
X174209054Y-89834971D01*
X174734604Y-89550751D02*
X174487073Y-89762624D01*
X174891700Y-89281000D02*
X174734604Y-89550751D01*
D11*
X152497847Y-88911180D02*
X152497847Y-89625466D01*
X152545466Y-89768323D01*
X152640704Y-89863561D01*
X152783561Y-89911180D01*
X152878800Y-89911180D01*
X151545466Y-89911180D02*
X152021657Y-89911180D01*
X152021657Y-88911180D01*
X150640704Y-89815942D02*
X150688323Y-89863561D01*
X150831180Y-89911180D01*
X150926419Y-89911180D01*
X151069276Y-89863561D01*
X151164514Y-89768323D01*
X151212133Y-89673085D01*
X151259752Y-89482609D01*
X151259752Y-89339752D01*
X151212133Y-89149276D01*
X151164514Y-89054038D01*
X151069276Y-88958800D01*
X150926419Y-88911180D01*
X150831180Y-88911180D01*
X150688323Y-88958800D01*
X150640704Y-89006419D01*
X149926419Y-88911180D02*
X149926419Y-89625466D01*
X149974038Y-89768323D01*
X150069276Y-89863561D01*
X150212133Y-89911180D01*
X150307371Y-89911180D01*
X148974038Y-89911180D02*
X149450228Y-89911180D01*
X149450228Y-88911180D01*
X148069276Y-89815942D02*
X148116895Y-89863561D01*
X148259752Y-89911180D01*
X148354990Y-89911180D01*
X148497847Y-89863561D01*
X148593085Y-89768323D01*
X148640704Y-89673085D01*
X148688323Y-89482609D01*
X148688323Y-89339752D01*
X148640704Y-89149276D01*
X148593085Y-89054038D01*
X148497847Y-88958800D01*
X148354990Y-88911180D01*
X148259752Y-88911180D01*
X148116895Y-88958800D01*
X148069276Y-89006419D01*
X147354990Y-88911180D02*
X147354990Y-89625466D01*
X147402609Y-89768323D01*
X147497847Y-89863561D01*
X147640704Y-89911180D01*
X147735942Y-89911180D01*
X146402609Y-89911180D02*
X146878800Y-89911180D01*
X146878800Y-88911180D01*
X145497847Y-89815942D02*
X145545466Y-89863561D01*
X145688323Y-89911180D01*
X145783561Y-89911180D01*
X145926419Y-89863561D01*
X146021657Y-89768323D01*
X146069276Y-89673085D01*
X146116895Y-89482609D01*
X146116895Y-89339752D01*
X146069276Y-89149276D01*
X146021657Y-89054038D01*
X145926419Y-88958800D01*
X145783561Y-88911180D01*
X145688323Y-88911180D01*
X145545466Y-88958800D01*
X145497847Y-89006419D01*
X144783561Y-88911180D02*
X144783561Y-89625466D01*
X144831180Y-89768323D01*
X144926419Y-89863561D01*
X145069276Y-89911180D01*
X145164514Y-89911180D01*
X143831180Y-89911180D02*
X144307371Y-89911180D01*
X144307371Y-88911180D01*
X142926419Y-89815942D02*
X142974038Y-89863561D01*
X143116895Y-89911180D01*
X143212133Y-89911180D01*
X143354990Y-89863561D01*
X143450228Y-89768323D01*
X143497847Y-89673085D01*
X143545466Y-89482609D01*
X143545466Y-89339752D01*
X143497847Y-89149276D01*
X143450228Y-89054038D01*
X143354990Y-88958800D01*
X143212133Y-88911180D01*
X143116895Y-88911180D01*
X142974038Y-88958800D01*
X142926419Y-89006419D01*
D12*
X148833057Y-140022785D02*
X150404485Y-140022785D01*
X150690200Y-140165642D01*
X150833057Y-140451357D01*
X150833057Y-141022785D01*
X150690200Y-141308500D01*
X148975914Y-140022785D02*
X148833057Y-140308500D01*
X148833057Y-141022785D01*
X148975914Y-141308500D01*
X149261628Y-141451357D01*
X149547342Y-141451357D01*
X149833057Y-141308500D01*
X149975914Y-141022785D01*
X149975914Y-140308500D01*
X150118771Y-140022785D01*
X148975914Y-137451357D02*
X148833057Y-137737071D01*
X148833057Y-138308500D01*
X148975914Y-138594214D01*
X149261628Y-138737071D01*
X150404485Y-138737071D01*
X150690200Y-138594214D01*
X150833057Y-138308500D01*
X150833057Y-137737071D01*
X150690200Y-137451357D01*
X150404485Y-137308500D01*
X150118771Y-137308500D01*
X149833057Y-138737071D01*
X148833057Y-136022785D02*
X150833057Y-136022785D01*
X150261628Y-136022785D02*
X150547342Y-135879928D01*
X150690200Y-135737071D01*
X150833057Y-135451357D01*
X150833057Y-135165642D01*
X148833057Y-133737071D02*
X148975914Y-134022785D01*
X149118771Y-134165642D01*
X149404485Y-134308500D01*
X150261628Y-134308500D01*
X150547342Y-134165642D01*
X150690200Y-134022785D01*
X150833057Y-133737071D01*
X150833057Y-133308500D01*
X150690200Y-133022785D01*
X150547342Y-132879928D01*
X150261628Y-132737071D01*
X149404485Y-132737071D01*
X149118771Y-132879928D01*
X148975914Y-133022785D01*
X148833057Y-133308500D01*
X148833057Y-133737071D01*
X148975914Y-131594214D02*
X148833057Y-131308500D01*
X148833057Y-130737071D01*
X148975914Y-130451357D01*
X149261628Y-130308500D01*
X149404485Y-130308500D01*
X149690200Y-130451357D01*
X149833057Y-130737071D01*
X149833057Y-131165642D01*
X149975914Y-131451357D01*
X150261628Y-131594214D01*
X150404485Y-131594214D01*
X150690200Y-131451357D01*
X150833057Y-131165642D01*
X150833057Y-130737071D01*
X150690200Y-130451357D01*
X150833057Y-129022785D02*
X147833057Y-129022785D01*
X150690200Y-129022785D02*
X150833057Y-128737071D01*
X150833057Y-128165642D01*
X150690200Y-127879928D01*
X150547342Y-127737071D01*
X150261628Y-127594214D01*
X149404485Y-127594214D01*
X149118771Y-127737071D01*
X148975914Y-127879928D01*
X148833057Y-128165642D01*
X148833057Y-128737071D01*
X148975914Y-129022785D01*
X148833057Y-125022785D02*
X150404485Y-125022785D01*
X150690200Y-125165642D01*
X150833057Y-125451357D01*
X150833057Y-126022785D01*
X150690200Y-126308500D01*
X148975914Y-125022785D02*
X148833057Y-125308500D01*
X148833057Y-126022785D01*
X148975914Y-126308500D01*
X149261628Y-126451357D01*
X149547342Y-126451357D01*
X149833057Y-126308500D01*
X149975914Y-126022785D01*
X149975914Y-125308500D01*
X150118771Y-125022785D01*
X148975914Y-122308500D02*
X148833057Y-122594214D01*
X148833057Y-123165642D01*
X148975914Y-123451357D01*
X149118771Y-123594214D01*
X149404485Y-123737071D01*
X150261628Y-123737071D01*
X150547342Y-123594214D01*
X150690200Y-123451357D01*
X150833057Y-123165642D01*
X150833057Y-122594214D01*
X150690200Y-122308500D01*
X148975914Y-119879928D02*
X148833057Y-120165642D01*
X148833057Y-120737071D01*
X148975914Y-121022785D01*
X149261628Y-121165642D01*
X150404485Y-121165642D01*
X150690200Y-121022785D01*
X150833057Y-120737071D01*
X150833057Y-120165642D01*
X150690200Y-119879928D01*
X150404485Y-119737071D01*
X150118771Y-119737071D01*
X149833057Y-121165642D01*
X150833057Y-118737071D02*
X148833057Y-118022785D01*
X150833057Y-117308500D01*
X148833057Y-116165642D02*
X150833057Y-116165642D01*
X151833057Y-116165642D02*
X151690200Y-116308500D01*
X151547342Y-116165642D01*
X151690200Y-116022785D01*
X151833057Y-116165642D01*
X151547342Y-116165642D01*
X148833057Y-114308500D02*
X148975914Y-114594214D01*
X149261628Y-114737071D01*
X151833057Y-114737071D01*
X148833057Y-112737071D02*
X148975914Y-113022785D01*
X149261628Y-113165642D01*
X151833057Y-113165642D01*
X148833057Y-110308500D02*
X150404485Y-110308500D01*
X150690200Y-110451357D01*
X150833057Y-110737071D01*
X150833057Y-111308500D01*
X150690200Y-111594214D01*
X148975914Y-110308500D02*
X148833057Y-110594214D01*
X148833057Y-111308500D01*
X148975914Y-111594214D01*
X149261628Y-111737071D01*
X149547342Y-111737071D01*
X149833057Y-111594214D01*
X149975914Y-111308500D01*
X149975914Y-110594214D01*
X150118771Y-110308500D01*
X150833057Y-107594214D02*
X148404485Y-107594214D01*
X148118771Y-107737071D01*
X147975914Y-107879928D01*
X147833057Y-108165642D01*
X147833057Y-108594214D01*
X147975914Y-108879928D01*
X148975914Y-107594214D02*
X148833057Y-107879928D01*
X148833057Y-108451357D01*
X148975914Y-108737071D01*
X149118771Y-108879928D01*
X149404485Y-109022785D01*
X150261628Y-109022785D01*
X150547342Y-108879928D01*
X150690200Y-108737071D01*
X150833057Y-108451357D01*
X150833057Y-107879928D01*
X150690200Y-107594214D01*
X148975914Y-105022785D02*
X148833057Y-105308500D01*
X148833057Y-105879928D01*
X148975914Y-106165642D01*
X149261628Y-106308500D01*
X150404485Y-106308500D01*
X150690200Y-106165642D01*
X150833057Y-105879928D01*
X150833057Y-105308500D01*
X150690200Y-105022785D01*
X150404485Y-104879928D01*
X150118771Y-104879928D01*
X149833057Y-106308500D01*
X149118771Y-103594214D02*
X148975914Y-103451357D01*
X148833057Y-103594214D01*
X148975914Y-103737071D01*
X149118771Y-103594214D01*
X148833057Y-103594214D01*
X148833057Y-101737071D02*
X148975914Y-102022785D01*
X149118771Y-102165642D01*
X149404485Y-102308500D01*
X150261628Y-102308500D01*
X150547342Y-102165642D01*
X150690200Y-102022785D01*
X150833057Y-101737071D01*
X150833057Y-101308500D01*
X150690200Y-101022785D01*
X150547342Y-100879928D01*
X150261628Y-100737071D01*
X149404485Y-100737071D01*
X149118771Y-100879928D01*
X148975914Y-101022785D01*
X148833057Y-101308500D01*
X148833057Y-101737071D01*
X148833057Y-99451357D02*
X150833057Y-99451357D01*
X150261628Y-99451357D02*
X150547342Y-99308500D01*
X150690200Y-99165642D01*
X150833057Y-98879928D01*
X150833057Y-98594214D01*
X150833057Y-96308500D02*
X148404485Y-96308500D01*
X148118771Y-96451357D01*
X147975914Y-96594214D01*
X147833057Y-96879928D01*
X147833057Y-97308500D01*
X147975914Y-97594214D01*
X148975914Y-96308500D02*
X148833057Y-96594214D01*
X148833057Y-97165642D01*
X148975914Y-97451357D01*
X149118771Y-97594214D01*
X149404485Y-97737071D01*
X150261628Y-97737071D01*
X150547342Y-97594214D01*
X150690200Y-97451357D01*
X150833057Y-97165642D01*
X150833057Y-96594214D01*
X150690200Y-96308500D01*
D11*
X133304019Y-83983390D02*
X134304019Y-83983390D01*
X133351638Y-83554819D02*
X133304019Y-83411961D01*
X133304019Y-83173866D01*
X133351638Y-83078628D01*
X133399257Y-83031009D01*
X133494495Y-82983390D01*
X133589733Y-82983390D01*
X133684971Y-83031009D01*
X133732590Y-83078628D01*
X133780209Y-83173866D01*
X133827828Y-83364342D01*
X133875447Y-83459580D01*
X133923066Y-83507200D01*
X134018304Y-83554819D01*
X134113542Y-83554819D01*
X134208780Y-83507200D01*
X134256400Y-83459580D01*
X134304019Y-83364342D01*
X134304019Y-83126247D01*
X134256400Y-82983390D01*
X133304019Y-82554819D02*
X134304019Y-82554819D01*
X134304019Y-82173866D01*
X134256400Y-82078628D01*
X134208780Y-82031009D01*
X134113542Y-81983390D01*
X133970685Y-81983390D01*
X133875447Y-82031009D01*
X133827828Y-82078628D01*
X133780209Y-82173866D01*
X133780209Y-82554819D01*
X133723000Y-95034004D02*
X133770619Y-95129242D01*
X133770619Y-95272100D01*
X133723000Y-95414957D01*
X133627761Y-95510195D01*
X133532523Y-95557814D01*
X133342047Y-95605433D01*
X133199190Y-95605433D01*
X133008714Y-95557814D01*
X132913476Y-95510195D01*
X132818238Y-95414957D01*
X132770619Y-95272100D01*
X132770619Y-95176861D01*
X132818238Y-95034004D01*
X132865857Y-94986385D01*
X133199190Y-94986385D01*
X133199190Y-95176861D01*
X132770619Y-94557814D02*
X133770619Y-94557814D01*
X132770619Y-93986385D01*
X133770619Y-93986385D01*
X132770619Y-93510195D02*
X133770619Y-93510195D01*
X133770619Y-93272100D01*
X133723000Y-93129242D01*
X133627761Y-93034004D01*
X133532523Y-92986385D01*
X133342047Y-92938766D01*
X133199190Y-92938766D01*
X133008714Y-92986385D01*
X132913476Y-93034004D01*
X132818238Y-93129242D01*
X132770619Y-93272100D01*
X132770619Y-93510195D01*
X135307438Y-95524485D02*
X135259819Y-95381628D01*
X135259819Y-95143533D01*
X135307438Y-95048295D01*
X135355057Y-95000676D01*
X135450295Y-94953057D01*
X135545533Y-94953057D01*
X135640771Y-95000676D01*
X135688390Y-95048295D01*
X135736009Y-95143533D01*
X135783628Y-95334009D01*
X135831247Y-95429247D01*
X135878866Y-95476866D01*
X135974104Y-95524485D01*
X136069342Y-95524485D01*
X136164580Y-95476866D01*
X136212200Y-95429247D01*
X136259819Y-95334009D01*
X136259819Y-95095914D01*
X136212200Y-94953057D01*
X135259819Y-94524485D02*
X136259819Y-94524485D01*
X136259819Y-94286390D01*
X136212200Y-94143533D01*
X136116961Y-94048295D01*
X136021723Y-94000676D01*
X135831247Y-93953057D01*
X135688390Y-93953057D01*
X135497914Y-94000676D01*
X135402676Y-94048295D01*
X135307438Y-94143533D01*
X135259819Y-94286390D01*
X135259819Y-94524485D01*
X135545533Y-93572104D02*
X135545533Y-93095914D01*
X135259819Y-93667342D02*
X136259819Y-93334009D01*
X135259819Y-93000676D01*
X137847438Y-95500676D02*
X137799819Y-95357819D01*
X137799819Y-95119723D01*
X137847438Y-95024485D01*
X137895057Y-94976866D01*
X137990295Y-94929247D01*
X138085533Y-94929247D01*
X138180771Y-94976866D01*
X138228390Y-95024485D01*
X138276009Y-95119723D01*
X138323628Y-95310200D01*
X138371247Y-95405438D01*
X138418866Y-95453057D01*
X138514104Y-95500676D01*
X138609342Y-95500676D01*
X138704580Y-95453057D01*
X138752200Y-95405438D01*
X138799819Y-95310200D01*
X138799819Y-95072104D01*
X138752200Y-94929247D01*
X137895057Y-93929247D02*
X137847438Y-93976866D01*
X137799819Y-94119723D01*
X137799819Y-94214961D01*
X137847438Y-94357819D01*
X137942676Y-94453057D01*
X138037914Y-94500676D01*
X138228390Y-94548295D01*
X138371247Y-94548295D01*
X138561723Y-94500676D01*
X138656961Y-94453057D01*
X138752200Y-94357819D01*
X138799819Y-94214961D01*
X138799819Y-94119723D01*
X138752200Y-93976866D01*
X138704580Y-93929247D01*
X137799819Y-93024485D02*
X137799819Y-93500676D01*
X138799819Y-93500676D01*
D12*
%TO.C,J1*%
X132763863Y-85694520D02*
G75*
G03*
X132763863Y-85694520I-262223J0D01*
G01*
D13*
%TO.C,BT1*%
X156604200Y-87092800D02*
X153104200Y-87092800D01*
X158684200Y-76552800D02*
X158684200Y-75922800D01*
X158684200Y-85012800D02*
X158684200Y-82552800D01*
X137124200Y-76552800D02*
X137124200Y-75922800D01*
X137124200Y-85012800D02*
X137124200Y-82552800D01*
X158684200Y-75922800D02*
X157244200Y-71972800D01*
X156604200Y-87092800D02*
X158684200Y-85012800D01*
X142704200Y-87092800D02*
X139204200Y-87092800D01*
X139204200Y-87092800D02*
X137124200Y-85012800D01*
X137124200Y-75922800D02*
X138564200Y-71972800D01*
X157229444Y-71964631D02*
G75*
G03*
X153904200Y-71002800I-2015244J-738169D01*
G01*
X141900846Y-70986270D02*
G75*
G03*
X138564200Y-71972800I-1306646J-1716530D01*
G01*
D14*
%TO.C,D2*%
X206959076Y-114422148D02*
G75*
G03*
X206959076Y-114422148I-199999J0D01*
G01*
%TO.C,D3*%
X88468767Y-112242299D02*
G75*
G03*
X88468767Y-112242299I-200000J0D01*
G01*
%TO.C,D4*%
X142231720Y-116495520D02*
G75*
G03*
X142231720Y-116495520I-200000J0D01*
G01*
%TO.C,D1*%
X144784420Y-27805380D02*
G75*
G03*
X144784420Y-27805380I-200000J0D01*
G01*
%TO.C,D5*%
X154497380Y-49792580D02*
G75*
G03*
X154497380Y-49792580I-200000J0D01*
G01*
D13*
%TO.C,R1*%
X144606600Y-31815664D02*
X144606600Y-30611536D01*
X146426600Y-31815664D02*
X146426600Y-30611536D01*
%TO.C,R2*%
X203585536Y-110037200D02*
X204789664Y-110037200D01*
X203585536Y-111857200D02*
X204789664Y-111857200D01*
%TO.C,R3*%
X93683364Y-111603200D02*
X92479236Y-111603200D01*
X93683364Y-109783200D02*
X92479236Y-109783200D01*
%TO.C,R4*%
X144051700Y-111510536D02*
X144051700Y-112714664D01*
X142231700Y-111510536D02*
X142231700Y-112714664D01*
%TO.C,R5*%
X151794800Y-54516564D02*
X151794800Y-53312436D01*
X153614800Y-54516564D02*
X153614800Y-53312436D01*
D11*
%TO.C,U1*%
X127158300Y-92885100D02*
X125408300Y-92885100D01*
X127158300Y-87580100D02*
X132658300Y-87580100D01*
X127158300Y-93090100D02*
X132658300Y-93090100D01*
X127158300Y-87580100D02*
X127158300Y-87880100D01*
X132658300Y-87580100D02*
X132658300Y-87880100D01*
X132658300Y-93090100D02*
X132658300Y-92790100D01*
X127158300Y-93090100D02*
X127158300Y-92885100D01*
D13*
%TO.C,J5*%
X131842200Y-98535800D02*
X131842200Y-95875800D01*
X136982200Y-98535800D02*
X131842200Y-98535800D01*
X136982200Y-95875800D02*
X131842200Y-95875800D01*
X136982200Y-98535800D02*
X136982200Y-95875800D01*
X138252200Y-98535800D02*
X139582200Y-98535800D01*
X139582200Y-98535800D02*
X139582200Y-97205800D01*
%TO.C,J1*%
D11*
X124946659Y-83482773D02*
X124232373Y-83482773D01*
X124089516Y-83530392D01*
X123994278Y-83625630D01*
X123946659Y-83768487D01*
X123946659Y-83863725D01*
X123946659Y-82482773D02*
X123946659Y-83054201D01*
X123946659Y-82768487D02*
X124946659Y-82768487D01*
X124803801Y-82863725D01*
X124708563Y-82958963D01*
X124660944Y-83054201D01*
%TO.C,BT1*%
X148728014Y-91114571D02*
X148585157Y-91162190D01*
X148537538Y-91209809D01*
X148489919Y-91305047D01*
X148489919Y-91447904D01*
X148537538Y-91543142D01*
X148585157Y-91590761D01*
X148680395Y-91638380D01*
X149061347Y-91638380D01*
X149061347Y-90638380D01*
X148728014Y-90638380D01*
X148632776Y-90686000D01*
X148585157Y-90733619D01*
X148537538Y-90828857D01*
X148537538Y-90924095D01*
X148585157Y-91019333D01*
X148632776Y-91066952D01*
X148728014Y-91114571D01*
X149061347Y-91114571D01*
X148204204Y-90638380D02*
X147632776Y-90638380D01*
X147918490Y-91638380D02*
X147918490Y-90638380D01*
X146775633Y-91638380D02*
X147347061Y-91638380D01*
X147061347Y-91638380D02*
X147061347Y-90638380D01*
X147156585Y-90781238D01*
X147251823Y-90876476D01*
X147347061Y-90924095D01*
%TO.C,D2*%
X208263156Y-112475953D02*
X207497111Y-111833165D01*
X207344067Y-112015557D01*
X207288718Y-112155600D01*
X207300457Y-112289775D01*
X207342805Y-112387471D01*
X207458109Y-112546385D01*
X207567544Y-112638212D01*
X207744066Y-112724169D01*
X207847632Y-112748909D01*
X207981806Y-112737170D01*
X208110111Y-112658344D01*
X208263156Y-112475953D01*
X206957889Y-112623949D02*
X206890802Y-112629818D01*
X206793106Y-112672166D01*
X206640061Y-112854558D01*
X206615322Y-112958123D01*
X206621191Y-113025210D01*
X206663539Y-113122907D01*
X206736495Y-113184124D01*
X206876539Y-113239473D01*
X207681586Y-113169040D01*
X207283670Y-113643258D01*
%TO.C,D3*%
X90122442Y-113991121D02*
X90941594Y-113417544D01*
X90805028Y-113222508D01*
X90684081Y-113132800D01*
X90551440Y-113109411D01*
X90446113Y-113125031D01*
X90262771Y-113195276D01*
X90145749Y-113277215D01*
X90017033Y-113425475D01*
X89966332Y-113519109D01*
X89942944Y-113651750D01*
X89985876Y-113796085D01*
X90122442Y-113991121D01*
X90422644Y-112676407D02*
X90067573Y-112169313D01*
X89946707Y-112660869D01*
X89864767Y-112543847D01*
X89771134Y-112493146D01*
X89704813Y-112481452D01*
X89599486Y-112497071D01*
X89404449Y-112633636D01*
X89353748Y-112727270D01*
X89342054Y-112793590D01*
X89357673Y-112898918D01*
X89521552Y-113132961D01*
X89615186Y-113183663D01*
X89681506Y-113195357D01*
%TO.C,D4*%
X144578295Y-116257020D02*
X144578295Y-115257020D01*
X144340200Y-115257020D01*
X144197342Y-115304640D01*
X144102104Y-115399878D01*
X144054485Y-115495116D01*
X144006866Y-115685592D01*
X144006866Y-115828449D01*
X144054485Y-116018925D01*
X144102104Y-116114163D01*
X144197342Y-116209401D01*
X144340200Y-116257020D01*
X144578295Y-116257020D01*
X143149723Y-115590354D02*
X143149723Y-116257020D01*
X143387819Y-115209401D02*
X143625914Y-115923687D01*
X143006866Y-115923687D01*
%TO.C,D1*%
X148769295Y-29243280D02*
X148769295Y-28243280D01*
X148531200Y-28243280D01*
X148388342Y-28290900D01*
X148293104Y-28386138D01*
X148245485Y-28481376D01*
X148197866Y-28671852D01*
X148197866Y-28814709D01*
X148245485Y-29005185D01*
X148293104Y-29100423D01*
X148388342Y-29195661D01*
X148531200Y-29243280D01*
X148769295Y-29243280D01*
X147245485Y-29243280D02*
X147816914Y-29243280D01*
X147531200Y-29243280D02*
X147531200Y-28243280D01*
X147626438Y-28386138D01*
X147721676Y-28481376D01*
X147816914Y-28528995D01*
%TO.C,D5*%
X153404795Y-51099980D02*
X153404795Y-50099980D01*
X153166700Y-50099980D01*
X153023842Y-50147600D01*
X152928604Y-50242838D01*
X152880985Y-50338076D01*
X152833366Y-50528552D01*
X152833366Y-50671409D01*
X152880985Y-50861885D01*
X152928604Y-50957123D01*
X153023842Y-51052361D01*
X153166700Y-51099980D01*
X153404795Y-51099980D01*
X151928604Y-50099980D02*
X152404795Y-50099980D01*
X152452414Y-50576171D01*
X152404795Y-50528552D01*
X152309557Y-50480933D01*
X152071461Y-50480933D01*
X151976223Y-50528552D01*
X151928604Y-50576171D01*
X151880985Y-50671409D01*
X151880985Y-50909504D01*
X151928604Y-51004742D01*
X151976223Y-51052361D01*
X152071461Y-51099980D01*
X152309557Y-51099980D01*
X152404795Y-51052361D01*
X152452414Y-51004742D01*
%TO.C,J2*%
X170386333Y-75525380D02*
X170386333Y-76239666D01*
X170433952Y-76382523D01*
X170529190Y-76477761D01*
X170672047Y-76525380D01*
X170767285Y-76525380D01*
X169957761Y-75620619D02*
X169910142Y-75573000D01*
X169814904Y-75525380D01*
X169576809Y-75525380D01*
X169481571Y-75573000D01*
X169433952Y-75620619D01*
X169386333Y-75715857D01*
X169386333Y-75811095D01*
X169433952Y-75953952D01*
X170005380Y-76525380D01*
X169386333Y-76525380D01*
%TO.C,J4*%
X126799933Y-75334880D02*
X126799933Y-76049166D01*
X126847552Y-76192023D01*
X126942790Y-76287261D01*
X127085647Y-76334880D01*
X127180885Y-76334880D01*
X125895171Y-75668214D02*
X125895171Y-76334880D01*
X126133266Y-75287261D02*
X126371361Y-76001547D01*
X125752314Y-76001547D01*
%TO.C,R1*%
X147788980Y-31046933D02*
X147312790Y-30713600D01*
X147788980Y-30475504D02*
X146788980Y-30475504D01*
X146788980Y-30856457D01*
X146836600Y-30951695D01*
X146884219Y-30999314D01*
X146979457Y-31046933D01*
X147122314Y-31046933D01*
X147217552Y-30999314D01*
X147265171Y-30951695D01*
X147312790Y-30856457D01*
X147312790Y-30475504D01*
X147788980Y-31999314D02*
X147788980Y-31427885D01*
X147788980Y-31713600D02*
X146788980Y-31713600D01*
X146931838Y-31618361D01*
X147027076Y-31523123D01*
X147074695Y-31427885D01*
%TO.C,R2*%
X204354266Y-113219580D02*
X204687600Y-112743390D01*
X204925695Y-113219580D02*
X204925695Y-112219580D01*
X204544742Y-112219580D01*
X204449504Y-112267200D01*
X204401885Y-112314819D01*
X204354266Y-112410057D01*
X204354266Y-112552914D01*
X204401885Y-112648152D01*
X204449504Y-112695771D01*
X204544742Y-112743390D01*
X204925695Y-112743390D01*
X203973314Y-112314819D02*
X203925695Y-112267200D01*
X203830457Y-112219580D01*
X203592361Y-112219580D01*
X203497123Y-112267200D01*
X203449504Y-112314819D01*
X203401885Y-112410057D01*
X203401885Y-112505295D01*
X203449504Y-112648152D01*
X204020933Y-113219580D01*
X203401885Y-113219580D01*
%TO.C,R3*%
X93247966Y-109325580D02*
X93581300Y-108849390D01*
X93819395Y-109325580D02*
X93819395Y-108325580D01*
X93438442Y-108325580D01*
X93343204Y-108373200D01*
X93295585Y-108420819D01*
X93247966Y-108516057D01*
X93247966Y-108658914D01*
X93295585Y-108754152D01*
X93343204Y-108801771D01*
X93438442Y-108849390D01*
X93819395Y-108849390D01*
X92914633Y-108325580D02*
X92295585Y-108325580D01*
X92628919Y-108706533D01*
X92486061Y-108706533D01*
X92390823Y-108754152D01*
X92343204Y-108801771D01*
X92295585Y-108897009D01*
X92295585Y-109135104D01*
X92343204Y-109230342D01*
X92390823Y-109277961D01*
X92486061Y-109325580D01*
X92771776Y-109325580D01*
X92867014Y-109277961D01*
X92914633Y-109230342D01*
%TO.C,R4*%
X145727680Y-112152133D02*
X145251490Y-111818800D01*
X145727680Y-111580704D02*
X144727680Y-111580704D01*
X144727680Y-111961657D01*
X144775300Y-112056895D01*
X144822919Y-112104514D01*
X144918157Y-112152133D01*
X145061014Y-112152133D01*
X145156252Y-112104514D01*
X145203871Y-112056895D01*
X145251490Y-111961657D01*
X145251490Y-111580704D01*
X145061014Y-113009276D02*
X145727680Y-113009276D01*
X144680061Y-112771180D02*
X145394347Y-112533085D01*
X145394347Y-113152133D01*
%TO.C,R5*%
X151226780Y-53719433D02*
X150750590Y-53386100D01*
X151226780Y-53148004D02*
X150226780Y-53148004D01*
X150226780Y-53528957D01*
X150274400Y-53624195D01*
X150322019Y-53671814D01*
X150417257Y-53719433D01*
X150560114Y-53719433D01*
X150655352Y-53671814D01*
X150702971Y-53624195D01*
X150750590Y-53528957D01*
X150750590Y-53148004D01*
X150226780Y-54624195D02*
X150226780Y-54148004D01*
X150702971Y-54100385D01*
X150655352Y-54148004D01*
X150607733Y-54243242D01*
X150607733Y-54481338D01*
X150655352Y-54576576D01*
X150702971Y-54624195D01*
X150798209Y-54671814D01*
X151036304Y-54671814D01*
X151131542Y-54624195D01*
X151179161Y-54576576D01*
X151226780Y-54481338D01*
X151226780Y-54243242D01*
X151179161Y-54148004D01*
X151131542Y-54100385D01*
%TO.C,U1*%
X127584104Y-93470480D02*
X127584104Y-94280004D01*
X127536485Y-94375242D01*
X127488866Y-94422861D01*
X127393628Y-94470480D01*
X127203152Y-94470480D01*
X127107914Y-94422861D01*
X127060295Y-94375242D01*
X127012676Y-94280004D01*
X127012676Y-93470480D01*
X126012676Y-94470480D02*
X126584104Y-94470480D01*
X126298390Y-94470480D02*
X126298390Y-93470480D01*
X126393628Y-93613338D01*
X126488866Y-93708576D01*
X126584104Y-93756195D01*
%TO.C,J5*%
X141129819Y-97539133D02*
X140415533Y-97539133D01*
X140272676Y-97586752D01*
X140177438Y-97681990D01*
X140129819Y-97824847D01*
X140129819Y-97920085D01*
X141129819Y-96586752D02*
X141129819Y-97062942D01*
X140653628Y-97110561D01*
X140701247Y-97062942D01*
X140748866Y-96967704D01*
X140748866Y-96729609D01*
X140701247Y-96634371D01*
X140653628Y-96586752D01*
X140558390Y-96539133D01*
X140320295Y-96539133D01*
X140225057Y-96586752D01*
X140177438Y-96634371D01*
X140129819Y-96729609D01*
X140129819Y-96967704D01*
X140177438Y-97062942D01*
X140225057Y-97110561D01*
%TD*%
M02*
