%TF.GenerationSoftware,KiCad,Pcbnew,5.1.6-c6e7f7d~86~ubuntu18.04.1*%
%TF.CreationDate,2020-06-23T08:01:43-04:00*%
%TF.ProjectId,aerospace_badge,6165726f-7370-4616-9365-5f6261646765,V02*%
%TF.SameCoordinates,Original*%
%TF.FileFunction,Copper,L2,Bot*%
%TF.FilePolarity,Positive*%
%FSLAX46Y46*%
G04 Gerber Fmt 4.6, Leading zero omitted, Abs format (unit mm)*
G04 Created by KiCad (PCBNEW 5.1.6-c6e7f7d~86~ubuntu18.04.1) date 2020-06-23 08:01:43*
%MOMM*%
%LPD*%
G01*
G04 APERTURE LIST*
%TA.AperFunction,NonConductor*%
%ADD10C,0.300000*%
%TD*%
%TA.AperFunction,SMDPad,CuDef*%
%ADD11C,1.524000*%
%TD*%
%TA.AperFunction,ComponentPad*%
%ADD12R,2.500000X2.500000*%
%TD*%
%TA.AperFunction,SMDPad,CuDef*%
%ADD13R,2.500000X1.200000*%
%TD*%
%TA.AperFunction,SMDPad,CuDef*%
%ADD14R,1.400000X2.600000*%
%TD*%
%TA.AperFunction,SMDPad,CuDef*%
%ADD15C,0.100000*%
%TD*%
%TA.AperFunction,SMDPad,CuDef*%
%ADD16R,1.270000X5.080000*%
%TD*%
%TA.AperFunction,SMDPad,CuDef*%
%ADD17C,17.800000*%
%TD*%
%TA.AperFunction,SMDPad,CuDef*%
%ADD18R,1.600000X4.900000*%
%TD*%
%TA.AperFunction,SMDPad,CuDef*%
%ADD19R,1.600000X5.600000*%
%TD*%
%TA.AperFunction,SMDPad,CuDef*%
%ADD20R,1.700000X0.650000*%
%TD*%
%TA.AperFunction,SMDPad,CuDef*%
%ADD21R,1.250000X1.080000*%
%TD*%
%TA.AperFunction,ComponentPad*%
%ADD22R,1.700000X1.700000*%
%TD*%
%TA.AperFunction,ComponentPad*%
%ADD23O,1.700000X1.700000*%
%TD*%
%TA.AperFunction,ViaPad*%
%ADD24C,0.800000*%
%TD*%
%TA.AperFunction,Conductor*%
%ADD25C,0.254000*%
%TD*%
%TA.AperFunction,Conductor*%
%ADD26C,0.250000*%
%TD*%
%TA.AperFunction,Conductor*%
%ADD27C,0.300000*%
%TD*%
G04 APERTURE END LIST*
D10*
X130601814Y-158009471D02*
X130244671Y-159009471D01*
X129887528Y-158009471D01*
X129030385Y-157509471D02*
X128887528Y-157509471D01*
X128744671Y-157580900D01*
X128673242Y-157652328D01*
X128601814Y-157795185D01*
X128530385Y-158080900D01*
X128530385Y-158438042D01*
X128601814Y-158723757D01*
X128673242Y-158866614D01*
X128744671Y-158938042D01*
X128887528Y-159009471D01*
X129030385Y-159009471D01*
X129173242Y-158938042D01*
X129244671Y-158866614D01*
X129316100Y-158723757D01*
X129387528Y-158438042D01*
X129387528Y-158080900D01*
X129316100Y-157795185D01*
X129244671Y-157652328D01*
X129173242Y-157580900D01*
X129030385Y-157509471D01*
X127958957Y-157652328D02*
X127887528Y-157580900D01*
X127744671Y-157509471D01*
X127387528Y-157509471D01*
X127244671Y-157580900D01*
X127173242Y-157652328D01*
X127101814Y-157795185D01*
X127101814Y-157938042D01*
X127173242Y-158152328D01*
X128030385Y-159009471D01*
X127101814Y-159009471D01*
D11*
%TO.P,J3,1*%
%TO.N,Net-(J3-Pad1)*%
X122269093Y-92240696D03*
%TO.P,J3,2*%
%TO.N,VCC*%
X120636413Y-90294943D03*
%TO.P,J3,3*%
%TO.N,Net-(J3-Pad3)*%
X120323340Y-93873376D03*
%TO.P,J3,4*%
%TO.N,Net-(J3-Pad4)*%
X118690660Y-91927624D03*
%TO.P,J3,5*%
%TO.N,Net-(J3-Pad5)*%
X118377587Y-95506057D03*
%TO.P,J3,6*%
%TO.N,GND*%
X116744907Y-93560304D03*
%TD*%
D12*
%TO.P,J6,*%
%TO.N,*%
X151384000Y-131279900D03*
%TO.P,J6,1*%
%TO.N,Net-(J2-Pad1)*%
X151384000Y-123779900D03*
%TD*%
%TO.P,J7,*%
%TO.N,*%
X151384000Y-102126400D03*
%TO.P,J7,1*%
%TO.N,Net-(J2-Pad1)*%
X151384000Y-109626400D03*
%TD*%
D13*
%TO.P,SW1,1*%
%TO.N,Net-(SW1-Pad1)*%
X145110200Y-90961200D03*
%TO.P,SW1,2*%
%TO.N,Net-(BT1-Pad1)*%
X145110200Y-93461200D03*
%TO.P,SW1,3*%
%TO.N,VCC*%
X145110200Y-95961200D03*
%TO.P,SW1,1*%
%TO.N,Net-(SW1-Pad1)*%
X139610200Y-90961200D03*
%TO.P,SW1,2*%
%TO.N,Net-(BT1-Pad1)*%
X139610200Y-93461200D03*
%TO.P,SW1,3*%
%TO.N,VCC*%
X139610200Y-95961200D03*
%TD*%
D14*
%TO.P,D1,1*%
%TO.N,GND*%
X150986800Y-26720800D03*
%TO.P,D1,2*%
%TO.N,Net-(D1-Pad2)*%
X145786800Y-26720800D03*
%TD*%
%TA.AperFunction,SMDPad,CuDef*%
D15*
%TO.P,D3,1*%
%TO.N,GND*%
G36*
X84220843Y-118623901D02*
G01*
X82729544Y-116494106D01*
X83876357Y-115691099D01*
X85367656Y-117820894D01*
X84220843Y-118623901D01*
G37*
%TD.AperFunction*%
%TA.AperFunction,SMDPad,CuDef*%
%TO.P,D3,2*%
%TO.N,Net-(D3-Pad2)*%
G36*
X88480433Y-115641303D02*
G01*
X86989134Y-113511508D01*
X88135947Y-112708501D01*
X89627246Y-114838296D01*
X88480433Y-115641303D01*
G37*
%TD.AperFunction*%
%TD*%
%TA.AperFunction,SMDPad,CuDef*%
%TO.P,D2,2*%
%TO.N,Net-(D2-Pad2)*%
G36*
X210098539Y-113314746D02*
G01*
X208427291Y-115306461D01*
X207354829Y-114406558D01*
X209026077Y-112414843D01*
X210098539Y-113314746D01*
G37*
%TD.AperFunction*%
%TA.AperFunction,SMDPad,CuDef*%
%TO.P,D2,1*%
%TO.N,GND*%
G36*
X214081971Y-116657242D02*
G01*
X212410723Y-118648957D01*
X211338261Y-117749054D01*
X213009509Y-115757339D01*
X214081971Y-116657242D01*
G37*
%TD.AperFunction*%
%TD*%
D16*
%TO.P,BT1,1*%
%TO.N,Net-(BT1-Pad1)*%
X137617700Y-78486000D03*
X159587700Y-78486000D03*
D17*
%TO.P,BT1,2*%
%TO.N,GND*%
X148602700Y-78486000D03*
%TD*%
D18*
%TO.P,J2,2*%
%TO.N,GND*%
X165589800Y-75951600D03*
D19*
%TO.P,J2,1*%
%TO.N,Net-(J2-Pad1)*%
X169849800Y-76301600D03*
D18*
%TO.P,J2,2*%
%TO.N,GND*%
X174109800Y-75951600D03*
%TD*%
%TO.P,R1,2*%
%TO.N,Net-(D1-Pad2)*%
%TA.AperFunction,SMDPad,CuDef*%
G36*
G01*
X146141600Y-30438600D02*
X144891600Y-30438600D01*
G75*
G02*
X144641600Y-30188600I0J250000D01*
G01*
X144641600Y-29438600D01*
G75*
G02*
X144891600Y-29188600I250000J0D01*
G01*
X146141600Y-29188600D01*
G75*
G02*
X146391600Y-29438600I0J-250000D01*
G01*
X146391600Y-30188600D01*
G75*
G02*
X146141600Y-30438600I-250000J0D01*
G01*
G37*
%TD.AperFunction*%
%TO.P,R1,1*%
%TO.N,Net-(J3-Pad1)*%
%TA.AperFunction,SMDPad,CuDef*%
G36*
G01*
X146141600Y-33238600D02*
X144891600Y-33238600D01*
G75*
G02*
X144641600Y-32988600I0J250000D01*
G01*
X144641600Y-32238600D01*
G75*
G02*
X144891600Y-31988600I250000J0D01*
G01*
X146141600Y-31988600D01*
G75*
G02*
X146391600Y-32238600I0J-250000D01*
G01*
X146391600Y-32988600D01*
G75*
G02*
X146141600Y-33238600I-250000J0D01*
G01*
G37*
%TD.AperFunction*%
%TD*%
%TO.P,R2,2*%
%TO.N,Net-(D2-Pad2)*%
%TA.AperFunction,SMDPad,CuDef*%
G36*
G01*
X205024580Y-111684636D02*
X205828065Y-110727080D01*
G75*
G02*
X206180273Y-110696266I191511J-160697D01*
G01*
X206754806Y-111178357D01*
G75*
G02*
X206785620Y-111530565I-160697J-191511D01*
G01*
X205982135Y-112488120D01*
G75*
G02*
X205629927Y-112518934I-191511J160697D01*
G01*
X205055394Y-112036843D01*
G75*
G02*
X205024580Y-111684635I160697J191511D01*
G01*
G37*
%TD.AperFunction*%
%TO.P,R2,1*%
%TO.N,Net-(R2-Pad1)*%
%TA.AperFunction,SMDPad,CuDef*%
G36*
G01*
X202879656Y-109884830D02*
X203683141Y-108927274D01*
G75*
G02*
X204035349Y-108896460I191511J-160697D01*
G01*
X204609882Y-109378551D01*
G75*
G02*
X204640696Y-109730759I-160697J-191511D01*
G01*
X203837211Y-110688314D01*
G75*
G02*
X203485003Y-110719128I-191511J160697D01*
G01*
X202910470Y-110237037D01*
G75*
G02*
X202879656Y-109884829I160697J191511D01*
G01*
G37*
%TD.AperFunction*%
%TD*%
%TO.P,R3,2*%
%TO.N,Net-(D3-Pad2)*%
%TA.AperFunction,SMDPad,CuDef*%
G36*
G01*
X91391412Y-110444086D02*
X92194896Y-111401641D01*
G75*
G02*
X92164082Y-111753849I-191511J-160697D01*
G01*
X91589549Y-112235940D01*
G75*
G02*
X91237341Y-112205126I-160697J191511D01*
G01*
X90433856Y-111247571D01*
G75*
G02*
X90464670Y-110895363I191511J160697D01*
G01*
X91039203Y-110413272D01*
G75*
G02*
X91391411Y-110444086I160697J-191511D01*
G01*
G37*
%TD.AperFunction*%
%TO.P,R3,1*%
%TO.N,Net-(R2-Pad1)*%
%TA.AperFunction,SMDPad,CuDef*%
G36*
G01*
X93536336Y-108644280D02*
X94339820Y-109601835D01*
G75*
G02*
X94309006Y-109954043I-191511J-160697D01*
G01*
X93734473Y-110436134D01*
G75*
G02*
X93382265Y-110405320I-160697J191511D01*
G01*
X92578780Y-109447765D01*
G75*
G02*
X92609594Y-109095557I191511J160697D01*
G01*
X93184127Y-108613466D01*
G75*
G02*
X93536335Y-108644280I160697J-191511D01*
G01*
G37*
%TD.AperFunction*%
%TD*%
%TO.P,R4,2*%
%TO.N,Net-(D4-Pad2)*%
%TA.AperFunction,SMDPad,CuDef*%
G36*
G01*
X142935800Y-124266800D02*
X144185800Y-124266800D01*
G75*
G02*
X144435800Y-124516800I0J-250000D01*
G01*
X144435800Y-125266800D01*
G75*
G02*
X144185800Y-125516800I-250000J0D01*
G01*
X142935800Y-125516800D01*
G75*
G02*
X142685800Y-125266800I0J250000D01*
G01*
X142685800Y-124516800D01*
G75*
G02*
X142935800Y-124266800I250000J0D01*
G01*
G37*
%TD.AperFunction*%
%TO.P,R4,1*%
%TO.N,Net-(R4-Pad1)*%
%TA.AperFunction,SMDPad,CuDef*%
G36*
G01*
X142935800Y-121466800D02*
X144185800Y-121466800D01*
G75*
G02*
X144435800Y-121716800I0J-250000D01*
G01*
X144435800Y-122466800D01*
G75*
G02*
X144185800Y-122716800I-250000J0D01*
G01*
X142935800Y-122716800D01*
G75*
G02*
X142685800Y-122466800I0J250000D01*
G01*
X142685800Y-121716800D01*
G75*
G02*
X142935800Y-121466800I250000J0D01*
G01*
G37*
%TD.AperFunction*%
%TD*%
%TO.P,R5,2*%
%TO.N,Net-(D5-Pad2)*%
%TA.AperFunction,SMDPad,CuDef*%
G36*
G01*
X153164700Y-46992700D02*
X151914700Y-46992700D01*
G75*
G02*
X151664700Y-46742700I0J250000D01*
G01*
X151664700Y-45992700D01*
G75*
G02*
X151914700Y-45742700I250000J0D01*
G01*
X153164700Y-45742700D01*
G75*
G02*
X153414700Y-45992700I0J-250000D01*
G01*
X153414700Y-46742700D01*
G75*
G02*
X153164700Y-46992700I-250000J0D01*
G01*
G37*
%TD.AperFunction*%
%TO.P,R5,1*%
%TO.N,Net-(R4-Pad1)*%
%TA.AperFunction,SMDPad,CuDef*%
G36*
G01*
X153164700Y-49792700D02*
X151914700Y-49792700D01*
G75*
G02*
X151664700Y-49542700I0J250000D01*
G01*
X151664700Y-48792700D01*
G75*
G02*
X151914700Y-48542700I250000J0D01*
G01*
X153164700Y-48542700D01*
G75*
G02*
X153414700Y-48792700I0J-250000D01*
G01*
X153414700Y-49542700D01*
G75*
G02*
X153164700Y-49792700I-250000J0D01*
G01*
G37*
%TD.AperFunction*%
%TD*%
D20*
%TO.P,U1,8*%
%TO.N,VCC*%
X133558300Y-92240100D03*
%TO.P,U1,7*%
%TO.N,Net-(J3-Pad3)*%
X133558300Y-90970100D03*
%TO.P,U1,6*%
%TO.N,Net-(J3-Pad1)*%
X133558300Y-89700100D03*
%TO.P,U1,5*%
%TO.N,Net-(J3-Pad4)*%
X133558300Y-88430100D03*
%TO.P,U1,4*%
%TO.N,GND*%
X126258300Y-88430100D03*
%TO.P,U1,3*%
%TO.N,Net-(R4-Pad1)*%
X126258300Y-89700100D03*
%TO.P,U1,2*%
%TO.N,Net-(R2-Pad1)*%
X126258300Y-90970100D03*
%TO.P,U1,1*%
%TO.N,Net-(J3-Pad5)*%
X126258300Y-92240100D03*
%TD*%
D21*
%TO.P,D4,2*%
%TO.N,Net-(D4-Pad2)*%
X143865600Y-127778900D03*
%TO.P,D4,1*%
%TO.N,GND*%
X143865600Y-130898900D03*
%TD*%
%TO.P,D5,1*%
%TO.N,GND*%
X152438100Y-41406200D03*
%TO.P,D5,2*%
%TO.N,Net-(D5-Pad2)*%
X152438100Y-44526200D03*
%TD*%
D22*
%TO.P,J4,1*%
%TO.N,Net-(J3-Pad3)*%
X143332200Y-102781100D03*
D23*
%TO.P,J4,2*%
%TO.N,Net-(J3-Pad4)*%
X143332200Y-105321100D03*
%TO.P,J4,3*%
%TO.N,GND*%
X143332200Y-107861100D03*
%TO.P,J4,4*%
%TO.N,VCC*%
X143332200Y-110401100D03*
%TD*%
D18*
%TO.P,J1,2*%
%TO.N,GND*%
X131006000Y-75920600D03*
D19*
%TO.P,J1,1*%
%TO.N,Net-(J1-Pad1)*%
X126746000Y-76270600D03*
D18*
%TO.P,J1,2*%
%TO.N,GND*%
X122486000Y-75920600D03*
%TD*%
D24*
%TO.N,GND*%
X129120900Y-74790300D03*
X134264400Y-74790300D03*
%TO.N,Net-(J1-Pad1)*%
X128981200Y-76200000D03*
%TO.N,Net-(R2-Pad1)*%
X145364200Y-97917000D03*
X129171700Y-91135200D03*
%TO.N,Net-(R4-Pad1)*%
X130086447Y-89623553D03*
X131572000Y-85686900D03*
%TO.N,Net-(J3-Pad1)*%
X130454400Y-87731600D03*
X130454400Y-85705070D03*
%TO.N,Net-(J3-Pad4)*%
X131654299Y-91452700D03*
X131740152Y-87956646D03*
%TD*%
D25*
%TO.N,GND*%
X84048600Y-117157500D02*
X84048600Y-116375364D01*
X84048600Y-116375364D02*
X84039090Y-116365854D01*
X212710116Y-117203148D02*
X212710116Y-114668525D01*
X129120900Y-74815700D02*
X129120900Y-74790300D01*
X125081299Y-89113499D02*
X125764698Y-88430100D01*
X125764698Y-88430100D02*
X126258300Y-88430100D01*
X125081299Y-91676490D02*
X125081299Y-89113499D01*
X121795412Y-94962377D02*
X125081299Y-91676490D01*
X119800619Y-94962377D02*
X121795412Y-94962377D01*
X118398546Y-93560304D02*
X119800619Y-94962377D01*
X116744907Y-93560304D02*
X118398546Y-93560304D01*
X212710116Y-114668525D02*
X212420425Y-114668525D01*
X212420425Y-114668525D02*
X209245200Y-111493300D01*
X209245200Y-111493300D02*
X209181700Y-111429800D01*
X86312390Y-113725789D02*
X87922579Y-112115600D01*
X86312390Y-114506390D02*
X86312390Y-113725789D01*
D26*
X84041090Y-116365026D02*
X84041090Y-115689374D01*
X84048600Y-116372536D02*
X84041090Y-116365026D01*
X85224074Y-114506390D02*
X86312390Y-114506390D01*
X84041090Y-115689374D02*
X85224074Y-114506390D01*
X84048600Y-117157500D02*
X84048600Y-116372536D01*
X142170493Y-110746455D02*
X142170493Y-111080893D01*
X142154999Y-110730961D02*
X142170493Y-110746455D01*
X143332200Y-107861100D02*
X142154999Y-109038301D01*
X142154999Y-109038301D02*
X142154999Y-110730961D01*
X142170493Y-111080893D02*
X143332200Y-112242600D01*
D25*
%TO.N,VCC*%
X139610200Y-95961200D02*
X145110200Y-95961200D01*
D26*
X134733301Y-87845099D02*
X134733301Y-91555101D01*
X133318272Y-86430070D02*
X134733301Y-87845099D01*
X134048302Y-92240100D02*
X133558300Y-92240100D01*
X134733301Y-91555101D02*
X134048302Y-92240100D01*
X124501286Y-86430070D02*
X133318272Y-86430070D01*
X120636413Y-90294943D02*
X124501286Y-86430070D01*
D25*
X141114200Y-95961200D02*
X139610200Y-95961200D01*
X133558300Y-92240100D02*
X133558300Y-95598000D01*
X133558300Y-95598000D02*
X135115466Y-97155166D01*
X135064832Y-97129600D02*
X139611100Y-97129600D01*
X139610200Y-97103632D02*
X139610200Y-95961200D01*
D26*
X142282600Y-97129600D02*
X139611100Y-97129600D01*
X144509201Y-99356201D02*
X142282600Y-97129600D01*
X143332200Y-110401100D02*
X144511200Y-109222100D01*
X144511200Y-108113000D02*
X144509201Y-108111001D01*
X144511200Y-109222100D02*
X144511200Y-108113000D01*
D25*
X144509201Y-105886061D02*
X144509201Y-105469401D01*
D26*
X144509201Y-108111001D02*
X144509201Y-105469401D01*
D25*
X144509201Y-105469401D02*
X144509201Y-99356201D01*
D26*
%TO.N,Net-(D1-Pad2)*%
X145516600Y-26296000D02*
X145637900Y-26174700D01*
X145516600Y-29813600D02*
X145516600Y-26296000D01*
%TO.N,Net-(D2-Pad2)*%
X206473632Y-111607600D02*
X205905100Y-111607600D01*
X208726684Y-113860652D02*
X206473632Y-111607600D01*
%TO.N,Net-(D3-Pad2)*%
X91158486Y-111324606D02*
X91314376Y-111324606D01*
X88308190Y-114174902D02*
X91158486Y-111324606D01*
%TO.N,Net-(D4-Pad2)*%
X143560800Y-127381000D02*
X143878300Y-127698500D01*
X143560800Y-124891800D02*
X143560800Y-127381000D01*
D25*
%TO.N,Net-(D5-Pad2)*%
X152539700Y-44627800D02*
X152438100Y-44526200D01*
X152539700Y-46367700D02*
X152539700Y-44627800D01*
%TO.N,Net-(J1-Pad1)*%
X126816600Y-76200000D02*
X126746000Y-76270600D01*
X128981200Y-76200000D02*
X126816600Y-76200000D01*
D26*
%TO.N,Net-(J2-Pad1)*%
X151853900Y-120116600D02*
X151853900Y-116751100D01*
X151853900Y-123755800D02*
X151853900Y-120116600D01*
X151853900Y-109931200D02*
X151663400Y-109740700D01*
X151853900Y-116217700D02*
X151853900Y-109931200D01*
X151853900Y-123755800D02*
X151853900Y-116471700D01*
X151853900Y-116471700D02*
X151853900Y-116217700D01*
X160934400Y-80899302D02*
X160934400Y-78905100D01*
X153668691Y-88165011D02*
X160934400Y-80899302D01*
X146735800Y-88188800D02*
X146759589Y-88165011D01*
X146735800Y-96770602D02*
X146735800Y-88188800D01*
X146314403Y-97191999D02*
X146735800Y-96770602D01*
X160934400Y-78905100D02*
X167246300Y-78905100D01*
X145016199Y-97191999D02*
X146314403Y-97191999D01*
X151853900Y-116471700D02*
X146209220Y-116471700D01*
X167246300Y-78905100D02*
X169849800Y-76301600D01*
X146209220Y-116471700D02*
X144961210Y-115223690D01*
X144961210Y-115223690D02*
X144961210Y-98587012D01*
X144961210Y-98587012D02*
X144639199Y-98265001D01*
X146759589Y-88165011D02*
X153668691Y-88165011D01*
X144639199Y-98265001D02*
X144639199Y-97568999D01*
X144639199Y-97568999D02*
X145016199Y-97191999D01*
%TO.N,Net-(R2-Pad1)*%
X126258300Y-90970100D02*
X125784861Y-90970100D01*
X109524800Y-101752400D02*
X114439700Y-96837500D01*
X126748302Y-90970100D02*
X126258300Y-90970100D01*
X123420902Y-96837500D02*
X127433301Y-92825101D01*
X114439700Y-96837500D02*
X123420902Y-96837500D01*
X126423400Y-91135200D02*
X126258300Y-90970100D01*
X127546100Y-91135200D02*
X126423400Y-91135200D01*
X127433301Y-91921099D02*
X127433301Y-91247999D01*
X129171700Y-91135200D02*
X127546100Y-91135200D01*
X127433301Y-91921099D02*
X127433301Y-91655099D01*
X127433301Y-91247999D02*
X127546100Y-91135200D01*
X127433301Y-92825101D02*
X127433301Y-91921099D01*
X189293500Y-102171500D02*
X180657500Y-93535500D01*
X180657500Y-93535500D02*
X170916600Y-93535500D01*
X170916600Y-93535500D02*
X160261300Y-82880200D01*
X159589912Y-82880200D02*
X153855091Y-88615021D01*
X160261300Y-82880200D02*
X159589912Y-82880200D01*
X153855091Y-88615021D02*
X147185810Y-88615021D01*
X146225812Y-97917000D02*
X145364200Y-97917000D01*
X147185809Y-96957003D02*
X146225812Y-97917000D01*
X147185810Y-88615021D02*
X147185809Y-96957003D01*
X203760176Y-109807794D02*
X196136582Y-102184200D01*
X196136582Y-102184200D02*
X193421000Y-102184200D01*
X193421000Y-102184200D02*
X193408300Y-102171500D01*
X194011900Y-102171500D02*
X193408300Y-102171500D01*
X193408300Y-102171500D02*
X189293500Y-102171500D01*
X93459300Y-109524800D02*
X95288100Y-107696000D01*
X95288100Y-107696000D02*
X98259900Y-107696000D01*
X104203500Y-101752400D02*
X105257600Y-101752400D01*
X98259900Y-107696000D02*
X104203500Y-101752400D01*
X104521000Y-101752400D02*
X105257600Y-101752400D01*
X105257600Y-101752400D02*
X109524800Y-101752400D01*
D25*
%TO.N,Net-(R4-Pad1)*%
X126321800Y-89636600D02*
X126258300Y-89700100D01*
X130429000Y-89636600D02*
X126321800Y-89636600D01*
X141718483Y-110933683D02*
X141704589Y-110919789D01*
X141867337Y-121941037D02*
X141835901Y-120969267D01*
X142018100Y-122091800D02*
X141867337Y-121941037D01*
X141718483Y-112517536D02*
X141718483Y-110933683D01*
X141835901Y-120969267D02*
X141718483Y-112517536D01*
X143560800Y-122091800D02*
X142018100Y-122091800D01*
X141704589Y-110919789D02*
X141657673Y-105432994D01*
X141657673Y-105432994D02*
X141613574Y-100275551D01*
X141613574Y-100275551D02*
X141613571Y-100275548D01*
X141335860Y-98781978D02*
X141071078Y-98517196D01*
X141603049Y-99044639D02*
X141335860Y-98781978D01*
X130911600Y-95019810D02*
X130911600Y-90119200D01*
X141071078Y-98517196D02*
X134408986Y-98517196D01*
X134408986Y-98517196D02*
X130911600Y-95019810D01*
X141613571Y-100275548D02*
X141603049Y-99044639D01*
X130911600Y-90119200D02*
X130429000Y-89636600D01*
X130429000Y-89636600D02*
X130099494Y-89636600D01*
X130099494Y-89636600D02*
X130086447Y-89623553D01*
D26*
X152539700Y-59803998D02*
X152539700Y-49167700D01*
X131572000Y-85686900D02*
X131572000Y-85217000D01*
X136525000Y-75818698D02*
X152539700Y-59803998D01*
X136525000Y-80264000D02*
X136525000Y-75818698D01*
X131572000Y-85217000D02*
X136525000Y-80264000D01*
D25*
%TO.N,Net-(BT1-Pad1)*%
X137617700Y-81156962D02*
X137617700Y-78486000D01*
X144173739Y-87713001D02*
X137617700Y-81156962D01*
X153154699Y-87713001D02*
X144173739Y-87713001D01*
X159587700Y-81280000D02*
X153154699Y-87713001D01*
X159587700Y-78486000D02*
X159587700Y-81280000D01*
X143533199Y-91896899D02*
X145110200Y-93473900D01*
X143533199Y-88353541D02*
X143533199Y-91896899D01*
X144173739Y-87713001D02*
X143533199Y-88353541D01*
X139610200Y-93461200D02*
X145110200Y-93461200D01*
D26*
%TO.N,Net-(J3-Pad1)*%
X132458300Y-89700100D02*
X133558300Y-89700100D01*
X124961899Y-87330089D02*
X130088289Y-87330089D01*
X122269093Y-90022895D02*
X124961899Y-87330089D01*
X122269093Y-92240696D02*
X122269093Y-90022895D01*
D25*
X130459400Y-87726600D02*
X130454400Y-87731600D01*
X130484800Y-87726600D02*
X130459400Y-87726600D01*
D26*
X130484800Y-87726600D02*
X132458300Y-89700100D01*
X130088289Y-87330089D02*
X130484800Y-87726600D01*
X130454400Y-85705070D02*
X130454400Y-85698190D01*
X136074991Y-75632297D02*
X143107398Y-68599890D01*
X130454400Y-85698190D02*
X136074990Y-80077600D01*
X136074990Y-80077600D02*
X136074991Y-75632297D01*
X150913099Y-38010099D02*
X145516600Y-32613600D01*
X150913099Y-49668699D02*
X150913099Y-38010099D01*
X152089690Y-50845290D02*
X150913099Y-49668699D01*
X152089690Y-50845290D02*
X152089690Y-59617598D01*
X152089690Y-59617598D02*
X143051944Y-68655344D01*
X143051944Y-68655344D02*
X139749944Y-71957344D01*
%TO.N,Net-(J3-Pad3)*%
X125083299Y-87845099D02*
X125148299Y-87780099D01*
X120323340Y-93873376D02*
X122245175Y-93873376D01*
X123356094Y-92762457D02*
X123356094Y-89572304D01*
X122245175Y-93873376D02*
X123356094Y-92762457D01*
X132458300Y-90970100D02*
X133558300Y-90970100D01*
X125148299Y-87780099D02*
X129268299Y-87780099D01*
X123356094Y-89572304D02*
X125148299Y-87780099D01*
D25*
X132454300Y-90970100D02*
X133558300Y-90970100D01*
X143332200Y-102781100D02*
X143332200Y-99487407D01*
X143332200Y-99487407D02*
X141453969Y-97609176D01*
X134785100Y-97609176D02*
X132381299Y-95205375D01*
X141453969Y-97609176D02*
X134785100Y-97609176D01*
X132381299Y-91043101D02*
X132454300Y-90970100D01*
D26*
X132381299Y-91322199D02*
X132381299Y-90893099D01*
X132237400Y-90749200D02*
X132458300Y-90970100D01*
X129268299Y-87780099D02*
X132237400Y-90749200D01*
X132381299Y-90893099D02*
X132237400Y-90749200D01*
D25*
X132381299Y-91322199D02*
X132381299Y-91043101D01*
X132381299Y-95205375D02*
X132381299Y-91322199D01*
D26*
%TO.N,Net-(J3-Pad4)*%
X124775499Y-86880079D02*
X132008279Y-86880079D01*
X121819084Y-89836494D02*
X124775499Y-86880079D01*
X121819084Y-91081943D02*
X121819084Y-89836494D01*
X120973403Y-91927624D02*
X121819084Y-91081943D01*
X118690660Y-91927624D02*
X120973403Y-91927624D01*
D25*
X143217900Y-105206800D02*
X142109764Y-105206800D01*
X143332200Y-105321100D02*
X143217900Y-105206800D01*
X142109764Y-102066664D02*
X142082683Y-102039583D01*
X142109764Y-105206800D02*
X142109764Y-102066664D01*
X142055436Y-98852710D02*
X141265912Y-98063186D01*
X142082683Y-102039583D02*
X142055436Y-98852710D01*
X141265912Y-98063186D02*
X141259135Y-98063186D01*
X131775200Y-91452700D02*
X131654299Y-91452700D01*
X131775200Y-95241343D02*
X131775200Y-91452700D01*
X134597043Y-98063186D02*
X131775200Y-95241343D01*
X141265912Y-98063186D02*
X134597043Y-98063186D01*
X133084846Y-87956646D02*
X133558300Y-88430100D01*
D26*
X132342398Y-87354400D02*
X132482600Y-87354400D01*
X131740152Y-87956646D02*
X132342398Y-87354400D01*
X132008279Y-86880079D02*
X132482600Y-87354400D01*
X132482600Y-87354400D02*
X133558300Y-88430100D01*
%TO.N,Net-(J3-Pad5)*%
X122992343Y-95506057D02*
X126258300Y-92240100D01*
X118377587Y-95506057D02*
X122992343Y-95506057D01*
%TD*%
D27*
%TO.N,GND*%
G36*
X172651800Y-75683100D02*
G01*
X172816300Y-75847600D01*
X174005800Y-75847600D01*
X174005800Y-75827600D01*
X174213800Y-75827600D01*
X174213800Y-75847600D01*
X174233800Y-75847600D01*
X174233800Y-76055600D01*
X174213800Y-76055600D01*
X174213800Y-76075600D01*
X174005800Y-76075600D01*
X174005800Y-76055600D01*
X172816300Y-76055600D01*
X172651800Y-76220100D01*
X172648616Y-78401600D01*
X172661320Y-78530591D01*
X172698946Y-78654624D01*
X172760046Y-78768934D01*
X172842272Y-78869128D01*
X172942466Y-78951354D01*
X173056776Y-79012454D01*
X173180809Y-79050080D01*
X173309800Y-79062784D01*
X173841300Y-79059600D01*
X174005798Y-78895102D01*
X174005798Y-78999674D01*
X173553642Y-79279776D01*
X173537793Y-79286509D01*
X173487887Y-79320510D01*
X173469565Y-79331860D01*
X173455973Y-79342253D01*
X173441816Y-79351898D01*
X173425260Y-79365737D01*
X173377310Y-79402401D01*
X173365939Y-79415323D01*
X173178610Y-79571909D01*
X173152571Y-79588912D01*
X173119309Y-79621477D01*
X173113382Y-79626432D01*
X173091701Y-79648508D01*
X173069588Y-79670158D01*
X173064623Y-79676079D01*
X173032007Y-79709289D01*
X173014965Y-79735299D01*
X172921043Y-79847306D01*
X172903407Y-79863306D01*
X172871376Y-79906537D01*
X172861738Y-79918031D01*
X172848362Y-79937598D01*
X172811153Y-79987818D01*
X172804712Y-80001452D01*
X172796199Y-80013906D01*
X172771660Y-80071421D01*
X172744963Y-80127935D01*
X172741306Y-80142564D01*
X172735386Y-80156439D01*
X172722543Y-80217618D01*
X172707380Y-80278272D01*
X172706647Y-80293341D01*
X172703549Y-80308098D01*
X172702888Y-80370595D01*
X172699849Y-80433053D01*
X172702069Y-80447974D01*
X172701910Y-80463052D01*
X172713453Y-80524472D01*
X172716943Y-80547922D01*
X172720596Y-80562475D01*
X172730533Y-80615350D01*
X172739412Y-80637445D01*
X172742163Y-80648404D01*
X172749169Y-80691691D01*
X172774486Y-80759606D01*
X172798931Y-80827826D01*
X172801533Y-80832162D01*
X172803297Y-80836895D01*
X172841351Y-80898524D01*
X172878661Y-80960706D01*
X172908128Y-80993187D01*
X172987920Y-81097857D01*
X172995323Y-81111592D01*
X173034828Y-81159390D01*
X173048864Y-81177802D01*
X173059421Y-81189145D01*
X173069309Y-81201109D01*
X173085762Y-81217449D01*
X173127984Y-81262815D01*
X173140632Y-81271939D01*
X173727200Y-81854452D01*
X173742160Y-81870619D01*
X173754596Y-81881658D01*
X173766396Y-81893377D01*
X173783474Y-81907294D01*
X174923153Y-82918994D01*
X174929401Y-82925445D01*
X174951995Y-82944598D01*
X174974212Y-82964320D01*
X174981501Y-82969610D01*
X176691752Y-84419382D01*
X176696045Y-84423679D01*
X176721172Y-84444321D01*
X176746056Y-84465415D01*
X176751068Y-84468881D01*
X182170100Y-88920642D01*
X182172457Y-88922962D01*
X182199912Y-88945133D01*
X182227256Y-88967596D01*
X182230012Y-88969440D01*
X190625563Y-95749109D01*
X197679778Y-101456460D01*
X203695865Y-106389215D01*
X208034024Y-110018251D01*
X209363444Y-111169327D01*
X210011766Y-111774625D01*
X210977442Y-112873497D01*
X211843122Y-113978207D01*
X212596559Y-115073309D01*
X212668192Y-115194363D01*
X212595658Y-115241691D01*
X212503012Y-115332338D01*
X212318090Y-115554106D01*
X210758039Y-114076785D01*
X210723651Y-114052384D01*
X210696322Y-114041533D01*
X210667400Y-114036222D01*
X210637998Y-114036655D01*
X210609246Y-114042817D01*
X210582248Y-114054469D01*
X210558042Y-114071164D01*
X210537558Y-114092261D01*
X209445358Y-115463861D01*
X209424178Y-115499753D01*
X209415613Y-115527883D01*
X209412700Y-115557143D01*
X209415552Y-115586410D01*
X209424058Y-115614558D01*
X209437892Y-115640505D01*
X209514092Y-115754805D01*
X209535588Y-115780350D01*
X210978105Y-117150741D01*
X210920029Y-117219522D01*
X210906487Y-117209181D01*
X210896628Y-117200583D01*
X210875769Y-117185723D01*
X210855447Y-117170204D01*
X210844339Y-117163332D01*
X209848073Y-116453588D01*
X209838419Y-116445692D01*
X209816584Y-116431155D01*
X209795266Y-116415968D01*
X209784471Y-116409775D01*
X208858886Y-115793554D01*
X208927629Y-115726295D01*
X210598877Y-113734580D01*
X210671169Y-113628902D01*
X210721454Y-113511151D01*
X210747802Y-113385852D01*
X210749199Y-113257821D01*
X210725591Y-113131977D01*
X210677886Y-113013157D01*
X210607917Y-112905927D01*
X210518373Y-112814408D01*
X209445911Y-111914505D01*
X209340233Y-111842213D01*
X209222482Y-111791928D01*
X209097183Y-111765580D01*
X208969152Y-111764183D01*
X208843308Y-111787791D01*
X208724488Y-111835496D01*
X208617258Y-111905465D01*
X208525739Y-111995009D01*
X208266274Y-112304227D01*
X207481175Y-111519129D01*
X207491886Y-111468191D01*
X207493817Y-111291154D01*
X207461173Y-111117142D01*
X207395209Y-110952843D01*
X207298458Y-110804569D01*
X207174640Y-110678019D01*
X206600107Y-110195928D01*
X206453979Y-110095966D01*
X206291157Y-110026432D01*
X206117899Y-109990000D01*
X205940862Y-109988069D01*
X205766850Y-110020713D01*
X205602551Y-110086677D01*
X205454277Y-110183428D01*
X205327727Y-110307246D01*
X204524242Y-111264801D01*
X204424280Y-111410929D01*
X204354746Y-111573751D01*
X204318314Y-111747009D01*
X204316383Y-111924046D01*
X204349027Y-112098058D01*
X204414991Y-112262357D01*
X204511742Y-112410631D01*
X204635560Y-112537181D01*
X205210093Y-113019272D01*
X205356221Y-113119234D01*
X205519043Y-113188768D01*
X205692301Y-113225200D01*
X205869338Y-113227131D01*
X206043350Y-113194487D01*
X206207649Y-113128523D01*
X206355923Y-113031772D01*
X206482473Y-112907954D01*
X206571670Y-112801653D01*
X207266148Y-113496131D01*
X206854491Y-113986724D01*
X206782199Y-114092402D01*
X206731914Y-114210153D01*
X206705566Y-114335452D01*
X206704169Y-114463483D01*
X206709847Y-114493750D01*
X206530693Y-114390617D01*
X206518569Y-114382611D01*
X206497232Y-114371355D01*
X206476314Y-114359313D01*
X206463067Y-114353331D01*
X205432822Y-113809829D01*
X205417099Y-113800465D01*
X205398653Y-113791804D01*
X205380644Y-113782303D01*
X205363712Y-113775397D01*
X202077111Y-112232160D01*
X202072154Y-112229304D01*
X202042050Y-112215697D01*
X202012305Y-112201730D01*
X202006942Y-112199828D01*
X196243492Y-109594727D01*
X196241371Y-109593523D01*
X196208062Y-109578713D01*
X196175261Y-109563887D01*
X196172980Y-109563115D01*
X188819427Y-106293583D01*
X188817795Y-106292666D01*
X188784022Y-106277841D01*
X188750508Y-106262940D01*
X188748742Y-106262354D01*
X180700741Y-102729597D01*
X180699893Y-102729123D01*
X180665167Y-102713981D01*
X180630854Y-102698919D01*
X180629940Y-102698621D01*
X171510834Y-98722323D01*
X171470162Y-98700583D01*
X171402947Y-98680193D01*
X171336175Y-98658583D01*
X171328894Y-98657730D01*
X171321870Y-98655599D01*
X171251946Y-98648712D01*
X171182263Y-98640546D01*
X171136307Y-98644216D01*
X156082321Y-98644216D01*
X156043864Y-98640411D01*
X156005053Y-98644216D01*
X156004868Y-98644216D01*
X155964647Y-98648177D01*
X155889640Y-98655531D01*
X155889474Y-98655581D01*
X155889293Y-98655599D01*
X155812957Y-98678755D01*
X155741328Y-98700449D01*
X155741177Y-98700530D01*
X155741001Y-98700583D01*
X155670429Y-98738305D01*
X155604629Y-98773438D01*
X155604496Y-98773547D01*
X155604335Y-98773633D01*
X155543085Y-98823900D01*
X155484796Y-98871692D01*
X155484686Y-98871827D01*
X155484546Y-98871941D01*
X155434405Y-98933038D01*
X155386435Y-98991437D01*
X155386354Y-98991589D01*
X155386238Y-98991730D01*
X155348887Y-99061609D01*
X155313324Y-99128070D01*
X155313274Y-99128236D01*
X155313188Y-99128396D01*
X155290444Y-99203373D01*
X155268273Y-99276342D01*
X155268256Y-99276518D01*
X155268204Y-99276688D01*
X155260513Y-99354773D01*
X155256839Y-99391912D01*
X155256839Y-99392081D01*
X155253015Y-99430906D01*
X155256804Y-99469381D01*
X155251663Y-110978805D01*
X155225213Y-115616317D01*
X155146367Y-119721880D01*
X155009141Y-123378658D01*
X154807634Y-126668255D01*
X154535973Y-129673159D01*
X154188180Y-132476480D01*
X153757986Y-135162331D01*
X153237691Y-137820523D01*
X152869295Y-139553136D01*
X152857538Y-139590135D01*
X152853224Y-139628722D01*
X152853222Y-139628731D01*
X152845806Y-139695071D01*
X152840320Y-139744140D01*
X152840320Y-139744146D01*
X152853479Y-139898550D01*
X152859120Y-139918065D01*
X152896506Y-140047414D01*
X152967278Y-140184116D01*
X152967754Y-140185036D01*
X152981569Y-140202328D01*
X153040237Y-140275765D01*
X153040241Y-140275769D01*
X153064478Y-140306107D01*
X153094164Y-140331130D01*
X154731796Y-142012451D01*
X154737675Y-142019469D01*
X154758746Y-142040120D01*
X154779332Y-142061255D01*
X154786332Y-142067155D01*
X157880262Y-145099389D01*
X157883076Y-145102674D01*
X157907798Y-145126375D01*
X157932356Y-145150444D01*
X157935740Y-145153165D01*
X163091949Y-150096574D01*
X165672171Y-152587749D01*
X167795176Y-154705575D01*
X169236907Y-156220834D01*
X169599777Y-156642053D01*
X169632459Y-156692105D01*
X169797302Y-157916240D01*
X169901748Y-159539829D01*
X169904208Y-160391719D01*
X168274327Y-159719113D01*
X162433985Y-157225925D01*
X162433892Y-157225874D01*
X162396940Y-157210111D01*
X162362995Y-157195620D01*
X162362902Y-157195591D01*
X158420920Y-155513998D01*
X158413603Y-155510184D01*
X158385351Y-155498824D01*
X158357407Y-155486904D01*
X158349555Y-155484432D01*
X155675236Y-154409148D01*
X155655899Y-154400360D01*
X155639404Y-154394740D01*
X155623240Y-154388241D01*
X155602855Y-154382288D01*
X153989586Y-153832649D01*
X153989399Y-153832541D01*
X153917467Y-153808078D01*
X153879873Y-153795270D01*
X153879654Y-153795219D01*
X153879449Y-153795149D01*
X153841729Y-153786331D01*
X153766802Y-153768773D01*
X153766587Y-153768766D01*
X153349547Y-153671276D01*
X153337661Y-153666341D01*
X153274220Y-153653667D01*
X153249006Y-153647773D01*
X153236316Y-153646095D01*
X153223777Y-153643590D01*
X153198032Y-153641033D01*
X153133874Y-153632549D01*
X153121029Y-153633384D01*
X152858530Y-153607309D01*
X152857529Y-153607007D01*
X152781735Y-153599680D01*
X152744020Y-153595934D01*
X152742970Y-153595933D01*
X152741934Y-153595833D01*
X152704244Y-153595901D01*
X152627887Y-153595838D01*
X152626862Y-153596041D01*
X151600876Y-153597895D01*
X151592613Y-153596448D01*
X151523485Y-153598035D01*
X151493145Y-153598090D01*
X151484848Y-153598922D01*
X151437690Y-153600005D01*
X151407934Y-153606637D01*
X151377591Y-153609681D01*
X151332467Y-153623458D01*
X151286437Y-153633718D01*
X151258547Y-153646028D01*
X151229380Y-153654933D01*
X151187819Y-153677245D01*
X151144668Y-153696290D01*
X151119710Y-153713808D01*
X151092846Y-153728230D01*
X151056439Y-153758219D01*
X151017830Y-153785319D01*
X150996769Y-153807370D01*
X150973235Y-153826755D01*
X150943380Y-153863267D01*
X150910798Y-153897381D01*
X150894442Y-153923119D01*
X150875144Y-153946721D01*
X150852986Y-153988357D01*
X150827685Y-154028171D01*
X150816666Y-154056602D01*
X150802341Y-154083519D01*
X150788729Y-154128686D01*
X150785717Y-154136457D01*
X150777583Y-154165670D01*
X150757625Y-154231892D01*
X150756818Y-154240244D01*
X150168407Y-156353420D01*
X149880228Y-157341437D01*
X149624617Y-158102644D01*
X149394408Y-158650232D01*
X149193454Y-158995606D01*
X149033540Y-159172594D01*
X148896658Y-159257366D01*
X148702634Y-159311437D01*
X148389231Y-159332793D01*
X148075860Y-159311428D01*
X147881872Y-159257343D01*
X147744979Y-159172536D01*
X147585028Y-158995460D01*
X147384048Y-158649978D01*
X147153829Y-158102295D01*
X146898209Y-157340986D01*
X146610010Y-156352863D01*
X146021611Y-154240215D01*
X146020806Y-154231892D01*
X146000854Y-154165688D01*
X145992700Y-154136412D01*
X145989692Y-154128653D01*
X145976090Y-154083519D01*
X145961755Y-154056584D01*
X145950725Y-154028129D01*
X145925434Y-153988336D01*
X145903287Y-153946721D01*
X145883973Y-153923100D01*
X145867603Y-153897343D01*
X145835038Y-153863252D01*
X145805196Y-153826755D01*
X145781640Y-153807352D01*
X145760564Y-153785288D01*
X145721980Y-153758209D01*
X145685585Y-153728230D01*
X145658696Y-153713795D01*
X145633721Y-153696267D01*
X145590596Y-153677236D01*
X145549051Y-153654933D01*
X145519859Y-153646020D01*
X145491948Y-153633703D01*
X145445941Y-153623451D01*
X145400840Y-153609681D01*
X145370474Y-153606635D01*
X145340693Y-153599999D01*
X145293555Y-153598919D01*
X145285286Y-153598090D01*
X145254942Y-153598035D01*
X145185770Y-153596451D01*
X145177527Y-153597895D01*
X144151685Y-153596041D01*
X144150772Y-153595860D01*
X144074367Y-153595901D01*
X144036495Y-153595833D01*
X144035569Y-153595922D01*
X144034637Y-153595923D01*
X143996883Y-153599662D01*
X143920900Y-153607007D01*
X143920009Y-153607276D01*
X143657554Y-153633269D01*
X143644633Y-153632428D01*
X143580564Y-153640894D01*
X143554884Y-153643437D01*
X143542263Y-153645955D01*
X143529500Y-153647641D01*
X143504365Y-153653514D01*
X143440994Y-153666155D01*
X143429035Y-153671116D01*
X143011878Y-153768591D01*
X143011623Y-153768600D01*
X142937194Y-153786042D01*
X142899056Y-153794954D01*
X142898809Y-153795038D01*
X142898553Y-153795098D01*
X142861465Y-153807734D01*
X142789103Y-153832336D01*
X142788881Y-153832464D01*
X141175589Y-154382129D01*
X141155171Y-154388092D01*
X141138991Y-154394598D01*
X141122529Y-154400207D01*
X141103215Y-154408984D01*
X138428864Y-155484379D01*
X138421017Y-155486850D01*
X138393060Y-155498777D01*
X138364808Y-155510137D01*
X138357500Y-155513947D01*
X134415546Y-157195583D01*
X134415462Y-157195610D01*
X134377456Y-157211833D01*
X134344530Y-157225879D01*
X134344463Y-157225916D01*
X131616100Y-158390511D01*
X131616100Y-156525900D01*
X127278787Y-156525900D01*
X127541602Y-156220824D01*
X128983379Y-154705521D01*
X131106362Y-152587722D01*
X133686644Y-150096490D01*
X138841586Y-145152983D01*
X138845080Y-145150171D01*
X138869455Y-145126257D01*
X138894125Y-145102599D01*
X138897045Y-145099189D01*
X141988075Y-142066636D01*
X141995317Y-142060514D01*
X142015618Y-142039614D01*
X142036458Y-142019168D01*
X142042556Y-142011881D01*
X143668542Y-140337898D01*
X143690664Y-140320183D01*
X143722379Y-140282472D01*
X143729685Y-140274950D01*
X143747288Y-140252853D01*
X143790405Y-140201584D01*
X143795479Y-140192359D01*
X143802046Y-140184116D01*
X143832798Y-140124515D01*
X143865091Y-140065806D01*
X143868268Y-140055767D01*
X143873101Y-140046401D01*
X143891634Y-139981946D01*
X143911853Y-139918065D01*
X143913011Y-139907598D01*
X143915923Y-139897471D01*
X143921523Y-139830671D01*
X143928895Y-139764041D01*
X143927988Y-139753543D01*
X143928868Y-139743048D01*
X143921330Y-139676464D01*
X143918901Y-139648337D01*
X143916980Y-139638035D01*
X143911437Y-139589068D01*
X143902816Y-139562068D01*
X143275111Y-136195481D01*
X142806818Y-133590215D01*
X142440868Y-131273614D01*
X142327250Y-130366507D01*
X142428611Y-130518206D01*
X142686294Y-130775889D01*
X142989297Y-130978348D01*
X143048571Y-131002900D01*
X142747100Y-131002900D01*
X142582600Y-131167400D01*
X142579416Y-131438900D01*
X142592120Y-131567891D01*
X142629746Y-131691924D01*
X142690846Y-131806234D01*
X142773072Y-131906428D01*
X142873266Y-131988654D01*
X142987576Y-132049754D01*
X143111609Y-132087380D01*
X143240600Y-132100084D01*
X143597100Y-132096900D01*
X143761600Y-131932400D01*
X143761600Y-131188900D01*
X143969600Y-131188900D01*
X143969600Y-131932400D01*
X144134100Y-132096900D01*
X144490600Y-132100084D01*
X144619591Y-132087380D01*
X144743624Y-132049754D01*
X144857934Y-131988654D01*
X144958128Y-131906428D01*
X145040354Y-131806234D01*
X145101454Y-131691924D01*
X145139080Y-131567891D01*
X145151784Y-131438900D01*
X145148600Y-131167400D01*
X144984100Y-131002900D01*
X144682629Y-131002900D01*
X144741903Y-130978348D01*
X145044906Y-130775889D01*
X145302589Y-130518206D01*
X145505048Y-130215203D01*
X145581803Y-130029900D01*
X149480855Y-130029900D01*
X149480855Y-132529900D01*
X149493405Y-132657322D01*
X149530573Y-132779848D01*
X149590930Y-132892768D01*
X149672157Y-132991743D01*
X149771132Y-133072970D01*
X149884052Y-133133327D01*
X150006578Y-133170495D01*
X150134000Y-133183045D01*
X152634000Y-133183045D01*
X152761422Y-133170495D01*
X152883948Y-133133327D01*
X152996868Y-133072970D01*
X153095843Y-132991743D01*
X153177070Y-132892768D01*
X153237427Y-132779848D01*
X153274595Y-132657322D01*
X153287145Y-132529900D01*
X153287145Y-130029900D01*
X153274595Y-129902478D01*
X153237427Y-129779952D01*
X153177070Y-129667032D01*
X153095843Y-129568057D01*
X152996868Y-129486830D01*
X152883948Y-129426473D01*
X152761422Y-129389305D01*
X152634000Y-129376755D01*
X150134000Y-129376755D01*
X150006578Y-129389305D01*
X149884052Y-129426473D01*
X149771132Y-129486830D01*
X149672157Y-129568057D01*
X149590930Y-129667032D01*
X149530573Y-129779952D01*
X149493405Y-129902478D01*
X149480855Y-130029900D01*
X145581803Y-130029900D01*
X145644505Y-129878525D01*
X145715600Y-129521109D01*
X145715600Y-129156691D01*
X145644505Y-128799275D01*
X145505048Y-128462597D01*
X145302589Y-128159594D01*
X145143745Y-128000750D01*
X145143745Y-127238900D01*
X145131195Y-127111478D01*
X145094027Y-126988952D01*
X145033670Y-126876032D01*
X144952443Y-126777057D01*
X144853468Y-126695830D01*
X144740548Y-126635473D01*
X144618022Y-126598305D01*
X144490600Y-126585755D01*
X144335800Y-126585755D01*
X144335800Y-126155171D01*
X144361995Y-126152591D01*
X144531419Y-126101197D01*
X144687560Y-126017738D01*
X144824420Y-125905420D01*
X144936738Y-125768560D01*
X145020197Y-125612419D01*
X145071591Y-125442995D01*
X145088945Y-125266800D01*
X145088945Y-124516800D01*
X145071591Y-124340605D01*
X145020197Y-124171181D01*
X144936738Y-124015040D01*
X144824420Y-123878180D01*
X144687560Y-123765862D01*
X144531419Y-123682403D01*
X144361995Y-123631009D01*
X144185800Y-123613655D01*
X142935800Y-123613655D01*
X142759605Y-123631009D01*
X142590181Y-123682403D01*
X142434040Y-123765862D01*
X142297180Y-123878180D01*
X142184862Y-124015040D01*
X142101403Y-124171181D01*
X142050009Y-124340605D01*
X142032655Y-124516800D01*
X142032655Y-125266800D01*
X142050009Y-125442995D01*
X142101403Y-125612419D01*
X142184862Y-125768560D01*
X142297180Y-125905420D01*
X142434040Y-126017738D01*
X142590181Y-126101197D01*
X142759605Y-126152591D01*
X142785801Y-126155171D01*
X142785801Y-126771276D01*
X142778757Y-126777057D01*
X142697530Y-126876032D01*
X142637173Y-126988952D01*
X142600005Y-127111478D01*
X142587455Y-127238900D01*
X142587455Y-128000750D01*
X142428611Y-128159594D01*
X142226152Y-128462597D01*
X142130792Y-128692815D01*
X141956664Y-126722611D01*
X141809898Y-124093981D01*
X141768950Y-122828184D01*
X141865781Y-122857557D01*
X141979934Y-122868800D01*
X141979944Y-122868800D01*
X142018099Y-122872558D01*
X142056255Y-122868800D01*
X142131539Y-122868800D01*
X142184862Y-122968560D01*
X142297180Y-123105420D01*
X142434040Y-123217738D01*
X142590181Y-123301197D01*
X142759605Y-123352591D01*
X142935800Y-123369945D01*
X144185800Y-123369945D01*
X144361995Y-123352591D01*
X144531419Y-123301197D01*
X144687560Y-123217738D01*
X144824420Y-123105420D01*
X144936738Y-122968560D01*
X145020197Y-122812419D01*
X145071591Y-122642995D01*
X145088945Y-122466800D01*
X145088945Y-121716800D01*
X145071591Y-121540605D01*
X145020197Y-121371181D01*
X144936738Y-121215040D01*
X144824420Y-121078180D01*
X144687560Y-120965862D01*
X144531419Y-120882403D01*
X144361995Y-120831009D01*
X144185800Y-120813655D01*
X142935800Y-120813655D01*
X142759605Y-120831009D01*
X142611678Y-120875882D01*
X142495483Y-112512201D01*
X142495483Y-111646058D01*
X142621683Y-111730383D01*
X142894666Y-111843456D01*
X143184463Y-111901100D01*
X143479937Y-111901100D01*
X143769734Y-111843456D01*
X144042717Y-111730383D01*
X144186210Y-111634503D01*
X144186210Y-115185627D01*
X144182461Y-115223690D01*
X144186210Y-115261753D01*
X144186210Y-115261754D01*
X144197424Y-115375615D01*
X144241740Y-115521703D01*
X144246520Y-115530645D01*
X144313704Y-115656340D01*
X144333095Y-115679967D01*
X144410551Y-115774349D01*
X144440128Y-115798622D01*
X145634296Y-116992792D01*
X145658561Y-117022359D01*
X145688127Y-117046623D01*
X145688128Y-117046624D01*
X145776569Y-117119206D01*
X145911205Y-117191170D01*
X145942167Y-117200562D01*
X146057294Y-117235486D01*
X146171155Y-117246700D01*
X146171157Y-117246700D01*
X146209220Y-117250449D01*
X146247283Y-117246700D01*
X151078901Y-117246700D01*
X151078901Y-120110301D01*
X151078900Y-121876755D01*
X150134000Y-121876755D01*
X150006578Y-121889305D01*
X149884052Y-121926473D01*
X149771132Y-121986830D01*
X149672157Y-122068057D01*
X149590930Y-122167032D01*
X149530573Y-122279952D01*
X149493405Y-122402478D01*
X149480855Y-122529900D01*
X149480855Y-125029900D01*
X149493405Y-125157322D01*
X149530573Y-125279848D01*
X149590930Y-125392768D01*
X149672157Y-125491743D01*
X149771132Y-125572970D01*
X149884052Y-125633327D01*
X150006578Y-125670495D01*
X150134000Y-125683045D01*
X152634000Y-125683045D01*
X152761422Y-125670495D01*
X152883948Y-125633327D01*
X152996868Y-125572970D01*
X153095843Y-125491743D01*
X153177070Y-125392768D01*
X153237427Y-125279848D01*
X153274595Y-125157322D01*
X153287145Y-125029900D01*
X153287145Y-122529900D01*
X153274595Y-122402478D01*
X153237427Y-122279952D01*
X153177070Y-122167032D01*
X153095843Y-122068057D01*
X152996868Y-121986830D01*
X152883948Y-121926473D01*
X152761422Y-121889305D01*
X152634000Y-121876755D01*
X152628900Y-121876755D01*
X152628900Y-116509764D01*
X152632649Y-116471700D01*
X152628900Y-116433635D01*
X152628900Y-111529545D01*
X152634000Y-111529545D01*
X152761422Y-111516995D01*
X152883948Y-111479827D01*
X152996868Y-111419470D01*
X153095843Y-111338243D01*
X153177070Y-111239268D01*
X153237427Y-111126348D01*
X153274595Y-111003822D01*
X153287145Y-110876400D01*
X153287145Y-108376400D01*
X153274595Y-108248978D01*
X153237427Y-108126452D01*
X153177070Y-108013532D01*
X153095843Y-107914557D01*
X152996868Y-107833330D01*
X152883948Y-107772973D01*
X152761422Y-107735805D01*
X152634000Y-107723255D01*
X150134000Y-107723255D01*
X150006578Y-107735805D01*
X149884052Y-107772973D01*
X149771132Y-107833330D01*
X149672157Y-107914557D01*
X149590930Y-108013532D01*
X149530573Y-108126452D01*
X149493405Y-108248978D01*
X149480855Y-108376400D01*
X149480855Y-110876400D01*
X149493405Y-111003822D01*
X149530573Y-111126348D01*
X149590930Y-111239268D01*
X149672157Y-111338243D01*
X149771132Y-111419470D01*
X149884052Y-111479827D01*
X150006578Y-111516995D01*
X150134000Y-111529545D01*
X151078901Y-111529545D01*
X151078900Y-115696700D01*
X146530236Y-115696700D01*
X145736210Y-114902676D01*
X145736210Y-100876400D01*
X149480855Y-100876400D01*
X149480855Y-103376400D01*
X149493405Y-103503822D01*
X149530573Y-103626348D01*
X149590930Y-103739268D01*
X149672157Y-103838243D01*
X149771132Y-103919470D01*
X149884052Y-103979827D01*
X150006578Y-104016995D01*
X150134000Y-104029545D01*
X152634000Y-104029545D01*
X152761422Y-104016995D01*
X152883948Y-103979827D01*
X152996868Y-103919470D01*
X153095843Y-103838243D01*
X153177070Y-103739268D01*
X153237427Y-103626348D01*
X153274595Y-103503822D01*
X153287145Y-103376400D01*
X153287145Y-100876400D01*
X153274595Y-100748978D01*
X153237427Y-100626452D01*
X153177070Y-100513532D01*
X153095843Y-100414557D01*
X152996868Y-100333330D01*
X152883948Y-100272973D01*
X152761422Y-100235805D01*
X152634000Y-100223255D01*
X150134000Y-100223255D01*
X150006578Y-100235805D01*
X149884052Y-100272973D01*
X149771132Y-100333330D01*
X149672157Y-100414557D01*
X149590930Y-100513532D01*
X149530573Y-100626452D01*
X149493405Y-100748978D01*
X149480855Y-100876400D01*
X145736210Y-100876400D01*
X145736210Y-98899421D01*
X145861562Y-98847498D01*
X146033536Y-98732589D01*
X146074125Y-98692000D01*
X146187749Y-98692000D01*
X146225812Y-98695749D01*
X146263875Y-98692000D01*
X146263877Y-98692000D01*
X146377738Y-98680786D01*
X146523826Y-98636470D01*
X146658462Y-98564506D01*
X146776471Y-98467659D01*
X146800744Y-98438082D01*
X147706900Y-97531927D01*
X147736467Y-97507662D01*
X147778161Y-97456858D01*
X147833315Y-97389654D01*
X147905278Y-97255018D01*
X147949594Y-97108929D01*
X147964558Y-96957003D01*
X147960808Y-96918930D01*
X147960810Y-89390021D01*
X153817028Y-89390021D01*
X153855091Y-89393770D01*
X153893154Y-89390021D01*
X153893156Y-89390021D01*
X154007017Y-89378807D01*
X154153105Y-89334491D01*
X154287741Y-89262527D01*
X154405750Y-89165680D01*
X154430023Y-89136103D01*
X159910928Y-83655200D01*
X159940286Y-83655200D01*
X170341672Y-94056587D01*
X170365941Y-94086159D01*
X170441488Y-94148158D01*
X170483949Y-94183006D01*
X170555913Y-94221471D01*
X170618586Y-94254970D01*
X170764674Y-94299286D01*
X170878535Y-94310500D01*
X170878537Y-94310500D01*
X170916600Y-94314249D01*
X170954663Y-94310500D01*
X180336486Y-94310500D01*
X188718572Y-102692587D01*
X188742841Y-102722159D01*
X188860850Y-102819006D01*
X188995486Y-102890970D01*
X189141574Y-102935286D01*
X189255435Y-102946500D01*
X189255436Y-102946500D01*
X189293499Y-102950249D01*
X189331562Y-102946500D01*
X193264175Y-102946500D01*
X193269074Y-102947986D01*
X193382935Y-102959200D01*
X193382938Y-102959200D01*
X193421000Y-102962949D01*
X193459063Y-102959200D01*
X195815568Y-102959200D01*
X202355776Y-109499409D01*
X202279356Y-109611123D01*
X202209822Y-109773945D01*
X202173390Y-109947203D01*
X202171459Y-110124240D01*
X202204103Y-110298252D01*
X202270067Y-110462551D01*
X202366818Y-110610825D01*
X202490636Y-110737375D01*
X203065169Y-111219466D01*
X203211297Y-111319428D01*
X203374119Y-111388962D01*
X203547377Y-111425394D01*
X203724414Y-111427325D01*
X203898426Y-111394681D01*
X204062725Y-111328717D01*
X204210999Y-111231966D01*
X204337549Y-111108148D01*
X205141034Y-110150593D01*
X205240996Y-110004465D01*
X205310530Y-109841643D01*
X205346962Y-109668385D01*
X205348893Y-109491348D01*
X205316249Y-109317336D01*
X205250285Y-109153037D01*
X205153534Y-109004763D01*
X205029716Y-108878213D01*
X204455183Y-108396122D01*
X204309055Y-108296160D01*
X204146233Y-108226626D01*
X203972975Y-108190194D01*
X203795938Y-108188263D01*
X203621926Y-108220907D01*
X203457627Y-108286871D01*
X203383583Y-108335186D01*
X196711515Y-101663118D01*
X196687241Y-101633541D01*
X196569232Y-101536694D01*
X196434596Y-101464730D01*
X196288508Y-101420414D01*
X196174647Y-101409200D01*
X196174645Y-101409200D01*
X196136582Y-101405451D01*
X196098519Y-101409200D01*
X194168725Y-101409200D01*
X194163826Y-101407714D01*
X194049965Y-101396500D01*
X193446363Y-101396500D01*
X193408300Y-101392751D01*
X193370237Y-101396500D01*
X189614515Y-101396500D01*
X181232433Y-93014418D01*
X181208159Y-92984841D01*
X181090150Y-92887994D01*
X180955514Y-92816030D01*
X180809426Y-92771714D01*
X180695565Y-92760500D01*
X180695563Y-92760500D01*
X180657500Y-92756751D01*
X180619437Y-92760500D01*
X171237615Y-92760500D01*
X160836233Y-82359119D01*
X160811959Y-82329541D01*
X160695638Y-82234079D01*
X161455488Y-81474229D01*
X161485059Y-81449961D01*
X161547058Y-81374414D01*
X161581906Y-81331953D01*
X161647123Y-81209939D01*
X161653870Y-81197316D01*
X161698186Y-81051228D01*
X161709400Y-80937367D01*
X161709400Y-80937366D01*
X161713149Y-80899303D01*
X161709400Y-80861240D01*
X161709400Y-79680100D01*
X167208237Y-79680100D01*
X167246300Y-79683849D01*
X167284363Y-79680100D01*
X167284365Y-79680100D01*
X167398226Y-79668886D01*
X167544314Y-79624570D01*
X167678950Y-79552606D01*
X167796959Y-79455759D01*
X167821232Y-79426182D01*
X168396655Y-78850759D01*
X168396655Y-79101600D01*
X168409205Y-79229022D01*
X168446373Y-79351548D01*
X168506730Y-79464468D01*
X168587957Y-79563443D01*
X168686932Y-79644670D01*
X168799852Y-79705027D01*
X168922378Y-79742195D01*
X169049800Y-79754745D01*
X170649800Y-79754745D01*
X170777222Y-79742195D01*
X170899748Y-79705027D01*
X171012668Y-79644670D01*
X171111643Y-79563443D01*
X171192870Y-79464468D01*
X171253227Y-79351548D01*
X171290395Y-79229022D01*
X171302945Y-79101600D01*
X171302945Y-74202200D01*
X172649639Y-74202200D01*
X172651800Y-75683100D01*
G37*
X172651800Y-75683100D02*
X172816300Y-75847600D01*
X174005800Y-75847600D01*
X174005800Y-75827600D01*
X174213800Y-75827600D01*
X174213800Y-75847600D01*
X174233800Y-75847600D01*
X174233800Y-76055600D01*
X174213800Y-76055600D01*
X174213800Y-76075600D01*
X174005800Y-76075600D01*
X174005800Y-76055600D01*
X172816300Y-76055600D01*
X172651800Y-76220100D01*
X172648616Y-78401600D01*
X172661320Y-78530591D01*
X172698946Y-78654624D01*
X172760046Y-78768934D01*
X172842272Y-78869128D01*
X172942466Y-78951354D01*
X173056776Y-79012454D01*
X173180809Y-79050080D01*
X173309800Y-79062784D01*
X173841300Y-79059600D01*
X174005798Y-78895102D01*
X174005798Y-78999674D01*
X173553642Y-79279776D01*
X173537793Y-79286509D01*
X173487887Y-79320510D01*
X173469565Y-79331860D01*
X173455973Y-79342253D01*
X173441816Y-79351898D01*
X173425260Y-79365737D01*
X173377310Y-79402401D01*
X173365939Y-79415323D01*
X173178610Y-79571909D01*
X173152571Y-79588912D01*
X173119309Y-79621477D01*
X173113382Y-79626432D01*
X173091701Y-79648508D01*
X173069588Y-79670158D01*
X173064623Y-79676079D01*
X173032007Y-79709289D01*
X173014965Y-79735299D01*
X172921043Y-79847306D01*
X172903407Y-79863306D01*
X172871376Y-79906537D01*
X172861738Y-79918031D01*
X172848362Y-79937598D01*
X172811153Y-79987818D01*
X172804712Y-80001452D01*
X172796199Y-80013906D01*
X172771660Y-80071421D01*
X172744963Y-80127935D01*
X172741306Y-80142564D01*
X172735386Y-80156439D01*
X172722543Y-80217618D01*
X172707380Y-80278272D01*
X172706647Y-80293341D01*
X172703549Y-80308098D01*
X172702888Y-80370595D01*
X172699849Y-80433053D01*
X172702069Y-80447974D01*
X172701910Y-80463052D01*
X172713453Y-80524472D01*
X172716943Y-80547922D01*
X172720596Y-80562475D01*
X172730533Y-80615350D01*
X172739412Y-80637445D01*
X172742163Y-80648404D01*
X172749169Y-80691691D01*
X172774486Y-80759606D01*
X172798931Y-80827826D01*
X172801533Y-80832162D01*
X172803297Y-80836895D01*
X172841351Y-80898524D01*
X172878661Y-80960706D01*
X172908128Y-80993187D01*
X172987920Y-81097857D01*
X172995323Y-81111592D01*
X173034828Y-81159390D01*
X173048864Y-81177802D01*
X173059421Y-81189145D01*
X173069309Y-81201109D01*
X173085762Y-81217449D01*
X173127984Y-81262815D01*
X173140632Y-81271939D01*
X173727200Y-81854452D01*
X173742160Y-81870619D01*
X173754596Y-81881658D01*
X173766396Y-81893377D01*
X173783474Y-81907294D01*
X174923153Y-82918994D01*
X174929401Y-82925445D01*
X174951995Y-82944598D01*
X174974212Y-82964320D01*
X174981501Y-82969610D01*
X176691752Y-84419382D01*
X176696045Y-84423679D01*
X176721172Y-84444321D01*
X176746056Y-84465415D01*
X176751068Y-84468881D01*
X182170100Y-88920642D01*
X182172457Y-88922962D01*
X182199912Y-88945133D01*
X182227256Y-88967596D01*
X182230012Y-88969440D01*
X190625563Y-95749109D01*
X197679778Y-101456460D01*
X203695865Y-106389215D01*
X208034024Y-110018251D01*
X209363444Y-111169327D01*
X210011766Y-111774625D01*
X210977442Y-112873497D01*
X211843122Y-113978207D01*
X212596559Y-115073309D01*
X212668192Y-115194363D01*
X212595658Y-115241691D01*
X212503012Y-115332338D01*
X212318090Y-115554106D01*
X210758039Y-114076785D01*
X210723651Y-114052384D01*
X210696322Y-114041533D01*
X210667400Y-114036222D01*
X210637998Y-114036655D01*
X210609246Y-114042817D01*
X210582248Y-114054469D01*
X210558042Y-114071164D01*
X210537558Y-114092261D01*
X209445358Y-115463861D01*
X209424178Y-115499753D01*
X209415613Y-115527883D01*
X209412700Y-115557143D01*
X209415552Y-115586410D01*
X209424058Y-115614558D01*
X209437892Y-115640505D01*
X209514092Y-115754805D01*
X209535588Y-115780350D01*
X210978105Y-117150741D01*
X210920029Y-117219522D01*
X210906487Y-117209181D01*
X210896628Y-117200583D01*
X210875769Y-117185723D01*
X210855447Y-117170204D01*
X210844339Y-117163332D01*
X209848073Y-116453588D01*
X209838419Y-116445692D01*
X209816584Y-116431155D01*
X209795266Y-116415968D01*
X209784471Y-116409775D01*
X208858886Y-115793554D01*
X208927629Y-115726295D01*
X210598877Y-113734580D01*
X210671169Y-113628902D01*
X210721454Y-113511151D01*
X210747802Y-113385852D01*
X210749199Y-113257821D01*
X210725591Y-113131977D01*
X210677886Y-113013157D01*
X210607917Y-112905927D01*
X210518373Y-112814408D01*
X209445911Y-111914505D01*
X209340233Y-111842213D01*
X209222482Y-111791928D01*
X209097183Y-111765580D01*
X208969152Y-111764183D01*
X208843308Y-111787791D01*
X208724488Y-111835496D01*
X208617258Y-111905465D01*
X208525739Y-111995009D01*
X208266274Y-112304227D01*
X207481175Y-111519129D01*
X207491886Y-111468191D01*
X207493817Y-111291154D01*
X207461173Y-111117142D01*
X207395209Y-110952843D01*
X207298458Y-110804569D01*
X207174640Y-110678019D01*
X206600107Y-110195928D01*
X206453979Y-110095966D01*
X206291157Y-110026432D01*
X206117899Y-109990000D01*
X205940862Y-109988069D01*
X205766850Y-110020713D01*
X205602551Y-110086677D01*
X205454277Y-110183428D01*
X205327727Y-110307246D01*
X204524242Y-111264801D01*
X204424280Y-111410929D01*
X204354746Y-111573751D01*
X204318314Y-111747009D01*
X204316383Y-111924046D01*
X204349027Y-112098058D01*
X204414991Y-112262357D01*
X204511742Y-112410631D01*
X204635560Y-112537181D01*
X205210093Y-113019272D01*
X205356221Y-113119234D01*
X205519043Y-113188768D01*
X205692301Y-113225200D01*
X205869338Y-113227131D01*
X206043350Y-113194487D01*
X206207649Y-113128523D01*
X206355923Y-113031772D01*
X206482473Y-112907954D01*
X206571670Y-112801653D01*
X207266148Y-113496131D01*
X206854491Y-113986724D01*
X206782199Y-114092402D01*
X206731914Y-114210153D01*
X206705566Y-114335452D01*
X206704169Y-114463483D01*
X206709847Y-114493750D01*
X206530693Y-114390617D01*
X206518569Y-114382611D01*
X206497232Y-114371355D01*
X206476314Y-114359313D01*
X206463067Y-114353331D01*
X205432822Y-113809829D01*
X205417099Y-113800465D01*
X205398653Y-113791804D01*
X205380644Y-113782303D01*
X205363712Y-113775397D01*
X202077111Y-112232160D01*
X202072154Y-112229304D01*
X202042050Y-112215697D01*
X202012305Y-112201730D01*
X202006942Y-112199828D01*
X196243492Y-109594727D01*
X196241371Y-109593523D01*
X196208062Y-109578713D01*
X196175261Y-109563887D01*
X196172980Y-109563115D01*
X188819427Y-106293583D01*
X188817795Y-106292666D01*
X188784022Y-106277841D01*
X188750508Y-106262940D01*
X188748742Y-106262354D01*
X180700741Y-102729597D01*
X180699893Y-102729123D01*
X180665167Y-102713981D01*
X180630854Y-102698919D01*
X180629940Y-102698621D01*
X171510834Y-98722323D01*
X171470162Y-98700583D01*
X171402947Y-98680193D01*
X171336175Y-98658583D01*
X171328894Y-98657730D01*
X171321870Y-98655599D01*
X171251946Y-98648712D01*
X171182263Y-98640546D01*
X171136307Y-98644216D01*
X156082321Y-98644216D01*
X156043864Y-98640411D01*
X156005053Y-98644216D01*
X156004868Y-98644216D01*
X155964647Y-98648177D01*
X155889640Y-98655531D01*
X155889474Y-98655581D01*
X155889293Y-98655599D01*
X155812957Y-98678755D01*
X155741328Y-98700449D01*
X155741177Y-98700530D01*
X155741001Y-98700583D01*
X155670429Y-98738305D01*
X155604629Y-98773438D01*
X155604496Y-98773547D01*
X155604335Y-98773633D01*
X155543085Y-98823900D01*
X155484796Y-98871692D01*
X155484686Y-98871827D01*
X155484546Y-98871941D01*
X155434405Y-98933038D01*
X155386435Y-98991437D01*
X155386354Y-98991589D01*
X155386238Y-98991730D01*
X155348887Y-99061609D01*
X155313324Y-99128070D01*
X155313274Y-99128236D01*
X155313188Y-99128396D01*
X155290444Y-99203373D01*
X155268273Y-99276342D01*
X155268256Y-99276518D01*
X155268204Y-99276688D01*
X155260513Y-99354773D01*
X155256839Y-99391912D01*
X155256839Y-99392081D01*
X155253015Y-99430906D01*
X155256804Y-99469381D01*
X155251663Y-110978805D01*
X155225213Y-115616317D01*
X155146367Y-119721880D01*
X155009141Y-123378658D01*
X154807634Y-126668255D01*
X154535973Y-129673159D01*
X154188180Y-132476480D01*
X153757986Y-135162331D01*
X153237691Y-137820523D01*
X152869295Y-139553136D01*
X152857538Y-139590135D01*
X152853224Y-139628722D01*
X152853222Y-139628731D01*
X152845806Y-139695071D01*
X152840320Y-139744140D01*
X152840320Y-139744146D01*
X152853479Y-139898550D01*
X152859120Y-139918065D01*
X152896506Y-140047414D01*
X152967278Y-140184116D01*
X152967754Y-140185036D01*
X152981569Y-140202328D01*
X153040237Y-140275765D01*
X153040241Y-140275769D01*
X153064478Y-140306107D01*
X153094164Y-140331130D01*
X154731796Y-142012451D01*
X154737675Y-142019469D01*
X154758746Y-142040120D01*
X154779332Y-142061255D01*
X154786332Y-142067155D01*
X157880262Y-145099389D01*
X157883076Y-145102674D01*
X157907798Y-145126375D01*
X157932356Y-145150444D01*
X157935740Y-145153165D01*
X163091949Y-150096574D01*
X165672171Y-152587749D01*
X167795176Y-154705575D01*
X169236907Y-156220834D01*
X169599777Y-156642053D01*
X169632459Y-156692105D01*
X169797302Y-157916240D01*
X169901748Y-159539829D01*
X169904208Y-160391719D01*
X168274327Y-159719113D01*
X162433985Y-157225925D01*
X162433892Y-157225874D01*
X162396940Y-157210111D01*
X162362995Y-157195620D01*
X162362902Y-157195591D01*
X158420920Y-155513998D01*
X158413603Y-155510184D01*
X158385351Y-155498824D01*
X158357407Y-155486904D01*
X158349555Y-155484432D01*
X155675236Y-154409148D01*
X155655899Y-154400360D01*
X155639404Y-154394740D01*
X155623240Y-154388241D01*
X155602855Y-154382288D01*
X153989586Y-153832649D01*
X153989399Y-153832541D01*
X153917467Y-153808078D01*
X153879873Y-153795270D01*
X153879654Y-153795219D01*
X153879449Y-153795149D01*
X153841729Y-153786331D01*
X153766802Y-153768773D01*
X153766587Y-153768766D01*
X153349547Y-153671276D01*
X153337661Y-153666341D01*
X153274220Y-153653667D01*
X153249006Y-153647773D01*
X153236316Y-153646095D01*
X153223777Y-153643590D01*
X153198032Y-153641033D01*
X153133874Y-153632549D01*
X153121029Y-153633384D01*
X152858530Y-153607309D01*
X152857529Y-153607007D01*
X152781735Y-153599680D01*
X152744020Y-153595934D01*
X152742970Y-153595933D01*
X152741934Y-153595833D01*
X152704244Y-153595901D01*
X152627887Y-153595838D01*
X152626862Y-153596041D01*
X151600876Y-153597895D01*
X151592613Y-153596448D01*
X151523485Y-153598035D01*
X151493145Y-153598090D01*
X151484848Y-153598922D01*
X151437690Y-153600005D01*
X151407934Y-153606637D01*
X151377591Y-153609681D01*
X151332467Y-153623458D01*
X151286437Y-153633718D01*
X151258547Y-153646028D01*
X151229380Y-153654933D01*
X151187819Y-153677245D01*
X151144668Y-153696290D01*
X151119710Y-153713808D01*
X151092846Y-153728230D01*
X151056439Y-153758219D01*
X151017830Y-153785319D01*
X150996769Y-153807370D01*
X150973235Y-153826755D01*
X150943380Y-153863267D01*
X150910798Y-153897381D01*
X150894442Y-153923119D01*
X150875144Y-153946721D01*
X150852986Y-153988357D01*
X150827685Y-154028171D01*
X150816666Y-154056602D01*
X150802341Y-154083519D01*
X150788729Y-154128686D01*
X150785717Y-154136457D01*
X150777583Y-154165670D01*
X150757625Y-154231892D01*
X150756818Y-154240244D01*
X150168407Y-156353420D01*
X149880228Y-157341437D01*
X149624617Y-158102644D01*
X149394408Y-158650232D01*
X149193454Y-158995606D01*
X149033540Y-159172594D01*
X148896658Y-159257366D01*
X148702634Y-159311437D01*
X148389231Y-159332793D01*
X148075860Y-159311428D01*
X147881872Y-159257343D01*
X147744979Y-159172536D01*
X147585028Y-158995460D01*
X147384048Y-158649978D01*
X147153829Y-158102295D01*
X146898209Y-157340986D01*
X146610010Y-156352863D01*
X146021611Y-154240215D01*
X146020806Y-154231892D01*
X146000854Y-154165688D01*
X145992700Y-154136412D01*
X145989692Y-154128653D01*
X145976090Y-154083519D01*
X145961755Y-154056584D01*
X145950725Y-154028129D01*
X145925434Y-153988336D01*
X145903287Y-153946721D01*
X145883973Y-153923100D01*
X145867603Y-153897343D01*
X145835038Y-153863252D01*
X145805196Y-153826755D01*
X145781640Y-153807352D01*
X145760564Y-153785288D01*
X145721980Y-153758209D01*
X145685585Y-153728230D01*
X145658696Y-153713795D01*
X145633721Y-153696267D01*
X145590596Y-153677236D01*
X145549051Y-153654933D01*
X145519859Y-153646020D01*
X145491948Y-153633703D01*
X145445941Y-153623451D01*
X145400840Y-153609681D01*
X145370474Y-153606635D01*
X145340693Y-153599999D01*
X145293555Y-153598919D01*
X145285286Y-153598090D01*
X145254942Y-153598035D01*
X145185770Y-153596451D01*
X145177527Y-153597895D01*
X144151685Y-153596041D01*
X144150772Y-153595860D01*
X144074367Y-153595901D01*
X144036495Y-153595833D01*
X144035569Y-153595922D01*
X144034637Y-153595923D01*
X143996883Y-153599662D01*
X143920900Y-153607007D01*
X143920009Y-153607276D01*
X143657554Y-153633269D01*
X143644633Y-153632428D01*
X143580564Y-153640894D01*
X143554884Y-153643437D01*
X143542263Y-153645955D01*
X143529500Y-153647641D01*
X143504365Y-153653514D01*
X143440994Y-153666155D01*
X143429035Y-153671116D01*
X143011878Y-153768591D01*
X143011623Y-153768600D01*
X142937194Y-153786042D01*
X142899056Y-153794954D01*
X142898809Y-153795038D01*
X142898553Y-153795098D01*
X142861465Y-153807734D01*
X142789103Y-153832336D01*
X142788881Y-153832464D01*
X141175589Y-154382129D01*
X141155171Y-154388092D01*
X141138991Y-154394598D01*
X141122529Y-154400207D01*
X141103215Y-154408984D01*
X138428864Y-155484379D01*
X138421017Y-155486850D01*
X138393060Y-155498777D01*
X138364808Y-155510137D01*
X138357500Y-155513947D01*
X134415546Y-157195583D01*
X134415462Y-157195610D01*
X134377456Y-157211833D01*
X134344530Y-157225879D01*
X134344463Y-157225916D01*
X131616100Y-158390511D01*
X131616100Y-156525900D01*
X127278787Y-156525900D01*
X127541602Y-156220824D01*
X128983379Y-154705521D01*
X131106362Y-152587722D01*
X133686644Y-150096490D01*
X138841586Y-145152983D01*
X138845080Y-145150171D01*
X138869455Y-145126257D01*
X138894125Y-145102599D01*
X138897045Y-145099189D01*
X141988075Y-142066636D01*
X141995317Y-142060514D01*
X142015618Y-142039614D01*
X142036458Y-142019168D01*
X142042556Y-142011881D01*
X143668542Y-140337898D01*
X143690664Y-140320183D01*
X143722379Y-140282472D01*
X143729685Y-140274950D01*
X143747288Y-140252853D01*
X143790405Y-140201584D01*
X143795479Y-140192359D01*
X143802046Y-140184116D01*
X143832798Y-140124515D01*
X143865091Y-140065806D01*
X143868268Y-140055767D01*
X143873101Y-140046401D01*
X143891634Y-139981946D01*
X143911853Y-139918065D01*
X143913011Y-139907598D01*
X143915923Y-139897471D01*
X143921523Y-139830671D01*
X143928895Y-139764041D01*
X143927988Y-139753543D01*
X143928868Y-139743048D01*
X143921330Y-139676464D01*
X143918901Y-139648337D01*
X143916980Y-139638035D01*
X143911437Y-139589068D01*
X143902816Y-139562068D01*
X143275111Y-136195481D01*
X142806818Y-133590215D01*
X142440868Y-131273614D01*
X142327250Y-130366507D01*
X142428611Y-130518206D01*
X142686294Y-130775889D01*
X142989297Y-130978348D01*
X143048571Y-131002900D01*
X142747100Y-131002900D01*
X142582600Y-131167400D01*
X142579416Y-131438900D01*
X142592120Y-131567891D01*
X142629746Y-131691924D01*
X142690846Y-131806234D01*
X142773072Y-131906428D01*
X142873266Y-131988654D01*
X142987576Y-132049754D01*
X143111609Y-132087380D01*
X143240600Y-132100084D01*
X143597100Y-132096900D01*
X143761600Y-131932400D01*
X143761600Y-131188900D01*
X143969600Y-131188900D01*
X143969600Y-131932400D01*
X144134100Y-132096900D01*
X144490600Y-132100084D01*
X144619591Y-132087380D01*
X144743624Y-132049754D01*
X144857934Y-131988654D01*
X144958128Y-131906428D01*
X145040354Y-131806234D01*
X145101454Y-131691924D01*
X145139080Y-131567891D01*
X145151784Y-131438900D01*
X145148600Y-131167400D01*
X144984100Y-131002900D01*
X144682629Y-131002900D01*
X144741903Y-130978348D01*
X145044906Y-130775889D01*
X145302589Y-130518206D01*
X145505048Y-130215203D01*
X145581803Y-130029900D01*
X149480855Y-130029900D01*
X149480855Y-132529900D01*
X149493405Y-132657322D01*
X149530573Y-132779848D01*
X149590930Y-132892768D01*
X149672157Y-132991743D01*
X149771132Y-133072970D01*
X149884052Y-133133327D01*
X150006578Y-133170495D01*
X150134000Y-133183045D01*
X152634000Y-133183045D01*
X152761422Y-133170495D01*
X152883948Y-133133327D01*
X152996868Y-133072970D01*
X153095843Y-132991743D01*
X153177070Y-132892768D01*
X153237427Y-132779848D01*
X153274595Y-132657322D01*
X153287145Y-132529900D01*
X153287145Y-130029900D01*
X153274595Y-129902478D01*
X153237427Y-129779952D01*
X153177070Y-129667032D01*
X153095843Y-129568057D01*
X152996868Y-129486830D01*
X152883948Y-129426473D01*
X152761422Y-129389305D01*
X152634000Y-129376755D01*
X150134000Y-129376755D01*
X150006578Y-129389305D01*
X149884052Y-129426473D01*
X149771132Y-129486830D01*
X149672157Y-129568057D01*
X149590930Y-129667032D01*
X149530573Y-129779952D01*
X149493405Y-129902478D01*
X149480855Y-130029900D01*
X145581803Y-130029900D01*
X145644505Y-129878525D01*
X145715600Y-129521109D01*
X145715600Y-129156691D01*
X145644505Y-128799275D01*
X145505048Y-128462597D01*
X145302589Y-128159594D01*
X145143745Y-128000750D01*
X145143745Y-127238900D01*
X145131195Y-127111478D01*
X145094027Y-126988952D01*
X145033670Y-126876032D01*
X144952443Y-126777057D01*
X144853468Y-126695830D01*
X144740548Y-126635473D01*
X144618022Y-126598305D01*
X144490600Y-126585755D01*
X144335800Y-126585755D01*
X144335800Y-126155171D01*
X144361995Y-126152591D01*
X144531419Y-126101197D01*
X144687560Y-126017738D01*
X144824420Y-125905420D01*
X144936738Y-125768560D01*
X145020197Y-125612419D01*
X145071591Y-125442995D01*
X145088945Y-125266800D01*
X145088945Y-124516800D01*
X145071591Y-124340605D01*
X145020197Y-124171181D01*
X144936738Y-124015040D01*
X144824420Y-123878180D01*
X144687560Y-123765862D01*
X144531419Y-123682403D01*
X144361995Y-123631009D01*
X144185800Y-123613655D01*
X142935800Y-123613655D01*
X142759605Y-123631009D01*
X142590181Y-123682403D01*
X142434040Y-123765862D01*
X142297180Y-123878180D01*
X142184862Y-124015040D01*
X142101403Y-124171181D01*
X142050009Y-124340605D01*
X142032655Y-124516800D01*
X142032655Y-125266800D01*
X142050009Y-125442995D01*
X142101403Y-125612419D01*
X142184862Y-125768560D01*
X142297180Y-125905420D01*
X142434040Y-126017738D01*
X142590181Y-126101197D01*
X142759605Y-126152591D01*
X142785801Y-126155171D01*
X142785801Y-126771276D01*
X142778757Y-126777057D01*
X142697530Y-126876032D01*
X142637173Y-126988952D01*
X142600005Y-127111478D01*
X142587455Y-127238900D01*
X142587455Y-128000750D01*
X142428611Y-128159594D01*
X142226152Y-128462597D01*
X142130792Y-128692815D01*
X141956664Y-126722611D01*
X141809898Y-124093981D01*
X141768950Y-122828184D01*
X141865781Y-122857557D01*
X141979934Y-122868800D01*
X141979944Y-122868800D01*
X142018099Y-122872558D01*
X142056255Y-122868800D01*
X142131539Y-122868800D01*
X142184862Y-122968560D01*
X142297180Y-123105420D01*
X142434040Y-123217738D01*
X142590181Y-123301197D01*
X142759605Y-123352591D01*
X142935800Y-123369945D01*
X144185800Y-123369945D01*
X144361995Y-123352591D01*
X144531419Y-123301197D01*
X144687560Y-123217738D01*
X144824420Y-123105420D01*
X144936738Y-122968560D01*
X145020197Y-122812419D01*
X145071591Y-122642995D01*
X145088945Y-122466800D01*
X145088945Y-121716800D01*
X145071591Y-121540605D01*
X145020197Y-121371181D01*
X144936738Y-121215040D01*
X144824420Y-121078180D01*
X144687560Y-120965862D01*
X144531419Y-120882403D01*
X144361995Y-120831009D01*
X144185800Y-120813655D01*
X142935800Y-120813655D01*
X142759605Y-120831009D01*
X142611678Y-120875882D01*
X142495483Y-112512201D01*
X142495483Y-111646058D01*
X142621683Y-111730383D01*
X142894666Y-111843456D01*
X143184463Y-111901100D01*
X143479937Y-111901100D01*
X143769734Y-111843456D01*
X144042717Y-111730383D01*
X144186210Y-111634503D01*
X144186210Y-115185627D01*
X144182461Y-115223690D01*
X144186210Y-115261753D01*
X144186210Y-115261754D01*
X144197424Y-115375615D01*
X144241740Y-115521703D01*
X144246520Y-115530645D01*
X144313704Y-115656340D01*
X144333095Y-115679967D01*
X144410551Y-115774349D01*
X144440128Y-115798622D01*
X145634296Y-116992792D01*
X145658561Y-117022359D01*
X145688127Y-117046623D01*
X145688128Y-117046624D01*
X145776569Y-117119206D01*
X145911205Y-117191170D01*
X145942167Y-117200562D01*
X146057294Y-117235486D01*
X146171155Y-117246700D01*
X146171157Y-117246700D01*
X146209220Y-117250449D01*
X146247283Y-117246700D01*
X151078901Y-117246700D01*
X151078901Y-120110301D01*
X151078900Y-121876755D01*
X150134000Y-121876755D01*
X150006578Y-121889305D01*
X149884052Y-121926473D01*
X149771132Y-121986830D01*
X149672157Y-122068057D01*
X149590930Y-122167032D01*
X149530573Y-122279952D01*
X149493405Y-122402478D01*
X149480855Y-122529900D01*
X149480855Y-125029900D01*
X149493405Y-125157322D01*
X149530573Y-125279848D01*
X149590930Y-125392768D01*
X149672157Y-125491743D01*
X149771132Y-125572970D01*
X149884052Y-125633327D01*
X150006578Y-125670495D01*
X150134000Y-125683045D01*
X152634000Y-125683045D01*
X152761422Y-125670495D01*
X152883948Y-125633327D01*
X152996868Y-125572970D01*
X153095843Y-125491743D01*
X153177070Y-125392768D01*
X153237427Y-125279848D01*
X153274595Y-125157322D01*
X153287145Y-125029900D01*
X153287145Y-122529900D01*
X153274595Y-122402478D01*
X153237427Y-122279952D01*
X153177070Y-122167032D01*
X153095843Y-122068057D01*
X152996868Y-121986830D01*
X152883948Y-121926473D01*
X152761422Y-121889305D01*
X152634000Y-121876755D01*
X152628900Y-121876755D01*
X152628900Y-116509764D01*
X152632649Y-116471700D01*
X152628900Y-116433635D01*
X152628900Y-111529545D01*
X152634000Y-111529545D01*
X152761422Y-111516995D01*
X152883948Y-111479827D01*
X152996868Y-111419470D01*
X153095843Y-111338243D01*
X153177070Y-111239268D01*
X153237427Y-111126348D01*
X153274595Y-111003822D01*
X153287145Y-110876400D01*
X153287145Y-108376400D01*
X153274595Y-108248978D01*
X153237427Y-108126452D01*
X153177070Y-108013532D01*
X153095843Y-107914557D01*
X152996868Y-107833330D01*
X152883948Y-107772973D01*
X152761422Y-107735805D01*
X152634000Y-107723255D01*
X150134000Y-107723255D01*
X150006578Y-107735805D01*
X149884052Y-107772973D01*
X149771132Y-107833330D01*
X149672157Y-107914557D01*
X149590930Y-108013532D01*
X149530573Y-108126452D01*
X149493405Y-108248978D01*
X149480855Y-108376400D01*
X149480855Y-110876400D01*
X149493405Y-111003822D01*
X149530573Y-111126348D01*
X149590930Y-111239268D01*
X149672157Y-111338243D01*
X149771132Y-111419470D01*
X149884052Y-111479827D01*
X150006578Y-111516995D01*
X150134000Y-111529545D01*
X151078901Y-111529545D01*
X151078900Y-115696700D01*
X146530236Y-115696700D01*
X145736210Y-114902676D01*
X145736210Y-100876400D01*
X149480855Y-100876400D01*
X149480855Y-103376400D01*
X149493405Y-103503822D01*
X149530573Y-103626348D01*
X149590930Y-103739268D01*
X149672157Y-103838243D01*
X149771132Y-103919470D01*
X149884052Y-103979827D01*
X150006578Y-104016995D01*
X150134000Y-104029545D01*
X152634000Y-104029545D01*
X152761422Y-104016995D01*
X152883948Y-103979827D01*
X152996868Y-103919470D01*
X153095843Y-103838243D01*
X153177070Y-103739268D01*
X153237427Y-103626348D01*
X153274595Y-103503822D01*
X153287145Y-103376400D01*
X153287145Y-100876400D01*
X153274595Y-100748978D01*
X153237427Y-100626452D01*
X153177070Y-100513532D01*
X153095843Y-100414557D01*
X152996868Y-100333330D01*
X152883948Y-100272973D01*
X152761422Y-100235805D01*
X152634000Y-100223255D01*
X150134000Y-100223255D01*
X150006578Y-100235805D01*
X149884052Y-100272973D01*
X149771132Y-100333330D01*
X149672157Y-100414557D01*
X149590930Y-100513532D01*
X149530573Y-100626452D01*
X149493405Y-100748978D01*
X149480855Y-100876400D01*
X145736210Y-100876400D01*
X145736210Y-98899421D01*
X145861562Y-98847498D01*
X146033536Y-98732589D01*
X146074125Y-98692000D01*
X146187749Y-98692000D01*
X146225812Y-98695749D01*
X146263875Y-98692000D01*
X146263877Y-98692000D01*
X146377738Y-98680786D01*
X146523826Y-98636470D01*
X146658462Y-98564506D01*
X146776471Y-98467659D01*
X146800744Y-98438082D01*
X147706900Y-97531927D01*
X147736467Y-97507662D01*
X147778161Y-97456858D01*
X147833315Y-97389654D01*
X147905278Y-97255018D01*
X147949594Y-97108929D01*
X147964558Y-96957003D01*
X147960808Y-96918930D01*
X147960810Y-89390021D01*
X153817028Y-89390021D01*
X153855091Y-89393770D01*
X153893154Y-89390021D01*
X153893156Y-89390021D01*
X154007017Y-89378807D01*
X154153105Y-89334491D01*
X154287741Y-89262527D01*
X154405750Y-89165680D01*
X154430023Y-89136103D01*
X159910928Y-83655200D01*
X159940286Y-83655200D01*
X170341672Y-94056587D01*
X170365941Y-94086159D01*
X170441488Y-94148158D01*
X170483949Y-94183006D01*
X170555913Y-94221471D01*
X170618586Y-94254970D01*
X170764674Y-94299286D01*
X170878535Y-94310500D01*
X170878537Y-94310500D01*
X170916600Y-94314249D01*
X170954663Y-94310500D01*
X180336486Y-94310500D01*
X188718572Y-102692587D01*
X188742841Y-102722159D01*
X188860850Y-102819006D01*
X188995486Y-102890970D01*
X189141574Y-102935286D01*
X189255435Y-102946500D01*
X189255436Y-102946500D01*
X189293499Y-102950249D01*
X189331562Y-102946500D01*
X193264175Y-102946500D01*
X193269074Y-102947986D01*
X193382935Y-102959200D01*
X193382938Y-102959200D01*
X193421000Y-102962949D01*
X193459063Y-102959200D01*
X195815568Y-102959200D01*
X202355776Y-109499409D01*
X202279356Y-109611123D01*
X202209822Y-109773945D01*
X202173390Y-109947203D01*
X202171459Y-110124240D01*
X202204103Y-110298252D01*
X202270067Y-110462551D01*
X202366818Y-110610825D01*
X202490636Y-110737375D01*
X203065169Y-111219466D01*
X203211297Y-111319428D01*
X203374119Y-111388962D01*
X203547377Y-111425394D01*
X203724414Y-111427325D01*
X203898426Y-111394681D01*
X204062725Y-111328717D01*
X204210999Y-111231966D01*
X204337549Y-111108148D01*
X205141034Y-110150593D01*
X205240996Y-110004465D01*
X205310530Y-109841643D01*
X205346962Y-109668385D01*
X205348893Y-109491348D01*
X205316249Y-109317336D01*
X205250285Y-109153037D01*
X205153534Y-109004763D01*
X205029716Y-108878213D01*
X204455183Y-108396122D01*
X204309055Y-108296160D01*
X204146233Y-108226626D01*
X203972975Y-108190194D01*
X203795938Y-108188263D01*
X203621926Y-108220907D01*
X203457627Y-108286871D01*
X203383583Y-108335186D01*
X196711515Y-101663118D01*
X196687241Y-101633541D01*
X196569232Y-101536694D01*
X196434596Y-101464730D01*
X196288508Y-101420414D01*
X196174647Y-101409200D01*
X196174645Y-101409200D01*
X196136582Y-101405451D01*
X196098519Y-101409200D01*
X194168725Y-101409200D01*
X194163826Y-101407714D01*
X194049965Y-101396500D01*
X193446363Y-101396500D01*
X193408300Y-101392751D01*
X193370237Y-101396500D01*
X189614515Y-101396500D01*
X181232433Y-93014418D01*
X181208159Y-92984841D01*
X181090150Y-92887994D01*
X180955514Y-92816030D01*
X180809426Y-92771714D01*
X180695565Y-92760500D01*
X180695563Y-92760500D01*
X180657500Y-92756751D01*
X180619437Y-92760500D01*
X171237615Y-92760500D01*
X160836233Y-82359119D01*
X160811959Y-82329541D01*
X160695638Y-82234079D01*
X161455488Y-81474229D01*
X161485059Y-81449961D01*
X161547058Y-81374414D01*
X161581906Y-81331953D01*
X161647123Y-81209939D01*
X161653870Y-81197316D01*
X161698186Y-81051228D01*
X161709400Y-80937367D01*
X161709400Y-80937366D01*
X161713149Y-80899303D01*
X161709400Y-80861240D01*
X161709400Y-79680100D01*
X167208237Y-79680100D01*
X167246300Y-79683849D01*
X167284363Y-79680100D01*
X167284365Y-79680100D01*
X167398226Y-79668886D01*
X167544314Y-79624570D01*
X167678950Y-79552606D01*
X167796959Y-79455759D01*
X167821232Y-79426182D01*
X168396655Y-78850759D01*
X168396655Y-79101600D01*
X168409205Y-79229022D01*
X168446373Y-79351548D01*
X168506730Y-79464468D01*
X168587957Y-79563443D01*
X168686932Y-79644670D01*
X168799852Y-79705027D01*
X168922378Y-79742195D01*
X169049800Y-79754745D01*
X170649800Y-79754745D01*
X170777222Y-79742195D01*
X170899748Y-79705027D01*
X171012668Y-79644670D01*
X171111643Y-79563443D01*
X171192870Y-79464468D01*
X171253227Y-79351548D01*
X171290395Y-79229022D01*
X171302945Y-79101600D01*
X171302945Y-74202200D01*
X172649639Y-74202200D01*
X172651800Y-75683100D01*
G36*
X84074140Y-117012656D02*
G01*
X84090523Y-117001184D01*
X84209827Y-117171569D01*
X84193444Y-117183040D01*
X84204916Y-117199423D01*
X84034531Y-117318727D01*
X84023060Y-117302344D01*
X83130594Y-117927255D01*
X83090197Y-118156359D01*
X83667688Y-118986544D01*
X83120928Y-119477389D01*
X82360990Y-120158501D01*
X82072843Y-120388164D01*
X82074803Y-120369827D01*
X82278464Y-119333624D01*
X82589162Y-118288630D01*
X82813880Y-117722063D01*
X83011290Y-117756872D01*
X83903756Y-117131960D01*
X83892284Y-117115577D01*
X84062669Y-116996273D01*
X84074140Y-117012656D01*
G37*
X84074140Y-117012656D02*
X84090523Y-117001184D01*
X84209827Y-117171569D01*
X84193444Y-117183040D01*
X84204916Y-117199423D01*
X84034531Y-117318727D01*
X84023060Y-117302344D01*
X83130594Y-117927255D01*
X83090197Y-118156359D01*
X83667688Y-118986544D01*
X83120928Y-119477389D01*
X82360990Y-120158501D01*
X82072843Y-120388164D01*
X82074803Y-120369827D01*
X82278464Y-119333624D01*
X82589162Y-118288630D01*
X82813880Y-117722063D01*
X83011290Y-117756872D01*
X83903756Y-117131960D01*
X83892284Y-117115577D01*
X84062669Y-116996273D01*
X84074140Y-117012656D01*
G36*
X212869490Y-117175009D02*
G01*
X212856635Y-117190329D01*
X213691240Y-117890646D01*
X213922993Y-117870371D01*
X213990720Y-117790161D01*
X214188221Y-118288195D01*
X214498890Y-119333348D01*
X214702574Y-120369852D01*
X214704510Y-120387942D01*
X214416508Y-120158459D01*
X213656778Y-119477610D01*
X213041346Y-118925099D01*
X213577816Y-118281737D01*
X213557540Y-118049984D01*
X212722935Y-117349667D01*
X212710079Y-117364988D01*
X212550742Y-117231287D01*
X212563597Y-117215967D01*
X212548276Y-117203111D01*
X212681977Y-117043774D01*
X212697297Y-117056629D01*
X212710153Y-117041308D01*
X212869490Y-117175009D01*
G37*
X212869490Y-117175009D02*
X212856635Y-117190329D01*
X213691240Y-117890646D01*
X213922993Y-117870371D01*
X213990720Y-117790161D01*
X214188221Y-118288195D01*
X214498890Y-119333348D01*
X214702574Y-120369852D01*
X214704510Y-120387942D01*
X214416508Y-120158459D01*
X213656778Y-119477610D01*
X213041346Y-118925099D01*
X213577816Y-118281737D01*
X213557540Y-118049984D01*
X212722935Y-117349667D01*
X212710079Y-117364988D01*
X212550742Y-117231287D01*
X212563597Y-117215967D01*
X212548276Y-117203111D01*
X212681977Y-117043774D01*
X212697297Y-117056629D01*
X212710153Y-117041308D01*
X212869490Y-117175009D01*
G36*
X148651714Y-22301503D02*
G01*
X148882512Y-22365205D01*
X149126544Y-22474368D01*
X149385651Y-22635361D01*
X149657867Y-22852925D01*
X149939799Y-23129893D01*
X150227868Y-23467585D01*
X150511806Y-23856735D01*
X151098136Y-24846658D01*
X151121320Y-24896780D01*
X151090800Y-24927300D01*
X151090800Y-26616800D01*
X151110800Y-26616800D01*
X151110800Y-26824800D01*
X151090800Y-26824800D01*
X151090800Y-28514300D01*
X151255300Y-28678800D01*
X151686800Y-28681984D01*
X151815791Y-28669280D01*
X151939824Y-28631654D01*
X152054134Y-28570554D01*
X152154328Y-28488328D01*
X152236554Y-28388134D01*
X152297654Y-28273824D01*
X152335280Y-28149791D01*
X152346875Y-28032061D01*
X152684660Y-29178093D01*
X153240267Y-31560814D01*
X153715210Y-34206568D01*
X154111502Y-37149388D01*
X154431133Y-40422178D01*
X154676268Y-44057787D01*
X154849225Y-48088823D01*
X154952460Y-52547901D01*
X154988538Y-57470261D01*
X154994679Y-66689274D01*
X154993842Y-66693766D01*
X154994730Y-66766625D01*
X154994753Y-66800818D01*
X154995202Y-66805349D01*
X154995731Y-66848717D01*
X155002829Y-66882257D01*
X155006213Y-66916386D01*
X155018836Y-66957898D01*
X155027814Y-67000324D01*
X155041318Y-67031835D01*
X155051296Y-67064648D01*
X155071770Y-67102890D01*
X155088856Y-67142759D01*
X155108255Y-67171038D01*
X155124437Y-67201265D01*
X155151975Y-67234775D01*
X155176514Y-67270548D01*
X155201054Y-67294497D01*
X155222825Y-67320989D01*
X155256375Y-67348485D01*
X155259628Y-67351660D01*
X155286279Y-67372993D01*
X155342679Y-67419217D01*
X155346713Y-67421370D01*
X160460692Y-71515008D01*
X163598207Y-74026669D01*
X163654397Y-74072783D01*
X163692874Y-74093349D01*
X163729441Y-74117145D01*
X163761043Y-74129787D01*
X163791063Y-74145833D01*
X163832817Y-74158499D01*
X163873321Y-74174702D01*
X163906779Y-74180935D01*
X163939355Y-74190817D01*
X163982781Y-74195094D01*
X164025664Y-74203083D01*
X164098249Y-74202200D01*
X164129639Y-74202200D01*
X164131800Y-75683100D01*
X164296300Y-75847600D01*
X165485800Y-75847600D01*
X165485800Y-75827600D01*
X165693800Y-75827600D01*
X165693800Y-75847600D01*
X166883300Y-75847600D01*
X167047800Y-75683100D01*
X167049961Y-74202200D01*
X168396655Y-74202200D01*
X168396655Y-76658730D01*
X167050405Y-78004981D01*
X167047800Y-76220100D01*
X166883300Y-76055600D01*
X165693800Y-76055600D01*
X165693800Y-76075600D01*
X165485800Y-76075600D01*
X165485800Y-76055600D01*
X164296300Y-76055600D01*
X164131800Y-76220100D01*
X164129012Y-78130100D01*
X160972465Y-78130100D01*
X160934400Y-78126351D01*
X160896335Y-78130100D01*
X160875845Y-78132118D01*
X160875845Y-75946000D01*
X160863295Y-75818578D01*
X160826127Y-75696052D01*
X160765770Y-75583132D01*
X160684543Y-75484157D01*
X160585568Y-75402930D01*
X160472648Y-75342573D01*
X160350122Y-75305405D01*
X160222700Y-75292855D01*
X158952700Y-75292855D01*
X158825278Y-75305405D01*
X158702752Y-75342573D01*
X158589832Y-75402930D01*
X158490857Y-75484157D01*
X158409630Y-75583132D01*
X158349273Y-75696052D01*
X158312105Y-75818578D01*
X158299555Y-75946000D01*
X158299555Y-81026000D01*
X158312105Y-81153422D01*
X158349273Y-81275948D01*
X158399305Y-81369551D01*
X157373362Y-82395494D01*
X157965312Y-80626809D01*
X158203063Y-78759119D01*
X158071878Y-76880933D01*
X157576797Y-75064429D01*
X156736847Y-73379414D01*
X156433374Y-72925234D01*
X155350743Y-71885035D01*
X148749778Y-78486000D01*
X148763921Y-78500143D01*
X148616843Y-78647221D01*
X148602700Y-78633078D01*
X148588558Y-78647221D01*
X148441480Y-78500143D01*
X148455622Y-78486000D01*
X141854657Y-71885035D01*
X140772026Y-72925234D01*
X139837639Y-74559771D01*
X139240088Y-76345191D01*
X139002337Y-78212881D01*
X139133522Y-80091067D01*
X139628603Y-81907571D01*
X139789077Y-82229495D01*
X138848952Y-81289371D01*
X138856127Y-81275948D01*
X138893295Y-81153422D01*
X138905845Y-81026000D01*
X138905845Y-75946000D01*
X138893295Y-75818578D01*
X138856127Y-75696052D01*
X138795770Y-75583132D01*
X138714543Y-75484157D01*
X138615568Y-75402930D01*
X138502648Y-75342573D01*
X138380122Y-75305405D01*
X138252700Y-75292855D01*
X138146857Y-75292855D01*
X141701755Y-71737957D01*
X142001735Y-71737957D01*
X148602700Y-78338922D01*
X155203665Y-71737957D01*
X154163466Y-70655326D01*
X152528929Y-69720939D01*
X150743509Y-69123388D01*
X148875819Y-68885637D01*
X146997633Y-69016822D01*
X145181129Y-69511903D01*
X143496114Y-70351853D01*
X143041934Y-70655326D01*
X142001735Y-71737957D01*
X141701755Y-71737957D01*
X153060788Y-60378925D01*
X153090359Y-60354657D01*
X153163853Y-60265104D01*
X153187206Y-60236649D01*
X153259169Y-60102013D01*
X153259170Y-60102012D01*
X153303486Y-59955924D01*
X153314700Y-59842063D01*
X153314700Y-59842061D01*
X153318449Y-59803998D01*
X153314700Y-59765935D01*
X153314700Y-50431071D01*
X153340895Y-50428491D01*
X153510319Y-50377097D01*
X153666460Y-50293638D01*
X153803320Y-50181320D01*
X153915638Y-50044460D01*
X153999097Y-49888319D01*
X154050491Y-49718895D01*
X154067845Y-49542700D01*
X154067845Y-48792700D01*
X154050491Y-48616505D01*
X153999097Y-48447081D01*
X153915638Y-48290940D01*
X153803320Y-48154080D01*
X153666460Y-48041762D01*
X153510319Y-47958303D01*
X153340895Y-47906909D01*
X153164700Y-47889555D01*
X151914700Y-47889555D01*
X151738505Y-47906909D01*
X151688099Y-47922199D01*
X151688099Y-47613201D01*
X151738505Y-47628491D01*
X151914700Y-47645845D01*
X153164700Y-47645845D01*
X153340895Y-47628491D01*
X153510319Y-47577097D01*
X153666460Y-47493638D01*
X153803320Y-47381320D01*
X153915638Y-47244460D01*
X153999097Y-47088319D01*
X154050491Y-46918895D01*
X154067845Y-46742700D01*
X154067845Y-45992700D01*
X154050491Y-45816505D01*
X153999097Y-45647081D01*
X153915638Y-45490940D01*
X153803320Y-45354080D01*
X153684581Y-45256633D01*
X153703695Y-45193622D01*
X153716245Y-45066200D01*
X153716245Y-44304350D01*
X153875089Y-44145506D01*
X154077548Y-43842503D01*
X154217005Y-43505825D01*
X154288100Y-43148409D01*
X154288100Y-42783991D01*
X154217005Y-42426575D01*
X154077548Y-42089897D01*
X153875089Y-41786894D01*
X153617406Y-41529211D01*
X153314403Y-41326752D01*
X153255129Y-41302200D01*
X153556600Y-41302200D01*
X153721100Y-41137700D01*
X153724284Y-40866200D01*
X153711580Y-40737209D01*
X153673954Y-40613176D01*
X153612854Y-40498866D01*
X153530628Y-40398672D01*
X153430434Y-40316446D01*
X153316124Y-40255346D01*
X153192091Y-40217720D01*
X153063100Y-40205016D01*
X152706600Y-40208200D01*
X152542100Y-40372700D01*
X152542100Y-41116200D01*
X152334100Y-41116200D01*
X152334100Y-40372700D01*
X152169600Y-40208200D01*
X151813100Y-40205016D01*
X151688099Y-40217327D01*
X151688099Y-38048161D01*
X151691848Y-38010098D01*
X151688099Y-37972034D01*
X151676885Y-37858173D01*
X151632569Y-37712085D01*
X151599070Y-37649412D01*
X151560605Y-37577448D01*
X151525757Y-37534987D01*
X151463758Y-37459440D01*
X151434186Y-37435171D01*
X147039623Y-33040608D01*
X147044745Y-32988600D01*
X147044745Y-32238600D01*
X147027391Y-32062405D01*
X146975997Y-31892981D01*
X146892538Y-31736840D01*
X146780220Y-31599980D01*
X146643360Y-31487662D01*
X146487219Y-31404203D01*
X146317795Y-31352809D01*
X146141600Y-31335455D01*
X144891600Y-31335455D01*
X144715405Y-31352809D01*
X144545981Y-31404203D01*
X144389840Y-31487662D01*
X144252980Y-31599980D01*
X144140662Y-31736840D01*
X144057203Y-31892981D01*
X144005809Y-32062405D01*
X143988455Y-32238600D01*
X143988455Y-32988600D01*
X144005809Y-33164795D01*
X144057203Y-33334219D01*
X144140662Y-33490360D01*
X144252980Y-33627220D01*
X144389840Y-33739538D01*
X144545981Y-33822997D01*
X144715405Y-33874391D01*
X144891600Y-33891745D01*
X145698731Y-33891745D01*
X150138100Y-38331115D01*
X150138099Y-49630636D01*
X150134350Y-49668699D01*
X150138099Y-49706762D01*
X150138099Y-49706763D01*
X150149313Y-49820624D01*
X150193629Y-49966712D01*
X150193630Y-49966713D01*
X150265593Y-50101349D01*
X150285676Y-50125820D01*
X150362440Y-50219358D01*
X150392017Y-50243631D01*
X151314690Y-51166305D01*
X151314691Y-59296582D01*
X142586312Y-68024962D01*
X142586306Y-68024967D01*
X135553905Y-75057369D01*
X135524333Y-75081638D01*
X135469947Y-75147908D01*
X135427485Y-75199647D01*
X135355522Y-75334283D01*
X135311206Y-75480371D01*
X135296242Y-75632297D01*
X135299992Y-75670370D01*
X135299990Y-79756584D01*
X130401506Y-84655070D01*
X130350984Y-84655070D01*
X130148126Y-84695420D01*
X129957038Y-84774572D01*
X129785064Y-84889481D01*
X129638811Y-85035734D01*
X129523902Y-85207708D01*
X129444750Y-85398796D01*
X129404400Y-85601654D01*
X129404400Y-85655070D01*
X124539349Y-85655070D01*
X124501286Y-85651321D01*
X124463223Y-85655070D01*
X124463221Y-85655070D01*
X124349360Y-85666284D01*
X124203272Y-85710600D01*
X124176399Y-85724964D01*
X124068635Y-85782564D01*
X124037050Y-85808486D01*
X123950627Y-85879411D01*
X123926358Y-85908983D01*
X120923047Y-88912295D01*
X120775483Y-88882943D01*
X120497343Y-88882943D01*
X120224548Y-88937205D01*
X119967580Y-89043645D01*
X119736316Y-89198171D01*
X119539641Y-89394846D01*
X119385115Y-89626110D01*
X119278675Y-89883078D01*
X119224413Y-90155873D01*
X119224413Y-90434013D01*
X119264811Y-90637107D01*
X119102525Y-90569886D01*
X118829730Y-90515624D01*
X118551590Y-90515624D01*
X118278795Y-90569886D01*
X118021827Y-90676326D01*
X117790563Y-90830852D01*
X117593888Y-91027527D01*
X117439362Y-91258791D01*
X117332922Y-91515759D01*
X117278660Y-91788554D01*
X117278660Y-92066694D01*
X117316172Y-92255280D01*
X117190091Y-92204660D01*
X116958160Y-92316076D01*
X116873415Y-93284715D01*
X116759048Y-93399082D01*
X116906129Y-93546163D01*
X116976154Y-93476138D01*
X118007264Y-93566349D01*
X118157261Y-93357288D01*
X118123814Y-93221167D01*
X118278795Y-93285362D01*
X118551590Y-93339624D01*
X118829730Y-93339624D01*
X119032823Y-93299227D01*
X118965602Y-93461511D01*
X118911340Y-93734306D01*
X118911340Y-94012446D01*
X118951738Y-94215540D01*
X118789452Y-94148319D01*
X118516657Y-94094057D01*
X118238517Y-94094057D01*
X118049931Y-94131569D01*
X118100551Y-94005488D01*
X117989135Y-93773557D01*
X117020496Y-93688812D01*
X116906129Y-93574445D01*
X116759048Y-93721526D01*
X116829073Y-93791551D01*
X116738862Y-94822661D01*
X116947923Y-94972658D01*
X117084044Y-94939211D01*
X117019849Y-95094192D01*
X116965587Y-95366987D01*
X116965587Y-95645127D01*
X117019849Y-95917922D01*
X117079735Y-96062500D01*
X114477762Y-96062500D01*
X114439699Y-96058751D01*
X114401636Y-96062500D01*
X114401635Y-96062500D01*
X114287774Y-96073714D01*
X114141686Y-96118030D01*
X114007050Y-96189994D01*
X113889041Y-96286841D01*
X113864772Y-96316413D01*
X109203786Y-100977400D01*
X104241563Y-100977400D01*
X104203500Y-100973651D01*
X104165437Y-100977400D01*
X104165435Y-100977400D01*
X104051574Y-100988614D01*
X103939487Y-101022616D01*
X103905485Y-101032930D01*
X103770849Y-101104894D01*
X103728388Y-101139742D01*
X103652841Y-101201741D01*
X103628572Y-101231313D01*
X97938886Y-106921000D01*
X95326163Y-106921000D01*
X95288100Y-106917251D01*
X95250037Y-106921000D01*
X95250035Y-106921000D01*
X95136174Y-106932214D01*
X95024087Y-106966216D01*
X94990085Y-106976530D01*
X94855449Y-107048494D01*
X94812988Y-107083342D01*
X94737441Y-107145341D01*
X94713172Y-107174913D01*
X93835893Y-108052192D01*
X93761849Y-108003877D01*
X93597550Y-107937913D01*
X93423538Y-107905269D01*
X93246501Y-107907200D01*
X93073243Y-107943632D01*
X92910421Y-108013166D01*
X92764293Y-108113128D01*
X92189760Y-108595219D01*
X92065942Y-108721769D01*
X91969191Y-108870043D01*
X91903227Y-109034342D01*
X91870583Y-109208354D01*
X91872514Y-109385391D01*
X91908946Y-109558649D01*
X91978480Y-109721471D01*
X92078442Y-109867599D01*
X92881927Y-110825154D01*
X93008477Y-110948972D01*
X93156751Y-111045723D01*
X93321050Y-111111687D01*
X93495062Y-111144331D01*
X93672099Y-111142400D01*
X93845357Y-111105968D01*
X94008179Y-111036434D01*
X94154307Y-110936472D01*
X94728840Y-110454381D01*
X94852658Y-110327831D01*
X94949409Y-110179557D01*
X95015373Y-110015258D01*
X95048017Y-109841246D01*
X95046086Y-109664209D01*
X95009654Y-109490951D01*
X94940120Y-109328129D01*
X94863700Y-109216415D01*
X95609115Y-108471000D01*
X98221837Y-108471000D01*
X98259900Y-108474749D01*
X98297963Y-108471000D01*
X98297965Y-108471000D01*
X98411826Y-108459786D01*
X98557914Y-108415470D01*
X98692550Y-108343506D01*
X98810559Y-108246659D01*
X98834832Y-108217082D01*
X104524515Y-102527400D01*
X109486737Y-102527400D01*
X109524800Y-102531149D01*
X109562863Y-102527400D01*
X109562865Y-102527400D01*
X109676726Y-102516186D01*
X109822814Y-102471870D01*
X109957450Y-102399906D01*
X110075459Y-102303059D01*
X110099732Y-102273482D01*
X114760715Y-97612500D01*
X123382839Y-97612500D01*
X123420902Y-97616249D01*
X123458965Y-97612500D01*
X123458967Y-97612500D01*
X123572828Y-97601286D01*
X123718916Y-97556970D01*
X123853552Y-97485006D01*
X123971561Y-97388159D01*
X123995834Y-97358582D01*
X127954389Y-93400028D01*
X127983960Y-93375760D01*
X128045959Y-93300213D01*
X128080807Y-93257752D01*
X128152770Y-93123116D01*
X128152771Y-93123115D01*
X128197087Y-92977027D01*
X128208301Y-92863166D01*
X128208301Y-92863165D01*
X128212050Y-92825102D01*
X128208301Y-92787039D01*
X128208301Y-91910200D01*
X128461775Y-91910200D01*
X128502364Y-91950789D01*
X128674338Y-92065698D01*
X128865426Y-92144850D01*
X129068284Y-92185200D01*
X129275116Y-92185200D01*
X129477974Y-92144850D01*
X129669062Y-92065698D01*
X129841036Y-91950789D01*
X129987289Y-91804536D01*
X130102198Y-91632562D01*
X130134601Y-91554336D01*
X130134600Y-94981647D01*
X130130841Y-95019810D01*
X130134600Y-95057973D01*
X130134600Y-95057975D01*
X130145843Y-95172128D01*
X130178417Y-95279508D01*
X130190273Y-95318593D01*
X130262423Y-95453576D01*
X130305493Y-95506057D01*
X130359520Y-95571890D01*
X130389170Y-95596223D01*
X133437162Y-98644216D01*
X125641685Y-98644216D01*
X125595731Y-98640545D01*
X125526001Y-98648715D01*
X125456109Y-98655599D01*
X125449096Y-98657726D01*
X125441819Y-98658579D01*
X125375035Y-98680193D01*
X125307817Y-98700583D01*
X125267149Y-98722321D01*
X116147534Y-102698617D01*
X116146602Y-102698921D01*
X116111957Y-102714129D01*
X116077582Y-102729117D01*
X116076734Y-102729591D01*
X108028802Y-106262354D01*
X108027027Y-106262943D01*
X107993394Y-106277897D01*
X107959745Y-106292668D01*
X107958117Y-106293582D01*
X100604750Y-109563112D01*
X100602449Y-109563891D01*
X100569383Y-109578838D01*
X100536343Y-109593528D01*
X100534238Y-109594723D01*
X94770964Y-112199825D01*
X94765584Y-112201733D01*
X94735743Y-112215745D01*
X94705736Y-112229309D01*
X94700796Y-112232155D01*
X91414272Y-113775395D01*
X91397341Y-113782300D01*
X91379317Y-113791809D01*
X91360873Y-113800469D01*
X91345165Y-113809824D01*
X90314905Y-114353323D01*
X90301658Y-114359305D01*
X90280727Y-114371353D01*
X90259393Y-114382608D01*
X90247279Y-114390607D01*
X90150231Y-114446472D01*
X89731147Y-113847959D01*
X90846760Y-112732347D01*
X90863553Y-112748778D01*
X91011827Y-112845529D01*
X91176126Y-112911493D01*
X91350138Y-112944137D01*
X91527175Y-112942206D01*
X91700433Y-112905774D01*
X91863255Y-112836240D01*
X92009383Y-112736278D01*
X92583916Y-112254187D01*
X92707734Y-112127637D01*
X92804485Y-111979363D01*
X92870449Y-111815064D01*
X92903093Y-111641052D01*
X92901162Y-111464015D01*
X92864730Y-111290757D01*
X92795196Y-111127935D01*
X92695234Y-110981807D01*
X91891749Y-110024252D01*
X91765199Y-109900434D01*
X91616925Y-109803683D01*
X91452626Y-109737719D01*
X91278614Y-109705075D01*
X91101577Y-109707006D01*
X90928319Y-109743438D01*
X90765497Y-109812972D01*
X90619369Y-109912934D01*
X90044836Y-110395025D01*
X89921018Y-110521575D01*
X89824267Y-110669849D01*
X89758303Y-110834148D01*
X89725659Y-111008160D01*
X89727590Y-111185197D01*
X89764022Y-111358455D01*
X89833556Y-111521277D01*
X89846654Y-111540424D01*
X88828390Y-112558688D01*
X88670972Y-112333872D01*
X88587605Y-112236693D01*
X88486882Y-112157644D01*
X88372672Y-112099765D01*
X88249364Y-112065279D01*
X88121699Y-112055511D01*
X87994581Y-112070838D01*
X87872895Y-112110670D01*
X87761318Y-112173476D01*
X86614505Y-112976483D01*
X86517326Y-113059850D01*
X86438277Y-113160574D01*
X86380398Y-113274784D01*
X86345912Y-113398091D01*
X86336144Y-113525756D01*
X86351471Y-113652875D01*
X86391303Y-113774560D01*
X86454109Y-113886137D01*
X87830780Y-115852227D01*
X86993295Y-116409749D01*
X86982485Y-116415950D01*
X86961133Y-116431160D01*
X86939329Y-116445675D01*
X86929691Y-116453557D01*
X85933325Y-117163306D01*
X85922203Y-117170186D01*
X85901860Y-117185720D01*
X85881024Y-117200562D01*
X85871174Y-117209152D01*
X85789402Y-117271591D01*
X85687798Y-117127434D01*
X86783566Y-116031666D01*
X86809185Y-115997427D01*
X86820667Y-115970357D01*
X86826648Y-115941566D01*
X86826897Y-115912162D01*
X86821405Y-115883275D01*
X86810382Y-115856013D01*
X86794253Y-115831426D01*
X86773638Y-115810458D01*
X85465538Y-114718258D01*
X85428071Y-114695351D01*
X85400012Y-114686557D01*
X85370776Y-114683406D01*
X85341487Y-114686020D01*
X85313271Y-114694297D01*
X85287212Y-114707920D01*
X85264311Y-114726365D01*
X84565811Y-115412165D01*
X84555341Y-115423565D01*
X84522921Y-115462739D01*
X84417967Y-115311859D01*
X84333575Y-115213483D01*
X84231611Y-115133462D01*
X84165482Y-115099949D01*
X84180721Y-115074196D01*
X84933898Y-113979441D01*
X85799120Y-112875266D01*
X86764027Y-111777245D01*
X87411940Y-111172452D01*
X88741145Y-110021821D01*
X93079363Y-106393509D01*
X99095956Y-101461363D01*
X106152429Y-95753364D01*
X108617345Y-93763320D01*
X115332553Y-93763320D01*
X115399297Y-94034956D01*
X115517753Y-94288351D01*
X115683367Y-94513768D01*
X115889775Y-94702544D01*
X116129047Y-94847424D01*
X116299723Y-94915948D01*
X116531654Y-94804532D01*
X116632239Y-93654844D01*
X115482550Y-93554259D01*
X115332553Y-93763320D01*
X108617345Y-93763320D01*
X109420221Y-93115120D01*
X115389263Y-93115120D01*
X115500679Y-93347051D01*
X116650367Y-93447636D01*
X116750952Y-92297947D01*
X116541891Y-92147950D01*
X116270255Y-92214694D01*
X116016860Y-92333150D01*
X115791443Y-92498764D01*
X115602667Y-92705172D01*
X115457787Y-92944444D01*
X115389263Y-93115120D01*
X109420221Y-93115120D01*
X114575893Y-88952703D01*
X114578652Y-88950858D01*
X114605888Y-88928487D01*
X114633431Y-88906250D01*
X114635807Y-88903912D01*
X120052888Y-84454404D01*
X120057954Y-84450900D01*
X120082703Y-84429915D01*
X120107838Y-84409269D01*
X120112202Y-84404901D01*
X121815621Y-82960516D01*
X121823023Y-82955137D01*
X121845044Y-82935567D01*
X121867569Y-82916467D01*
X121873950Y-82909877D01*
X123006107Y-81903717D01*
X123023510Y-81889484D01*
X123034942Y-81878091D01*
X123047029Y-81867349D01*
X123062319Y-81850807D01*
X123643411Y-81271687D01*
X123656987Y-81261794D01*
X123698178Y-81217106D01*
X123713756Y-81201581D01*
X123724385Y-81188674D01*
X123735697Y-81176402D01*
X123748922Y-81158879D01*
X123787583Y-81111934D01*
X123795531Y-81097124D01*
X123875504Y-80991164D01*
X123906037Y-80956813D01*
X123941635Y-80896094D01*
X123978305Y-80836062D01*
X123980780Y-80829325D01*
X123984412Y-80823129D01*
X124007480Y-80756632D01*
X124031734Y-80690599D01*
X124038858Y-80645200D01*
X124040898Y-80636709D01*
X124048143Y-80618734D01*
X124058957Y-80561525D01*
X124063491Y-80542650D01*
X124066135Y-80523554D01*
X124076926Y-80466466D01*
X124076740Y-80446951D01*
X124079417Y-80427614D01*
X124076003Y-80369605D01*
X124075449Y-80311509D01*
X124071459Y-80292403D01*
X124070312Y-80272917D01*
X124055648Y-80216696D01*
X124043770Y-80159819D01*
X124036128Y-80141856D01*
X124031202Y-80122969D01*
X124005853Y-80070690D01*
X123983106Y-80017222D01*
X123972107Y-80001095D01*
X123963591Y-79983533D01*
X123928529Y-79937202D01*
X123917668Y-79921279D01*
X123905215Y-79906397D01*
X123870077Y-79859966D01*
X123855588Y-79847088D01*
X123764002Y-79737634D01*
X123747025Y-79711654D01*
X123714396Y-79678350D01*
X123709400Y-79672379D01*
X123687382Y-79650777D01*
X123665751Y-79628698D01*
X123659772Y-79623688D01*
X123626502Y-79591046D01*
X123600540Y-79574054D01*
X123412692Y-79416646D01*
X123401172Y-79403539D01*
X123353409Y-79366970D01*
X123337059Y-79353270D01*
X123322732Y-79343483D01*
X123308961Y-79332940D01*
X123290839Y-79321698D01*
X123241162Y-79287764D01*
X123225110Y-79280922D01*
X122819003Y-79028986D01*
X123286000Y-79031784D01*
X123414991Y-79019080D01*
X123539024Y-78981454D01*
X123653334Y-78920354D01*
X123753528Y-78838128D01*
X123835754Y-78737934D01*
X123896854Y-78623624D01*
X123934480Y-78499591D01*
X123947184Y-78370600D01*
X123944000Y-76189100D01*
X123779500Y-76024600D01*
X122590000Y-76024600D01*
X122590000Y-76044600D01*
X122382000Y-76044600D01*
X122382000Y-76024600D01*
X122362000Y-76024600D01*
X122362000Y-75816600D01*
X122382000Y-75816600D01*
X122382000Y-75796600D01*
X122590000Y-75796600D01*
X122590000Y-75816600D01*
X123779500Y-75816600D01*
X123944000Y-75652100D01*
X123946116Y-74202208D01*
X125292855Y-74202208D01*
X125292855Y-79070600D01*
X125305405Y-79198022D01*
X125342573Y-79320548D01*
X125402930Y-79433468D01*
X125484157Y-79532443D01*
X125583132Y-79613670D01*
X125696052Y-79674027D01*
X125818578Y-79711195D01*
X125946000Y-79723745D01*
X127546000Y-79723745D01*
X127673422Y-79711195D01*
X127795948Y-79674027D01*
X127908868Y-79613670D01*
X128007843Y-79532443D01*
X128089070Y-79433468D01*
X128149427Y-79320548D01*
X128186595Y-79198022D01*
X128199145Y-79070600D01*
X128199145Y-76977000D01*
X128273275Y-76977000D01*
X128311864Y-77015589D01*
X128483838Y-77130498D01*
X128674926Y-77209650D01*
X128877784Y-77250000D01*
X129084616Y-77250000D01*
X129287474Y-77209650D01*
X129478562Y-77130498D01*
X129546692Y-77084975D01*
X129544816Y-78370600D01*
X129557520Y-78499591D01*
X129595146Y-78623624D01*
X129656246Y-78737934D01*
X129738472Y-78838128D01*
X129838666Y-78920354D01*
X129952976Y-78981454D01*
X130077009Y-79019080D01*
X130206000Y-79031784D01*
X130737500Y-79028600D01*
X130902000Y-78864100D01*
X130902000Y-76024600D01*
X131110000Y-76024600D01*
X131110000Y-78864100D01*
X131274500Y-79028600D01*
X131806000Y-79031784D01*
X131934991Y-79019080D01*
X132059024Y-78981454D01*
X132173334Y-78920354D01*
X132273528Y-78838128D01*
X132355754Y-78737934D01*
X132416854Y-78623624D01*
X132454480Y-78499591D01*
X132467184Y-78370600D01*
X132464000Y-76189100D01*
X132299500Y-76024600D01*
X131110000Y-76024600D01*
X130902000Y-76024600D01*
X130882000Y-76024600D01*
X130882000Y-75816600D01*
X130902000Y-75816600D01*
X130902000Y-75796600D01*
X131110000Y-75796600D01*
X131110000Y-75816600D01*
X132299500Y-75816600D01*
X132464000Y-75652100D01*
X132466116Y-74202208D01*
X132626174Y-74202208D01*
X132697063Y-74203382D01*
X132741682Y-74195272D01*
X132786838Y-74190825D01*
X132817757Y-74181446D01*
X132849530Y-74175671D01*
X132891711Y-74159012D01*
X132935130Y-74145841D01*
X132963622Y-74130612D01*
X132993661Y-74118748D01*
X133031786Y-74094177D01*
X133071796Y-74072791D01*
X133126665Y-74027762D01*
X136348440Y-71471821D01*
X136350083Y-71470750D01*
X136378636Y-71447865D01*
X136407441Y-71425013D01*
X136408858Y-71423643D01*
X141362221Y-67453555D01*
X141421499Y-67406359D01*
X141447395Y-67375741D01*
X141476094Y-67347699D01*
X141497325Y-67316707D01*
X141521571Y-67288040D01*
X141540999Y-67252953D01*
X141563673Y-67219855D01*
X141578447Y-67185324D01*
X141596638Y-67152471D01*
X141608849Y-67114263D01*
X141624628Y-67077383D01*
X141632381Y-67040636D01*
X141643814Y-67004862D01*
X141648337Y-66965004D01*
X141656617Y-66925756D01*
X141657496Y-66849753D01*
X141836239Y-54786147D01*
X141967522Y-48787997D01*
X142177367Y-43597939D01*
X142475603Y-39132773D01*
X142660182Y-37154752D01*
X142870429Y-35327214D01*
X143107066Y-33643750D01*
X143371040Y-32094833D01*
X143663242Y-30670797D01*
X143984505Y-29361884D01*
X144001877Y-29302329D01*
X143988455Y-29438600D01*
X143988455Y-30188600D01*
X144005809Y-30364795D01*
X144057203Y-30534219D01*
X144140662Y-30690360D01*
X144252980Y-30827220D01*
X144389840Y-30939538D01*
X144545981Y-31022997D01*
X144715405Y-31074391D01*
X144891600Y-31091745D01*
X146141600Y-31091745D01*
X146317795Y-31074391D01*
X146487219Y-31022997D01*
X146643360Y-30939538D01*
X146780220Y-30827220D01*
X146892538Y-30690360D01*
X146975997Y-30534219D01*
X147027391Y-30364795D01*
X147044745Y-30188600D01*
X147044745Y-29438600D01*
X147027391Y-29262405D01*
X146975997Y-29092981D01*
X146892538Y-28936840D01*
X146780220Y-28799980D01*
X146643360Y-28687662D01*
X146597330Y-28663059D01*
X146614222Y-28661395D01*
X146736748Y-28624227D01*
X146849668Y-28563870D01*
X146948643Y-28482643D01*
X147029870Y-28383668D01*
X147050373Y-28345309D01*
X149765139Y-28422365D01*
X149819272Y-28488328D01*
X149919466Y-28570554D01*
X150033776Y-28631654D01*
X150157809Y-28669280D01*
X150286800Y-28681984D01*
X150718300Y-28678800D01*
X150882800Y-28514300D01*
X150882800Y-26824800D01*
X150862800Y-26824800D01*
X150862800Y-26616800D01*
X150882800Y-26616800D01*
X150882800Y-24927300D01*
X150718300Y-24762800D01*
X150286800Y-24759616D01*
X150157809Y-24772320D01*
X150033776Y-24809946D01*
X150020469Y-24817059D01*
X150022671Y-24704433D01*
X150018478Y-24666161D01*
X150008782Y-24638400D01*
X149993858Y-24613064D01*
X149974277Y-24591127D01*
X149950792Y-24573431D01*
X149924307Y-24560657D01*
X148260607Y-23951057D01*
X148224296Y-23942682D01*
X148194891Y-23942565D01*
X148166028Y-23948187D01*
X148138817Y-23959332D01*
X146627517Y-24759432D01*
X146607083Y-24772465D01*
X146600212Y-24778825D01*
X146486800Y-24767655D01*
X145744305Y-24767655D01*
X145954016Y-24382904D01*
X146331426Y-23794999D01*
X146704977Y-23309665D01*
X147068816Y-22925640D01*
X147416176Y-22639630D01*
X147740715Y-22444832D01*
X148028049Y-22334613D01*
X148435252Y-22278019D01*
X148651714Y-22301503D01*
G37*
X148651714Y-22301503D02*
X148882512Y-22365205D01*
X149126544Y-22474368D01*
X149385651Y-22635361D01*
X149657867Y-22852925D01*
X149939799Y-23129893D01*
X150227868Y-23467585D01*
X150511806Y-23856735D01*
X151098136Y-24846658D01*
X151121320Y-24896780D01*
X151090800Y-24927300D01*
X151090800Y-26616800D01*
X151110800Y-26616800D01*
X151110800Y-26824800D01*
X151090800Y-26824800D01*
X151090800Y-28514300D01*
X151255300Y-28678800D01*
X151686800Y-28681984D01*
X151815791Y-28669280D01*
X151939824Y-28631654D01*
X152054134Y-28570554D01*
X152154328Y-28488328D01*
X152236554Y-28388134D01*
X152297654Y-28273824D01*
X152335280Y-28149791D01*
X152346875Y-28032061D01*
X152684660Y-29178093D01*
X153240267Y-31560814D01*
X153715210Y-34206568D01*
X154111502Y-37149388D01*
X154431133Y-40422178D01*
X154676268Y-44057787D01*
X154849225Y-48088823D01*
X154952460Y-52547901D01*
X154988538Y-57470261D01*
X154994679Y-66689274D01*
X154993842Y-66693766D01*
X154994730Y-66766625D01*
X154994753Y-66800818D01*
X154995202Y-66805349D01*
X154995731Y-66848717D01*
X155002829Y-66882257D01*
X155006213Y-66916386D01*
X155018836Y-66957898D01*
X155027814Y-67000324D01*
X155041318Y-67031835D01*
X155051296Y-67064648D01*
X155071770Y-67102890D01*
X155088856Y-67142759D01*
X155108255Y-67171038D01*
X155124437Y-67201265D01*
X155151975Y-67234775D01*
X155176514Y-67270548D01*
X155201054Y-67294497D01*
X155222825Y-67320989D01*
X155256375Y-67348485D01*
X155259628Y-67351660D01*
X155286279Y-67372993D01*
X155342679Y-67419217D01*
X155346713Y-67421370D01*
X160460692Y-71515008D01*
X163598207Y-74026669D01*
X163654397Y-74072783D01*
X163692874Y-74093349D01*
X163729441Y-74117145D01*
X163761043Y-74129787D01*
X163791063Y-74145833D01*
X163832817Y-74158499D01*
X163873321Y-74174702D01*
X163906779Y-74180935D01*
X163939355Y-74190817D01*
X163982781Y-74195094D01*
X164025664Y-74203083D01*
X164098249Y-74202200D01*
X164129639Y-74202200D01*
X164131800Y-75683100D01*
X164296300Y-75847600D01*
X165485800Y-75847600D01*
X165485800Y-75827600D01*
X165693800Y-75827600D01*
X165693800Y-75847600D01*
X166883300Y-75847600D01*
X167047800Y-75683100D01*
X167049961Y-74202200D01*
X168396655Y-74202200D01*
X168396655Y-76658730D01*
X167050405Y-78004981D01*
X167047800Y-76220100D01*
X166883300Y-76055600D01*
X165693800Y-76055600D01*
X165693800Y-76075600D01*
X165485800Y-76075600D01*
X165485800Y-76055600D01*
X164296300Y-76055600D01*
X164131800Y-76220100D01*
X164129012Y-78130100D01*
X160972465Y-78130100D01*
X160934400Y-78126351D01*
X160896335Y-78130100D01*
X160875845Y-78132118D01*
X160875845Y-75946000D01*
X160863295Y-75818578D01*
X160826127Y-75696052D01*
X160765770Y-75583132D01*
X160684543Y-75484157D01*
X160585568Y-75402930D01*
X160472648Y-75342573D01*
X160350122Y-75305405D01*
X160222700Y-75292855D01*
X158952700Y-75292855D01*
X158825278Y-75305405D01*
X158702752Y-75342573D01*
X158589832Y-75402930D01*
X158490857Y-75484157D01*
X158409630Y-75583132D01*
X158349273Y-75696052D01*
X158312105Y-75818578D01*
X158299555Y-75946000D01*
X158299555Y-81026000D01*
X158312105Y-81153422D01*
X158349273Y-81275948D01*
X158399305Y-81369551D01*
X157373362Y-82395494D01*
X157965312Y-80626809D01*
X158203063Y-78759119D01*
X158071878Y-76880933D01*
X157576797Y-75064429D01*
X156736847Y-73379414D01*
X156433374Y-72925234D01*
X155350743Y-71885035D01*
X148749778Y-78486000D01*
X148763921Y-78500143D01*
X148616843Y-78647221D01*
X148602700Y-78633078D01*
X148588558Y-78647221D01*
X148441480Y-78500143D01*
X148455622Y-78486000D01*
X141854657Y-71885035D01*
X140772026Y-72925234D01*
X139837639Y-74559771D01*
X139240088Y-76345191D01*
X139002337Y-78212881D01*
X139133522Y-80091067D01*
X139628603Y-81907571D01*
X139789077Y-82229495D01*
X138848952Y-81289371D01*
X138856127Y-81275948D01*
X138893295Y-81153422D01*
X138905845Y-81026000D01*
X138905845Y-75946000D01*
X138893295Y-75818578D01*
X138856127Y-75696052D01*
X138795770Y-75583132D01*
X138714543Y-75484157D01*
X138615568Y-75402930D01*
X138502648Y-75342573D01*
X138380122Y-75305405D01*
X138252700Y-75292855D01*
X138146857Y-75292855D01*
X141701755Y-71737957D01*
X142001735Y-71737957D01*
X148602700Y-78338922D01*
X155203665Y-71737957D01*
X154163466Y-70655326D01*
X152528929Y-69720939D01*
X150743509Y-69123388D01*
X148875819Y-68885637D01*
X146997633Y-69016822D01*
X145181129Y-69511903D01*
X143496114Y-70351853D01*
X143041934Y-70655326D01*
X142001735Y-71737957D01*
X141701755Y-71737957D01*
X153060788Y-60378925D01*
X153090359Y-60354657D01*
X153163853Y-60265104D01*
X153187206Y-60236649D01*
X153259169Y-60102013D01*
X153259170Y-60102012D01*
X153303486Y-59955924D01*
X153314700Y-59842063D01*
X153314700Y-59842061D01*
X153318449Y-59803998D01*
X153314700Y-59765935D01*
X153314700Y-50431071D01*
X153340895Y-50428491D01*
X153510319Y-50377097D01*
X153666460Y-50293638D01*
X153803320Y-50181320D01*
X153915638Y-50044460D01*
X153999097Y-49888319D01*
X154050491Y-49718895D01*
X154067845Y-49542700D01*
X154067845Y-48792700D01*
X154050491Y-48616505D01*
X153999097Y-48447081D01*
X153915638Y-48290940D01*
X153803320Y-48154080D01*
X153666460Y-48041762D01*
X153510319Y-47958303D01*
X153340895Y-47906909D01*
X153164700Y-47889555D01*
X151914700Y-47889555D01*
X151738505Y-47906909D01*
X151688099Y-47922199D01*
X151688099Y-47613201D01*
X151738505Y-47628491D01*
X151914700Y-47645845D01*
X153164700Y-47645845D01*
X153340895Y-47628491D01*
X153510319Y-47577097D01*
X153666460Y-47493638D01*
X153803320Y-47381320D01*
X153915638Y-47244460D01*
X153999097Y-47088319D01*
X154050491Y-46918895D01*
X154067845Y-46742700D01*
X154067845Y-45992700D01*
X154050491Y-45816505D01*
X153999097Y-45647081D01*
X153915638Y-45490940D01*
X153803320Y-45354080D01*
X153684581Y-45256633D01*
X153703695Y-45193622D01*
X153716245Y-45066200D01*
X153716245Y-44304350D01*
X153875089Y-44145506D01*
X154077548Y-43842503D01*
X154217005Y-43505825D01*
X154288100Y-43148409D01*
X154288100Y-42783991D01*
X154217005Y-42426575D01*
X154077548Y-42089897D01*
X153875089Y-41786894D01*
X153617406Y-41529211D01*
X153314403Y-41326752D01*
X153255129Y-41302200D01*
X153556600Y-41302200D01*
X153721100Y-41137700D01*
X153724284Y-40866200D01*
X153711580Y-40737209D01*
X153673954Y-40613176D01*
X153612854Y-40498866D01*
X153530628Y-40398672D01*
X153430434Y-40316446D01*
X153316124Y-40255346D01*
X153192091Y-40217720D01*
X153063100Y-40205016D01*
X152706600Y-40208200D01*
X152542100Y-40372700D01*
X152542100Y-41116200D01*
X152334100Y-41116200D01*
X152334100Y-40372700D01*
X152169600Y-40208200D01*
X151813100Y-40205016D01*
X151688099Y-40217327D01*
X151688099Y-38048161D01*
X151691848Y-38010098D01*
X151688099Y-37972034D01*
X151676885Y-37858173D01*
X151632569Y-37712085D01*
X151599070Y-37649412D01*
X151560605Y-37577448D01*
X151525757Y-37534987D01*
X151463758Y-37459440D01*
X151434186Y-37435171D01*
X147039623Y-33040608D01*
X147044745Y-32988600D01*
X147044745Y-32238600D01*
X147027391Y-32062405D01*
X146975997Y-31892981D01*
X146892538Y-31736840D01*
X146780220Y-31599980D01*
X146643360Y-31487662D01*
X146487219Y-31404203D01*
X146317795Y-31352809D01*
X146141600Y-31335455D01*
X144891600Y-31335455D01*
X144715405Y-31352809D01*
X144545981Y-31404203D01*
X144389840Y-31487662D01*
X144252980Y-31599980D01*
X144140662Y-31736840D01*
X144057203Y-31892981D01*
X144005809Y-32062405D01*
X143988455Y-32238600D01*
X143988455Y-32988600D01*
X144005809Y-33164795D01*
X144057203Y-33334219D01*
X144140662Y-33490360D01*
X144252980Y-33627220D01*
X144389840Y-33739538D01*
X144545981Y-33822997D01*
X144715405Y-33874391D01*
X144891600Y-33891745D01*
X145698731Y-33891745D01*
X150138100Y-38331115D01*
X150138099Y-49630636D01*
X150134350Y-49668699D01*
X150138099Y-49706762D01*
X150138099Y-49706763D01*
X150149313Y-49820624D01*
X150193629Y-49966712D01*
X150193630Y-49966713D01*
X150265593Y-50101349D01*
X150285676Y-50125820D01*
X150362440Y-50219358D01*
X150392017Y-50243631D01*
X151314690Y-51166305D01*
X151314691Y-59296582D01*
X142586312Y-68024962D01*
X142586306Y-68024967D01*
X135553905Y-75057369D01*
X135524333Y-75081638D01*
X135469947Y-75147908D01*
X135427485Y-75199647D01*
X135355522Y-75334283D01*
X135311206Y-75480371D01*
X135296242Y-75632297D01*
X135299992Y-75670370D01*
X135299990Y-79756584D01*
X130401506Y-84655070D01*
X130350984Y-84655070D01*
X130148126Y-84695420D01*
X129957038Y-84774572D01*
X129785064Y-84889481D01*
X129638811Y-85035734D01*
X129523902Y-85207708D01*
X129444750Y-85398796D01*
X129404400Y-85601654D01*
X129404400Y-85655070D01*
X124539349Y-85655070D01*
X124501286Y-85651321D01*
X124463223Y-85655070D01*
X124463221Y-85655070D01*
X124349360Y-85666284D01*
X124203272Y-85710600D01*
X124176399Y-85724964D01*
X124068635Y-85782564D01*
X124037050Y-85808486D01*
X123950627Y-85879411D01*
X123926358Y-85908983D01*
X120923047Y-88912295D01*
X120775483Y-88882943D01*
X120497343Y-88882943D01*
X120224548Y-88937205D01*
X119967580Y-89043645D01*
X119736316Y-89198171D01*
X119539641Y-89394846D01*
X119385115Y-89626110D01*
X119278675Y-89883078D01*
X119224413Y-90155873D01*
X119224413Y-90434013D01*
X119264811Y-90637107D01*
X119102525Y-90569886D01*
X118829730Y-90515624D01*
X118551590Y-90515624D01*
X118278795Y-90569886D01*
X118021827Y-90676326D01*
X117790563Y-90830852D01*
X117593888Y-91027527D01*
X117439362Y-91258791D01*
X117332922Y-91515759D01*
X117278660Y-91788554D01*
X117278660Y-92066694D01*
X117316172Y-92255280D01*
X117190091Y-92204660D01*
X116958160Y-92316076D01*
X116873415Y-93284715D01*
X116759048Y-93399082D01*
X116906129Y-93546163D01*
X116976154Y-93476138D01*
X118007264Y-93566349D01*
X118157261Y-93357288D01*
X118123814Y-93221167D01*
X118278795Y-93285362D01*
X118551590Y-93339624D01*
X118829730Y-93339624D01*
X119032823Y-93299227D01*
X118965602Y-93461511D01*
X118911340Y-93734306D01*
X118911340Y-94012446D01*
X118951738Y-94215540D01*
X118789452Y-94148319D01*
X118516657Y-94094057D01*
X118238517Y-94094057D01*
X118049931Y-94131569D01*
X118100551Y-94005488D01*
X117989135Y-93773557D01*
X117020496Y-93688812D01*
X116906129Y-93574445D01*
X116759048Y-93721526D01*
X116829073Y-93791551D01*
X116738862Y-94822661D01*
X116947923Y-94972658D01*
X117084044Y-94939211D01*
X117019849Y-95094192D01*
X116965587Y-95366987D01*
X116965587Y-95645127D01*
X117019849Y-95917922D01*
X117079735Y-96062500D01*
X114477762Y-96062500D01*
X114439699Y-96058751D01*
X114401636Y-96062500D01*
X114401635Y-96062500D01*
X114287774Y-96073714D01*
X114141686Y-96118030D01*
X114007050Y-96189994D01*
X113889041Y-96286841D01*
X113864772Y-96316413D01*
X109203786Y-100977400D01*
X104241563Y-100977400D01*
X104203500Y-100973651D01*
X104165437Y-100977400D01*
X104165435Y-100977400D01*
X104051574Y-100988614D01*
X103939487Y-101022616D01*
X103905485Y-101032930D01*
X103770849Y-101104894D01*
X103728388Y-101139742D01*
X103652841Y-101201741D01*
X103628572Y-101231313D01*
X97938886Y-106921000D01*
X95326163Y-106921000D01*
X95288100Y-106917251D01*
X95250037Y-106921000D01*
X95250035Y-106921000D01*
X95136174Y-106932214D01*
X95024087Y-106966216D01*
X94990085Y-106976530D01*
X94855449Y-107048494D01*
X94812988Y-107083342D01*
X94737441Y-107145341D01*
X94713172Y-107174913D01*
X93835893Y-108052192D01*
X93761849Y-108003877D01*
X93597550Y-107937913D01*
X93423538Y-107905269D01*
X93246501Y-107907200D01*
X93073243Y-107943632D01*
X92910421Y-108013166D01*
X92764293Y-108113128D01*
X92189760Y-108595219D01*
X92065942Y-108721769D01*
X91969191Y-108870043D01*
X91903227Y-109034342D01*
X91870583Y-109208354D01*
X91872514Y-109385391D01*
X91908946Y-109558649D01*
X91978480Y-109721471D01*
X92078442Y-109867599D01*
X92881927Y-110825154D01*
X93008477Y-110948972D01*
X93156751Y-111045723D01*
X93321050Y-111111687D01*
X93495062Y-111144331D01*
X93672099Y-111142400D01*
X93845357Y-111105968D01*
X94008179Y-111036434D01*
X94154307Y-110936472D01*
X94728840Y-110454381D01*
X94852658Y-110327831D01*
X94949409Y-110179557D01*
X95015373Y-110015258D01*
X95048017Y-109841246D01*
X95046086Y-109664209D01*
X95009654Y-109490951D01*
X94940120Y-109328129D01*
X94863700Y-109216415D01*
X95609115Y-108471000D01*
X98221837Y-108471000D01*
X98259900Y-108474749D01*
X98297963Y-108471000D01*
X98297965Y-108471000D01*
X98411826Y-108459786D01*
X98557914Y-108415470D01*
X98692550Y-108343506D01*
X98810559Y-108246659D01*
X98834832Y-108217082D01*
X104524515Y-102527400D01*
X109486737Y-102527400D01*
X109524800Y-102531149D01*
X109562863Y-102527400D01*
X109562865Y-102527400D01*
X109676726Y-102516186D01*
X109822814Y-102471870D01*
X109957450Y-102399906D01*
X110075459Y-102303059D01*
X110099732Y-102273482D01*
X114760715Y-97612500D01*
X123382839Y-97612500D01*
X123420902Y-97616249D01*
X123458965Y-97612500D01*
X123458967Y-97612500D01*
X123572828Y-97601286D01*
X123718916Y-97556970D01*
X123853552Y-97485006D01*
X123971561Y-97388159D01*
X123995834Y-97358582D01*
X127954389Y-93400028D01*
X127983960Y-93375760D01*
X128045959Y-93300213D01*
X128080807Y-93257752D01*
X128152770Y-93123116D01*
X128152771Y-93123115D01*
X128197087Y-92977027D01*
X128208301Y-92863166D01*
X128208301Y-92863165D01*
X128212050Y-92825102D01*
X128208301Y-92787039D01*
X128208301Y-91910200D01*
X128461775Y-91910200D01*
X128502364Y-91950789D01*
X128674338Y-92065698D01*
X128865426Y-92144850D01*
X129068284Y-92185200D01*
X129275116Y-92185200D01*
X129477974Y-92144850D01*
X129669062Y-92065698D01*
X129841036Y-91950789D01*
X129987289Y-91804536D01*
X130102198Y-91632562D01*
X130134601Y-91554336D01*
X130134600Y-94981647D01*
X130130841Y-95019810D01*
X130134600Y-95057973D01*
X130134600Y-95057975D01*
X130145843Y-95172128D01*
X130178417Y-95279508D01*
X130190273Y-95318593D01*
X130262423Y-95453576D01*
X130305493Y-95506057D01*
X130359520Y-95571890D01*
X130389170Y-95596223D01*
X133437162Y-98644216D01*
X125641685Y-98644216D01*
X125595731Y-98640545D01*
X125526001Y-98648715D01*
X125456109Y-98655599D01*
X125449096Y-98657726D01*
X125441819Y-98658579D01*
X125375035Y-98680193D01*
X125307817Y-98700583D01*
X125267149Y-98722321D01*
X116147534Y-102698617D01*
X116146602Y-102698921D01*
X116111957Y-102714129D01*
X116077582Y-102729117D01*
X116076734Y-102729591D01*
X108028802Y-106262354D01*
X108027027Y-106262943D01*
X107993394Y-106277897D01*
X107959745Y-106292668D01*
X107958117Y-106293582D01*
X100604750Y-109563112D01*
X100602449Y-109563891D01*
X100569383Y-109578838D01*
X100536343Y-109593528D01*
X100534238Y-109594723D01*
X94770964Y-112199825D01*
X94765584Y-112201733D01*
X94735743Y-112215745D01*
X94705736Y-112229309D01*
X94700796Y-112232155D01*
X91414272Y-113775395D01*
X91397341Y-113782300D01*
X91379317Y-113791809D01*
X91360873Y-113800469D01*
X91345165Y-113809824D01*
X90314905Y-114353323D01*
X90301658Y-114359305D01*
X90280727Y-114371353D01*
X90259393Y-114382608D01*
X90247279Y-114390607D01*
X90150231Y-114446472D01*
X89731147Y-113847959D01*
X90846760Y-112732347D01*
X90863553Y-112748778D01*
X91011827Y-112845529D01*
X91176126Y-112911493D01*
X91350138Y-112944137D01*
X91527175Y-112942206D01*
X91700433Y-112905774D01*
X91863255Y-112836240D01*
X92009383Y-112736278D01*
X92583916Y-112254187D01*
X92707734Y-112127637D01*
X92804485Y-111979363D01*
X92870449Y-111815064D01*
X92903093Y-111641052D01*
X92901162Y-111464015D01*
X92864730Y-111290757D01*
X92795196Y-111127935D01*
X92695234Y-110981807D01*
X91891749Y-110024252D01*
X91765199Y-109900434D01*
X91616925Y-109803683D01*
X91452626Y-109737719D01*
X91278614Y-109705075D01*
X91101577Y-109707006D01*
X90928319Y-109743438D01*
X90765497Y-109812972D01*
X90619369Y-109912934D01*
X90044836Y-110395025D01*
X89921018Y-110521575D01*
X89824267Y-110669849D01*
X89758303Y-110834148D01*
X89725659Y-111008160D01*
X89727590Y-111185197D01*
X89764022Y-111358455D01*
X89833556Y-111521277D01*
X89846654Y-111540424D01*
X88828390Y-112558688D01*
X88670972Y-112333872D01*
X88587605Y-112236693D01*
X88486882Y-112157644D01*
X88372672Y-112099765D01*
X88249364Y-112065279D01*
X88121699Y-112055511D01*
X87994581Y-112070838D01*
X87872895Y-112110670D01*
X87761318Y-112173476D01*
X86614505Y-112976483D01*
X86517326Y-113059850D01*
X86438277Y-113160574D01*
X86380398Y-113274784D01*
X86345912Y-113398091D01*
X86336144Y-113525756D01*
X86351471Y-113652875D01*
X86391303Y-113774560D01*
X86454109Y-113886137D01*
X87830780Y-115852227D01*
X86993295Y-116409749D01*
X86982485Y-116415950D01*
X86961133Y-116431160D01*
X86939329Y-116445675D01*
X86929691Y-116453557D01*
X85933325Y-117163306D01*
X85922203Y-117170186D01*
X85901860Y-117185720D01*
X85881024Y-117200562D01*
X85871174Y-117209152D01*
X85789402Y-117271591D01*
X85687798Y-117127434D01*
X86783566Y-116031666D01*
X86809185Y-115997427D01*
X86820667Y-115970357D01*
X86826648Y-115941566D01*
X86826897Y-115912162D01*
X86821405Y-115883275D01*
X86810382Y-115856013D01*
X86794253Y-115831426D01*
X86773638Y-115810458D01*
X85465538Y-114718258D01*
X85428071Y-114695351D01*
X85400012Y-114686557D01*
X85370776Y-114683406D01*
X85341487Y-114686020D01*
X85313271Y-114694297D01*
X85287212Y-114707920D01*
X85264311Y-114726365D01*
X84565811Y-115412165D01*
X84555341Y-115423565D01*
X84522921Y-115462739D01*
X84417967Y-115311859D01*
X84333575Y-115213483D01*
X84231611Y-115133462D01*
X84165482Y-115099949D01*
X84180721Y-115074196D01*
X84933898Y-113979441D01*
X85799120Y-112875266D01*
X86764027Y-111777245D01*
X87411940Y-111172452D01*
X88741145Y-110021821D01*
X93079363Y-106393509D01*
X99095956Y-101461363D01*
X106152429Y-95753364D01*
X108617345Y-93763320D01*
X115332553Y-93763320D01*
X115399297Y-94034956D01*
X115517753Y-94288351D01*
X115683367Y-94513768D01*
X115889775Y-94702544D01*
X116129047Y-94847424D01*
X116299723Y-94915948D01*
X116531654Y-94804532D01*
X116632239Y-93654844D01*
X115482550Y-93554259D01*
X115332553Y-93763320D01*
X108617345Y-93763320D01*
X109420221Y-93115120D01*
X115389263Y-93115120D01*
X115500679Y-93347051D01*
X116650367Y-93447636D01*
X116750952Y-92297947D01*
X116541891Y-92147950D01*
X116270255Y-92214694D01*
X116016860Y-92333150D01*
X115791443Y-92498764D01*
X115602667Y-92705172D01*
X115457787Y-92944444D01*
X115389263Y-93115120D01*
X109420221Y-93115120D01*
X114575893Y-88952703D01*
X114578652Y-88950858D01*
X114605888Y-88928487D01*
X114633431Y-88906250D01*
X114635807Y-88903912D01*
X120052888Y-84454404D01*
X120057954Y-84450900D01*
X120082703Y-84429915D01*
X120107838Y-84409269D01*
X120112202Y-84404901D01*
X121815621Y-82960516D01*
X121823023Y-82955137D01*
X121845044Y-82935567D01*
X121867569Y-82916467D01*
X121873950Y-82909877D01*
X123006107Y-81903717D01*
X123023510Y-81889484D01*
X123034942Y-81878091D01*
X123047029Y-81867349D01*
X123062319Y-81850807D01*
X123643411Y-81271687D01*
X123656987Y-81261794D01*
X123698178Y-81217106D01*
X123713756Y-81201581D01*
X123724385Y-81188674D01*
X123735697Y-81176402D01*
X123748922Y-81158879D01*
X123787583Y-81111934D01*
X123795531Y-81097124D01*
X123875504Y-80991164D01*
X123906037Y-80956813D01*
X123941635Y-80896094D01*
X123978305Y-80836062D01*
X123980780Y-80829325D01*
X123984412Y-80823129D01*
X124007480Y-80756632D01*
X124031734Y-80690599D01*
X124038858Y-80645200D01*
X124040898Y-80636709D01*
X124048143Y-80618734D01*
X124058957Y-80561525D01*
X124063491Y-80542650D01*
X124066135Y-80523554D01*
X124076926Y-80466466D01*
X124076740Y-80446951D01*
X124079417Y-80427614D01*
X124076003Y-80369605D01*
X124075449Y-80311509D01*
X124071459Y-80292403D01*
X124070312Y-80272917D01*
X124055648Y-80216696D01*
X124043770Y-80159819D01*
X124036128Y-80141856D01*
X124031202Y-80122969D01*
X124005853Y-80070690D01*
X123983106Y-80017222D01*
X123972107Y-80001095D01*
X123963591Y-79983533D01*
X123928529Y-79937202D01*
X123917668Y-79921279D01*
X123905215Y-79906397D01*
X123870077Y-79859966D01*
X123855588Y-79847088D01*
X123764002Y-79737634D01*
X123747025Y-79711654D01*
X123714396Y-79678350D01*
X123709400Y-79672379D01*
X123687382Y-79650777D01*
X123665751Y-79628698D01*
X123659772Y-79623688D01*
X123626502Y-79591046D01*
X123600540Y-79574054D01*
X123412692Y-79416646D01*
X123401172Y-79403539D01*
X123353409Y-79366970D01*
X123337059Y-79353270D01*
X123322732Y-79343483D01*
X123308961Y-79332940D01*
X123290839Y-79321698D01*
X123241162Y-79287764D01*
X123225110Y-79280922D01*
X122819003Y-79028986D01*
X123286000Y-79031784D01*
X123414991Y-79019080D01*
X123539024Y-78981454D01*
X123653334Y-78920354D01*
X123753528Y-78838128D01*
X123835754Y-78737934D01*
X123896854Y-78623624D01*
X123934480Y-78499591D01*
X123947184Y-78370600D01*
X123944000Y-76189100D01*
X123779500Y-76024600D01*
X122590000Y-76024600D01*
X122590000Y-76044600D01*
X122382000Y-76044600D01*
X122382000Y-76024600D01*
X122362000Y-76024600D01*
X122362000Y-75816600D01*
X122382000Y-75816600D01*
X122382000Y-75796600D01*
X122590000Y-75796600D01*
X122590000Y-75816600D01*
X123779500Y-75816600D01*
X123944000Y-75652100D01*
X123946116Y-74202208D01*
X125292855Y-74202208D01*
X125292855Y-79070600D01*
X125305405Y-79198022D01*
X125342573Y-79320548D01*
X125402930Y-79433468D01*
X125484157Y-79532443D01*
X125583132Y-79613670D01*
X125696052Y-79674027D01*
X125818578Y-79711195D01*
X125946000Y-79723745D01*
X127546000Y-79723745D01*
X127673422Y-79711195D01*
X127795948Y-79674027D01*
X127908868Y-79613670D01*
X128007843Y-79532443D01*
X128089070Y-79433468D01*
X128149427Y-79320548D01*
X128186595Y-79198022D01*
X128199145Y-79070600D01*
X128199145Y-76977000D01*
X128273275Y-76977000D01*
X128311864Y-77015589D01*
X128483838Y-77130498D01*
X128674926Y-77209650D01*
X128877784Y-77250000D01*
X129084616Y-77250000D01*
X129287474Y-77209650D01*
X129478562Y-77130498D01*
X129546692Y-77084975D01*
X129544816Y-78370600D01*
X129557520Y-78499591D01*
X129595146Y-78623624D01*
X129656246Y-78737934D01*
X129738472Y-78838128D01*
X129838666Y-78920354D01*
X129952976Y-78981454D01*
X130077009Y-79019080D01*
X130206000Y-79031784D01*
X130737500Y-79028600D01*
X130902000Y-78864100D01*
X130902000Y-76024600D01*
X131110000Y-76024600D01*
X131110000Y-78864100D01*
X131274500Y-79028600D01*
X131806000Y-79031784D01*
X131934991Y-79019080D01*
X132059024Y-78981454D01*
X132173334Y-78920354D01*
X132273528Y-78838128D01*
X132355754Y-78737934D01*
X132416854Y-78623624D01*
X132454480Y-78499591D01*
X132467184Y-78370600D01*
X132464000Y-76189100D01*
X132299500Y-76024600D01*
X131110000Y-76024600D01*
X130902000Y-76024600D01*
X130882000Y-76024600D01*
X130882000Y-75816600D01*
X130902000Y-75816600D01*
X130902000Y-75796600D01*
X131110000Y-75796600D01*
X131110000Y-75816600D01*
X132299500Y-75816600D01*
X132464000Y-75652100D01*
X132466116Y-74202208D01*
X132626174Y-74202208D01*
X132697063Y-74203382D01*
X132741682Y-74195272D01*
X132786838Y-74190825D01*
X132817757Y-74181446D01*
X132849530Y-74175671D01*
X132891711Y-74159012D01*
X132935130Y-74145841D01*
X132963622Y-74130612D01*
X132993661Y-74118748D01*
X133031786Y-74094177D01*
X133071796Y-74072791D01*
X133126665Y-74027762D01*
X136348440Y-71471821D01*
X136350083Y-71470750D01*
X136378636Y-71447865D01*
X136407441Y-71425013D01*
X136408858Y-71423643D01*
X141362221Y-67453555D01*
X141421499Y-67406359D01*
X141447395Y-67375741D01*
X141476094Y-67347699D01*
X141497325Y-67316707D01*
X141521571Y-67288040D01*
X141540999Y-67252953D01*
X141563673Y-67219855D01*
X141578447Y-67185324D01*
X141596638Y-67152471D01*
X141608849Y-67114263D01*
X141624628Y-67077383D01*
X141632381Y-67040636D01*
X141643814Y-67004862D01*
X141648337Y-66965004D01*
X141656617Y-66925756D01*
X141657496Y-66849753D01*
X141836239Y-54786147D01*
X141967522Y-48787997D01*
X142177367Y-43597939D01*
X142475603Y-39132773D01*
X142660182Y-37154752D01*
X142870429Y-35327214D01*
X143107066Y-33643750D01*
X143371040Y-32094833D01*
X143663242Y-30670797D01*
X143984505Y-29361884D01*
X144001877Y-29302329D01*
X143988455Y-29438600D01*
X143988455Y-30188600D01*
X144005809Y-30364795D01*
X144057203Y-30534219D01*
X144140662Y-30690360D01*
X144252980Y-30827220D01*
X144389840Y-30939538D01*
X144545981Y-31022997D01*
X144715405Y-31074391D01*
X144891600Y-31091745D01*
X146141600Y-31091745D01*
X146317795Y-31074391D01*
X146487219Y-31022997D01*
X146643360Y-30939538D01*
X146780220Y-30827220D01*
X146892538Y-30690360D01*
X146975997Y-30534219D01*
X147027391Y-30364795D01*
X147044745Y-30188600D01*
X147044745Y-29438600D01*
X147027391Y-29262405D01*
X146975997Y-29092981D01*
X146892538Y-28936840D01*
X146780220Y-28799980D01*
X146643360Y-28687662D01*
X146597330Y-28663059D01*
X146614222Y-28661395D01*
X146736748Y-28624227D01*
X146849668Y-28563870D01*
X146948643Y-28482643D01*
X147029870Y-28383668D01*
X147050373Y-28345309D01*
X149765139Y-28422365D01*
X149819272Y-28488328D01*
X149919466Y-28570554D01*
X150033776Y-28631654D01*
X150157809Y-28669280D01*
X150286800Y-28681984D01*
X150718300Y-28678800D01*
X150882800Y-28514300D01*
X150882800Y-26824800D01*
X150862800Y-26824800D01*
X150862800Y-26616800D01*
X150882800Y-26616800D01*
X150882800Y-24927300D01*
X150718300Y-24762800D01*
X150286800Y-24759616D01*
X150157809Y-24772320D01*
X150033776Y-24809946D01*
X150020469Y-24817059D01*
X150022671Y-24704433D01*
X150018478Y-24666161D01*
X150008782Y-24638400D01*
X149993858Y-24613064D01*
X149974277Y-24591127D01*
X149950792Y-24573431D01*
X149924307Y-24560657D01*
X148260607Y-23951057D01*
X148224296Y-23942682D01*
X148194891Y-23942565D01*
X148166028Y-23948187D01*
X148138817Y-23959332D01*
X146627517Y-24759432D01*
X146607083Y-24772465D01*
X146600212Y-24778825D01*
X146486800Y-24767655D01*
X145744305Y-24767655D01*
X145954016Y-24382904D01*
X146331426Y-23794999D01*
X146704977Y-23309665D01*
X147068816Y-22925640D01*
X147416176Y-22639630D01*
X147740715Y-22444832D01*
X148028049Y-22334613D01*
X148435252Y-22278019D01*
X148651714Y-22301503D01*
G36*
X143436200Y-107757100D02*
G01*
X143456200Y-107757100D01*
X143456200Y-107965100D01*
X143436200Y-107965100D01*
X143436200Y-107985100D01*
X143228200Y-107985100D01*
X143228200Y-107965100D01*
X143208200Y-107965100D01*
X143208200Y-107757100D01*
X143228200Y-107757100D01*
X143228200Y-107737100D01*
X143436200Y-107737100D01*
X143436200Y-107757100D01*
G37*
X143436200Y-107757100D02*
X143456200Y-107757100D01*
X143456200Y-107965100D01*
X143436200Y-107965100D01*
X143436200Y-107985100D01*
X143228200Y-107985100D01*
X143228200Y-107965100D01*
X143208200Y-107965100D01*
X143208200Y-107757100D01*
X143228200Y-107757100D01*
X143228200Y-107737100D01*
X143436200Y-107737100D01*
X143436200Y-107757100D01*
G36*
X129547509Y-75315571D02*
G01*
X129478562Y-75269502D01*
X129287474Y-75190350D01*
X129084616Y-75150000D01*
X128877784Y-75150000D01*
X128674926Y-75190350D01*
X128483838Y-75269502D01*
X128311864Y-75384411D01*
X128273275Y-75423000D01*
X128199145Y-75423000D01*
X128199145Y-74202208D01*
X129545884Y-74202208D01*
X129547509Y-75315571D01*
G37*
X129547509Y-75315571D02*
X129478562Y-75269502D01*
X129287474Y-75190350D01*
X129084616Y-75150000D01*
X128877784Y-75150000D01*
X128674926Y-75190350D01*
X128483838Y-75269502D01*
X128311864Y-75384411D01*
X128273275Y-75423000D01*
X128199145Y-75423000D01*
X128199145Y-74202208D01*
X129545884Y-74202208D01*
X129547509Y-75315571D01*
%TD*%
M02*
