%TF.GenerationSoftware,KiCad,Pcbnew,5.1.6-c6e7f7d~86~ubuntu18.04.1*%
%TF.CreationDate,2020-06-07T16:50:32-04:00*%
%TF.ProjectId,aerospace_badge,6165726f-7370-4616-9365-5f6261646765,V01*%
%TF.SameCoordinates,Original*%
%TF.FileFunction,Profile,NP*%
%FSLAX46Y46*%
G04 Gerber Fmt 4.6, Leading zero omitted, Abs format (unit mm)*
G04 Created by KiCad (PCBNEW 5.1.6-c6e7f7d~86~ubuntu18.04.1) date 2020-06-07 16:50:32*
%MOMM*%
%LPD*%
G01*
G04 APERTURE LIST*
%TA.AperFunction,Profile*%
%ADD10C,0.273381*%
%TD*%
G04 APERTURE END LIST*
D10*
%TO.C,J3*%
X148329600Y-21362203D02*
X147736713Y-21444604D01*
X148705999Y-21403038D02*
X148329600Y-21362203D01*
X149055550Y-21499516D02*
X148705999Y-21403038D01*
X149402692Y-21654803D02*
X149055550Y-21499516D01*
X149746663Y-21868525D02*
X149402692Y-21654803D01*
X150086711Y-22140302D02*
X149746663Y-21868525D01*
X150422078Y-22469764D02*
X150086711Y-22140302D01*
X150752008Y-22856530D02*
X150422078Y-22469764D01*
X151075747Y-23300228D02*
X150752008Y-22856530D01*
X151701616Y-24356905D02*
X151075747Y-23300228D01*
X152293632Y-25636795D02*
X151701616Y-24356905D01*
X152845746Y-27136887D02*
X152293632Y-25636795D01*
X153351905Y-28854176D02*
X152845746Y-27136887D01*
X153917250Y-31278659D02*
X153351905Y-28854176D01*
X154398813Y-33961290D02*
X153917250Y-31278659D01*
X154799318Y-36935384D02*
X154398813Y-33961290D01*
X155121496Y-40234259D02*
X154799318Y-36935384D01*
X155368072Y-43891232D02*
X155121496Y-40234259D01*
X155541774Y-47939622D02*
X155368072Y-43891232D01*
X155645334Y-52412742D02*
X155541774Y-47939622D01*
X155681476Y-57343911D02*
X155645334Y-52412742D01*
X155687667Y-66638432D02*
X155681476Y-57343911D01*
X160857377Y-70776682D02*
X155687667Y-66638432D01*
X163999823Y-73292290D02*
X160857377Y-70776682D01*
X166061194Y-73292290D02*
X163999823Y-73292290D01*
X167999061Y-73292290D02*
X166061194Y-73292290D01*
X175877132Y-73292290D02*
X167999061Y-73292290D01*
X175854881Y-76187263D02*
X175877132Y-73292290D01*
X175786526Y-77178451D02*
X175854881Y-76187263D01*
X175669045Y-77926750D02*
X175786526Y-77178451D01*
X175494214Y-78478150D02*
X175669045Y-77926750D01*
X175253808Y-78878631D02*
X175494214Y-78478150D01*
X174939597Y-79174181D02*
X175253808Y-78878631D01*
X174543357Y-79410780D02*
X174939597Y-79174181D01*
X173822952Y-79857055D02*
X174543357Y-79410780D01*
X173553816Y-80082022D02*
X173822952Y-79857055D01*
X173395624Y-80270676D02*
X173553816Y-80082022D01*
X173419622Y-80366291D02*
X173395624Y-80270676D01*
X173557319Y-80546919D02*
X173419622Y-80366291D01*
X174199568Y-81184729D02*
X173557319Y-80546919D01*
X175373823Y-82227121D02*
X174199568Y-81184729D01*
X177131525Y-83717117D02*
X175373823Y-82227121D01*
X182603018Y-88211975D02*
X177131525Y-83717117D01*
X191025565Y-95013444D02*
X182603018Y-88211975D01*
X198082804Y-100723240D02*
X191025565Y-95013444D01*
X204103834Y-105660047D02*
X198082804Y-100723240D01*
X208450163Y-109295917D02*
X204103834Y-105660047D01*
X209795781Y-110461017D02*
X208450163Y-109295917D01*
X210483290Y-111102902D02*
X209795781Y-110461017D01*
X211489236Y-112247598D02*
X210483290Y-111102902D01*
X212383644Y-113388968D02*
X211489236Y-112247598D01*
X213166152Y-114526322D02*
X212383644Y-113388968D01*
X213836392Y-115658971D02*
X213166152Y-114526322D01*
X214394001Y-116786223D02*
X213836392Y-115658971D01*
X214838613Y-117907392D02*
X214394001Y-116786223D01*
X215169863Y-119021783D02*
X214838613Y-117907392D01*
X215387385Y-120128707D02*
X215169863Y-119021783D01*
X215446855Y-120684380D02*
X215387385Y-120128707D01*
X215447649Y-121119818D02*
X215446855Y-120684380D01*
X215390364Y-121424279D02*
X215447649Y-121119818D01*
X215275855Y-121587016D02*
X215390364Y-121424279D01*
X215176499Y-121586487D02*
X215275855Y-121587016D01*
X215007229Y-121513822D02*
X215176499Y-121586487D01*
X214495678Y-121178915D02*
X215007229Y-121513822D01*
X213814688Y-120636292D02*
X214495678Y-121178915D01*
X213037747Y-119940019D02*
X213814688Y-120636292D01*
X212213753Y-119200268D02*
X213037747Y-119940019D01*
X211300088Y-118447973D02*
X212213753Y-119200268D01*
X210314949Y-117695667D02*
X211300088Y-118447973D01*
X209276534Y-116955895D02*
X210314949Y-117695667D01*
X208203032Y-116241195D02*
X209276534Y-116955895D01*
X207112647Y-115564105D02*
X208203032Y-116241195D01*
X206023572Y-114937164D02*
X207112647Y-115564105D01*
X204954004Y-114372916D02*
X206023572Y-114937164D01*
X201619167Y-112807030D02*
X204954004Y-114372916D01*
X195792701Y-110173444D02*
X201619167Y-112807030D01*
X188372458Y-106874260D02*
X195792701Y-110173444D01*
X180256285Y-103311576D02*
X188372458Y-106874260D01*
X171073902Y-99307687D02*
X180256285Y-103311576D01*
X163511571Y-99307687D02*
X171073902Y-99307687D01*
X155949761Y-99307687D02*
X163511571Y-99307687D01*
X155944602Y-110857887D02*
X155949761Y-99307687D01*
X155918109Y-115502864D02*
X155944602Y-110857887D01*
X155839022Y-119621009D02*
X155918109Y-115502864D01*
X155701177Y-123294253D02*
X155839022Y-119621009D01*
X155498403Y-126604532D02*
X155701177Y-123294253D01*
X155224541Y-129633781D02*
X155498403Y-126604532D01*
X154873420Y-132463934D02*
X155224541Y-129633781D01*
X154438879Y-135176924D02*
X154873420Y-132463934D01*
X153914753Y-137854687D02*
X154438879Y-135176924D01*
X153536997Y-139631324D02*
X153914753Y-137854687D01*
X155222167Y-141361450D02*
X153536997Y-139631324D01*
X158361652Y-144438330D02*
X155222167Y-141361450D01*
X163543623Y-149406437D02*
X158361652Y-144438330D01*
X166129472Y-151903046D02*
X163543623Y-149406437D01*
X168264258Y-154032624D02*
X166129472Y-151903046D01*
X169726480Y-155569416D02*
X168264258Y-154032624D01*
X170136158Y-156044971D02*
X169726480Y-155569416D01*
X170294630Y-156287670D02*
X170136158Y-156044971D01*
X170486861Y-157715190D02*
X170294630Y-156287670D01*
X170594615Y-159390201D02*
X170486861Y-157715190D01*
X170598637Y-160783378D02*
X170594615Y-159390201D01*
X170555719Y-161208865D02*
X170598637Y-160783378D01*
X170521974Y-161324887D02*
X170555719Y-161208865D01*
X170479640Y-161365397D02*
X170521974Y-161324887D01*
X169726538Y-161084913D02*
X170479640Y-161365397D01*
X167875998Y-160321246D02*
X169726538Y-161084913D01*
X161995921Y-157811093D02*
X167875998Y-160321246D01*
X157990524Y-156102449D02*
X161995921Y-157811093D01*
X155271867Y-155009336D02*
X157990524Y-156102449D01*
X153568998Y-154429171D02*
X155271867Y-155009336D01*
X153013812Y-154299387D02*
X153568998Y-154429171D01*
X152610963Y-154259372D02*
X153013812Y-154299387D01*
X151439459Y-154261488D02*
X152610963Y-154259372D01*
X150831227Y-156445851D02*
X151439459Y-154261488D01*
X150537278Y-157453652D02*
X150831227Y-156445851D01*
X150267363Y-158257459D02*
X150537278Y-157453652D01*
X150006177Y-158878730D02*
X150267363Y-158257459D01*
X149738416Y-159338922D02*
X150006177Y-158878730D01*
X149448769Y-159659496D02*
X149738416Y-159338922D01*
X149121932Y-159861908D02*
X149448769Y-159659496D01*
X148742601Y-159967620D02*
X149121932Y-159861908D01*
X148295466Y-159998089D02*
X148742601Y-159967620D01*
X147848331Y-159967604D02*
X148295466Y-159998089D01*
X147469000Y-159861844D02*
X147848331Y-159967604D01*
X147142163Y-159659364D02*
X147469000Y-159861844D01*
X146852518Y-159338708D02*
X147142163Y-159659364D01*
X146584757Y-158878431D02*
X146852518Y-159338708D01*
X146323571Y-158257075D02*
X146584757Y-158878431D01*
X146053657Y-157453194D02*
X146323571Y-158257075D01*
X145759702Y-156445335D02*
X146053657Y-157453194D01*
X145151472Y-154261488D02*
X145759702Y-156445335D01*
X143979966Y-154259372D02*
X145151472Y-154261488D01*
X143577122Y-154299268D02*
X143979966Y-154259372D01*
X143021936Y-154428996D02*
X143577122Y-154299268D01*
X141319068Y-155009180D02*
X143021936Y-154428996D01*
X138600410Y-156102390D02*
X141319068Y-155009180D01*
X134595010Y-157811093D02*
X138600410Y-156102390D01*
X128714929Y-160320992D02*
X134595010Y-157811093D01*
X126864391Y-161084479D02*
X128714929Y-160320992D01*
X126111291Y-161364881D02*
X126864391Y-161084479D01*
X126053647Y-161326247D02*
X126111291Y-161364881D01*
X126008625Y-161212283D02*
X126053647Y-161326247D01*
X125956976Y-160770019D02*
X126008625Y-161212283D01*
X125957505Y-160061396D02*
X125956976Y-160770019D01*
X126011120Y-159109721D02*
X125957505Y-160061396D01*
X126165290Y-157350382D02*
X126011120Y-159109721D01*
X126296373Y-156287670D02*
X126165290Y-157350382D01*
X126454842Y-156044971D02*
X126296373Y-156287670D01*
X126864520Y-155569416D02*
X126454842Y-156044971D01*
X128326743Y-154032624D02*
X126864520Y-155569416D01*
X130461533Y-151903046D02*
X128326743Y-154032624D01*
X133047383Y-149406437D02*
X130461533Y-151903046D01*
X138227978Y-144438330D02*
X133047383Y-149406437D01*
X141364187Y-141361450D02*
X138227978Y-144438330D01*
X143044706Y-139631324D02*
X141364187Y-141361450D01*
X142407534Y-136213961D02*
X143044706Y-139631324D01*
X141937309Y-133597946D02*
X142407534Y-136213961D01*
X141568093Y-131260667D02*
X141937309Y-133597946D01*
X141286257Y-129010539D02*
X141568093Y-131260667D01*
X141078159Y-126655978D02*
X141286257Y-129010539D01*
X140930167Y-124005398D02*
X141078159Y-126655978D01*
X140828649Y-120867209D02*
X140930167Y-124005398D01*
X140710481Y-112361670D02*
X140828649Y-120867209D01*
X140598858Y-99307687D02*
X140710481Y-112361670D01*
X133057718Y-99307687D02*
X140598858Y-99307687D01*
X125516577Y-99307687D02*
X133057718Y-99307687D01*
X116333675Y-103311576D02*
X125516577Y-99307687D01*
X108217584Y-106874260D02*
X116333675Y-103311576D01*
X100797519Y-110173444D02*
X108217584Y-106874260D01*
X94971230Y-112807030D02*
X100797519Y-110173444D01*
X91636475Y-114372916D02*
X94971230Y-112807030D01*
X90566884Y-114937164D02*
X91636475Y-114372916D01*
X89477750Y-115564105D02*
X90566884Y-114937164D01*
X88387281Y-116241195D02*
X89477750Y-115564105D01*
X87313689Y-116955895D02*
X88387281Y-116241195D01*
X86275175Y-117695667D02*
X87313689Y-116955895D01*
X85289954Y-118447973D02*
X86275175Y-117695667D01*
X84376232Y-119200268D02*
X85289954Y-118447973D01*
X83552213Y-119940019D02*
X84376232Y-119200268D01*
X82775354Y-120636297D02*
X83552213Y-119940019D01*
X82094542Y-121178926D02*
X82775354Y-120636297D01*
X81583168Y-121513835D02*
X82094542Y-121178926D01*
X81413954Y-121586495D02*
X81583168Y-121513835D01*
X81314624Y-121587024D02*
X81413954Y-121586495D01*
X81200033Y-121424287D02*
X81314624Y-121587024D01*
X81142568Y-121119826D02*
X81200033Y-121424287D01*
X81143097Y-120684388D02*
X81142568Y-121119826D01*
X81202483Y-120128715D02*
X81143097Y-120684388D01*
X81419997Y-119022029D02*
X81202483Y-120128715D01*
X81751282Y-117907792D02*
X81419997Y-119022029D01*
X82195922Y-116786750D02*
X81751282Y-117907792D01*
X82753508Y-115659646D02*
X82195922Y-116786750D01*
X83423621Y-114527221D02*
X82753508Y-115659646D01*
X84205856Y-113390227D02*
X83423621Y-114527221D01*
X85099796Y-112249402D02*
X84205856Y-113390227D01*
X86105027Y-111105495D02*
X85099796Y-112249402D01*
X86792145Y-110464105D02*
X86105027Y-111105495D01*
X88137519Y-109299475D02*
X86792145Y-110464105D01*
X92483793Y-105664426D02*
X88137519Y-109299475D01*
X98505373Y-100728190D02*
X92483793Y-105664426D01*
X105563787Y-95018619D02*
X98505373Y-100728190D01*
X114015436Y-88195203D02*
X105563787Y-95018619D01*
X119484900Y-83702668D02*
X114015436Y-88195203D01*
X121235568Y-82218218D02*
X119484900Y-83702668D01*
X122401804Y-81181768D02*
X121235568Y-82218218D01*
X123037307Y-80548422D02*
X122401804Y-81181768D01*
X123172818Y-80368876D02*
X123037307Y-80548422D01*
X123195784Y-80273266D02*
X123172818Y-80368876D01*
X123037113Y-80083639D02*
X123195784Y-80273266D01*
X122767659Y-79857849D02*
X123037113Y-80083639D01*
X122047019Y-79410788D02*
X122767659Y-79857849D01*
X121650771Y-79174187D02*
X122047019Y-79410788D01*
X121336557Y-78878634D02*
X121650771Y-79174187D01*
X121096149Y-78478147D02*
X121336557Y-78878634D01*
X120921317Y-77926745D02*
X121096149Y-78478147D01*
X120803840Y-77178440D02*
X120921317Y-77926745D01*
X120735487Y-76187255D02*
X120803840Y-77178440D01*
X120713236Y-73292298D02*
X120735487Y-76187255D01*
X125788378Y-73292298D02*
X120713236Y-73292298D01*
X130566382Y-73292298D02*
X125788378Y-73292298D01*
X132538870Y-73292298D02*
X130566382Y-73292298D01*
X135794486Y-70709510D02*
X132538870Y-73292298D01*
X140777127Y-66715955D02*
X135794486Y-70709510D01*
X140955927Y-54648476D02*
X140777127Y-66715955D01*
X141087430Y-48640299D02*
X140955927Y-54648476D01*
X141297988Y-43432606D02*
X141087430Y-48640299D01*
X141597602Y-38946794D02*
X141297988Y-43432606D01*
X141783930Y-36950034D02*
X141597602Y-38946794D01*
X141996274Y-35104267D02*
X141783930Y-36950034D01*
X142235881Y-33399673D02*
X141996274Y-35104267D01*
X142504001Y-31826426D02*
X142235881Y-33399673D01*
X142801885Y-30374699D02*
X142504001Y-31826426D01*
X143130786Y-29034667D02*
X142801885Y-30374699D01*
X143491950Y-27796509D02*
X143130786Y-29034667D01*
X143886632Y-26650395D02*
X143491950Y-27796509D01*
X144316074Y-25586506D02*
X143886632Y-26650395D01*
X144781535Y-24595011D02*
X144316074Y-25586506D01*
X145183013Y-23858433D02*
X144781535Y-24595011D01*
X145593784Y-23218556D02*
X145183013Y-23858433D01*
X146012408Y-22674663D02*
X145593784Y-23218556D01*
X146437451Y-22226038D02*
X146012408Y-22674663D01*
X146867473Y-21871965D02*
X146437451Y-22226038D01*
X147301040Y-21611726D02*
X146867473Y-21871965D01*
X147736713Y-21444604D02*
X147301040Y-21611726D01*
%TD*%
M02*
