%TF.GenerationSoftware,KiCad,Pcbnew,5.1.6-c6e7f7d~86~ubuntu18.04.1*%
%TF.CreationDate,2020-06-23T08:01:43-04:00*%
%TF.ProjectId,aerospace_badge,6165726f-7370-4616-9365-5f6261646765,V02*%
%TF.SameCoordinates,Original*%
%TF.FileFunction,Profile,NP*%
%FSLAX46Y46*%
G04 Gerber Fmt 4.6, Leading zero omitted, Abs format (unit mm)*
G04 Created by KiCad (PCBNEW 5.1.6-c6e7f7d~86~ubuntu18.04.1) date 2020-06-23 08:01:43*
%MOMM*%
%LPD*%
G01*
G04 APERTURE LIST*
%TA.AperFunction,Profile*%
%ADD10C,0.273381*%
%TD*%
G04 APERTURE END LIST*
D10*
%TO.C,J8*%
X147830463Y-21567824D02*
X147394790Y-21734945D01*
X147394790Y-21734945D02*
X146961223Y-21995184D01*
X146961223Y-21995184D02*
X146531201Y-22349257D01*
X146531201Y-22349257D02*
X146106158Y-22797882D01*
X146106158Y-22797882D02*
X145687534Y-23341776D01*
X145687534Y-23341776D02*
X145276763Y-23981652D01*
X145276763Y-23981652D02*
X144875285Y-24718231D01*
X144875285Y-24718231D02*
X144409824Y-25709725D01*
X144409824Y-25709725D02*
X143980382Y-26773615D01*
X143980382Y-26773615D02*
X143585700Y-27919729D01*
X143585700Y-27919729D02*
X143224536Y-29157886D01*
X143224536Y-29157886D02*
X142895635Y-30497919D01*
X142895635Y-30497919D02*
X142597751Y-31949645D01*
X142597751Y-31949645D02*
X142329631Y-33522892D01*
X142329631Y-33522892D02*
X142090024Y-35227486D01*
X142090024Y-35227486D02*
X141877680Y-37073254D01*
X141877680Y-37073254D02*
X141691352Y-39070014D01*
X141691352Y-39070014D02*
X141391738Y-43555826D01*
X141391738Y-43555826D02*
X141181180Y-48763519D01*
X141181180Y-48763519D02*
X141049677Y-54771696D01*
X141049677Y-54771696D02*
X140870877Y-66839175D01*
X140870877Y-66839175D02*
X135888236Y-70832729D01*
X135888236Y-70832729D02*
X132632620Y-73415518D01*
X132632620Y-73415518D02*
X130660132Y-73415518D01*
X130660132Y-73415518D02*
X125882128Y-73415518D01*
X125882128Y-73415518D02*
X120806986Y-73415518D01*
X120806986Y-73415518D02*
X120829237Y-76310475D01*
X120829237Y-76310475D02*
X120897590Y-77301659D01*
X120897590Y-77301659D02*
X121015067Y-78049965D01*
X121015067Y-78049965D02*
X121189899Y-78601367D01*
X121189899Y-78601367D02*
X121430307Y-79001853D01*
X121430307Y-79001853D02*
X121744521Y-79297406D01*
X121744521Y-79297406D02*
X122140769Y-79534007D01*
X122140769Y-79534007D02*
X122861409Y-79981068D01*
X122861409Y-79981068D02*
X123130863Y-80206858D01*
X123130863Y-80206858D02*
X123289534Y-80396485D01*
X123289534Y-80396485D02*
X123266568Y-80492095D01*
X123266568Y-80492095D02*
X123131057Y-80671641D01*
X123131057Y-80671641D02*
X122495554Y-81304988D01*
X122495554Y-81304988D02*
X121329318Y-82341437D01*
X121329318Y-82341437D02*
X119578650Y-83825887D01*
X119578650Y-83825887D02*
X114109186Y-88318422D01*
X114109186Y-88318422D02*
X105657537Y-95141839D01*
X105657537Y-95141839D02*
X98599123Y-100851409D01*
X98599123Y-100851409D02*
X92577543Y-105787645D01*
X92577543Y-105787645D02*
X88231269Y-109422695D01*
X88231269Y-109422695D02*
X86885895Y-110587324D01*
X86885895Y-110587324D02*
X86198777Y-111228714D01*
X86198777Y-111228714D02*
X85193546Y-112372622D01*
X85193546Y-112372622D02*
X84299606Y-113513447D01*
X84299606Y-113513447D02*
X83517371Y-114650441D01*
X83517371Y-114650441D02*
X82847258Y-115782865D01*
X82847258Y-115782865D02*
X82289672Y-116909969D01*
X82289672Y-116909969D02*
X81845032Y-118031011D01*
X81845032Y-118031011D02*
X81513747Y-119145248D01*
X81513747Y-119145248D02*
X81296233Y-120251934D01*
X81296233Y-120251934D02*
X81236847Y-120807607D01*
X81236847Y-120807607D02*
X81236318Y-121243045D01*
X81236318Y-121243045D02*
X81293783Y-121547506D01*
X81293783Y-121547506D02*
X81408374Y-121710244D01*
X81408374Y-121710244D02*
X81507704Y-121709714D01*
X81507704Y-121709714D02*
X81676918Y-121637055D01*
X81676918Y-121637055D02*
X82188292Y-121302145D01*
X82188292Y-121302145D02*
X82869104Y-120759516D01*
X82869104Y-120759516D02*
X83645963Y-120063239D01*
X83645963Y-120063239D02*
X84469982Y-119323488D01*
X84469982Y-119323488D02*
X85383704Y-118571193D01*
X85383704Y-118571193D02*
X86368925Y-117818887D01*
X86368925Y-117818887D02*
X87407439Y-117079115D01*
X87407439Y-117079115D02*
X88481031Y-116364414D01*
X88481031Y-116364414D02*
X89571500Y-115687324D01*
X89571500Y-115687324D02*
X90660634Y-115060383D01*
X90660634Y-115060383D02*
X91730225Y-114496136D01*
X91730225Y-114496136D02*
X95064980Y-112930249D01*
X95064980Y-112930249D02*
X100891269Y-110296664D01*
X100891269Y-110296664D02*
X108311334Y-106997479D01*
X108311334Y-106997479D02*
X116427425Y-103434796D01*
X116427425Y-103434796D02*
X125610327Y-99430906D01*
X125610327Y-99430906D02*
X133151468Y-99430906D01*
X133151468Y-99430906D02*
X140692608Y-99430906D01*
X140692608Y-99430906D02*
X140804231Y-112484890D01*
X140804231Y-112484890D02*
X140922399Y-120990429D01*
X140922399Y-120990429D02*
X141023917Y-124128617D01*
X141023917Y-124128617D02*
X141171909Y-126779197D01*
X141171909Y-126779197D02*
X141380007Y-129133759D01*
X141380007Y-129133759D02*
X141661843Y-131383886D01*
X141661843Y-131383886D02*
X142031059Y-133721165D01*
X142031059Y-133721165D02*
X142501284Y-136337180D01*
X142501284Y-136337180D02*
X143138456Y-139754544D01*
X143138456Y-139754544D02*
X141457937Y-141484670D01*
X141457937Y-141484670D02*
X138321728Y-144561549D01*
X138321728Y-144561549D02*
X133141133Y-149529657D01*
X133141133Y-149529657D02*
X130555283Y-152026265D01*
X130555283Y-152026265D02*
X128420493Y-154155843D01*
X128420493Y-154155843D02*
X126958270Y-155692636D01*
X126958270Y-155692636D02*
X126548592Y-156168190D01*
X126548592Y-156168190D02*
X126390123Y-156410890D01*
X126390123Y-156410890D02*
X126259040Y-157473602D01*
X126259040Y-157473602D02*
X126104870Y-159232941D01*
X126104870Y-159232941D02*
X126051255Y-160184615D01*
X126051255Y-160184615D02*
X126050726Y-160893238D01*
X126050726Y-160893238D02*
X126102375Y-161335502D01*
X126102375Y-161335502D02*
X126147397Y-161449466D01*
X126147397Y-161449466D02*
X126205041Y-161488101D01*
X126205041Y-161488101D02*
X126958141Y-161207698D01*
X126958141Y-161207698D02*
X128808679Y-160444211D01*
X128808679Y-160444211D02*
X134688760Y-157934313D01*
X134688760Y-157934313D02*
X138694160Y-156225610D01*
X138694160Y-156225610D02*
X141412818Y-155132399D01*
X141412818Y-155132399D02*
X143115686Y-154552216D01*
X143115686Y-154552216D02*
X143670872Y-154422488D01*
X143670872Y-154422488D02*
X144073716Y-154382591D01*
X144073716Y-154382591D02*
X145245222Y-154384708D01*
X145245222Y-154384708D02*
X145853452Y-156568555D01*
X145853452Y-156568555D02*
X146147407Y-157576414D01*
X146147407Y-157576414D02*
X146417321Y-158380295D01*
X146417321Y-158380295D02*
X146678507Y-159001650D01*
X146678507Y-159001650D02*
X146946268Y-159461927D01*
X146946268Y-159461927D02*
X147235913Y-159782584D01*
X147235913Y-159782584D02*
X147562750Y-159985064D01*
X147562750Y-159985064D02*
X147942081Y-160090823D01*
X147942081Y-160090823D02*
X148389216Y-160121308D01*
X148389216Y-160121308D02*
X148836351Y-160090839D01*
X148836351Y-160090839D02*
X149215682Y-159985127D01*
X149215682Y-159985127D02*
X149542519Y-159782716D01*
X149542519Y-159782716D02*
X149832166Y-159462141D01*
X149832166Y-159462141D02*
X150099927Y-159001949D01*
X150099927Y-159001949D02*
X150361113Y-158380678D01*
X150361113Y-158380678D02*
X150631028Y-157576871D01*
X150631028Y-157576871D02*
X150924977Y-156569071D01*
X150924977Y-156569071D02*
X151533209Y-154384708D01*
X151533209Y-154384708D02*
X152704713Y-154382591D01*
X152704713Y-154382591D02*
X153107562Y-154422607D01*
X153107562Y-154422607D02*
X153662748Y-154552390D01*
X153662748Y-154552390D02*
X155365617Y-155132555D01*
X155365617Y-155132555D02*
X158084274Y-156225668D01*
X158084274Y-156225668D02*
X162089671Y-157934313D01*
X162089671Y-157934313D02*
X167969748Y-160444465D01*
X167969748Y-160444465D02*
X169820288Y-161208132D01*
X169820288Y-161208132D02*
X170573390Y-161488617D01*
X170573390Y-161488617D02*
X170615724Y-161448107D01*
X170615724Y-161448107D02*
X170649469Y-161332084D01*
X170649469Y-161332084D02*
X170692387Y-160906597D01*
X170692387Y-160906597D02*
X170688365Y-159513420D01*
X170688365Y-159513420D02*
X170580611Y-157838409D01*
X170580611Y-157838409D02*
X170388380Y-156410890D01*
X170388380Y-156410890D02*
X170229908Y-156168190D01*
X170229908Y-156168190D02*
X169820230Y-155692636D01*
X169820230Y-155692636D02*
X168358008Y-154155843D01*
X168358008Y-154155843D02*
X166223222Y-152026265D01*
X166223222Y-152026265D02*
X163637373Y-149529657D01*
X163637373Y-149529657D02*
X158455402Y-144561549D01*
X158455402Y-144561549D02*
X155315917Y-141484670D01*
X155315917Y-141484670D02*
X153630747Y-139754544D01*
X153630747Y-139754544D02*
X154008503Y-137977906D01*
X154008503Y-137977906D02*
X154532629Y-135300143D01*
X154532629Y-135300143D02*
X154967170Y-132587153D01*
X154967170Y-132587153D02*
X155318291Y-129757001D01*
X155318291Y-129757001D02*
X155592153Y-126727752D01*
X155592153Y-126727752D02*
X155794927Y-123417473D01*
X155794927Y-123417473D02*
X155932772Y-119744228D01*
X155932772Y-119744228D02*
X156011859Y-115626084D01*
X156011859Y-115626084D02*
X156038352Y-110981106D01*
X156038352Y-110981106D02*
X156043511Y-99430906D01*
X156043511Y-99430906D02*
X163605321Y-99430906D01*
X163605321Y-99430906D02*
X171167652Y-99430906D01*
X171167652Y-99430906D02*
X180350035Y-103434796D01*
X180350035Y-103434796D02*
X188466208Y-106997479D01*
X188466208Y-106997479D02*
X195886451Y-110296664D01*
X195886451Y-110296664D02*
X201712917Y-112930249D01*
X201712917Y-112930249D02*
X205047754Y-114496136D01*
X205047754Y-114496136D02*
X206117322Y-115060383D01*
X206117322Y-115060383D02*
X207206397Y-115687324D01*
X207206397Y-115687324D02*
X208296782Y-116364414D01*
X208296782Y-116364414D02*
X209370284Y-117079115D01*
X209370284Y-117079115D02*
X210408699Y-117818887D01*
X210408699Y-117818887D02*
X211393838Y-118571193D01*
X211393838Y-118571193D02*
X212307503Y-119323488D01*
X212307503Y-119323488D02*
X213131497Y-120063239D01*
X213131497Y-120063239D02*
X213908438Y-120759511D01*
X213908438Y-120759511D02*
X214589428Y-121302134D01*
X214589428Y-121302134D02*
X215100979Y-121637041D01*
X215100979Y-121637041D02*
X215270249Y-121709706D01*
X215270249Y-121709706D02*
X215369605Y-121710236D01*
X215369605Y-121710236D02*
X215484114Y-121547498D01*
X215484114Y-121547498D02*
X215541399Y-121243037D01*
X215541399Y-121243037D02*
X215540605Y-120807599D01*
X215540605Y-120807599D02*
X215481135Y-120251926D01*
X215481135Y-120251926D02*
X215263613Y-119145002D01*
X215263613Y-119145002D02*
X214932363Y-118030612D01*
X214932363Y-118030612D02*
X214487751Y-116909443D01*
X214487751Y-116909443D02*
X213930142Y-115782191D01*
X213930142Y-115782191D02*
X213259902Y-114649541D01*
X213259902Y-114649541D02*
X212477394Y-113512187D01*
X212477394Y-113512187D02*
X211582986Y-112370817D01*
X211582986Y-112370817D02*
X210577040Y-111226121D01*
X210577040Y-111226121D02*
X209889531Y-110584237D01*
X209889531Y-110584237D02*
X208543913Y-109419136D01*
X208543913Y-109419136D02*
X204197584Y-105783266D01*
X204197584Y-105783266D02*
X198176554Y-100846459D01*
X198176554Y-100846459D02*
X191119315Y-95136663D01*
X191119315Y-95136663D02*
X182696768Y-88335194D01*
X182696768Y-88335194D02*
X177225275Y-83840336D01*
X177225275Y-83840336D02*
X175467573Y-82350341D01*
X175467573Y-82350341D02*
X174293318Y-81307948D01*
X174293318Y-81307948D02*
X173651069Y-80670139D01*
X173651069Y-80670139D02*
X173513372Y-80489510D01*
X173513372Y-80489510D02*
X173489374Y-80393895D01*
X173489374Y-80393895D02*
X173647566Y-80205242D01*
X173647566Y-80205242D02*
X173916702Y-79980275D01*
X173916702Y-79980275D02*
X174637107Y-79533999D01*
X174637107Y-79533999D02*
X175033347Y-79297401D01*
X175033347Y-79297401D02*
X175347558Y-79001851D01*
X175347558Y-79001851D02*
X175587964Y-78601369D01*
X175587964Y-78601369D02*
X175762795Y-78049970D01*
X175762795Y-78049970D02*
X175880276Y-77301670D01*
X175880276Y-77301670D02*
X175948631Y-76310483D01*
X175948631Y-76310483D02*
X175970882Y-73415510D01*
X175970882Y-73415510D02*
X168092811Y-73415510D01*
X168092811Y-73415510D02*
X166154944Y-73415510D01*
X166154944Y-73415510D02*
X164093573Y-73415510D01*
X164093573Y-73415510D02*
X160951127Y-70899902D01*
X160951127Y-70899902D02*
X155781417Y-66761652D01*
X155781417Y-66761652D02*
X155775226Y-57467130D01*
X155775226Y-57467130D02*
X155739084Y-52535961D01*
X155739084Y-52535961D02*
X155635524Y-48062841D01*
X155635524Y-48062841D02*
X155461822Y-44014452D01*
X155461822Y-44014452D02*
X155215246Y-40357479D01*
X155215246Y-40357479D02*
X154893068Y-37058604D01*
X154893068Y-37058604D02*
X154492563Y-34084510D01*
X154492563Y-34084510D02*
X154011000Y-31401878D01*
X154011000Y-31401878D02*
X153445655Y-28977395D01*
X153445655Y-28977395D02*
X152939496Y-27260107D01*
X152939496Y-27260107D02*
X152387382Y-25760014D01*
X152387382Y-25760014D02*
X151795366Y-24480124D01*
X151795366Y-24480124D02*
X151169497Y-23423447D01*
X151169497Y-23423447D02*
X150845758Y-22979749D01*
X150845758Y-22979749D02*
X150515828Y-22592984D01*
X150515828Y-22592984D02*
X150180461Y-22263522D01*
X150180461Y-22263522D02*
X149840413Y-21991745D01*
X149840413Y-21991745D02*
X149496442Y-21778022D01*
X149496442Y-21778022D02*
X149149300Y-21622735D01*
X149149300Y-21622735D02*
X148799749Y-21526258D01*
X148799749Y-21526258D02*
X148423350Y-21485422D01*
X148423350Y-21485422D02*
X147830463Y-21567824D01*
%TD*%
M02*
